<svg version="1.1" id="Layer_1" xmlns:x="ns_extend;" xmlns:i="ns_ai;" xmlns:graph="ns_graphs;" inkscape:version="1.0.2 (e86c870879, 2021-01-15)" xmlns:cc="http://creativecommons.org/ns#" xmlns:dc="http://purl.org/dc/elements/1.1/" xmlns:inkscape="http://www.inkscape.org/namespaces/inkscape" xmlns:rdf="http://www.w3.org/1999/02/22-rdf-syntax-ns#" xmlns:sodipodi="http://sodipodi.sourceforge.net/DTD/sodipodi-0.dtd" xmlns:svg="http://www.w3.org/2000/svg" xmlns="http://www.w3.org/2000/svg" xmlns:xlink="http://www.w3.org/1999/xlink" x="0px" y="0px" viewBox="0 0 262.3 85" style="enable-background:new 0 0 262.3 85;" xml:space="preserve">
 <style type="text/css">
  .st0{fill:#1434CB;}
 </style>
 <metadata id="metadata3739">
  <rdf:RDF>
   <cc:Work rdf:about="">
    <dc:format>
     image/svg+xml
    </dc:format>
    <dc:type rdf:resource="http://purl.org/dc/dcmitype/StillImage">
    </dc:type>
    <dc:title>
    </dc:title>
   </cc:Work>
  </rdf:RDF>
  <sfw xmlns="ns_sfw;">
   <slices>
   </slices>
   <sliceSourceBounds bottomLeftOrigin="true" height="85" width="262.3" x="737.2" y="0.5">
   </sliceSourceBounds>
  </sfw>
 </metadata>
 <sodipodi:namedview bordercolor="#666666" borderopacity="1" fit-margin-bottom="0.5" fit-margin-left="0.5" fit-margin-right="0.5" fit-margin-top="0.5" gridtolerance="10" guidetolerance="10" id="namedview3735" inkscape:current-layer="Layer_1" inkscape:cx="473.80866" inkscape:cy="-26.853447" inkscape:document-rotation="0" inkscape:pageopacity="0" inkscape:pageshadow="2" inkscape:window-height="705" inkscape:window-maximized="1" inkscape:window-width="1366" inkscape:window-x="-8" inkscape:window-y="-8" inkscape:zoom="0.49497088" objecttolerance="10" pagecolor="#ffffff" showgrid="false">
  <inkscape:grid empspacing="5" enabled="true" id="grid3787" snapvisiblegridlinesonly="true" type="xygrid" visible="true">
  </inkscape:grid>
 </sodipodi:namedview>
 <path id="path3789" inkscape:connector-curvature="0" class="st0" d="M170.9,0c-18.6,0-35.3,9.7-35.3,27.5
	c0,20.5,29.5,21.9,29.5,32.1c0,4.3-5,8.2-13.4,8.2c-12,0-21-5.4-21-5.4l-3.8,18c0,0,10.3,4.6,24.1,4.6c20.4,0,36.4-10.1,36.4-28.3
	c0-21.6-29.6-23-29.6-32.5c0-3.4,4.1-7.1,12.5-7.1c9.5,0,17.3,3.9,17.3,3.9l3.8-17.4C191.3,3.6,182.8,0,170.9,0L170.9,0z M0.5,1.3
	L0,3.9c0,0,7.8,1.4,14.9,4.3c9.1,3.3,9.7,5.2,11.3,11.1l16.7,64.3h22.4L99.6,1.3H77.3l-22.1,56l-9-47.5c-0.8-5.4-5-8.5-10.2-8.5
	C36,1.3,0.5,1.3,0.5,1.3z M108.6,1.3L91.1,83.6h21.3l17.4-82.3L108.6,1.3L108.6,1.3z M227.2,1.3c-5.1,0-7.8,2.7-9.8,7.5l-31.2,74.8
	h22.3l4.3-12.5H240l2.6,12.5h19.7L245.2,1.3L227.2,1.3L227.2,1.3z M230.1,23.6l6.6,30.9H219L230.1,23.6L230.1,23.6z">
 </path>
</svg>