<svg width="80" height="80" viewBox="0 0 80 80" fill="none" xmlns="http://www.w3.org/2000/svg">
<rect width="80" height="80" rx="10" fill="#EDF2F7"/>
<path d="M54.1336 36.983C52.9347 36.7661 51.7185 36.6601 50.5002 36.6663C49.8002 36.6663 49.1169 36.6663 48.4336 36.7997C47.5828 35.6645 46.497 34.7264 45.2502 34.0497C46.3211 32.8801 46.9157 31.3521 46.9169 29.7663C46.9169 28.0601 46.2391 26.4238 45.0326 25.2173C43.8261 24.0108 42.1898 23.333 40.4836 23.333C38.7773 23.333 37.141 24.0108 35.9345 25.2173C34.728 26.4238 34.0502 28.0601 34.0502 29.7663C34.0514 31.3521 34.646 32.8801 35.7169 34.0497C34.4775 34.7299 33.3934 35.6608 32.5336 36.783C31.8836 36.6663 31.2002 36.6663 30.5002 36.6663C29.2809 36.6711 28.0647 36.7882 26.8669 37.0163C26.4786 37.0873 26.1282 37.2938 25.8779 37.599C25.6276 37.9042 25.4938 38.2884 25.5002 38.683V52.433C25.4998 52.6779 25.5534 52.9198 25.6571 53.1416C25.7608 53.3634 25.9121 53.5596 26.1002 53.7163C26.2872 53.874 26.5065 53.9885 26.7427 54.0519C26.9789 54.1153 27.2261 54.1259 27.4669 54.083C28.4642 53.8658 29.4798 53.743 30.5002 53.7163C33.7287 53.7128 36.8872 54.6574 39.5836 56.433L39.8002 56.5163C40.0213 56.6123 40.2592 56.6633 40.5002 56.6663C40.6593 56.6644 40.817 56.6362 40.9669 56.583H41.0836L41.3002 56.4997C44.0223 54.6785 47.2251 53.7095 50.5002 53.7163C51.5185 53.7211 52.5341 53.8215 53.5336 54.0163C53.7743 54.0592 54.0215 54.0486 54.2577 53.9852C54.4939 53.9219 54.7133 53.8073 54.9002 53.6497C55.0884 53.493 55.2397 53.2967 55.3434 53.0749C55.4471 52.8531 55.5006 52.6112 55.5002 52.3663V38.6163C55.4988 38.2274 55.3614 37.8512 55.1118 37.5529C54.8622 37.2546 54.5161 37.053 54.1336 36.983ZM40.5002 26.6663C41.281 26.7237 42.0111 27.0743 42.544 27.6478C43.0769 28.2213 43.3731 28.9752 43.3731 29.758C43.3731 30.5409 43.0769 31.2947 42.544 31.8682C42.0111 32.4417 41.281 32.7923 40.5002 32.8497C39.7195 32.7923 38.9893 32.4417 38.4565 31.8682C37.9236 31.2947 37.6274 30.5409 37.6274 29.758C37.6274 28.9752 37.9236 28.2213 38.4565 27.6478C38.9893 27.0743 39.7195 26.7237 40.5002 26.6663ZM38.8336 52.2163C36.2213 51.0089 33.378 50.3833 30.5002 50.383C29.9502 50.383 29.4002 50.383 28.8336 50.4663V39.9997C30.2312 39.8433 31.6433 39.8713 33.0336 40.083H33.2169C35.2029 40.448 37.106 41.1709 38.8336 42.2163V52.2163ZM40.5002 39.333C39.7591 38.9055 38.9908 38.5269 38.2002 38.1997H38.1002C37.5502 37.983 37.0002 37.7663 36.4336 37.5997C37.5907 36.6786 39.0214 36.1685 40.5002 36.1497C41.9752 36.159 43.4054 36.6573 44.5669 37.5663C43.152 38.0081 41.7887 38.6003 40.5002 39.333ZM52.1669 50.4663C48.7446 50.1225 45.2926 50.6978 42.1669 52.133V42.133C43.8975 41.1143 45.8019 40.4249 47.7836 40.0997H48.1169C49.4569 39.891 50.8183 39.8574 52.1669 39.9997V50.4663Z" fill="#477DB3"/>
</svg>
