<svg width="16" height="16" viewBox="0 0 16 16" fill="none" xmlns="http://www.w3.org/2000/svg">
<path d="M5.33337 8C5.33337 8.17682 5.40361 8.34639 5.52864 8.47141C5.65366 8.59643 5.82323 8.66667 6.00004 8.66667H10C10.1769 8.66667 10.3464 8.59643 10.4714 8.47141C10.5965 8.34639 10.6667 8.17682 10.6667 8C10.6667 7.82319 10.5965 7.65362 10.4714 7.5286C10.3464 7.40358 10.1769 7.33334 10 7.33334H6.00004C5.82323 7.33334 5.65366 7.40358 5.52864 7.5286C5.40361 7.65362 5.33337 7.82319 5.33337 8ZM6.66671 10H4.66671C4.13627 10 3.62757 9.78929 3.25249 9.41422C2.87742 9.03915 2.66671 8.53044 2.66671 8C2.66671 7.46957 2.87742 6.96086 3.25249 6.58579C3.62757 6.21072 4.13627 6.00001 4.66671 6.00001H6.66671C6.84352 6.00001 7.01309 5.92977 7.13811 5.80474C7.26314 5.67972 7.33337 5.51015 7.33337 5.33334C7.33337 5.15653 7.26314 4.98696 7.13811 4.86193C7.01309 4.73691 6.84352 4.66667 6.66671 4.66667H4.66671C3.78265 4.66667 2.93481 5.01786 2.30968 5.64298C1.68456 6.2681 1.33337 7.11595 1.33337 8C1.33337 8.88406 1.68456 9.73191 2.30968 10.357C2.93481 10.9821 3.78265 11.3333 4.66671 11.3333H6.66671C6.84352 11.3333 7.01309 11.2631 7.13811 11.1381C7.26314 11.0131 7.33337 10.8435 7.33337 10.6667C7.33337 10.4899 7.26314 10.3203 7.13811 10.1953C7.01309 10.0702 6.84352 10 6.66671 10ZM11.3334 4.66667H9.33337C9.15656 4.66667 8.98699 4.73691 8.86197 4.86193C8.73695 4.98696 8.66671 5.15653 8.66671 5.33334C8.66671 5.51015 8.73695 5.67972 8.86197 5.80474C8.98699 5.92977 9.15656 6.00001 9.33337 6.00001H11.3334C11.8638 6.00001 12.3725 6.21072 12.7476 6.58579C13.1227 6.96086 13.3334 7.46957 13.3334 8C13.3334 8.53044 13.1227 9.03915 12.7476 9.41422C12.3725 9.78929 11.8638 10 11.3334 10H9.33337C9.15656 10 8.98699 10.0702 8.86197 10.1953C8.73695 10.3203 8.66671 10.4899 8.66671 10.6667C8.66671 10.8435 8.73695 11.0131 8.86197 11.1381C8.98699 11.2631 9.15656 11.3333 9.33337 11.3333H11.3334C12.2174 11.3333 13.0653 10.9821 13.6904 10.357C14.3155 9.73191 14.6667 8.88406 14.6667 8C14.6667 7.11595 14.3155 6.2681 13.6904 5.64298C13.0653 5.01786 12.2174 4.66667 11.3334 4.66667Z" fill="#32587D"/>
</svg>
