<svg width="218" height="56" viewBox="0 0 218 56" fill="none" xmlns="http://www.w3.org/2000/svg">
<path d="M0.00211249 28.4711C-0.051033 32.5815 0.899515 36.6248 2.74879 40.258C3.68961 42.1064 5.91473 42.9639 7.65748 41.8394C11.5231 39.3451 14.1676 34.2943 14.1676 28.4711C14.1676 22.6505 11.5326 17.6123 7.68128 15.1155C5.94135 13.9875 3.71449 14.8385 2.76925 16.6841C0.910011 20.3144 -0.0478386 24.3584 0.00211249 28.4711Z" fill="#477DB3"/>
<g style="mix-blend-mode:overlay" opacity="0.1">
<path d="M6.6308 19.0283C4.91282 17.0798 1.98497 18.1103 1.21227 20.5905C0.419969 23.1335 0.0130615 25.79 0.0130615 28.4711C0.0130615 31.1536 0.420422 33.8116 1.21359 36.3559C1.98616 38.8341 4.91182 39.8662 6.63 37.9203C8.68867 35.5889 9.98383 32.2246 9.98383 28.4711C9.98383 24.721 8.68619 21.3595 6.6308 19.0283Z" fill="white"/>
</g>
<g style="mix-blend-mode:multiply" opacity="0.2">
<path d="M13.848 25.0109C13.415 22.7099 11.9018 24.1479 12.1317 26.478C12.1962 27.1309 12.2294 27.7961 12.2294 28.4711C12.2294 29.1217 12.1986 29.7631 12.1389 30.3931C11.9177 32.7253 13.437 34.1632 13.8612 31.8592C14.0617 30.7705 14.1676 29.6364 14.1676 28.4711C14.1676 27.2803 14.057 26.1218 13.848 25.0109Z" fill="#477DB3"/>
</g>
<path d="M42.5265 33.3865L42.0405 33.2748C40.6892 32.9836 39.2816 33.1048 37.9999 33.6226C36.7182 34.1405 35.6214 35.0312 34.8517 36.1794C32.8296 39.1845 29.7798 40.553 26.2273 40.553C24.8096 40.5649 23.4003 40.3344 22.0603 39.8716C20.4821 39.2965 18.7466 39.3271 17.1897 39.9576C15.6327 40.588 14.3649 41.7734 13.6314 43.2845C13.209 44.1538 12.9783 45.1036 12.9549 46.0698C12.9315 47.0359 13.1159 47.9959 13.4957 48.8846C13.8754 49.7733 14.4416 50.5701 15.156 51.221C15.8704 51.8719 16.7162 52.3617 17.6364 52.6574C20.4172 53.5247 23.3143 53.9617 26.2273 53.9533C34.6059 53.9533 42.0517 50.3561 46.6153 44.3011C47.3125 43.3723 47.7645 42.2829 47.9297 41.1334C48.0949 39.9839 47.9679 38.8113 47.5605 37.7238C47.1531 36.6363 46.4784 35.6689 45.5986 34.9109C44.7188 34.1529 43.6623 33.6286 42.5265 33.3865Z" fill="#477DB3"/>
<path d="M13.6314 13.6911C14.3693 15.2051 15.6425 16.3916 17.2046 17.021C18.7668 17.6504 20.5069 17.678 22.0882 17.0985C23.4183 16.6339 24.8184 16.4014 26.2273 16.4114C29.6625 16.4114 32.6286 17.7408 34.5445 20.5672C35.331 21.7679 36.4655 22.6997 37.7962 23.2378C39.1269 23.7759 40.5903 23.8945 41.9903 23.5779L42.5489 23.4383C43.6714 23.1705 44.7091 22.626 45.5673 21.8545C46.4255 21.0829 47.077 20.1089 47.4624 19.0211C47.8477 17.9333 47.9547 16.7663 47.7736 15.6266C47.5925 14.4868 47.129 13.4105 46.4254 12.4958C41.7892 6.52461 34.3713 3 26.2105 3C23.2989 3.00516 20.4053 3.45729 17.6308 4.34058C16.7125 4.63775 15.8685 5.12834 15.1558 5.77926C14.4431 6.43018 13.8782 7.22632 13.4992 8.11402C13.1202 9.00172 12.9359 9.96034 12.9587 10.9253C12.9815 11.8902 13.2109 12.8391 13.6314 13.7079V13.6911Z" fill="#477DB3"/>
<g style="mix-blend-mode:multiply" opacity="0.5">
<g style="mix-blend-mode:multiply" opacity="0.5">
<path d="M42.4204 33.3865L42.0405 33.3028C40.692 33.0087 39.2863 33.1257 38.0049 33.6384C36.7234 34.1512 35.6251 35.0363 34.8517 36.1794C32.8296 39.1846 29.7798 40.5531 26.2272 40.5531C24.8096 40.5649 23.4003 40.3344 22.0603 39.8716C20.867 39.4424 19.5778 39.3535 18.3368 39.6149C17.0959 39.8763 15.9521 40.4777 15.0334 41.3518C17.1759 43.2081 19.7493 44.4979 22.5186 45.1037C25.288 45.7095 28.1649 45.6119 30.8868 44.8198C33.6086 44.0277 36.0887 42.5663 38.1005 40.5691C40.1123 38.5719 41.5917 36.1026 42.4036 33.3865H42.4204Z" fill="#477DB3"/>
</g>
<g style="mix-blend-mode:multiply" opacity="0.5">
<path d="M15.072 15.6574C15.9951 16.5206 17.1388 17.112 18.3768 17.3663C19.6148 17.6206 20.899 17.5279 22.0877 17.0985C23.4178 16.6339 24.8179 16.4015 26.2267 16.4114C29.662 16.4114 32.628 17.7408 34.5439 20.5672C35.3304 21.768 36.465 22.6997 37.7957 23.2378C39.1264 23.7759 40.5897 23.8946 41.9897 23.578L42.3696 23.4886C41.5352 20.7973 40.0438 18.356 38.0299 16.3853C36.0161 14.4145 33.5432 12.9763 30.8345 12.2003C28.1257 11.4243 25.2664 11.335 22.5145 11.9405C19.7626 12.546 17.2048 13.8272 15.072 15.6685V15.6574Z" fill="#477DB3"/>
</g>
</g>
<g style="mix-blend-mode:overlay" opacity="0.3">
<g style="mix-blend-mode:overlay" opacity="0.3">
<path d="M26.1658 52.0653C21.5879 52.0709 17.1085 50.7369 13.2794 48.2279C13.5958 49.2609 14.1588 50.2014 14.9198 50.9683C15.6808 51.7351 16.6169 52.3052 17.6475 52.6295C20.4283 53.4968 23.3254 53.9338 26.2384 53.9254C34.617 53.9254 42.0628 50.3281 46.6264 44.2732C47.2805 43.4079 47.7173 42.3982 47.9 41.3289C48.0827 40.2597 48.0061 39.1623 47.6765 38.1288C45.8193 42.2806 42.7997 45.8059 38.9826 48.2789C35.1655 50.752 30.714 52.0671 26.1658 52.0653Z" fill="white"/>
</g>
<g style="mix-blend-mode:overlay" opacity="0.3">
<path d="M26.1658 4.94383C30.6785 4.94394 35.0961 6.24 38.8936 8.6779C42.6911 11.1158 45.7085 14.593 47.5872 18.696C47.9165 17.6492 47.9869 16.5382 47.7924 15.4583C47.5978 14.3783 47.144 13.3618 46.47 12.4958C41.8339 6.52461 34.416 3 26.2552 3C23.3285 3.00058 20.4195 3.45276 17.6308 4.34058C16.5901 4.66876 15.6462 5.24809 14.8825 6.02742C14.1188 6.80675 13.5586 7.76212 13.2515 8.80919C17.0842 6.28238 21.5752 4.93818 26.1658 4.94383Z" fill="white"/>
</g>
</g>
<path d="M81.425 15.03C82.355 15.51 82.82 16.275 82.82 17.325C82.82 17.955 82.595 18.57 82.145 19.17C81.665 19.8 81.05 20.115 80.3 20.115C79.79 20.115 79.28 19.98 78.77 19.71C77.3 19.02 75.71 18.675 74 18.675C71.9 18.675 70.07 19.125 68.51 20.025C66.95 20.895 65.75 22.14 64.91 23.76C64.07 25.35 63.65 27.18 63.65 29.25C63.65 32.79 64.595 35.475 66.485 37.305C68.405 39.135 70.91 40.05 74 40.05C75.83 40.05 77.42 39.705 78.77 39.015C79.31 38.775 79.79 38.655 80.21 38.655C80.99 38.655 81.65 38.985 82.19 39.645C82.64 40.215 82.865 40.83 82.865 41.49C82.865 41.97 82.745 42.405 82.505 42.795C82.265 43.185 81.92 43.485 81.47 43.695C79.13 44.865 76.64 45.45 74 45.45C71.06 45.45 68.36 44.835 65.9 43.605C63.44 42.345 61.475 40.5 60.005 38.07C58.535 35.64 57.8 32.7 57.8 29.25C57.8 26.19 58.49 23.445 59.87 21.015C61.28 18.585 63.215 16.695 65.675 15.345C68.135 13.965 70.91 13.275 74 13.275C76.67 13.275 79.145 13.86 81.425 15.03ZM110.268 32.985C110.268 35.385 109.728 37.545 108.648 39.465C107.568 41.355 106.083 42.825 104.193 43.875C102.333 44.925 100.278 45.45 98.0279 45.45C95.7479 45.45 93.6779 44.925 91.8179 43.875C89.9579 42.825 88.4879 41.355 87.4079 39.465C86.3279 37.545 85.7879 35.385 85.7879 32.985C85.7879 30.585 86.3279 28.44 87.4079 26.55C88.4879 24.63 89.9579 23.145 91.8179 22.095C93.6779 21.015 95.7479 20.475 98.0279 20.475C100.278 20.475 102.333 21.015 104.193 22.095C106.083 23.145 107.568 24.63 108.648 26.55C109.728 28.44 110.268 30.585 110.268 32.985ZM104.868 32.985C104.868 31.515 104.553 30.21 103.923 29.07C103.323 27.9 102.498 27 101.448 26.37C100.428 25.74 99.2879 25.425 98.0279 25.425C96.7679 25.425 95.6129 25.74 94.5629 26.37C93.5429 27 92.7179 27.9 92.0879 29.07C91.4879 30.21 91.1879 31.515 91.1879 32.985C91.1879 34.455 91.4879 35.76 92.0879 36.9C92.7179 38.04 93.5429 38.925 94.5629 39.555C95.6129 40.185 96.7679 40.5 98.0279 40.5C99.2879 40.5 100.428 40.185 101.448 39.555C102.498 38.925 103.323 38.04 103.923 36.9C104.553 35.76 104.868 34.455 104.868 32.985ZM127.649 20.475C130.709 20.475 132.824 21.39 133.994 23.22C135.164 25.02 135.749 27.525 135.749 30.735V42.255C135.749 43.035 135.494 43.695 134.984 44.235C134.474 44.745 133.829 45 133.049 45C132.269 45 131.624 44.745 131.114 44.235C130.604 43.695 130.349 43.035 130.349 42.255V30.735C130.349 29.085 130.004 27.795 129.314 26.865C128.624 25.905 127.439 25.425 125.759 25.425C124.019 25.425 122.654 25.935 121.664 26.955C120.674 27.945 120.179 29.205 120.179 30.735V42.255C120.179 43.035 119.924 43.695 119.414 44.235C118.904 44.745 118.259 45 117.479 45C116.699 45 116.054 44.745 115.544 44.235C115.034 43.695 114.779 43.035 114.779 42.255V23.67C114.779 22.89 115.034 22.245 115.544 21.735C116.054 21.195 116.699 20.925 117.479 20.925C118.259 20.925 118.904 21.195 119.414 21.735C119.924 22.245 120.179 22.89 120.179 23.67V24.435C120.989 23.355 122.039 22.425 123.329 21.645C124.649 20.865 126.089 20.475 127.649 20.475ZM159.861 20.97C160.581 20.97 161.181 21.21 161.661 21.69C162.141 22.14 162.381 22.71 162.381 23.4C162.381 23.76 162.261 24.21 162.021 24.75L153.606 43.29C153.396 43.8 153.081 44.205 152.661 44.505C152.271 44.805 151.821 44.97 151.311 45L150.906 45.045C150.396 45.045 149.916 44.895 149.466 44.595C149.046 44.265 148.716 43.83 148.476 43.29L140.106 24.75C139.896 24.27 139.791 23.79 139.791 23.31C139.791 22.71 140.046 22.17 140.556 21.69C141.066 21.18 141.696 20.925 142.446 20.925C143.016 20.925 143.541 21.075 144.021 21.375C144.501 21.675 144.861 22.095 145.101 22.635L151.311 36.855L157.476 22.68C157.716 22.11 158.046 21.675 158.466 21.375C158.886 21.075 159.351 20.94 159.861 20.97ZM189.545 32.985C189.545 35.385 189.005 37.545 187.925 39.465C186.845 41.355 185.36 42.825 183.47 43.875C181.61 44.925 179.555 45.45 177.305 45.45C175.025 45.45 172.955 44.925 171.095 43.875C169.235 42.825 167.765 41.355 166.685 39.465C165.605 37.545 165.065 35.385 165.065 32.985C165.065 30.585 165.605 28.44 166.685 26.55C167.765 24.63 169.235 23.145 171.095 22.095C172.955 21.015 175.025 20.475 177.305 20.475C179.555 20.475 181.61 21.015 183.47 22.095C185.36 23.145 186.845 24.63 187.925 26.55C189.005 28.44 189.545 30.585 189.545 32.985ZM184.145 32.985C184.145 31.515 183.83 30.21 183.2 29.07C182.6 27.9 181.775 27 180.725 26.37C179.705 25.74 178.565 25.425 177.305 25.425C176.045 25.425 174.89 25.74 173.84 26.37C172.82 27 171.995 27.9 171.365 29.07C170.765 30.21 170.465 31.515 170.465 32.985C170.465 34.455 170.765 35.76 171.365 36.9C171.995 38.04 172.82 38.925 173.84 39.555C174.89 40.185 176.045 40.5 177.305 40.5C178.565 40.5 179.705 40.185 180.725 39.555C181.775 38.925 182.6 38.04 183.2 36.9C183.83 35.76 184.145 34.455 184.145 32.985ZM211.922 20.925C212.702 20.925 213.347 21.195 213.857 21.735C214.367 22.245 214.622 22.89 214.622 23.67V42.795C214.622 46.695 213.572 49.53 211.472 51.3C209.372 53.1 206.567 54 203.057 54C202.037 54 200.987 53.91 199.907 53.73C198.857 53.58 198.002 53.37 197.342 53.1C195.872 52.47 195.137 51.6 195.137 50.49C195.137 50.28 195.182 50.04 195.272 49.77C195.452 49.11 195.752 48.6 196.172 48.24C196.622 47.91 197.102 47.745 197.612 47.745C197.912 47.745 198.197 47.79 198.467 47.88C198.677 47.97 199.037 48.12 199.547 48.33C200.087 48.54 200.642 48.705 201.212 48.825C201.812 48.975 202.427 49.05 203.057 49.05C205.187 49.05 206.747 48.585 207.737 47.655C208.757 46.755 209.267 45.195 209.267 42.975V42.525C207.707 44.475 205.277 45.45 201.977 45.45C200.417 45.45 199.037 45.09 197.837 44.37C196.637 43.62 195.707 42.6 195.047 41.31C194.387 39.99 194.057 38.49 194.057 36.81V23.67C194.057 22.89 194.312 22.245 194.822 21.735C195.332 21.195 195.977 20.925 196.757 20.925C197.537 20.925 198.182 21.195 198.692 21.735C199.202 22.245 199.457 22.89 199.457 23.67V35.19C199.457 37.08 199.862 38.445 200.672 39.285C201.512 40.095 202.727 40.5 204.317 40.5C205.877 40.5 207.077 40.05 207.917 39.15C208.787 38.22 209.222 36.9 209.222 35.19V23.67C209.222 22.89 209.477 22.245 209.987 21.735C210.497 21.195 211.142 20.925 211.922 20.925Z" fill="#3A6DA6"/>
</svg>
