<svg width="18" height="18" viewBox="0 0 18 18" fill="none" xmlns="http://www.w3.org/2000/svg">
<path d="M8.20514 4.5599C8.46821 4.51957 8.73399 4.49951 9.00014 4.4999C11.3851 4.4999 13.6276 6.21739 14.9326 8.99989C14.7331 9.42334 14.5076 9.83411 14.2576 10.2299C14.1783 10.3528 14.1366 10.4961 14.1376 10.6424C14.1393 10.8061 14.1945 10.9647 14.2947 11.0941C14.395 11.2235 14.5348 11.3165 14.6929 11.359C14.851 11.4015 15.0186 11.3911 15.1702 11.3294C15.3218 11.2678 15.4491 11.1582 15.5326 11.0174C15.8821 10.4683 16.1856 9.89138 16.4401 9.29239C16.4804 9.19881 16.5011 9.09801 16.5011 8.99614C16.5011 8.89428 16.4804 8.79348 16.4401 8.69989C14.9251 5.18239 12.0751 2.99989 9.00014 2.99989C8.64814 2.99812 8.2967 3.02824 7.95014 3.08989C7.85165 3.10664 7.75742 3.14262 7.67283 3.19578C7.58824 3.24894 7.51496 3.31824 7.45715 3.39972C7.39935 3.4812 7.35816 3.57328 7.33594 3.67068C7.31371 3.76808 7.3109 3.8689 7.32764 3.96739C7.34438 4.06589 7.38036 4.16012 7.43352 4.2447C7.48668 4.32929 7.55598 4.40258 7.63747 4.46038C7.71895 4.51819 7.81102 4.55937 7.90842 4.5816C8.00582 4.60382 8.10665 4.60664 8.20514 4.58989V4.5599ZM2.78264 1.71739C2.71271 1.64747 2.62969 1.592 2.53833 1.55415C2.44696 1.5163 2.34903 1.49683 2.25014 1.49683C2.15124 1.49683 2.05332 1.5163 1.96195 1.55415C1.87059 1.592 1.78757 1.64747 1.71764 1.71739C1.57641 1.85862 1.49707 2.05017 1.49707 2.24989C1.49707 2.44962 1.57641 2.64117 1.71764 2.78239L4.04264 5.0999C2.98182 6.12104 2.13753 7.34539 1.56014 8.69989C1.51884 8.79452 1.49753 8.89665 1.49753 8.99989C1.49753 9.10314 1.51884 9.20527 1.56014 9.29989C3.07514 12.8174 5.92514 14.9999 9.00014 14.9999C10.348 14.9906 11.664 14.5893 12.7876 13.8449L15.2176 16.2824C15.2874 16.3527 15.3703 16.4085 15.4617 16.4466C15.5531 16.4846 15.6511 16.5042 15.7501 16.5042C15.8491 16.5042 15.9472 16.4846 16.0386 16.4466C16.13 16.4085 16.2129 16.3527 16.2826 16.2824C16.3529 16.2127 16.4087 16.1297 16.4468 16.0383C16.4849 15.9469 16.5045 15.8489 16.5045 15.7499C16.5045 15.6509 16.4849 15.5529 16.4468 15.4615C16.4087 15.3701 16.3529 15.2871 16.2826 15.2174L2.78264 1.71739ZM7.55264 8.60989L9.39014 10.4474C9.26338 10.4837 9.132 10.5014 9.00014 10.4999C8.60231 10.4999 8.22078 10.3419 7.93948 10.0606C7.65817 9.77925 7.50014 9.39772 7.50014 8.99989C7.4986 8.86803 7.51629 8.73665 7.55264 8.60989ZM9.00014 13.4999C6.61514 13.4999 4.37264 11.7824 3.07514 8.99989C3.55971 7.93021 4.24744 6.96483 5.10014 6.15739L6.42764 7.49989C6.11582 8.06899 5.99694 8.72385 6.08883 9.36624C6.18072 10.0086 6.47843 10.6039 6.93728 11.0627C7.39614 11.5216 7.99141 11.8193 8.6338 11.9112C9.27618 12.0031 9.93104 11.8842 10.5001 11.5724L11.6926 12.7499C10.876 13.2306 9.94771 13.4891 9.00014 13.4999Z" fill="#1E1147" fill-opacity="0.48"/>
</svg>
