<svg width="16" height="16" viewBox="0 0 16 16" fill="none" xmlns="http://www.w3.org/2000/svg">
<path d="M11.3335 6.11378C11.2086 5.98962 11.0396 5.91992 10.8635 5.91992C10.6873 5.91992 10.5184 5.98962 10.3935 6.11378L8.00013 8.47378L5.64013 6.11378C5.51522 5.98962 5.34625 5.91992 5.17013 5.91992C4.994 5.91992 4.82504 5.98962 4.70013 6.11378C4.63764 6.17576 4.58805 6.24949 4.5542 6.33073C4.52036 6.41197 4.50293 6.49911 4.50293 6.58712C4.50293 6.67512 4.52036 6.76226 4.5542 6.8435C4.58805 6.92474 4.63764 6.99848 4.70013 7.06045L7.52679 9.88712C7.58877 9.9496 7.6625 9.9992 7.74374 10.033C7.82498 10.0669 7.91212 10.0843 8.00013 10.0843C8.08814 10.0843 8.17527 10.0669 8.25651 10.033C8.33775 9.9992 8.41149 9.9496 8.47346 9.88712L11.3335 7.06045C11.3959 6.99848 11.4455 6.92474 11.4794 6.8435C11.5132 6.76226 11.5307 6.67512 11.5307 6.58712C11.5307 6.49911 11.5132 6.41197 11.4794 6.33073C11.4455 6.24949 11.3959 6.17576 11.3335 6.11378Z" fill="#737A91"/>
</svg>
