<svg width="20" height="20" viewBox="0 0 20 20" fill="none" xmlns="http://www.w3.org/2000/svg">
<path d="M8.33332 10.8333H2.49999C2.27898 10.8333 2.06701 10.9211 1.91073 11.0774C1.75445 11.2337 1.66666 11.4457 1.66666 11.6667V17.5C1.66666 17.721 1.75445 17.933 1.91073 18.0893C2.06701 18.2455 2.27898 18.3333 2.49999 18.3333H8.33332C8.55434 18.3333 8.7663 18.2455 8.92258 18.0893C9.07886 17.933 9.16666 17.721 9.16666 17.5V11.6667C9.16666 11.4457 9.07886 11.2337 8.92258 11.0774C8.7663 10.9211 8.55434 10.8333 8.33332 10.8333ZM7.49999 16.6667H3.33332V12.5H7.49999V16.6667ZM17.5 1.66667H11.6667C11.4456 1.66667 11.2337 1.75446 11.0774 1.91074C10.9211 2.06702 10.8333 2.27899 10.8333 2.5V8.33333C10.8333 8.55435 10.9211 8.76631 11.0774 8.92259C11.2337 9.07887 11.4456 9.16667 11.6667 9.16667H17.5C17.721 9.16667 17.933 9.07887 18.0892 8.92259C18.2455 8.76631 18.3333 8.55435 18.3333 8.33333V2.5C18.3333 2.27899 18.2455 2.06702 18.0892 1.91074C17.933 1.75446 17.721 1.66667 17.5 1.66667ZM16.6667 7.5H12.5V3.33333H16.6667V7.5ZM17.5 10.8333H11.6667C11.4456 10.8333 11.2337 10.9211 11.0774 11.0774C10.9211 11.2337 10.8333 11.4457 10.8333 11.6667V17.5C10.8333 17.721 10.9211 17.933 11.0774 18.0893C11.2337 18.2455 11.4456 18.3333 11.6667 18.3333H17.5C17.721 18.3333 17.933 18.2455 18.0892 18.0893C18.2455 17.933 18.3333 17.721 18.3333 17.5V11.6667C18.3333 11.4457 18.2455 11.2337 18.0892 11.0774C17.933 10.9211 17.721 10.8333 17.5 10.8333ZM16.6667 16.6667H12.5V12.5H16.6667V16.6667ZM8.33332 1.66667H2.49999C2.27898 1.66667 2.06701 1.75446 1.91073 1.91074C1.75445 2.06702 1.66666 2.27899 1.66666 2.5V8.33333C1.66666 8.55435 1.75445 8.76631 1.91073 8.92259C2.06701 9.07887 2.27898 9.16667 2.49999 9.16667H8.33332C8.55434 9.16667 8.7663 9.07887 8.92258 8.92259C9.07886 8.76631 9.16666 8.55435 9.16666 8.33333V2.5C9.16666 2.27899 9.07886 2.06702 8.92258 1.91074C8.7663 1.75446 8.55434 1.66667 8.33332 1.66667ZM7.49999 7.5H3.33332V3.33333H7.49999V7.5Z" fill="#477DB3"/>
</svg>
