<svg width="16" height="16" viewBox="0 0 16 16" fill="none" xmlns="http://www.w3.org/2000/svg">
<path d="M6.66634 8.66634H1.99967C1.82286 8.66634 1.65329 8.73658 1.52827 8.8616C1.40325 8.98663 1.33301 9.1562 1.33301 9.33301V13.9997C1.33301 14.1765 1.40325 14.3461 1.52827 14.4711C1.65329 14.5961 1.82286 14.6663 1.99967 14.6663H6.66634C6.84315 14.6663 7.01272 14.5961 7.13775 14.4711C7.26277 14.3461 7.33301 14.1765 7.33301 13.9997V9.33301C7.33301 9.1562 7.26277 8.98663 7.13775 8.8616C7.01272 8.73658 6.84315 8.66634 6.66634 8.66634ZM5.99967 13.333H2.66634V9.99967H5.99967V13.333ZM13.9997 1.33301H9.33301C9.1562 1.33301 8.98663 1.40325 8.8616 1.52827C8.73658 1.65329 8.66634 1.82286 8.66634 1.99967V6.66634C8.66634 6.84315 8.73658 7.01272 8.8616 7.13775C8.98663 7.26277 9.1562 7.33301 9.33301 7.33301H13.9997C14.1765 7.33301 14.3461 7.26277 14.4711 7.13775C14.5961 7.01272 14.6663 6.84315 14.6663 6.66634V1.99967C14.6663 1.82286 14.5961 1.65329 14.4711 1.52827C14.3461 1.40325 14.1765 1.33301 13.9997 1.33301V1.33301ZM13.333 5.99967H9.99967V2.66634H13.333V5.99967ZM13.9997 8.66634H9.33301C9.1562 8.66634 8.98663 8.73658 8.8616 8.8616C8.73658 8.98663 8.66634 9.1562 8.66634 9.33301V13.9997C8.66634 14.1765 8.73658 14.3461 8.8616 14.4711C8.98663 14.5961 9.1562 14.6663 9.33301 14.6663H13.9997C14.1765 14.6663 14.3461 14.5961 14.4711 14.4711C14.5961 14.3461 14.6663 14.1765 14.6663 13.9997V9.33301C14.6663 9.1562 14.5961 8.98663 14.4711 8.8616C14.3461 8.73658 14.1765 8.66634 13.9997 8.66634ZM13.333 13.333H9.99967V9.99967H13.333V13.333ZM6.66634 1.33301H1.99967C1.82286 1.33301 1.65329 1.40325 1.52827 1.52827C1.40325 1.65329 1.33301 1.82286 1.33301 1.99967V6.66634C1.33301 6.84315 1.40325 7.01272 1.52827 7.13775C1.65329 7.26277 1.82286 7.33301 1.99967 7.33301H6.66634C6.84315 7.33301 7.01272 7.26277 7.13775 7.13775C7.26277 7.01272 7.33301 6.84315 7.33301 6.66634V1.99967C7.33301 1.82286 7.26277 1.65329 7.13775 1.52827C7.01272 1.40325 6.84315 1.33301 6.66634 1.33301V1.33301ZM5.99967 5.99967H2.66634V2.66634H5.99967V5.99967Z" fill="#737A91"/>
</svg>
