<svg width="803" height="225" viewBox="0 0 803 225" fill="none" xmlns="http://www.w3.org/2000/svg">
<path d="M15.2277 6.74321C15.4143 6.75255 15.5637 6.82255 15.6757 6.95321C15.797 7.07455 15.8577 7.22855 15.8577 7.41521V15.8712C15.8577 16.0579 15.7877 16.2165 15.6477 16.3472C15.5077 16.4779 15.335 16.5432 15.1297 16.5432C14.9243 16.5432 14.7563 16.4779 14.6257 16.3472C14.495 16.2165 14.4297 16.0579 14.4297 15.8712V8.59121L13.1977 9.33321C13.095 9.39855 12.9783 9.43121 12.8477 9.43121C12.661 9.43121 12.5023 9.36121 12.3717 9.22121C12.241 9.07188 12.1757 8.91321 12.1757 8.74521C12.1757 8.63321 12.2083 8.52588 12.2737 8.42321C12.339 8.32055 12.423 8.23655 12.5257 8.17121L14.7377 6.84121C14.8683 6.77588 15.0317 6.74321 15.2277 6.74321ZM23.9999 15.3812C24.1399 15.5305 24.2099 15.6939 24.2099 15.8712C24.2099 16.0579 24.1352 16.2165 23.9859 16.3472C23.8459 16.4685 23.6965 16.5292 23.5379 16.5292C23.3325 16.5292 23.1692 16.4545 23.0479 16.3052L20.2899 13.3792L19.4499 14.1352V15.8712C19.4499 16.0579 19.3845 16.2165 19.2539 16.3472C19.1325 16.4779 18.9785 16.5432 18.7919 16.5432C18.5959 16.5432 18.4325 16.4779 18.3019 16.3472C18.1805 16.2165 18.1199 16.0579 18.1199 15.8712V6.85521C18.1199 6.66855 18.1805 6.50988 18.3019 6.37921C18.4325 6.24855 18.5959 6.18321 18.7919 6.18321C18.9785 6.18321 19.1325 6.24855 19.2539 6.37921C19.3845 6.50988 19.4499 6.66855 19.4499 6.85521V12.5392L22.8799 9.38921C23.0385 9.24921 23.2019 9.17921 23.3699 9.17921C23.5285 9.17921 23.6732 9.24921 23.8039 9.38921C23.9345 9.51988 23.9999 9.65988 23.9999 9.80921C23.9999 9.99588 23.9112 10.1639 23.7339 10.3132L21.3119 12.4692L23.9999 15.3812Z" fill="#737A91"/>
<path d="M3.724 68.8801C4.33067 68.8801 4.88133 69.0201 5.376 69.3001C5.87067 69.5708 6.258 69.9534 6.538 70.4481C6.818 70.9334 6.958 71.4794 6.958 72.0861C6.958 72.7301 6.79 73.3134 6.454 73.8361C6.12733 74.3588 5.67467 74.7741 5.096 75.0821C4.52667 75.3808 3.90133 75.5301 3.22 75.5301C2.83733 75.5301 2.45467 75.4694 2.072 75.3481C1.68933 75.2268 1.36733 75.0588 1.106 74.8441C1.01267 74.7694 0.938 74.6714 0.882 74.5501C0.826 74.4288 0.798 74.3074 0.798 74.1861C0.798 74.0461 0.854 73.9201 0.966 73.8081C1.08733 73.6868 1.24133 73.6261 1.428 73.6261C1.54933 73.6261 1.71267 73.6961 1.918 73.8361C2.338 74.1441 2.76733 74.2981 3.206 74.2981C3.654 74.2981 4.06 74.2001 4.424 74.0041C4.79733 73.8081 5.09133 73.5421 5.306 73.2061C5.52067 72.8701 5.628 72.5014 5.628 72.1001C5.628 71.5028 5.432 71.0221 5.04 70.6581C4.648 70.2941 4.15333 70.1121 3.556 70.1121C3.304 70.1121 3.08 70.1448 2.884 70.2101C2.69733 70.2754 2.46867 70.3734 2.198 70.5041C2.086 70.5601 1.974 70.6114 1.862 70.6581C1.75933 70.6954 1.67067 70.7141 1.596 70.7141C1.32533 70.7141 1.12467 70.6348 0.994 70.4761C0.863333 70.3174 0.798 70.1354 0.798 69.9301L0.812 69.7901L1.316 66.1641C1.344 66.0148 1.41867 65.8888 1.54 65.7861C1.67067 65.6834 1.82467 65.6321 2.002 65.6321H6.118C6.29533 65.6321 6.44 65.6928 6.552 65.8141C6.67333 65.9354 6.734 66.0848 6.734 66.2621C6.734 66.4394 6.67333 66.5888 6.552 66.7101C6.44 66.8221 6.29533 66.8781 6.118 66.8781H2.464L2.1 69.2721C2.30533 69.1601 2.55267 69.0668 2.842 68.9921C3.14067 68.9174 3.43467 68.8801 3.724 68.8801ZM12.1854 75.5721C11.42 75.5721 10.7667 75.3574 10.2254 74.9281C9.68403 74.4988 9.27336 73.9061 8.99336 73.1501C8.72269 72.3941 8.58736 71.5214 8.58736 70.5321C8.58736 69.5428 8.72269 68.6701 8.99336 67.9141C9.27336 67.1581 9.68403 66.5654 10.2254 66.1361C10.7667 65.7068 11.42 65.4921 12.1854 65.4921C12.9507 65.4921 13.604 65.7068 14.1454 66.1361C14.6867 66.5654 15.0927 67.1581 15.3634 67.9141C15.6434 68.6701 15.7834 69.5428 15.7834 70.5321C15.7834 71.5214 15.6434 72.3941 15.3634 73.1501C15.0927 73.9061 14.6867 74.4988 14.1454 74.9281C13.604 75.3574 12.9507 75.5721 12.1854 75.5721ZM12.1854 74.2281C12.8667 74.2281 13.394 73.9061 13.7674 73.2621C14.15 72.6181 14.3414 71.7081 14.3414 70.5321C14.3414 69.3561 14.15 68.4461 13.7674 67.8021C13.394 67.1581 12.8667 66.8361 12.1854 66.8361C11.504 66.8361 10.972 67.1581 10.5894 67.8021C10.216 68.4461 10.0294 69.3561 10.0294 70.5321C10.0294 71.7081 10.216 72.6181 10.5894 73.2621C10.972 73.9061 11.504 74.2281 12.1854 74.2281ZM20.6756 75.5721C19.9103 75.5721 19.2569 75.3574 18.7156 74.9281C18.1743 74.4988 17.7636 73.9061 17.4836 73.1501C17.2129 72.3941 17.0776 71.5214 17.0776 70.5321C17.0776 69.5428 17.2129 68.6701 17.4836 67.9141C17.7636 67.1581 18.1743 66.5654 18.7156 66.1361C19.2569 65.7068 19.9103 65.4921 20.6756 65.4921C21.4409 65.4921 22.0943 65.7068 22.6356 66.1361C23.1769 66.5654 23.5829 67.1581 23.8536 67.9141C24.1336 68.6701 24.2736 69.5428 24.2736 70.5321C24.2736 71.5214 24.1336 72.3941 23.8536 73.1501C23.5829 73.9061 23.1769 74.4988 22.6356 74.9281C22.0943 75.3574 21.4409 75.5721 20.6756 75.5721ZM20.6756 74.2281C21.3569 74.2281 21.8843 73.9061 22.2576 73.2621C22.6403 72.6181 22.8316 71.7081 22.8316 70.5321C22.8316 69.3561 22.6403 68.4461 22.2576 67.8021C21.8843 67.1581 21.3569 66.8361 20.6756 66.8361C19.9943 66.8361 19.4623 67.1581 19.0796 67.8021C18.7063 68.4461 18.5196 69.3561 18.5196 70.5321C18.5196 71.7081 18.7063 72.6181 19.0796 73.2621C19.4623 73.9061 19.9943 74.2281 20.6756 74.2281Z" fill="#737A91"/>
<path d="M3.85 128.119C4.382 128.119 4.858 128.254 5.278 128.525C5.70733 128.786 6.04333 129.146 6.286 129.603C6.52867 130.06 6.65 130.574 6.65 131.143C6.65 131.806 6.496 132.389 6.188 132.893C5.88 133.397 5.45533 133.784 4.914 134.055C4.37267 134.326 3.752 134.461 3.052 134.461C2.67867 134.461 2.31467 134.41 1.96 134.307C1.61467 134.204 1.316 134.055 1.064 133.859C0.812 133.719 0.686 133.528 0.686 133.285C0.686 133.108 0.746667 132.944 0.868 132.795C0.998667 132.646 1.15267 132.571 1.33 132.571C1.498 132.571 1.666 132.632 1.834 132.753C2.21667 133.108 2.69733 133.285 3.276 133.285C3.64 133.285 3.976 133.201 4.284 133.033C4.60133 132.865 4.85333 132.627 5.04 132.319C5.22667 132.002 5.32 131.638 5.32 131.227C5.32 130.62 5.13333 130.154 4.76 129.827C4.38667 129.5 3.93867 129.337 3.416 129.337C3.26667 129.337 3.052 129.37 2.772 129.435C2.56667 129.491 2.41267 129.519 2.31 129.519C2.142 129.519 2.00667 129.463 1.904 129.351C1.80133 129.23 1.75 129.08 1.75 128.903C1.75 128.8 1.76867 128.712 1.806 128.637C1.84333 128.562 1.904 128.474 1.988 128.371L4.368 125.753H1.134C0.956667 125.753 0.807333 125.692 0.686 125.571C0.564667 125.45 0.504 125.3 0.504 125.123C0.504 124.946 0.564667 124.801 0.686 124.689C0.807333 124.577 0.956667 124.521 1.134 124.521H5.6C5.81467 124.521 5.98267 124.586 6.104 124.717C6.22533 124.848 6.286 125.006 6.286 125.193C6.286 125.361 6.19733 125.534 6.02 125.711L3.85 128.119ZM11.5428 134.461C10.7774 134.461 10.1241 134.246 9.58278 133.817C9.04145 133.388 8.63078 132.795 8.35078 132.039C8.08011 131.283 7.94478 130.41 7.94478 129.421C7.94478 128.432 8.08011 127.559 8.35078 126.803C8.63078 126.047 9.04145 125.454 9.58278 125.025C10.1241 124.596 10.7774 124.381 11.5428 124.381C12.3081 124.381 12.9614 124.596 13.5028 125.025C14.0441 125.454 14.4501 126.047 14.7208 126.803C15.0008 127.559 15.1408 128.432 15.1408 129.421C15.1408 130.41 15.0008 131.283 14.7208 132.039C14.4501 132.795 14.0441 133.388 13.5028 133.817C12.9614 134.246 12.3081 134.461 11.5428 134.461ZM11.5428 133.117C12.2241 133.117 12.7514 132.795 13.1248 132.151C13.5074 131.507 13.6988 130.597 13.6988 129.421C13.6988 128.245 13.5074 127.335 13.1248 126.691C12.7514 126.047 12.2241 125.725 11.5428 125.725C10.8614 125.725 10.3294 126.047 9.94678 126.691C9.57345 127.335 9.38678 128.245 9.38678 129.421C9.38678 130.597 9.57345 131.507 9.94678 132.151C10.3294 132.795 10.8614 133.117 11.5428 133.117ZM20.033 134.461C19.2677 134.461 18.6143 134.246 18.073 133.817C17.5317 133.388 17.121 132.795 16.841 132.039C16.5703 131.283 16.435 130.41 16.435 129.421C16.435 128.432 16.5703 127.559 16.841 126.803C17.121 126.047 17.5317 125.454 18.073 125.025C18.6143 124.596 19.2677 124.381 20.033 124.381C20.7983 124.381 21.4517 124.596 21.993 125.025C22.5343 125.454 22.9403 126.047 23.211 126.803C23.491 127.559 23.631 128.432 23.631 129.421C23.631 130.41 23.491 131.283 23.211 132.039C22.9403 132.795 22.5343 133.388 21.993 133.817C21.4517 134.246 20.7983 134.461 20.033 134.461ZM20.033 133.117C20.7143 133.117 21.2417 132.795 21.615 132.151C21.9977 131.507 22.189 130.597 22.189 129.421C22.189 128.245 21.9977 127.335 21.615 126.691C21.2417 126.047 20.7143 125.725 20.033 125.725C19.3517 125.725 18.8197 126.047 18.437 126.691C18.0637 127.335 17.877 128.245 17.877 129.421C17.877 130.597 18.0637 131.507 18.437 132.151C18.8197 132.795 19.3517 133.117 20.033 133.117Z" fill="#737A91"/>
<path d="M6.14845 183.41C6.33511 183.419 6.48445 183.489 6.59645 183.62C6.71778 183.741 6.77845 183.895 6.77845 184.082V192.538C6.77845 192.725 6.70845 192.883 6.56845 193.014C6.42845 193.145 6.25578 193.21 6.05045 193.21C5.84511 193.21 5.67711 193.145 5.54645 193.014C5.41578 192.883 5.35045 192.725 5.35045 192.538V185.258L4.11845 186C4.01578 186.065 3.89911 186.098 3.76845 186.098C3.58178 186.098 3.42311 186.028 3.29245 185.888C3.16178 185.739 3.09645 185.58 3.09645 185.412C3.09645 185.3 3.12911 185.193 3.19445 185.09C3.25978 184.987 3.34378 184.903 3.44645 184.838L5.65845 183.508C5.78911 183.443 5.95245 183.41 6.14845 183.41ZM12.1767 193.35C11.4113 193.35 10.758 193.135 10.2167 192.706C9.67532 192.277 9.26465 191.684 8.98465 190.928C8.71398 190.172 8.57865 189.299 8.57865 188.31C8.57865 187.321 8.71398 186.448 8.98465 185.692C9.26465 184.936 9.67532 184.343 10.2167 183.914C10.758 183.485 11.4113 183.27 12.1767 183.27C12.942 183.27 13.5953 183.485 14.1367 183.914C14.678 184.343 15.084 184.936 15.3547 185.692C15.6347 186.448 15.7747 187.321 15.7747 188.31C15.7747 189.299 15.6347 190.172 15.3547 190.928C15.084 191.684 14.678 192.277 14.1367 192.706C13.5953 193.135 12.942 193.35 12.1767 193.35ZM12.1767 192.006C12.858 192.006 13.3853 191.684 13.7587 191.04C14.1413 190.396 14.3327 189.486 14.3327 188.31C14.3327 187.134 14.1413 186.224 13.7587 185.58C13.3853 184.936 12.858 184.614 12.1767 184.614C11.4953 184.614 10.9633 184.936 10.5807 185.58C10.2073 186.224 10.0207 187.134 10.0207 188.31C10.0207 189.486 10.2073 190.396 10.5807 191.04C10.9633 191.684 11.4953 192.006 12.1767 192.006ZM20.6669 193.35C19.9016 193.35 19.2482 193.135 18.7069 192.706C18.1656 192.277 17.7549 191.684 17.4749 190.928C17.2042 190.172 17.0689 189.299 17.0689 188.31C17.0689 187.321 17.2042 186.448 17.4749 185.692C17.7549 184.936 18.1656 184.343 18.7069 183.914C19.2482 183.485 19.9016 183.27 20.6669 183.27C21.4322 183.27 22.0856 183.485 22.6269 183.914C23.1682 184.343 23.5742 184.936 23.8449 185.692C24.1249 186.448 24.2649 187.321 24.2649 188.31C24.2649 189.299 24.1249 190.172 23.8449 190.928C23.5742 191.684 23.1682 192.277 22.6269 192.706C22.0856 193.135 21.4322 193.35 20.6669 193.35ZM20.6669 192.006C21.3482 192.006 21.8756 191.684 22.2489 191.04C22.6316 190.396 22.8229 189.486 22.8229 188.31C22.8229 187.134 22.6316 186.224 22.2489 185.58C21.8756 184.936 21.3482 184.614 20.6669 184.614C19.9856 184.614 19.4536 184.936 19.0709 185.58C18.6976 186.224 18.5109 187.134 18.5109 188.31C18.5109 189.486 18.6976 190.396 19.0709 191.04C19.4536 191.684 19.9856 192.006 20.6669 192.006Z" fill="#737A91"/>
<line x1="54.4568" y1="9.04013" x2="802" y2="9.04013" stroke="#ECE9F1"/>
<line x1="54.4568" y1="67.929" x2="802" y2="67.929" stroke="#ECE9F1"/>
<line x1="54.4568" y1="126.818" x2="802" y2="126.818" stroke="#ECE9F1"/>
<line x1="54.4568" y1="185.707" x2="802" y2="185.707" stroke="#ECE9F1"/>
<path d="M54.4568 172.952C87.3004 167.909 114.308 137.161 153.497 131.992C174.384 129.238 191.116 134.599 209.786 142.93C228.455 151.261 224.8 154.858 266.787 161.28C301.436 166.58 310.499 109.439 344.451 111.634C378.404 113.83 394.107 45.1285 429.953 50.8634C465.8 56.5983 472.962 41.771 506.658 69.872C540.353 97.9731 571.484 32.4714 613.783 26.7364C656.082 21.0015 667.098 81.8709 687.172 79.5769C707.246 77.283 725.32 120.656 742.526 126.965C759.733 133.273 764.612 110.357 801.175 110.357" stroke="#477DB3" stroke-width="3" stroke-linecap="round" stroke-linejoin="round"/>
<path d="M153.497 131.992C114.308 137.161 87.3004 167.909 54.4568 172.952V185.389H801.175V110.357C764.612 110.357 759.733 133.273 742.526 126.965C725.32 120.656 707.246 77.283 687.172 79.5769C667.098 81.8709 656.082 21.0015 613.783 26.7364C571.484 32.4714 540.353 97.9731 506.658 69.872C472.962 41.771 465.8 56.5984 429.953 50.8634C394.107 45.1285 378.404 113.83 344.451 111.634C310.499 109.439 301.436 166.58 266.787 161.28C224.8 154.858 228.455 151.261 209.786 142.93C191.116 134.599 174.384 129.238 153.497 131.992Z" fill="url(#paint0_linear)"/>
<path d="M57.5788 208.765C57.7655 208.774 57.9148 208.844 58.0268 208.975C58.1481 209.096 58.2088 209.25 58.2088 209.437V217.893C58.2088 218.079 58.1388 218.238 57.9988 218.369C57.8588 218.499 57.6861 218.565 57.4808 218.565C57.2755 218.565 57.1075 218.499 56.9768 218.369C56.8461 218.238 56.7808 218.079 56.7808 217.893V210.613L55.5488 211.355C55.4461 211.42 55.3295 211.453 55.1988 211.453C55.0121 211.453 54.8535 211.383 54.7228 211.243C54.5921 211.093 54.5268 210.935 54.5268 210.767C54.5268 210.655 54.5595 210.547 54.6248 210.445C54.6901 210.342 54.7741 210.258 54.8768 210.193L57.0888 208.863C57.2195 208.797 57.3828 208.765 57.5788 208.765Z" fill="#737A91"/>
<path d="M177.701 212.013C178.307 212.013 178.858 212.153 179.353 212.433C179.847 212.703 180.235 213.086 180.515 213.581C180.795 214.066 180.935 214.612 180.935 215.219C180.935 215.863 180.767 216.446 180.431 216.969C180.104 217.491 179.651 217.907 179.073 218.215C178.503 218.513 177.878 218.663 177.197 218.663C176.814 218.663 176.431 218.602 176.049 218.481C175.666 218.359 175.344 218.191 175.083 217.977C174.989 217.902 174.915 217.804 174.859 217.683C174.803 217.561 174.775 217.44 174.775 217.319C174.775 217.179 174.831 217.053 174.943 216.941C175.064 216.819 175.218 216.759 175.405 216.759C175.526 216.759 175.689 216.829 175.895 216.969C176.315 217.277 176.744 217.431 177.183 217.431C177.631 217.431 178.037 217.333 178.401 217.137C178.774 216.941 179.068 216.675 179.283 216.339C179.497 216.003 179.605 215.634 179.605 215.233C179.605 214.635 179.409 214.155 179.017 213.791C178.625 213.427 178.13 213.245 177.533 213.245C177.281 213.245 177.057 213.277 176.861 213.343C176.674 213.408 176.445 213.506 176.175 213.637C176.063 213.693 175.951 213.744 175.839 213.791C175.736 213.828 175.647 213.847 175.573 213.847C175.302 213.847 175.101 213.767 174.971 213.609C174.84 213.45 174.775 213.268 174.775 213.063L174.789 212.923L175.293 209.297C175.321 209.147 175.395 209.021 175.517 208.919C175.647 208.816 175.801 208.765 175.979 208.765H180.095C180.272 208.765 180.417 208.825 180.529 208.947C180.65 209.068 180.711 209.217 180.711 209.395C180.711 209.572 180.65 209.721 180.529 209.843C180.417 209.955 180.272 210.011 180.095 210.011H176.441L176.077 212.405C176.282 212.293 176.529 212.199 176.819 212.125C177.117 212.05 177.411 212.013 177.701 212.013Z" fill="#737A91"/>
<path d="M297.679 208.765C297.865 208.774 298.015 208.844 298.127 208.975C298.248 209.096 298.309 209.25 298.309 209.437V217.893C298.309 218.079 298.239 218.238 298.099 218.369C297.959 218.499 297.786 218.565 297.581 218.565C297.375 218.565 297.207 218.499 297.077 218.369C296.946 218.238 296.881 218.079 296.881 217.893V210.613L295.649 211.355C295.546 211.42 295.429 211.453 295.299 211.453C295.112 211.453 294.953 211.383 294.823 211.243C294.692 211.093 294.627 210.935 294.627 210.767C294.627 210.655 294.659 210.547 294.725 210.445C294.79 210.342 294.874 210.258 294.977 210.193L297.189 208.863C297.319 208.797 297.483 208.765 297.679 208.765ZM303.707 218.705C302.942 218.705 302.288 218.49 301.747 218.061C301.206 217.631 300.795 217.039 300.515 216.283C300.244 215.527 300.109 214.654 300.109 213.665C300.109 212.675 300.244 211.803 300.515 211.047C300.795 210.291 301.206 209.698 301.747 209.269C302.288 208.839 302.942 208.625 303.707 208.625C304.472 208.625 305.126 208.839 305.667 209.269C306.208 209.698 306.614 210.291 306.885 211.047C307.165 211.803 307.305 212.675 307.305 213.665C307.305 214.654 307.165 215.527 306.885 216.283C306.614 217.039 306.208 217.631 305.667 218.061C305.126 218.49 304.472 218.705 303.707 218.705ZM303.707 217.361C304.388 217.361 304.916 217.039 305.289 216.395C305.672 215.751 305.863 214.841 305.863 213.665C305.863 212.489 305.672 211.579 305.289 210.935C304.916 210.291 304.388 209.969 303.707 209.969C303.026 209.969 302.494 210.291 302.111 210.935C301.738 211.579 301.551 212.489 301.551 213.665C301.551 214.841 301.738 215.751 302.111 216.395C302.494 217.039 303.026 217.361 303.707 217.361Z" fill="#737A91"/>
<path d="M422.222 208.765C422.409 208.774 422.558 208.844 422.67 208.975C422.791 209.096 422.852 209.25 422.852 209.437V217.893C422.852 218.079 422.782 218.238 422.642 218.369C422.502 218.499 422.329 218.565 422.124 218.565C421.919 218.565 421.751 218.499 421.62 218.369C421.489 218.238 421.424 218.079 421.424 217.893V210.613L420.192 211.355C420.089 211.42 419.973 211.453 419.842 211.453C419.655 211.453 419.497 211.383 419.366 211.243C419.235 211.093 419.17 210.935 419.17 210.767C419.17 210.655 419.203 210.547 419.268 210.445C419.333 210.342 419.417 210.258 419.52 210.193L421.732 208.863C421.863 208.797 422.026 208.765 422.222 208.765ZM427.732 212.013C428.339 212.013 428.89 212.153 429.384 212.433C429.879 212.703 430.266 213.086 430.546 213.581C430.826 214.066 430.966 214.612 430.966 215.219C430.966 215.863 430.798 216.446 430.462 216.969C430.136 217.491 429.683 217.907 429.104 218.215C428.535 218.513 427.91 218.663 427.228 218.663C426.846 218.663 426.463 218.602 426.08 218.481C425.698 218.359 425.376 218.191 425.114 217.977C425.021 217.902 424.946 217.804 424.89 217.683C424.834 217.561 424.806 217.44 424.806 217.319C424.806 217.179 424.862 217.053 424.974 216.941C425.096 216.819 425.25 216.759 425.436 216.759C425.558 216.759 425.721 216.829 425.926 216.969C426.346 217.277 426.776 217.431 427.214 217.431C427.662 217.431 428.068 217.333 428.432 217.137C428.806 216.941 429.1 216.675 429.314 216.339C429.529 216.003 429.636 215.634 429.636 215.233C429.636 214.635 429.44 214.155 429.048 213.791C428.656 213.427 428.162 213.245 427.564 213.245C427.312 213.245 427.088 213.277 426.892 213.343C426.706 213.408 426.477 213.506 426.206 213.637C426.094 213.693 425.982 213.744 425.87 213.791C425.768 213.828 425.679 213.847 425.604 213.847C425.334 213.847 425.133 213.767 425.002 213.609C424.872 213.45 424.806 213.268 424.806 213.063L424.82 212.923L425.324 209.297C425.352 209.147 425.427 209.021 425.548 208.919C425.679 208.816 425.833 208.765 426.01 208.765H430.126C430.304 208.765 430.448 208.825 430.56 208.947C430.682 209.068 430.742 209.217 430.742 209.395C430.742 209.572 430.682 209.721 430.56 209.843C430.448 209.955 430.304 210.011 430.126 210.011H426.472L426.108 212.405C426.314 212.293 426.561 212.199 426.85 212.125C427.149 212.05 427.443 212.013 427.732 212.013Z" fill="#737A91"/>
<path d="M547.94 217.333C548.117 217.333 548.267 217.393 548.388 217.515C548.509 217.636 548.57 217.785 548.57 217.963C548.57 218.14 548.509 218.285 548.388 218.397C548.267 218.509 548.117 218.565 547.94 218.565H542.97C542.783 218.565 542.629 218.509 542.508 218.397C542.387 218.275 542.326 218.117 542.326 217.921C542.326 217.753 542.391 217.594 542.522 217.445L545.644 214.057C546.512 213.133 546.946 212.316 546.946 211.607C546.946 211.103 546.778 210.687 546.442 210.361C546.115 210.025 545.695 209.857 545.182 209.857C544.837 209.857 544.505 209.955 544.188 210.151C543.871 210.347 543.614 210.627 543.418 210.991C543.269 211.187 543.091 211.285 542.886 211.285C542.727 211.285 542.578 211.224 542.438 211.103C542.298 210.981 542.228 210.841 542.228 210.683C542.228 210.58 542.261 210.473 542.326 210.361C542.401 210.249 542.503 210.118 542.634 209.969C542.942 209.558 543.334 209.231 543.81 208.989C544.286 208.746 544.767 208.625 545.252 208.625C545.877 208.625 546.419 208.751 546.876 209.003C547.333 209.255 547.683 209.6 547.926 210.039C548.178 210.477 548.304 210.981 548.304 211.551C548.304 212.624 547.725 213.781 546.568 215.023L544.454 217.333H547.94ZM553.314 218.705C552.548 218.705 551.895 218.49 551.354 218.061C550.812 217.631 550.402 217.039 550.122 216.283C549.851 215.527 549.716 214.654 549.716 213.665C549.716 212.675 549.851 211.803 550.122 211.047C550.402 210.291 550.812 209.698 551.354 209.269C551.895 208.839 552.548 208.625 553.314 208.625C554.079 208.625 554.732 208.839 555.274 209.269C555.815 209.698 556.221 210.291 556.492 211.047C556.772 211.803 556.912 212.675 556.912 213.665C556.912 214.654 556.772 215.527 556.492 216.283C556.221 217.039 555.815 217.631 555.274 218.061C554.732 218.49 554.079 218.705 553.314 218.705ZM553.314 217.361C553.995 217.361 554.522 217.039 554.896 216.395C555.278 215.751 555.47 214.841 555.47 213.665C555.47 212.489 555.278 211.579 554.896 210.935C554.522 210.291 553.995 209.969 553.314 209.969C552.632 209.969 552.1 210.291 551.718 210.935C551.344 211.579 551.158 212.489 551.158 213.665C551.158 214.841 551.344 215.751 551.718 216.395C552.1 217.039 552.632 217.361 553.314 217.361Z" fill="#737A91"/>
<path d="M671.475 217.333C671.652 217.333 671.801 217.393 671.923 217.515C672.044 217.636 672.105 217.785 672.105 217.963C672.105 218.14 672.044 218.285 671.923 218.397C671.801 218.509 671.652 218.565 671.475 218.565H666.505C666.318 218.565 666.164 218.509 666.043 218.397C665.921 218.275 665.861 218.117 665.861 217.921C665.861 217.753 665.926 217.594 666.057 217.445L669.179 214.057C670.047 213.133 670.481 212.316 670.481 211.607C670.481 211.103 670.313 210.687 669.977 210.361C669.65 210.025 669.23 209.857 668.717 209.857C668.371 209.857 668.04 209.955 667.723 210.151C667.405 210.347 667.149 210.627 666.953 210.991C666.803 211.187 666.626 211.285 666.421 211.285C666.262 211.285 666.113 211.224 665.973 211.103C665.833 210.981 665.763 210.841 665.763 210.683C665.763 210.58 665.795 210.473 665.861 210.361C665.935 210.249 666.038 210.118 666.169 209.969C666.477 209.558 666.869 209.231 667.345 208.989C667.821 208.746 668.301 208.625 668.787 208.625C669.412 208.625 669.953 208.751 670.411 209.003C670.868 209.255 671.218 209.6 671.461 210.039C671.713 210.477 671.839 210.981 671.839 211.551C671.839 212.624 671.26 213.781 670.103 215.023L667.989 217.333H671.475ZM676.33 212.013C676.937 212.013 677.487 212.153 677.982 212.433C678.477 212.703 678.864 213.086 679.144 213.581C679.424 214.066 679.564 214.612 679.564 215.219C679.564 215.863 679.396 216.446 679.06 216.969C678.733 217.491 678.281 217.907 677.702 218.215C677.133 218.513 676.507 218.663 675.826 218.663C675.443 218.663 675.061 218.602 674.678 218.481C674.295 218.359 673.973 218.191 673.712 217.977C673.619 217.902 673.544 217.804 673.488 217.683C673.432 217.561 673.404 217.44 673.404 217.319C673.404 217.179 673.46 217.053 673.572 216.941C673.693 216.819 673.847 216.759 674.034 216.759C674.155 216.759 674.319 216.829 674.524 216.969C674.944 217.277 675.373 217.431 675.812 217.431C676.26 217.431 676.666 217.333 677.03 217.137C677.403 216.941 677.697 216.675 677.912 216.339C678.127 216.003 678.234 215.634 678.234 215.233C678.234 214.635 678.038 214.155 677.646 213.791C677.254 213.427 676.759 213.245 676.162 213.245C675.91 213.245 675.686 213.277 675.49 213.343C675.303 213.408 675.075 213.506 674.804 213.637C674.692 213.693 674.58 213.744 674.468 213.791C674.365 213.828 674.277 213.847 674.202 213.847C673.931 213.847 673.731 213.767 673.6 213.609C673.469 213.45 673.404 213.268 673.404 213.063L673.418 212.923L673.922 209.297C673.95 209.147 674.025 209.021 674.146 208.919C674.277 208.816 674.431 208.765 674.608 208.765H678.724C678.901 208.765 679.046 208.825 679.158 208.947C679.279 209.068 679.34 209.217 679.34 209.395C679.34 209.572 679.279 209.721 679.158 209.843C679.046 209.955 678.901 210.011 678.724 210.011H675.07L674.706 212.405C674.911 212.293 675.159 212.199 675.448 212.125C675.747 212.05 676.041 212.013 676.33 212.013Z" fill="#737A91"/>
<path d="M788.505 212.363C789.037 212.363 789.513 212.498 789.933 212.769C790.363 213.03 790.699 213.389 790.941 213.847C791.184 214.304 791.305 214.817 791.305 215.387C791.305 216.049 791.151 216.633 790.843 217.137C790.535 217.641 790.111 218.028 789.569 218.299C789.028 218.569 788.407 218.705 787.707 218.705C787.334 218.705 786.97 218.653 786.615 218.551C786.27 218.448 785.971 218.299 785.719 218.103C785.467 217.963 785.341 217.771 785.341 217.529C785.341 217.351 785.402 217.188 785.523 217.039C785.654 216.889 785.808 216.815 785.985 216.815C786.153 216.815 786.321 216.875 786.489 216.997C786.872 217.351 787.353 217.529 787.931 217.529C788.295 217.529 788.631 217.445 788.939 217.277C789.257 217.109 789.509 216.871 789.695 216.563C789.882 216.245 789.975 215.881 789.975 215.471C789.975 214.864 789.789 214.397 789.415 214.071C789.042 213.744 788.594 213.581 788.071 213.581C787.922 213.581 787.707 213.613 787.427 213.679C787.222 213.735 787.068 213.763 786.965 213.763C786.797 213.763 786.662 213.707 786.559 213.595C786.457 213.473 786.405 213.324 786.405 213.147C786.405 213.044 786.424 212.955 786.461 212.881C786.499 212.806 786.559 212.717 786.643 212.615L789.023 209.997H785.789C785.612 209.997 785.463 209.936 785.341 209.815C785.22 209.693 785.159 209.544 785.159 209.367C785.159 209.189 785.22 209.045 785.341 208.933C785.463 208.821 785.612 208.765 785.789 208.765H790.255C790.47 208.765 790.638 208.83 790.759 208.961C790.881 209.091 790.941 209.25 790.941 209.437C790.941 209.605 790.853 209.777 790.675 209.955L788.505 212.363ZM796.198 218.705C795.433 218.705 794.78 218.49 794.238 218.061C793.697 217.631 793.286 217.039 793.006 216.283C792.736 215.527 792.6 214.654 792.6 213.665C792.6 212.675 792.736 211.803 793.006 211.047C793.286 210.291 793.697 209.698 794.238 209.269C794.78 208.839 795.433 208.625 796.198 208.625C796.964 208.625 797.617 208.839 798.158 209.269C798.7 209.698 799.106 210.291 799.376 211.047C799.656 211.803 799.796 212.675 799.796 213.665C799.796 214.654 799.656 215.527 799.376 216.283C799.106 217.039 798.7 217.631 798.158 218.061C797.617 218.49 796.964 218.705 796.198 218.705ZM796.198 217.361C796.88 217.361 797.407 217.039 797.78 216.395C798.163 215.751 798.354 214.841 798.354 213.665C798.354 212.489 798.163 211.579 797.78 210.935C797.407 210.291 796.88 209.969 796.198 209.969C795.517 209.969 794.985 210.291 794.602 210.935C794.229 211.579 794.042 212.489 794.042 213.665C794.042 214.841 794.229 215.751 794.602 216.395C794.985 217.039 795.517 217.361 796.198 217.361Z" fill="#737A91"/>
<line x1="376.747" y1="90.5123" x2="376.747" y2="185.389" stroke="#477DB3" stroke-dasharray="4.4 4.4"/>
<g filter="url(#filter0_dd)">
<path fill-rule="evenodd" clip-rule="evenodd" d="M379.103 72.6405C377.526 74.6589 374.968 74.6589 373.391 72.6405L370.314 68.8964C369.432 67.823 368.991 67.2863 368.448 66.9003C367.967 66.5583 367.43 66.3042 366.86 66.1497C366.217 65.9753 365.523 65.9753 364.133 65.9753H324.455C318.938 65.9753 316.937 65.4059 314.92 64.3366C312.903 63.2674 311.32 61.6983 310.242 59.699C309.163 57.6997 308.589 55.7166 308.589 50.2478V44.0889C308.589 38.6201 309.163 36.6369 310.242 34.6376C311.32 32.6383 312.903 31.0692 314.92 30C316.937 28.9308 318.938 28.3613 324.455 28.3613H428.864C434.381 28.3613 436.382 28.9308 438.399 30C440.416 31.0692 441.999 32.6383 443.077 34.6376C444.156 36.6369 444.73 38.6201 444.73 44.0889V50.2478C444.73 55.7166 444.156 57.6997 443.077 59.699C441.999 61.6983 440.416 63.2674 438.399 64.3366C436.382 65.4059 434.381 65.9753 428.864 65.9753H392.141C389.363 65.9753 387.974 65.9753 386.688 66.3241C385.549 66.6331 384.473 67.1414 383.511 67.8253C382.425 68.5973 381.543 69.6707 379.779 71.8174L379.103 72.6405Z" fill="white"/>
</g>
<path d="M365.609 51.24C365.865 51.24 366.079 51.3253 366.249 51.496C366.42 51.6667 366.505 51.88 366.505 52.136C366.505 52.3813 366.42 52.5893 366.249 52.76C366.079 52.92 365.865 53 365.609 53H360.169C359.892 53 359.673 52.9147 359.513 52.744C359.353 52.5733 359.273 52.3547 359.273 52.088C359.273 51.8213 359.369 51.5867 359.561 51.384L363.049 47.656C363.444 47.2293 363.753 46.8027 363.977 46.376C364.212 45.9387 364.329 45.5387 364.329 45.176C364.329 44.696 364.159 44.28 363.817 43.928C363.476 43.576 363.081 43.4 362.633 43.4C362.324 43.4 362.009 43.5067 361.689 43.72C361.38 43.9227 361.097 44.1947 360.841 44.536C360.649 44.792 360.404 44.92 360.105 44.92C359.871 44.92 359.652 44.8293 359.449 44.648C359.257 44.4667 359.161 44.264 359.161 44.04C359.161 43.88 359.215 43.72 359.321 43.56C359.428 43.3893 359.588 43.1973 359.801 42.984C360.207 42.5787 360.676 42.2533 361.209 42.008C361.743 41.7627 362.255 41.64 362.745 41.64C363.449 41.64 364.068 41.7893 364.601 42.088C365.135 42.3867 365.545 42.7973 365.833 43.32C366.121 43.8427 366.265 44.4347 366.265 45.096C366.265 45.7467 366.089 46.4187 365.737 47.112C365.396 47.7947 364.932 48.4507 364.345 49.08L362.313 51.24H365.609ZM370.459 52.872C370.459 53.1173 370.369 53.4267 370.187 53.8C370.006 54.1733 369.771 54.4987 369.483 54.776C369.195 55.0533 368.897 55.192 368.587 55.192C368.353 55.192 368.166 55.1387 368.027 55.032C367.889 54.936 367.819 54.776 367.819 54.552C367.819 54.3813 367.862 54.2587 367.947 54.184C368.033 54.12 368.123 54.072 368.219 54.04C368.326 54.008 368.401 53.9813 368.443 53.96C368.742 53.8 368.891 53.5867 368.891 53.32C368.891 53.2027 368.833 53.096 368.715 53C368.609 52.9147 368.465 52.872 368.283 52.872C368.102 52.872 367.953 52.9093 367.835 52.984C367.707 52.9307 367.606 52.8613 367.531 52.776C367.467 52.6907 367.435 52.5627 367.435 52.392C367.435 52.1787 367.515 51.9813 367.675 51.8C367.835 51.608 368.033 51.4587 368.267 51.352C368.502 51.2347 368.731 51.176 368.955 51.176C369.425 51.176 369.793 51.3253 370.059 51.624C370.326 51.912 370.459 52.328 370.459 52.872ZM375.074 41.8C375.34 41.8 375.564 41.896 375.746 42.088C375.927 42.2693 376.018 42.4987 376.018 42.776V52.024C376.018 52.3013 375.916 52.536 375.714 52.728C375.511 52.9093 375.26 53 374.962 53C374.663 53 374.418 52.9093 374.226 52.728C374.034 52.536 373.938 52.3013 373.938 52.024V44.44L372.946 45.048C372.786 45.144 372.615 45.192 372.434 45.192C372.167 45.192 371.938 45.0907 371.746 44.888C371.564 44.6853 371.474 44.4613 371.474 44.216C371.474 44.0453 371.516 43.8853 371.602 43.736C371.698 43.5867 371.82 43.4693 371.97 43.384L374.386 41.944C374.567 41.848 374.796 41.8 375.074 41.8ZM384.422 51.24C384.678 51.24 384.891 51.3253 385.062 51.496C385.233 51.6667 385.318 51.88 385.318 52.136C385.318 52.3813 385.233 52.5893 385.062 52.76C384.891 52.92 384.678 53 384.422 53H378.982C378.705 53 378.486 52.9147 378.326 52.744C378.166 52.5733 378.086 52.3547 378.086 52.088C378.086 51.8213 378.182 51.5867 378.374 51.384L381.862 47.656C382.257 47.2293 382.566 46.8027 382.79 46.376C383.025 45.9387 383.142 45.5387 383.142 45.176C383.142 44.696 382.971 44.28 382.63 43.928C382.289 43.576 381.894 43.4 381.446 43.4C381.137 43.4 380.822 43.5067 380.502 43.72C380.193 43.9227 379.91 44.1947 379.654 44.536C379.462 44.792 379.217 44.92 378.918 44.92C378.683 44.92 378.465 44.8293 378.262 44.648C378.07 44.4667 377.974 44.264 377.974 44.04C377.974 43.88 378.027 43.72 378.134 43.56C378.241 43.3893 378.401 43.1973 378.614 42.984C379.019 42.5787 379.489 42.2533 380.022 42.008C380.555 41.7627 381.067 41.64 381.558 41.64C382.262 41.64 382.881 41.7893 383.414 42.088C383.947 42.3867 384.358 42.7973 384.646 43.32C384.934 43.8427 385.078 44.4347 385.078 45.096C385.078 45.7467 384.902 46.4187 384.55 47.112C384.209 47.7947 383.745 48.4507 383.158 49.08L381.126 51.24H384.422ZM390.536 45.896C391.123 45.9173 391.64 46.088 392.088 46.408C392.547 46.728 392.899 47.1493 393.144 47.672C393.389 48.184 393.512 48.7333 393.512 49.32C393.512 50.0987 393.336 50.7813 392.984 51.368C392.632 51.944 392.136 52.3867 391.496 52.696C390.856 53.0053 390.109 53.16 389.256 53.16C388.872 53.16 388.488 53.112 388.104 53.016C387.72 52.92 387.384 52.792 387.096 52.632C386.701 52.4187 386.504 52.1307 386.504 51.768C386.504 51.512 386.595 51.2773 386.776 51.064C386.957 50.8507 387.176 50.744 387.432 50.744C387.645 50.744 387.875 50.824 388.12 50.984C388.579 51.336 389.085 51.512 389.64 51.512C389.971 51.512 390.285 51.432 390.584 51.272C390.883 51.1013 391.123 50.8613 391.304 50.552C391.496 50.232 391.592 49.8693 391.592 49.464C391.592 48.888 391.416 48.44 391.064 48.12C390.723 47.8 390.307 47.64 389.816 47.64C389.603 47.64 389.416 47.6613 389.256 47.704C389.096 47.7467 389 47.7733 388.968 47.784C388.691 47.8693 388.461 47.912 388.28 47.912C388.045 47.912 387.859 47.832 387.72 47.672C387.581 47.5013 387.512 47.2933 387.512 47.048C387.512 46.8987 387.539 46.7653 387.592 46.648C387.645 46.5307 387.736 46.4027 387.864 46.264L390.344 43.56H387.176C386.92 43.56 386.707 43.4747 386.536 43.304C386.365 43.1333 386.28 42.92 386.28 42.664C386.28 42.4187 386.365 42.216 386.536 42.056C386.707 41.8853 386.92 41.8 387.176 41.8H392.072C392.392 41.8 392.637 41.8907 392.808 42.072C392.979 42.2427 393.064 42.472 393.064 42.76C393.064 43.016 392.936 43.272 392.68 43.528L390.536 45.896Z" fill="#16192C"/>
<g filter="url(#filter1_dd)">
<rect x="367.996" y="82.3333" width="16.5021" height="16.358" rx="8.17901" fill="#477DB3"/>
<rect x="369.996" y="84.3333" width="12.5021" height="12.358" rx="6.17901" stroke="white" stroke-width="4"/>
</g>
<defs>
<filter id="filter0_dd" x="292.589" y="20.3613" width="168.142" height="77.793" filterUnits="userSpaceOnUse" color-interpolation-filters="sRGB">
<feFlood flood-opacity="0" result="BackgroundImageFix"/>
<feColorMatrix in="SourceAlpha" type="matrix" values="0 0 0 0 0 0 0 0 0 0 0 0 0 0 0 0 0 0 127 0" result="hardAlpha"/>
<feOffset dy="8"/>
<feGaussianBlur stdDeviation="8"/>
<feColorMatrix type="matrix" values="0 0 0 0 0.196487 0 0 0 0 0.196487 0 0 0 0 0.279476 0 0 0 0.06 0"/>
<feBlend mode="multiply" in2="BackgroundImageFix" result="effect1_dropShadow"/>
<feColorMatrix in="SourceAlpha" type="matrix" values="0 0 0 0 0 0 0 0 0 0 0 0 0 0 0 0 0 0 127 0" result="hardAlpha"/>
<feOffset dy="8"/>
<feGaussianBlur stdDeviation="4"/>
<feColorMatrix type="matrix" values="0 0 0 0 0.196487 0 0 0 0 0.196487 0 0 0 0 0.279476 0 0 0 0.08 0"/>
<feBlend mode="multiply" in2="effect1_dropShadow" result="effect2_dropShadow"/>
<feBlend mode="normal" in="SourceGraphic" in2="effect2_dropShadow" result="shape"/>
</filter>
<filter id="filter1_dd" x="362.663" y="79.6667" width="27.1687" height="27.0247" filterUnits="userSpaceOnUse" color-interpolation-filters="sRGB">
<feFlood flood-opacity="0" result="BackgroundImageFix"/>
<feColorMatrix in="SourceAlpha" type="matrix" values="0 0 0 0 0 0 0 0 0 0 0 0 0 0 0 0 0 0 127 0" result="hardAlpha"/>
<feOffset dy="2.66667"/>
<feGaussianBlur stdDeviation="2.66667"/>
<feColorMatrix type="matrix" values="0 0 0 0 0.196487 0 0 0 0 0.196487 0 0 0 0 0.279476 0 0 0 0.06 0"/>
<feBlend mode="multiply" in2="BackgroundImageFix" result="effect1_dropShadow"/>
<feColorMatrix in="SourceAlpha" type="matrix" values="0 0 0 0 0 0 0 0 0 0 0 0 0 0 0 0 0 0 127 0" result="hardAlpha"/>
<feOffset dy="2.66667"/>
<feGaussianBlur stdDeviation="1.33333"/>
<feColorMatrix type="matrix" values="0 0 0 0 0.196487 0 0 0 0 0.196487 0 0 0 0 0.279476 0 0 0 0.06 0"/>
<feBlend mode="multiply" in2="effect1_dropShadow" result="effect2_dropShadow"/>
<feBlend mode="normal" in="SourceGraphic" in2="effect2_dropShadow" result="shape"/>
</filter>
<linearGradient id="paint0_linear" x1="427.816" y1="26.355" x2="427.816" y2="251.912" gradientUnits="userSpaceOnUse">
<stop stop-color="#477DB3" stop-opacity="0.1"/>
<stop offset="0.998978" stop-color="white" stop-opacity="0"/>
</linearGradient>
</defs>
</svg>
