<svg width="20" height="20" viewBox="0 0 20 20" fill="none" xmlns="http://www.w3.org/2000/svg">
<path opacity="0.4" d="M17.7656 6.51162L10.2734 14.0454L8 11.7669L15.5034 4.23569C15.5771 4.16138 15.6647 4.10231 15.7613 4.06187C15.8578 4.02144 15.9613 4.00041 16.066 4.00001C16.1706 3.9996 16.2743 4.01982 16.3712 4.05951C16.468 4.0992 16.5561 4.15758 16.6303 4.23131L16.6347 4.23569L17.7656 5.3735C17.9157 5.52486 18 5.72939 18 5.94256C18 6.15573 17.9157 6.36027 17.7656 6.51162Z" fill="#477DB3"/>
<path d="M10.271 14.0476L8.56569 15.7623C8.41683 15.9123 8.21448 15.9971 8.00316 15.9979C7.79183 15.9987 7.58883 15.9155 7.43881 15.7667L7.43444 15.7623L2.23444 10.5323C2.08427 10.3811 2 10.1766 2 9.96343C2 9.75028 2.08427 9.54578 2.23444 9.39452L3.36569 8.25671C3.5143 8.10708 3.7162 8.02249 3.92709 8.02149C4.13798 8.0205 4.34066 8.10317 4.49069 8.25139L4.49569 8.25671L10.271 14.0476Z" fill="#477DB3"/>
</svg>
