<svg width="18" height="18" viewBox="0 0 18 18" fill="none" xmlns="http://www.w3.org/2000/svg">
<path fill-rule="evenodd" clip-rule="evenodd" d="M2.12581 3.43686C1.79883 4.07859 1.79883 4.91867 1.79883 6.59883V11.3994C1.79883 13.0796 1.79883 13.9196 2.12581 14.5614C2.41343 15.1259 2.87237 15.5848 3.43686 15.8724C4.07859 16.1994 4.91867 16.1994 6.59883 16.1994H11.3994C13.0796 16.1994 13.9196 16.1994 14.5614 15.8724C15.1259 15.5848 15.5848 15.1259 15.8724 14.5614C16.1994 13.9196 16.1994 13.0796 16.1994 11.3994V6.59883C16.1994 4.91867 16.1994 4.07859 15.8724 3.43686C15.5848 2.87237 15.1259 2.41343 14.5614 2.12581C13.9196 1.79883 13.0796 1.79883 11.3994 1.79883H6.59883C4.91867 1.79883 4.07859 1.79883 3.43686 2.12581C2.87237 2.41343 2.41343 2.87237 2.12581 3.43686ZM12.4037 6.69019C12.1225 6.409 11.6666 6.409 11.3854 6.69019L7.57436 10.5012L6.26812 9.19499C5.98694 8.91381 5.53104 8.91381 5.24985 9.19499C4.96866 9.47618 4.96866 9.93208 5.24985 10.2133L7.06522 12.0286C7.34641 12.3098 7.80231 12.3098 8.0835 12.0286L12.4037 7.70847C12.6849 7.42728 12.6849 6.97138 12.4037 6.69019Z" fill="#477DB3"/>
</svg>
