<svg width="14" height="14" viewBox="0 0 14 14" fill="none" xmlns="http://www.w3.org/2000/svg">
<path opacity="0.4" d="M2.14778 9.91127C1.97624 10.0829 1.87988 10.3156 1.87988 10.5583C1.87988 10.8009 1.97624 11.0336 2.14778 11.2052L2.79476 11.8522C2.96639 12.0238 3.1991 12.1201 3.44175 12.1201C3.6844 12.1201 3.91711 12.0238 4.08874 11.8522L6.99988 8.94108L5.05892 7.00013L2.14778 9.91127ZM11.852 2.79501L11.205 2.14802C11.0334 1.97649 10.8007 1.88013 10.558 1.88013C10.3154 1.88013 10.0827 1.97649 9.91103 2.14802L6.99988 5.05917L8.94084 7.00013L11.852 4.08898C12.0235 3.91736 12.1199 3.68464 12.1199 3.44199C12.1199 3.19935 12.0235 2.96663 11.852 2.79501Z" fill="#748CAD"/>
<path d="M11.852 9.91127C12.0235 10.0829 12.1199 10.3156 12.1199 10.5583C12.1199 10.8009 12.0235 11.0336 11.852 11.2052L11.205 11.8522C11.0334 12.0238 10.8007 12.1201 10.558 12.1201C10.3154 12.1201 10.0827 12.0238 9.91103 11.8522L2.14778 4.08898C1.97624 3.91736 1.87988 3.68464 1.87988 3.44199C1.87988 3.19935 1.97624 2.96663 2.14778 2.79501L2.79476 2.14802C2.96639 1.97649 3.1991 1.88013 3.44175 1.88013C3.6844 1.88013 3.91711 1.97649 4.08874 2.14802L11.852 9.91127Z" fill="#748CAD"/>
<path d="M8.94083 7.00013L11.852 4.089C12.2092 3.73176 12.2092 3.15256 11.852 2.79504L11.205 2.14805C10.8477 1.79082 10.2685 1.79082 9.91101 2.14805L6.99988 5.05918L4.08876 2.14805C3.73152 1.79082 3.15232 1.79082 2.79479 2.14805L2.14781 2.79504C1.79057 3.15227 1.79057 3.73147 2.14781 4.089L5.05894 7.00013L2.14781 9.91125C1.79057 10.2685 1.79057 10.8477 2.14781 11.2052L2.79479 11.8522C3.15203 12.2094 3.73152 12.2094 4.08876 11.8522L6.99988 8.94107L9.91101 11.8522C10.2682 12.2094 10.8477 12.2094 11.205 11.8522L11.852 11.2052C12.2092 10.848 12.2092 10.2688 11.852 9.91125L8.94083 7.00013Z" fill="#748CAD"/>
</svg>
