<svg width="16" height="16" viewBox="0 0 16 16" fill="none" xmlns="http://www.w3.org/2000/svg">
<path d="M14 5.95967C13.9931 5.89843 13.9796 5.8381 13.96 5.77967V5.71967C13.9279 5.65113 13.8852 5.58812 13.8333 5.53301L9.83333 1.53301C9.77822 1.48115 9.71521 1.4384 9.64667 1.40634C9.62677 1.40351 9.60657 1.40351 9.58667 1.40634C9.51894 1.3675 9.44415 1.34257 9.36667 1.33301H6.66667C6.13623 1.33301 5.62753 1.54372 5.25245 1.91879C4.87738 2.29387 4.66667 2.80257 4.66667 3.33301V3.99967H4C3.46957 3.99967 2.96086 4.21039 2.58579 4.58546C2.21071 4.96053 2 5.46924 2 5.99967V12.6663C2 13.1968 2.21071 13.7055 2.58579 14.0806C2.96086 14.4556 3.46957 14.6663 4 14.6663H9.33333C9.86377 14.6663 10.3725 14.4556 10.7475 14.0806C11.1226 13.7055 11.3333 13.1968 11.3333 12.6663V11.9997H12C12.5304 11.9997 13.0391 11.789 13.4142 11.4139C13.7893 11.0388 14 10.5301 14 9.99967V5.99967C14 5.99967 14 5.99967 14 5.95967ZM10 3.60634L11.7267 5.33301H10.6667C10.4899 5.33301 10.3203 5.26277 10.1953 5.13775C10.0702 5.01272 10 4.84315 10 4.66634V3.60634ZM10 12.6663C10 12.8432 9.92976 13.0127 9.80474 13.1377C9.67971 13.2628 9.51014 13.333 9.33333 13.333H4C3.82319 13.333 3.65362 13.2628 3.5286 13.1377C3.40357 13.0127 3.33333 12.8432 3.33333 12.6663V5.99967C3.33333 5.82286 3.40357 5.65329 3.5286 5.52827C3.65362 5.40325 3.82319 5.33301 4 5.33301H4.66667V9.99967C4.66667 10.5301 4.87738 11.0388 5.25245 11.4139C5.62753 11.789 6.13623 11.9997 6.66667 11.9997H10V12.6663ZM12.6667 9.99967C12.6667 10.1765 12.5964 10.3461 12.4714 10.4711C12.3464 10.5961 12.1768 10.6663 12 10.6663H6.66667C6.48986 10.6663 6.32029 10.5961 6.19526 10.4711C6.07024 10.3461 6 10.1765 6 9.99967V3.33301C6 3.1562 6.07024 2.98663 6.19526 2.8616C6.32029 2.73658 6.48986 2.66634 6.66667 2.66634H8.66667V4.66634C8.66667 5.19677 8.87738 5.70548 9.25245 6.08055C9.62753 6.45563 10.1362 6.66634 10.6667 6.66634H12.6667V9.99967Z" fill="#737A91"/>
</svg>
