<svg width="16" height="16" viewBox="0 0 16 16" fill="none" xmlns="http://www.w3.org/2000/svg">
<path d="M13.3338 5.95967C13.3268 5.89843 13.3134 5.8381 13.2938 5.77967V5.71967C13.2617 5.65113 13.219 5.58812 13.1671 5.53301L9.16706 1.53301C9.11195 1.48115 9.04894 1.4384 8.98039 1.40634H8.92039L8.70705 1.33301H4.66701C4.13657 1.33301 3.62786 1.54372 3.25278 1.91879C2.87771 2.29387 2.66699 2.80257 2.66699 3.33301V12.6663C2.66699 13.1968 2.87771 13.7055 3.25278 14.0806C3.62786 14.4556 4.13657 14.6663 4.66701 14.6663H11.3337C11.8642 14.6663 12.3729 14.4556 12.748 14.0806C13.1231 13.7055 13.3338 13.1968 13.3338 12.6663V5.99967C13.3338 5.99967 13.3338 5.99967 13.3338 5.95967ZM9.33373 3.60634L11.0604 5.33301H9.33373V3.60634ZM12.0004 12.6663C12.0004 12.8432 11.9302 13.0127 11.8052 13.1377C11.6801 13.2628 11.5106 13.333 11.3337 13.333H4.66701C4.4902 13.333 4.32063 13.2628 4.1956 13.1377C4.07058 13.0127 4.00034 12.8432 4.00034 12.6663V3.33301C4.00034 3.1562 4.07058 2.98663 4.1956 2.8616C4.32063 2.73658 4.4902 2.66634 4.66701 2.66634H8.00038V5.99967C8.00038 6.17649 8.07062 6.34605 8.19564 6.47108C8.32067 6.5961 8.49024 6.66634 8.66705 6.66634H12.0004V12.6663Z" fill="#477DB3"/>
</svg>
