<svg width="80" height="80" viewBox="0 0 80 80" fill="none" xmlns="http://www.w3.org/2000/svg">
<path fill-rule="evenodd" clip-rule="evenodd" d="M5.82002 9.2057C10.3441 8.09898 14.5717 7.18593 18.5027 6.46655C23.0246 5.63905 27.6427 4.9784 32.357 4.48461C33.5993 4.3545 34.8453 4.69141 35.8684 5.43408L54.7573 19.1449C55.743 19.8604 56.4599 20.9076 56.7867 22.1089L56.9202 22.6058C58.0571 26.8894 59.2554 32.7155 60.5152 40.0841L60.7747 41.6192C61.8085 47.8031 62.5595 53.1669 63.0278 57.7104L63.0684 58.1092C63.3309 60.7215 61.7478 63.1521 59.3143 63.8731C53.2621 65.6661 46.1202 67.324 37.8885 68.8468L37.2842 68.9579C29.1791 70.4412 22.301 71.3796 16.6499 71.7733L16.2831 71.7982C13.8067 71.9619 11.5623 70.2913 10.9176 67.8044C8.84495 59.8104 6.9107 50.5282 5.11482 39.9578L4.92816 38.8514C3.36267 29.5049 2.33536 21.6411 1.84623 15.26L1.81808 14.8864C1.62471 12.274 3.26168 9.90055 5.69141 9.23893L5.82002 9.2057Z" fill="#959BE0" fill-opacity="0.06" stroke="#32587D" stroke-width="1.39" stroke-linecap="round"/>
<mask id="mask0" style="mask-type:alpha" maskUnits="userSpaceOnUse" x="1" y="3" width="63" height="70">
<path fill-rule="evenodd" clip-rule="evenodd" d="M5.82002 9.2057C10.3441 8.09898 14.5717 7.18593 18.5027 6.46655C23.0246 5.63905 27.6427 4.9784 32.357 4.48461C33.5993 4.3545 34.8453 4.69141 35.8684 5.43408L54.7573 19.1449C55.743 19.8604 56.4599 20.9076 56.7867 22.1089L56.9202 22.6058C58.0571 26.8894 59.2554 32.7155 60.5152 40.0841L60.7747 41.6192C61.8085 47.8031 62.5595 53.1669 63.0278 57.7104L63.0684 58.1092C63.3309 60.7215 61.7478 63.1521 59.3143 63.8731C53.2621 65.6661 46.1202 67.324 37.8885 68.8468L37.2842 68.9579C29.1791 70.4412 22.301 71.3796 16.6499 71.7733L16.2831 71.7982C13.8067 71.9619 11.5623 70.2913 10.9176 67.8044C8.84495 59.8104 6.9107 50.5282 5.11482 39.9578L4.92816 38.8514C3.36267 29.5049 2.33536 21.6411 1.84623 15.26L1.81808 14.8864C1.62471 12.274 3.26168 9.90055 5.69141 9.23893L5.82002 9.2057Z" fill="white" stroke="white" stroke-width="1.39" stroke-linecap="round"/>
</mask>
<g mask="url(#mask0)">
<path fill-rule="evenodd" clip-rule="evenodd" d="M34.5652 4.24219L55.6586 20.0449L40.8856 22.7484C39.1843 23.0597 37.5619 21.8808 37.262 20.1151L34.5652 4.24219Z" fill="white" stroke="#32587D" stroke-width="1.39" stroke-linecap="round"/>
<path fill-rule="evenodd" clip-rule="evenodd" d="M18.0545 32.4862C18.0545 32.4862 21.6723 28.8694 24.3221 30.8902C25.3765 31.6943 27.516 33.5193 23.3167 42.1228C20.9341 47.0044 25.3056 48.4273 27.9121 44.863C31.6888 39.6986 33.0743 36.2202 37.6406 37.3039C41.9195 38.3195 43.075 46.0634 39.7656 49.8118C36.4562 53.5602 31.4147 49.5441 33.7823 45.5191C36.1499 41.494 40.2482 39.1478 46.3591 40.0054" fill="#959BE0" fill-opacity="0.06"/>
<path d="M18.0545 32.4862C18.0545 32.4862 21.6723 28.8694 24.3221 30.8902C25.3765 31.6943 27.516 33.5193 23.3167 42.1228C20.9341 47.0044 25.3056 48.4273 27.9121 44.863C31.6888 39.6986 33.0743 36.2202 37.6406 37.3039C41.9195 38.3195 43.075 46.0634 39.7656 49.8118C36.4562 53.5602 31.4147 49.5441 33.7823 45.5191C36.1499 41.494 40.2482 39.1478 46.3591 40.0054" stroke="#32587D" stroke-width="1.39" stroke-linecap="round"/>
</g>
<path fill-rule="evenodd" clip-rule="evenodd" d="M76.7992 30.4404L75.3306 32.8689C70.5965 40.6687 66.4837 47.1641 62.9921 52.3549L62.7791 52.6711C58.8419 58.5068 54.6806 64.1797 50.2951 69.6896C49.2051 71.0591 47.9349 72.2626 46.5219 73.2647L41.6656 76.7087C40.9525 77.2144 39.9793 77.0244 39.492 76.2843C39.2382 75.8988 39.1566 75.4186 39.268 74.9663L40.7252 69.0531C41.1494 67.3319 41.8048 65.6812 42.6722 64.1496C46.1646 57.9828 49.8776 51.9843 53.8111 46.154L54.4581 45.1994C58.2593 39.6152 63.1548 32.8412 69.1445 24.8776C70.6763 22.841 73.4767 22.406 75.516 23.8879C77.5553 25.3699 78.1193 28.2498 76.7992 30.4404Z" fill="white" stroke="#32587D" stroke-width="1.39" stroke-linecap="round"/>
</svg>
