<svg width="424" height="173" viewBox="0 0 424 173" fill="none" xmlns="http://www.w3.org/2000/svg">
<rect width="424" height="173" rx="10" fill="#FCFCFC"/>
<path d="M106.654 91.7883L176.277 91.6411C184.44 91.6411 191.045 86.8608 191.045 80.9523V49.6888C191.045 43.7717 197.667 38.9878 205.842 39L284 39.1169M168.862 91.7201L172.763 91.7883C180.755 91.9279 187.171 96.6321 187.261 102.418L187.726 132.367C187.818 138.283 194.512 143.041 202.685 143L280.843 142.605" stroke="#477DB3" stroke-opacity="0.29" stroke-width="0.7" stroke-linejoin="round" stroke-dasharray="2.98 2.98"/>
<path d="M222.129 142.646C222.129 144.107 223.314 145.292 224.776 145.292C226.237 145.292 227.422 144.107 227.422 142.646C227.422 141.184 226.237 139.999 224.776 139.999C223.314 139.999 222.129 141.184 222.129 142.646ZM224.035 143.142H224.776V142.149H224.035V143.142Z" fill="#B8C7D7"/>
<path d="M222.129 39.187C222.129 40.6487 223.314 41.8336 224.776 41.8336C226.237 41.8336 227.422 40.6487 227.422 39.187C227.422 37.7253 226.237 36.5404 224.776 36.5404C223.314 36.5404 222.129 37.7253 222.129 39.187ZM224.035 39.6832H224.776V38.6907H224.035V39.6832Z" fill="#B8C7D7"/>
<path d="M140.664 91.1821C140.664 92.6438 141.849 93.8287 143.311 93.8287C144.773 93.8287 145.958 92.6438 145.958 91.1821C145.958 89.7204 144.773 88.5355 143.311 88.5355C141.849 88.5355 140.664 89.7204 140.664 91.1821ZM142.57 91.6783H143.311V90.6859H142.57V91.6783Z" fill="#B8C7D7"/>
<rect x="62" y="71" width="48" height="48" rx="24" fill="#EDF2F7"/>
<path d="M82.1028 90.6923H84.5643C84.7819 90.6923 84.9906 90.6059 85.1445 90.452C85.2984 90.2981 85.3848 90.0894 85.3848 89.8718C85.3848 89.6542 85.2984 89.4455 85.1445 89.2916C84.9906 89.1377 84.7819 89.0513 84.5643 89.0513H82.1028C81.8852 89.0513 81.6765 89.1377 81.5226 89.2916C81.3687 89.4455 81.2823 89.6542 81.2823 89.8718C81.2823 90.0894 81.3687 90.2981 81.5226 90.452C81.6765 90.6059 81.8852 90.6923 82.1028 90.6923ZM88.6669 90.6923C88.8292 90.6923 88.9878 90.6442 89.1227 90.554C89.2577 90.4639 89.3628 90.3357 89.4249 90.1858C89.487 90.0359 89.5033 89.8709 89.4716 89.7117C89.44 89.5526 89.3618 89.4064 89.2471 89.2916C89.1323 89.1769 88.9861 89.0987 88.8269 89.067C88.6678 89.0354 88.5028 89.0516 88.3529 89.1137C88.2029 89.1758 88.0748 89.281 87.9846 89.4159C87.8945 89.5509 87.8464 89.7095 87.8464 89.8718C87.8464 90.0894 87.9328 90.2981 88.0867 90.452C88.2406 90.6059 88.4493 90.6923 88.6669 90.6923ZM88.6669 93.9744C88.5046 93.9744 88.3459 94.0225 88.211 94.1126C88.0761 94.2028 87.9709 94.3309 87.9088 94.4809C87.8467 94.6308 87.8305 94.7958 87.8621 94.9549C87.8938 95.1141 87.9719 95.2603 88.0867 95.3751C88.2014 95.4898 88.3476 95.568 88.5068 95.5996C88.666 95.6313 88.8309 95.615 88.9809 95.5529C89.1308 95.4908 89.2589 95.3857 89.3491 95.2507C89.4393 95.1158 89.4874 94.9572 89.4874 94.7949C89.4874 94.5773 89.4009 94.3686 89.2471 94.2147C89.0932 94.0608 88.8845 93.9744 88.6669 93.9744ZM92.7694 101.359H87.6987C87.5761 101.015 87.3786 100.702 87.1203 100.444C86.862 100.186 86.5495 99.9882 86.2053 99.8656V98.0769H89.4874C90.1402 98.0769 90.7663 97.8176 91.228 97.356C91.6896 96.8943 91.9489 96.2682 91.9489 95.6154V93.9744C91.9453 93.3671 91.7174 92.7827 91.3089 92.3333C91.7174 91.884 91.9453 91.2995 91.9489 90.6923V89.0513C91.9489 88.3984 91.6896 87.7723 91.228 87.3107C90.7663 86.8491 90.1402 86.5897 89.4874 86.5897H81.2823C80.6294 86.5897 80.0033 86.8491 79.5417 87.3107C79.0801 87.7723 78.8207 88.3984 78.8207 89.0513V90.6923C78.8243 91.2995 79.0523 91.884 79.4607 92.3333C79.0523 92.7827 78.8243 93.3671 78.8207 93.9744V95.6154C78.8207 96.2682 79.0801 96.8943 79.5417 97.356C80.0033 97.8176 80.6294 98.0769 81.2823 98.0769H84.5643V99.8656C84.2202 99.9882 83.9076 100.186 83.6493 100.444C83.3911 100.702 83.1935 101.015 83.071 101.359H78.0002C77.7826 101.359 77.5739 101.445 77.42 101.599C77.2661 101.753 77.1797 101.962 77.1797 102.179C77.1797 102.397 77.2661 102.606 77.42 102.76C77.5739 102.914 77.7826 103 78.0002 103H83.071C83.2434 103.475 83.558 103.886 83.972 104.176C84.386 104.466 84.8793 104.622 85.3848 104.622C85.8904 104.622 86.3836 104.466 86.7976 104.176C87.2116 103.886 87.5262 103.475 87.6987 103H92.7694C92.987 103 93.1957 102.914 93.3496 102.76C93.5035 102.606 93.5899 102.397 93.5899 102.179C93.5899 101.962 93.5035 101.753 93.3496 101.599C93.1957 101.445 92.987 101.359 92.7694 101.359ZM80.4617 89.0513C80.4617 88.8337 80.5482 88.625 80.7021 88.4711C80.8559 88.3172 81.0646 88.2308 81.2823 88.2308H89.4874C89.705 88.2308 89.9137 88.3172 90.0676 88.4711C90.2214 88.625 90.3079 88.8337 90.3079 89.0513V90.6923C90.3079 90.9099 90.2214 91.1186 90.0676 91.2725C89.9137 91.4264 89.705 91.5128 89.4874 91.5128H81.2823C81.0646 91.5128 80.8559 91.4264 80.7021 91.2725C80.5482 91.1186 80.4617 90.9099 80.4617 90.6923V89.0513ZM81.2823 96.4359C81.0646 96.4359 80.8559 96.3495 80.7021 96.1956C80.5482 96.0417 80.4617 95.833 80.4617 95.6154V93.9744C80.4617 93.7567 80.5482 93.548 80.7021 93.3942C80.8559 93.2403 81.0646 93.1538 81.2823 93.1538H89.4874C89.705 93.1538 89.9137 93.2403 90.0676 93.3942C90.2214 93.548 90.3079 93.7567 90.3079 93.9744V95.6154C90.3079 95.833 90.2214 96.0417 90.0676 96.1956C89.9137 96.3495 89.705 96.4359 89.4874 96.4359H81.2823ZM85.3848 103C85.2225 103 85.0639 102.952 84.929 102.862C84.794 102.772 84.6889 102.643 84.6268 102.493C84.5647 102.344 84.5484 102.179 84.5801 102.019C84.6117 101.86 84.6899 101.714 84.8046 101.599C84.9194 101.485 85.0656 101.406 85.2247 101.375C85.3839 101.343 85.5489 101.359 85.6988 101.421C85.8487 101.484 85.9769 101.589 86.067 101.724C86.1572 101.859 86.2053 102.017 86.2053 102.179C86.2053 102.397 86.1189 102.606 85.965 102.76C85.8111 102.914 85.6024 103 85.3848 103ZM84.5643 93.9744H82.1028C81.8852 93.9744 81.6765 94.0608 81.5226 94.2147C81.3687 94.3686 81.2823 94.5773 81.2823 94.7949C81.2823 95.0125 81.3687 95.2212 81.5226 95.3751C81.6765 95.5289 81.8852 95.6154 82.1028 95.6154H84.5643C84.7819 95.6154 84.9906 95.5289 85.1445 95.3751C85.2984 95.2212 85.3848 95.0125 85.3848 94.7949C85.3848 94.5773 85.2984 94.3686 85.1445 94.2147C84.9906 94.0608 84.7819 93.9744 84.5643 93.9744Z" fill="#477DB3"/>
<rect x="282" y="17.5" width="48" height="48" rx="24" fill="#EDF2F7"/>
<path d="M302.104 49.5H308.668" stroke="#477DB3" stroke-width="1.64103" stroke-linecap="round" stroke-linejoin="round"/>
<path d="M305.385 46.2179V49.5" stroke="#477DB3" stroke-width="1.64103" stroke-linecap="round" stroke-linejoin="round"/>
<path d="M311.949 34.7308H298.821C297.914 34.7308 297.18 35.4655 297.18 36.3718V44.5769C297.18 45.4832 297.914 46.2179 298.821 46.2179H311.949C312.855 46.2179 313.59 45.4832 313.59 44.5769V36.3718C313.59 35.4655 312.855 34.7308 311.949 34.7308Z" stroke="#477DB3" stroke-width="1.64103" stroke-linecap="round" stroke-linejoin="round"/>
<rect x="282" y="114.5" width="48" height="48" rx="24" fill="#EDF2F7"/>
<path d="M312.769 133.885V143.115C312.769 146.808 311.846 147.731 308.154 147.731H302.615C298.923 147.731 298 146.808 298 143.115V133.885C298 130.192 298.923 129.269 302.615 129.269H308.154C311.846 129.269 312.769 130.192 312.769 133.885Z" stroke="#477DB3" stroke-width="1.38462" stroke-linecap="round" stroke-linejoin="round"/>
<path d="M307.231 132.5H303.539" stroke="#477DB3" stroke-width="1.38462" stroke-linecap="round" stroke-linejoin="round"/>
<path d="M305.384 145.054C306.174 145.054 306.815 144.413 306.815 143.623C306.815 142.833 306.174 142.192 305.384 142.192C304.594 142.192 303.953 142.833 303.953 143.623C303.953 144.413 304.594 145.054 305.384 145.054Z" stroke="#477DB3" stroke-width="1.38462" stroke-linecap="round" stroke-linejoin="round"/>
</svg>
