<svg width="64" height="64" viewBox="0 0 64 64" fill="none" xmlns="http://www.w3.org/2000/svg">
<rect width="64" height="64" rx="8" fill="#EBF1FF"/>
<g clip-path="url(#clip0_259_2195)">
<path opacity="0.4" d="M22.5 32.0001V25.5938C22.5 20.3438 26.7188 16.0188 31.9688 16.0001C37.2188 15.9813 41.5 20.2501 41.5 25.5001V26.5001C41.5005 26.6972 41.462 26.8925 41.3868 27.0747C41.3116 27.2569 41.2012 27.4224 41.0618 27.5618C40.9224 27.7012 40.7568 27.8117 40.5746 27.8869C40.3924 27.9621 40.1971 28.0006 40 28.0001H38C37.8029 28.0006 37.6076 27.9621 37.4254 27.8869C37.2432 27.8117 37.0776 27.7012 36.9382 27.5618C36.7989 27.4224 36.6884 27.2569 36.6132 27.0747C36.538 26.8925 36.4995 26.6972 36.5 26.5001V25.5001C36.4991 24.9057 36.3807 24.3173 36.1515 23.7689C35.9223 23.2205 35.5868 22.7228 35.1645 22.3046C34.7422 21.8863 34.2413 21.5557 33.6907 21.3318C33.1401 21.108 32.5506 20.9952 31.9563 21.0001C29.4813 21.0251 27.5 23.0813 27.5 25.5563V32.0001H22.5Z" fill="#32587D"/>
<path d="M43 32H21C20.2044 32 19.4413 32.3161 18.8787 32.8787C18.3161 33.4413 18 34.2044 18 35V45C18 45.7956 18.3161 46.5587 18.8787 47.1213C19.4413 47.6839 20.2044 48 21 48H43C43.7956 48 44.5587 47.6839 45.1213 47.1213C45.6839 46.5587 46 45.7956 46 45V35C46 34.2044 45.6839 33.4413 45.1213 32.8787C44.5587 32.3161 43.7956 32 43 32ZM34.5 41.5C34.5 42.163 34.2366 42.7989 33.7678 43.2678C33.2989 43.7366 32.663 44 32 44C31.337 44 30.7011 43.7366 30.2322 43.2678C29.7634 42.7989 29.5 42.163 29.5 41.5V38.5C29.5 37.837 29.7634 37.2011 30.2322 36.7322C30.7011 36.2634 31.337 36 32 36C32.663 36 33.2989 36.2634 33.7678 36.7322C34.2366 37.2011 34.5 37.837 34.5 38.5V41.5Z" fill="#32587D"/>
</g>
<defs>
<clipPath id="clip0_259_2195">
<rect width="28" height="32" fill="white" transform="translate(18 16)"/>
</clipPath>
</defs>
</svg>
