<svg width="24" height="24" viewBox="0 0 24 24" fill="none" xmlns="http://www.w3.org/2000/svg">
<path opacity="0.4" d="M11.9828 4.00003C8.79501 4.00972 6.50001 6.59378 6.50001 9.50003C6.49815 10.8316 6.98216 12.118 7.86126 13.1182C8.37751 13.7072 9.18501 14.9375 9.49282 15.9757C9.49282 15.9844 9.49501 15.9922 9.49626 16H14.5038C14.5038 15.9922 14.5059 15.9844 14.5072 15.9757C14.815 14.9375 15.6225 13.7072 16.1388 13.1182C17.0178 12.118 17.5019 10.8316 17.5 9.50003C17.5 6.45722 15.0284 3.99034 11.9828 4.00003ZM12 7.00003C11.3372 7.00077 10.7017 7.2644 10.2331 7.73308C9.76438 8.20176 9.50075 8.83722 9.50001 9.50003C9.50001 9.63264 9.44733 9.75981 9.35356 9.85358C9.25979 9.94735 9.13261 10 9.00001 10C8.8674 10 8.74022 9.94735 8.64645 9.85358C8.55268 9.75981 8.50001 9.63264 8.50001 9.50003C8.501 8.57208 8.87007 7.68241 9.52623 7.02625C10.1824 6.37009 11.0721 6.00102 12 6.00003C12.1326 6.00003 12.2598 6.05271 12.3536 6.14647C12.4473 6.24024 12.5 6.36742 12.5 6.50003C12.5 6.63264 12.4473 6.75981 12.3536 6.85358C12.2598 6.94735 12.1326 7.00003 12 7.00003Z" fill="#477DB3"/>
<path d="M9.50187 18.1981C9.5023 18.3945 9.56055 18.5865 9.66937 18.75L10.2037 19.5528C10.3672 19.8 10.7403 19.9991 11.0363 19.9991H12.9644C13.2603 19.9991 13.6334 19.8 13.7969 19.5528L14.3309 18.75C14.4325 18.583 14.4906 18.3933 14.5 18.1981V17H9.5L9.50187 18.1981ZM5.5 10C5.5 9.80109 5.42098 9.61033 5.28033 9.46967C5.13968 9.32902 4.94891 9.25 4.75 9.25H2.75C2.55109 9.25 2.36032 9.32902 2.21967 9.46967C2.07902 9.61033 2 9.80109 2 10C2 10.1989 2.07902 10.3897 2.21967 10.5303C2.36032 10.671 2.55109 10.75 2.75 10.75H4.75C4.94891 10.75 5.13968 10.671 5.28033 10.5303C5.42098 10.3897 5.5 10.1989 5.5 10ZM21.25 9.25H19.25C19.0511 9.25 18.8603 9.32902 18.7197 9.46967C18.579 9.61033 18.5 9.80109 18.5 10C18.5 10.1989 18.579 10.3897 18.7197 10.5303C18.8603 10.671 19.0511 10.75 19.25 10.75H21.25C21.4489 10.75 21.6397 10.671 21.7803 10.5303C21.921 10.3897 22 10.1989 22 10C22 9.80109 21.921 9.61033 21.7803 9.46967C21.6397 9.32902 21.4489 9.25 21.25 9.25ZM6.09625 5.72563L4.36438 4.72563C4.27901 4.67423 4.18426 4.64037 4.08566 4.626C3.98706 4.61163 3.88658 4.61706 3.7901 4.64196C3.69362 4.66686 3.60307 4.71074 3.52373 4.77103C3.4444 4.83132 3.37788 4.90681 3.32805 4.9931C3.27822 5.07939 3.24608 5.17474 3.23352 5.27359C3.22095 5.37244 3.22821 5.4728 3.25487 5.56881C3.28152 5.66482 3.32704 5.75455 3.38877 5.83278C3.4505 5.911 3.52719 5.97613 3.61437 6.02438L5.34625 7.02438C5.43162 7.07577 5.52637 7.10964 5.62497 7.12401C5.72357 7.13838 5.82404 7.13295 5.92053 7.10805C6.01701 7.08315 6.10756 7.03927 6.18689 6.97898C6.26622 6.91869 6.33275 6.8432 6.38258 6.75691C6.43241 6.67062 6.46454 6.57527 6.47711 6.47642C6.48967 6.37757 6.48242 6.27721 6.45576 6.1812C6.4291 6.08519 6.38358 5.99545 6.32185 5.91723C6.26013 5.83901 6.18343 5.77388 6.09625 5.72563ZM20.3856 13.9756L18.6537 12.9756C18.5684 12.9242 18.4736 12.8904 18.375 12.876C18.2764 12.8616 18.176 12.8671 18.0795 12.892C17.983 12.9169 17.8924 12.9607 17.8131 13.021C17.7338 13.0813 17.6673 13.1568 17.6174 13.2431C17.5676 13.3294 17.5355 13.4247 17.5229 13.5236C17.5103 13.6224 17.5176 13.7228 17.5442 13.8188C17.5709 13.9148 17.6164 14.0046 17.6781 14.0828C17.7399 14.161 17.8166 14.2261 17.9038 14.2744L19.6356 15.2744C19.8076 15.3695 20.01 15.3934 20.1994 15.3408C20.3888 15.2882 20.55 15.1634 20.6483 14.9932C20.7465 14.823 20.7741 14.621 20.725 14.4307C20.6759 14.2404 20.554 14.077 20.3856 13.9756ZM5.34625 12.9756L3.61437 13.9756C3.52719 14.0239 3.4505 14.089 3.38877 14.1672C3.32704 14.2455 3.28152 14.3352 3.25487 14.4312C3.22821 14.5272 3.22095 14.6276 3.23352 14.7264C3.24608 14.8253 3.27822 14.9206 3.32805 15.0069C3.37788 15.0932 3.4444 15.1687 3.52373 15.229C3.60307 15.2893 3.69362 15.3331 3.7901 15.358C3.88658 15.3829 3.98706 15.3884 4.08566 15.374C4.18426 15.3596 4.27901 15.3258 4.36438 15.2744L6.09625 14.2744C6.26463 14.173 6.38649 14.0096 6.43561 13.8193C6.48472 13.629 6.45718 13.427 6.35889 13.2568C6.2606 13.0866 6.09943 12.9618 5.91005 12.9092C5.72067 12.8566 5.51822 12.8805 5.34625 12.9756ZM18.2794 7.125C18.4111 7.12526 18.5405 7.09053 18.6544 7.02438L20.3862 6.02438C20.5546 5.923 20.6765 5.75958 20.7256 5.56928C20.7747 5.37897 20.7472 5.17698 20.6489 5.00678C20.5506 4.83658 20.3894 4.71176 20.2 4.65918C20.0107 4.6066 19.8082 4.63046 19.6362 4.72563L17.9044 5.72563C17.7615 5.80821 17.6498 5.93563 17.5867 6.08813C17.5235 6.24064 17.5125 6.40971 17.5552 6.56914C17.5979 6.72857 17.692 6.86945 17.823 6.96995C17.9539 7.07045 18.1143 7.12495 18.2794 7.125Z" fill="#477DB3"/>
</svg>
