<svg width="32" height="32" viewBox="0 0 32 32" fill="none" xmlns="http://www.w3.org/2000/svg">
<rect width="32" height="32" rx="8" fill="#477DB3"/>
<path d="M15.9999 15.0833C15.7568 15.0833 15.5237 15.1799 15.3517 15.3518C15.1798 15.5237 15.0833 15.7569 15.0833 16V19.6667C15.0833 19.9098 15.1798 20.143 15.3517 20.3149C15.5237 20.4868 15.7568 20.5833 15.9999 20.5833C16.243 20.5833 16.4762 20.4868 16.6481 20.3149C16.82 20.143 16.9166 19.9098 16.9166 19.6667V16C16.9166 15.7569 16.82 15.5237 16.6481 15.3518C16.4762 15.1799 16.243 15.0833 15.9999 15.0833ZM16.3483 11.49C16.1251 11.3983 15.8748 11.3983 15.6516 11.49C15.5391 11.5336 15.4363 11.5991 15.3491 11.6825C15.2681 11.7716 15.203 11.8739 15.1566 11.985C15.1053 12.0938 15.0802 12.2131 15.0833 12.3333C15.0826 12.454 15.1057 12.5736 15.1513 12.6853C15.1969 12.7969 15.2641 12.8985 15.3491 12.9842C15.4382 13.0651 15.5405 13.1303 15.6516 13.1767C15.7905 13.2337 15.9412 13.2558 16.0906 13.2409C16.24 13.2261 16.3835 13.1748 16.5084 13.0915C16.6333 13.0082 16.7359 12.8955 16.8071 12.7633C16.8782 12.6311 16.9158 12.4835 16.9166 12.3333C16.9132 12.0906 16.8183 11.8582 16.6508 11.6825C16.5636 11.5991 16.4608 11.5336 16.3483 11.49ZM15.9999 6.83334C14.1869 6.83334 12.4146 7.37096 10.9072 8.37821C9.39974 9.38545 8.22483 10.8171 7.53103 12.4921C6.83722 14.1671 6.65569 16.0102 7.00939 17.7883C7.36309 19.5665 8.23613 21.1998 9.51811 22.4818C10.8001 23.7638 12.4334 24.6368 14.2116 24.9905C15.9898 25.3442 17.8329 25.1627 19.5079 24.4689C21.1828 23.7751 22.6145 22.6002 23.6217 21.0927C24.629 19.5853 25.1666 17.813 25.1666 16C25.1666 14.7962 24.9295 13.6042 24.4688 12.4921C24.0082 11.3799 23.3329 10.3694 22.4817 9.5182C21.6305 8.66699 20.62 7.99178 19.5079 7.53111C18.3957 7.07045 17.2037 6.83334 15.9999 6.83334ZM15.9999 23.3333C14.5495 23.3333 13.1317 22.9032 11.9257 22.0975C10.7198 21.2917 9.77985 20.1463 9.22481 18.8064C8.66976 17.4664 8.52454 15.9919 8.8075 14.5693C9.09046 13.1468 9.78889 11.8401 10.8145 10.8146C11.8401 9.78898 13.1467 9.09054 14.5693 8.80758C15.9918 8.52463 17.4663 8.66985 18.8063 9.22489C20.1463 9.77994 21.2916 10.7199 22.0974 11.9258C22.9032 13.1318 23.3333 14.5496 23.3333 16C23.3333 17.9449 22.5606 19.8102 21.1854 21.1855C19.8101 22.5607 17.9448 23.3333 15.9999 23.3333Z" fill="#FCFCFC"/>
</svg>
