<svg width="16" height="16" viewBox="0 0 16 16" fill="none" xmlns="http://www.w3.org/2000/svg">
<path d="M6.66623 11.7004L5.48623 12.8471C5.17681 13.1565 4.75715 13.3303 4.31957 13.3303C3.88198 13.3303 3.46232 13.1565 3.1529 12.8471C2.84348 12.5376 2.66965 12.118 2.66965 11.6804C2.66965 11.2428 2.84348 10.8231 3.1529 10.5137L6.17957 7.48039C6.47664 7.18235 6.87691 7.00991 7.29757 6.99874C7.71824 6.98757 8.1271 7.13853 8.43957 7.42039L8.51957 7.48706C8.64599 7.61082 8.81639 7.6793 8.9933 7.67743C9.17021 7.67555 9.33913 7.60348 9.4629 7.47706C9.58667 7.35064 9.65514 7.18023 9.65327 7.00332C9.65139 6.82641 9.57932 6.65749 9.4529 6.53372C9.41527 6.48507 9.37522 6.43835 9.3329 6.39372C8.7638 5.8986 8.02779 5.63829 7.27394 5.66552C6.5201 5.69275 5.80479 6.00549 5.2729 6.54039L2.20623 9.57372C1.68514 10.1409 1.40331 10.8875 1.41962 11.6576C1.43592 12.4276 1.74909 13.1616 2.29372 13.7062C2.83835 14.2509 3.57234 14.564 4.3424 14.5803C5.11245 14.5966 5.85904 14.3148 6.42623 13.7937L7.57957 12.6671C7.69344 12.5428 7.75604 12.3801 7.75477 12.2115C7.7535 12.043 7.68845 11.8812 7.57271 11.7587C7.45696 11.6362 7.29912 11.5621 7.13094 11.5513C6.96276 11.5405 6.79672 11.5937 6.66623 11.7004ZM13.7929 2.20706C13.2321 1.64973 12.4735 1.33691 11.6829 1.33691C10.8922 1.33691 10.1337 1.64973 9.5729 2.20706L8.41957 3.33372C8.30569 3.45796 8.24309 3.62071 8.24436 3.78923C8.24563 3.95776 8.31068 4.11955 8.42642 4.24205C8.54217 4.36455 8.70001 4.43866 8.86819 4.44949C9.03637 4.46031 9.20241 4.40704 9.3329 4.30039L10.4862 3.15372C10.7957 2.8443 11.2153 2.67047 11.6529 2.67047C12.0905 2.67047 12.5101 2.8443 12.8196 3.15372C13.129 3.46314 13.3028 3.8828 13.3028 4.32039C13.3028 4.75797 13.129 5.17764 12.8196 5.48706L9.7929 8.52039C9.49582 8.81843 9.09555 8.99087 8.67489 9.00204C8.25423 9.01321 7.84537 8.86225 7.5329 8.58039L7.4529 8.51372C7.32648 8.38996 7.15607 8.32148 6.97916 8.32335C6.80225 8.32523 6.63333 8.3973 6.50957 8.52372C6.3858 8.65014 6.31732 8.82055 6.31919 8.99746C6.32107 9.17437 6.39315 9.34329 6.51957 9.46706C6.56799 9.51658 6.61918 9.56332 6.6729 9.60706C7.24268 10.1007 7.97838 10.36 8.73177 10.3328C9.48515 10.3056 10.2002 9.99385 10.7329 9.46039L13.7662 6.42706C14.3271 5.86977 14.6447 5.11321 14.6497 4.32255C14.6547 3.5319 14.3467 2.77138 13.7929 2.20706Z" fill="#477DB3"/>
</svg>
