<svg width="14" height="18" viewBox="0 0 14 18" fill="none" xmlns="http://www.w3.org/2000/svg">
<path d="M11.1673 6.50033V4.83366C11.1673 3.72859 10.7283 2.66878 9.94693 1.88738C9.16553 1.10598 8.10572 0.666992 7.00065 0.666992C5.89558 0.666992 4.83577 1.10598 4.05437 1.88738C3.27297 2.66878 2.83398 3.72859 2.83398 4.83366V6.50033C2.17094 6.50033 1.53506 6.76372 1.06622 7.23256C0.597377 7.7014 0.333984 8.33728 0.333984 9.00033V14.8337C0.333984 15.4967 0.597377 16.1326 1.06622 16.6014C1.53506 17.0703 2.17094 17.3337 2.83398 17.3337H11.1673C11.8304 17.3337 12.4662 17.0703 12.9351 16.6014C13.4039 16.1326 13.6673 15.4967 13.6673 14.8337V9.00033C13.6673 8.33728 13.4039 7.7014 12.9351 7.23256C12.4662 6.76372 11.8304 6.50033 11.1673 6.50033ZM4.50065 4.83366C4.50065 4.17062 4.76404 3.53473 5.23288 3.06589C5.70172 2.59705 6.33761 2.33366 7.00065 2.33366C7.66369 2.33366 8.29958 2.59705 8.76842 3.06589C9.23726 3.53473 9.50065 4.17062 9.50065 4.83366V6.50033H4.50065V4.83366ZM12.0007 14.8337C12.0007 15.0547 11.9129 15.2666 11.7566 15.4229C11.6003 15.5792 11.3883 15.667 11.1673 15.667H2.83398C2.61297 15.667 2.40101 15.5792 2.24473 15.4229C2.08845 15.2666 2.00065 15.0547 2.00065 14.8337V9.00033C2.00065 8.77931 2.08845 8.56735 2.24473 8.41107C2.40101 8.25479 2.61297 8.16699 2.83398 8.16699H11.1673C11.3883 8.16699 11.6003 8.25479 11.7566 8.41107C11.9129 8.56735 12.0007 8.77931 12.0007 9.00033V14.8337Z" fill="#477DB3"/>
</svg>
