<svg width="50" height="44" viewBox="0 0 50 44" fill="none" xmlns="http://www.w3.org/2000/svg">
<path opacity="0.1" d="M37.0833 12.9167H12.9166C12.2757 12.9167 11.661 13.1713 11.2078 13.6245C10.7546 14.0777 10.5 14.6924 10.5 15.3333C10.5 15.9743 10.7546 16.5889 11.2078 17.0422C11.661 17.4954 12.2757 17.75 12.9166 17.75H37.0833C37.7243 17.75 38.3389 17.4954 38.7922 17.0422C39.2454 16.5889 39.5 15.9743 39.5 15.3333C39.5 14.6924 39.2454 14.0777 38.7922 13.6245C38.3389 13.1713 37.7243 12.9167 37.0833 12.9167ZM37.0833 22.5833H12.9166C12.2757 22.5833 11.661 22.8379 11.2078 23.2911C10.7546 23.7444 10.5 24.359 10.5 25C10.5 25.6409 10.7546 26.2556 11.2078 26.7088C11.661 27.162 12.2757 27.4167 12.9166 27.4167H37.0833C37.7243 27.4167 38.3389 27.162 38.7922 26.7088C39.2454 26.2556 39.5 25.6409 39.5 25C39.5 24.359 39.2454 23.7444 38.7922 23.2911C38.3389 22.8379 37.7243 22.5833 37.0833 22.5833ZM41.9166 0.833317H8.08331C6.16049 0.833317 4.31643 1.59715 2.95679 2.95679C1.59715 4.31643 0.833313 6.1605 0.833313 8.08332V32.25C0.833313 34.1728 1.59715 36.0169 2.95679 37.3765C4.31643 38.7361 6.16049 39.5 8.08331 39.5H36.0925L45.0341 48.4658C45.26 48.6898 45.5278 48.867 45.8222 48.9873C46.1166 49.1075 46.4319 49.1685 46.75 49.1667C47.067 49.1748 47.3815 49.1086 47.6683 48.9733C48.1096 48.792 48.4874 48.4841 48.7541 48.0885C49.0207 47.6928 49.1643 47.2271 49.1666 46.75V8.08332C49.1666 6.1605 48.4028 4.31643 47.0432 2.95679C45.6835 1.59715 43.8395 0.833317 41.9166 0.833317ZM44.3333 40.9258L38.7991 35.3675C38.5733 35.1435 38.3055 34.9663 38.0111 34.846C37.7166 34.7258 37.4014 34.6648 37.0833 34.6667H8.08331C7.44237 34.6667 6.82769 34.412 6.37447 33.9588C5.92126 33.5056 5.66665 32.8909 5.66665 32.25V8.08332C5.66665 7.44238 5.92126 6.82769 6.37447 6.37448C6.82769 5.92126 7.44237 5.66665 8.08331 5.66665H41.9166C42.5576 5.66665 43.1723 5.92126 43.6255 6.37448C44.0787 6.82769 44.3333 7.44238 44.3333 8.08332V40.9258Z" fill="#9EA0A5"/>
</svg>
