<svg width="16" height="17" viewBox="0 0 16 17" fill="none" xmlns="http://www.w3.org/2000/svg">
<path d="M7.99967 13.8333C8.36786 13.8333 8.66634 13.5349 8.66634 13.1667C8.66634 12.7985 8.36786 12.5 7.99967 12.5C7.63148 12.5 7.33301 12.7985 7.33301 13.1667C7.33301 13.5349 7.63148 13.8333 7.99967 13.8333Z" fill="#737A91" stroke="#737A91" stroke-width="2" stroke-linecap="round" stroke-linejoin="round"/>
<path d="M7.99967 9.16634C8.36786 9.16634 8.66634 8.86786 8.66634 8.49967C8.66634 8.13148 8.36786 7.83301 7.99967 7.83301C7.63148 7.83301 7.33301 8.13148 7.33301 8.49967C7.33301 8.86786 7.63148 9.16634 7.99967 9.16634Z" fill="#737A91" stroke="#737A91" stroke-width="2" stroke-linecap="round" stroke-linejoin="round"/>
<path d="M7.99967 4.50033C8.36786 4.50033 8.66634 4.20185 8.66634 3.83366C8.66634 3.46547 8.36786 3.16699 7.99967 3.16699C7.63148 3.16699 7.33301 3.46547 7.33301 3.83366C7.33301 4.20185 7.63148 4.50033 7.99967 4.50033Z" fill="#737A91" stroke="#737A91" stroke-width="2" stroke-linecap="round" stroke-linejoin="round"/>
</svg>
