<svg width="20" height="20" viewBox="0 0 20 20" fill="none" xmlns="http://www.w3.org/2000/svg">
<path d="M4.16667 10.8337C3.70643 10.8337 3.33333 10.4606 3.33333 10.0003C3.33333 9.54009 3.70643 9.16699 4.16667 9.16699C4.6269 9.16699 5 9.54009 5 10.0003C5 10.4606 4.6269 10.8337 4.16667 10.8337Z" stroke="#000624" stroke-width="2" stroke-linecap="round" stroke-linejoin="round"/>
<path d="M10.0007 10.8337C9.54041 10.8337 9.16732 10.4606 9.16732 10.0003C9.16732 9.54009 9.54041 9.16699 10.0007 9.16699C10.4609 9.16699 10.834 9.54009 10.834 10.0003C10.834 10.4606 10.4609 10.8337 10.0007 10.8337Z" stroke="#000624" stroke-width="2" stroke-linecap="round" stroke-linejoin="round"/>
<path d="M15.8327 10.8337C15.3724 10.8337 14.9993 10.4606 14.9993 10.0003C14.9993 9.54009 15.3724 9.16699 15.8327 9.16699C16.2929 9.16699 16.666 9.54009 16.666 10.0003C16.666 10.4606 16.2929 10.8337 15.8327 10.8337Z" stroke="#000624" stroke-width="2" stroke-linecap="round" stroke-linejoin="round"/>
</svg>
