<svg width="174" height="148" viewBox="0 0 174 148" fill="none" xmlns="http://www.w3.org/2000/svg">
<path d="M87.7911 121.624C113.527 121.624 134.496 100.638 134.496 74.8638C134.496 49.0021 113.613 28.1038 87.7911 28.1038C61.9689 28.0167 41.0859 48.915 41.0859 74.7767C41.0859 100.638 61.9689 121.624 87.7911 121.624Z" fill="#EAEEF9"/>
<path d="M79.5585 58.4943L78.3454 55.0983C78.0855 54.2275 77.219 53.7051 76.3524 53.7051H55.0362C53.2165 53.7051 51.8301 55.0983 51.8301 56.9269V104.906V96.982H124.617V63.1093C124.617 61.2807 123.231 59.8875 121.411 59.8875H81.5515C80.685 59.8875 79.9052 59.365 79.5585 58.4943Z" fill="url(#paint0_linear_1405_3355)"/>
<g filter="url(#filter0_d_1405_3355)">
<path d="M53.9105 30.803L68.468 56.2293C68.9012 57.1001 68.6413 58.2321 67.7748 58.6675L42.9925 72.5997C42.1259 73.0351 40.9995 72.7738 40.5662 71.9031L22.2828 38.9882C21.6762 38.1174 22.1094 36.9855 22.976 36.5501L40.9995 26.4492L53.9105 30.803Z" fill="white"/>
</g>
<path d="M40.826 33.5035L28.8681 40.2084C28.6081 40.3826 28.1749 40.2955 28.0882 39.9472C27.9149 39.6859 28.0016 39.2506 28.2615 39.1635L40.2194 32.5457C40.4794 32.3715 40.9126 32.4586 40.9993 32.7198C41.1726 32.9811 41.0859 33.4164 40.826 33.5035Z" fill="#D5DDEA"/>
<path d="M35.0204 40.5563L30.4279 43.0815C30.168 43.2556 29.8213 43.1685 29.7347 42.9073C29.5614 42.6461 29.648 42.2107 29.908 42.1236L34.4139 39.5984C34.6738 39.4243 35.1071 39.5113 35.1937 39.7726C35.4537 39.9467 35.367 40.3821 35.0204 40.5563Z" fill="#D5DDEA"/>
<path d="M40.998 26.4492L44.984 33.5024C45.5906 34.4602 46.8903 34.8085 47.8435 34.2861L54.1691 30.803" fill="#D5DDEA"/>
<path d="M55.3837 46.3029C54.6039 44.7355 53.5641 42.9069 52.2643 41.6007C51.5711 40.9041 50.7046 40.4688 49.6647 40.4688C48.6249 40.4688 47.6718 40.8171 46.6319 41.3395C44.8123 42.1232 43.1659 42.9069 41.5195 43.9518C40.0464 44.8226 38.3134 45.7804 37.1869 47.1736C35.7139 49.1764 36.4937 51.1791 37.5335 53.269C38.3134 54.8363 39.3532 56.665 40.653 57.9711C41.6928 59.016 43.0792 59.3643 44.4657 58.9289C46.2853 58.4936 49.6647 56.5779 51.2245 55.62C52.6109 54.7493 54.2573 53.9656 55.2971 52.6594C57.2901 50.6567 56.5969 48.5669 55.3837 46.3029ZM43.2525 48.4798C42.9926 47.9573 43.1659 47.5219 43.8591 47.609C45.6788 47.6961 47.4118 47.6961 49.1448 47.7832C49.838 47.7832 50.0114 48.1315 49.7514 48.741C48.8849 50.2213 48.0184 51.7887 47.1519 53.356C46.8052 53.8785 46.372 53.8785 46.112 53.4431C45.8521 53.1819 43.5125 48.9152 43.2525 48.4798Z" fill="#D5DDEA"/>
<path d="M109.021 75.2126L108.241 74.6902C108.068 74.516 108.068 74.3419 108.241 74.1677C108.415 73.9936 108.588 73.9936 108.848 74.0806L109.628 74.6031C109.801 74.6902 109.801 74.9514 109.714 75.1255C109.454 75.2997 109.194 75.2997 109.021 75.2126Z" fill="#E3EAF2"/>
<path d="M106.94 73.556L102.521 70.073C102.347 69.9859 102.347 69.7247 102.434 69.5505C102.521 69.3764 102.78 69.3764 103.04 69.4634L107.46 72.9465C107.633 73.0336 107.633 73.2948 107.546 73.469C107.373 73.6431 107.113 73.7302 106.94 73.556Z" fill="#E3EAF2"/>
<g filter="url(#filter1_d_1405_3355)">
<path d="M151.911 51.1762L135.361 72.6841C134.841 73.4678 133.801 73.5549 133.021 72.9453L112.398 56.662C111.618 56.1396 111.532 55.0947 112.138 54.311L133.628 26.8819C134.148 26.0983 135.188 26.0112 135.967 26.6207L150.958 38.4631L151.911 51.1762Z" fill="white"/>
</g>
<path d="M144.894 40.8162L134.929 32.9794C134.756 32.8052 134.669 32.544 134.843 32.1957C135.016 32.0215 135.276 31.9344 135.622 32.1086L145.587 39.9455C145.761 40.1196 145.847 40.3809 145.674 40.7292C145.414 40.9904 145.154 40.9904 144.894 40.8162Z" fill="#D5DDEA"/>
<path d="M136.921 38.3777L133.195 35.33C133.021 35.1559 132.935 34.8946 133.108 34.5463C133.281 34.2851 133.541 34.2851 133.888 34.4593L137.614 37.5069C137.787 37.6811 137.874 37.9423 137.701 38.2906C137.441 38.5519 137.094 38.5519 136.921 38.3777Z" fill="#D5DDEA"/>
<path d="M150.959 38.4629L146.367 44.297C145.674 45.1678 145.934 46.3868 146.714 46.9964L151.999 51.176" fill="#D5DDEA"/>
<path d="M145.5 52.4843L140.301 48.4788L134.929 44.212L129.99 40.2936C129.47 39.8582 128.603 39.9453 128.17 40.5548L121.065 49.6108C120.631 50.1332 120.718 51.004 121.238 51.4394L136.835 63.8042C137.355 64.2396 138.222 64.1525 138.655 63.543L145.76 54.487C146.193 53.7034 146.107 53.0067 145.5 52.4843ZM129.036 52.3972L130.596 50.3074L135.362 54.0517L133.802 56.1415L129.036 52.3972ZM133.369 56.751L131.896 58.6667L127.13 54.9224L128.603 53.0067L133.369 56.751ZM137.442 51.4394L135.882 53.5292L131.116 49.7849L132.676 47.6951L137.442 51.4394ZM133.109 47.0856L134.842 44.9957L139.608 48.74L138.048 50.8298L133.109 47.0856ZM141.774 58.1443L136.488 53.9646L138.048 51.8748L143.334 56.0544L141.774 58.1443ZM130.51 49.2625L125.397 45.257L126.957 43.1671L132.069 47.1726L130.51 49.2625ZM124.877 45.8665L129.99 49.872L128.43 51.9618L123.317 47.9563L124.877 45.8665ZM136.055 54.5741L141.341 58.7538L139.781 60.8436L134.495 56.664L136.055 54.5741ZM145.154 53.8775L143.854 55.532L138.568 51.3523L140.128 49.2625L144.98 53.0938C145.327 53.268 145.327 53.6163 145.154 53.8775ZM129.47 40.729L134.149 44.4733L132.589 46.5631L127.477 42.5576L128.776 40.9031C128.95 40.6419 129.296 40.6419 129.47 40.729ZM121.671 49.9591L122.798 48.5659L127.91 52.5714L126.437 54.487L121.671 50.7428C121.498 50.5686 121.498 50.1332 121.671 49.9591ZM137.355 62.9335L132.503 59.1021L133.976 57.1864L139.261 61.3661L138.048 62.8464C137.875 63.1947 137.528 63.1947 137.355 62.9335Z" fill="#D5DDEA"/>
<path d="M102.869 71.9042L97.9297 71.3817C97.6697 71.3817 97.4964 71.1205 97.5831 70.8592C97.5831 70.598 97.843 70.4239 98.1897 70.5109L103.129 71.0334C103.389 71.0334 103.562 71.2946 103.475 71.5559C103.389 71.8171 103.129 72.0783 102.869 71.9042Z" fill="url(#paint1_linear_1405_3355)"/>
<path d="M126.091 76.6059L120.718 100.726C120.372 102.119 118.725 103.251 116.646 103.251H58.3292C56.3362 103.251 54.6031 102.206 54.2565 100.726L49.8373 80.9598C49.4907 79.4795 51.1371 78.0862 53.2167 78.0862H86.1443C87.1841 78.0862 87.964 77.5638 88.3106 76.9542L89.2637 74.8644C89.6103 74.1678 90.4768 73.7324 91.43 73.7324H122.798C124.791 73.7324 126.351 75.1256 126.091 76.6059Z" fill="white"/>
<g filter="url(#filter2_d_1405_3355)">
<path d="M130.338 73.3838L124.359 110.391C124.012 112.568 122.106 114.223 119.853 114.223H54.8642C52.6113 114.223 50.705 112.655 50.3584 110.391L45.4192 80.0016C45.0726 77.7376 46.8056 75.5607 49.1452 75.5607H85.7988C86.9253 75.5607 87.8784 74.777 88.2251 73.7321L89.2649 70.5102C89.6115 69.4653 90.5646 68.6816 91.6911 68.6816H126.612C128.865 68.9429 130.684 71.0327 130.338 73.3838Z" fill="url(#paint2_linear_1405_3355)"/>
</g>
<g filter="url(#filter3_d_1405_3355)">
<path d="M110.581 24.9687L107.809 55.1842C107.722 56.2291 106.769 57.0128 105.729 56.8387L76.4408 53.791C75.401 53.7039 74.6211 52.7461 74.7077 51.7012L78.6937 12.9522C78.7804 11.9073 79.7335 11.1236 80.7734 11.2977L102.003 13.4746L110.581 24.9687Z" fill="white"/>
</g>
<path d="M102.089 13.5625L101.223 21.8348C101.136 22.9667 102.003 24.0987 103.216 24.1858L110.668 24.9695" fill="#D5DDEA"/>
<path d="M104.863 46.9984L80.8607 44.299C80.2541 44.2119 79.8209 43.7766 79.9075 43.167L81.7272 27.7545C81.8139 27.2321 82.3338 26.7096 82.8537 26.7967L106.856 29.409C107.463 29.496 107.896 29.9314 107.809 30.541L105.99 45.9535C105.903 46.563 105.383 46.9984 104.863 46.9984Z" fill="#ECF0F8"/>
<path d="M94.0308 43.2571L82.9395 41.951L89.1784 36.291L94.0308 43.2571Z" fill="#D5DDEA"/>
<path d="M103.216 44.3009L87.1855 42.3852L96.284 34.2871L103.216 44.3009Z" fill="white"/>
<path d="M88.3128 33.8519C89.5259 33.8519 90.4791 32.894 90.4791 31.675C90.4791 30.4559 89.5259 29.498 88.3128 29.498C87.0997 29.498 86.1465 30.4559 86.1465 31.675C86.1465 32.894 87.0997 33.8519 88.3128 33.8519Z" fill="#D5DDEA"/>
<path d="M97.5846 18.6117L83.0271 16.9572C82.8538 16.9572 82.6805 16.7831 82.7672 16.6089V16.4348C82.7672 16.2606 82.9405 16.0865 83.1138 16.1736L97.6712 17.828C97.8446 17.828 98.0178 18.0022 97.9312 18.1763V18.3505C98.0178 18.5246 97.8445 18.6988 97.5846 18.6117Z" fill="#D5DDEA"/>
<path d="M97.4962 21.3988L82.7654 19.7443C82.5921 19.7443 82.4188 19.5702 82.5055 19.396V19.2219C82.5055 19.0477 82.6788 18.8736 82.8521 18.9607L97.5828 20.6151C97.7561 20.6151 97.9294 20.7893 97.8428 20.9634V21.1376C97.9294 21.2246 97.6695 21.3988 97.4962 21.3988Z" fill="#D5DDEA"/>
<path d="M98.0159 49.8739L79.7324 47.784C79.4725 47.784 79.2992 47.5228 79.3858 47.2616C79.3858 47.0004 79.6458 46.8262 79.9924 46.9133L98.1892 49.0031C98.4492 49.0031 98.6225 49.2643 98.5358 49.5256C98.4492 49.7868 98.2758 49.9609 98.0159 49.8739Z" fill="#D5DDEA"/>
<path d="M95.3303 24.0124L82.5059 22.5321C82.2459 22.5321 82.0726 22.2709 82.1593 22.0096C82.1593 21.7484 82.4192 21.5742 82.7658 21.6613L95.5902 23.1416C95.8502 23.1416 96.0235 23.4028 95.9368 23.6641C95.8502 23.8382 95.6769 24.0124 95.3303 24.0124Z" fill="#D5DDEA"/>
<path d="M104.776 53.445L79.3008 50.3973C79.0408 50.3973 78.8675 50.1361 78.9542 49.8749C78.9542 49.6136 79.2141 49.4395 79.5607 49.5266L105.036 52.4872C105.296 52.4872 105.47 52.7484 105.383 53.0096C105.296 53.2708 105.036 53.445 104.776 53.445Z" fill="#D5DDEA"/>
<path d="M78.3465 7.2929C77.9999 7.46705 77.5666 7.2929 77.3933 6.9446L75.8336 3.02616C75.6603 2.67786 75.8336 2.24247 76.1802 2.06832C76.5268 1.89417 76.9601 2.06832 77.1334 2.41663L78.6931 6.33506C78.9531 6.85752 78.7798 7.20583 78.3465 7.2929Z" fill="#D5DDEA"/>
<path d="M75.4874 11.1253C75.3141 11.2994 75.1408 11.3865 74.7942 11.2994L70.7216 10.5157C70.375 10.4286 70.0284 10.0803 70.115 9.64495C70.2017 9.29665 70.5483 8.94834 70.9815 9.12249L75.0542 9.90618C75.4008 9.99326 75.7474 10.3416 75.6607 10.7769C75.5741 10.864 75.5741 11.0382 75.4874 11.1253Z" fill="#D5DDEA"/>
<path d="M83.7191 6.85757C83.6325 6.85757 83.5458 6.7705 83.3725 6.7705C83.1126 6.50927 83.0259 6.07389 83.2859 5.72558L85.7988 2.41668C86.0587 2.15545 86.492 2.06838 86.8386 2.3296C87.0985 2.59083 87.1852 3.02621 86.9252 3.37452L84.4123 6.68342C84.1524 6.7705 83.8924 6.85757 83.7191 6.85757Z" fill="#D5DDEA"/>
<path d="M105.294 108.388C104.947 109.868 104.427 111.436 103.821 112.742C102.174 115.964 99.5748 118.489 96.3687 120.143C93.0759 121.798 89.1766 122.494 85.2773 121.624C76.0922 119.708 70.1999 110.652 72.1062 101.422C74.0126 92.1917 82.9377 86.1835 92.1227 88.1862C95.4155 88.8828 98.275 90.5373 100.701 92.8013C104.774 96.8939 106.507 102.815 105.294 108.388Z" fill="url(#paint3_linear_1405_3355)"/>
<path d="M94.1182 103.426H90.2189V99.5076C90.2189 98.724 89.6124 98.0273 88.7459 98.0273C87.966 98.0273 87.2728 98.6369 87.2728 99.5076V103.426H83.3735C82.5936 103.426 81.9004 104.036 81.9004 104.906C81.9004 105.777 82.507 106.387 83.3735 106.387H87.2728V110.305C87.2728 111.089 87.8793 111.785 88.7459 111.785C89.5257 111.785 90.2189 111.176 90.2189 110.305V106.387H94.1182C94.8981 106.387 95.5913 105.777 95.5913 104.906C95.5913 104.036 94.8981 103.426 94.1182 103.426Z" fill="white"/>
<defs>
<filter id="filter0_d_1405_3355" x="0" y="15.4492" width="90.6738" height="90.3574" filterUnits="userSpaceOnUse" color-interpolation-filters="sRGB">
<feFlood flood-opacity="0" result="BackgroundImageFix"/>
<feColorMatrix in="SourceAlpha" type="matrix" values="0 0 0 0 0 0 0 0 0 0 0 0 0 0 0 0 0 0 127 0" result="hardAlpha"/>
<feOffset dy="11"/>
<feGaussianBlur stdDeviation="11"/>
<feColorMatrix type="matrix" values="0 0 0 0 0.397708 0 0 0 0 0.47749 0 0 0 0 0.575 0 0 0 0.27 0"/>
<feBlend mode="normal" in2="BackgroundImageFix" result="effect1_dropShadow_1405_3355"/>
<feBlend mode="normal" in="SourceGraphic" in2="effect1_dropShadow_1405_3355" result="shape"/>
</filter>
<filter id="filter1_d_1405_3355" x="89.7402" y="15.2207" width="84.1719" height="91.125" filterUnits="userSpaceOnUse" color-interpolation-filters="sRGB">
<feFlood flood-opacity="0" result="BackgroundImageFix"/>
<feColorMatrix in="SourceAlpha" type="matrix" values="0 0 0 0 0 0 0 0 0 0 0 0 0 0 0 0 0 0 127 0" result="hardAlpha"/>
<feOffset dy="11"/>
<feGaussianBlur stdDeviation="11"/>
<feColorMatrix type="matrix" values="0 0 0 0 0.397708 0 0 0 0 0.47749 0 0 0 0 0.575 0 0 0 0.27 0"/>
<feBlend mode="normal" in2="BackgroundImageFix" result="effect1_dropShadow_1405_3355"/>
<feBlend mode="normal" in="SourceGraphic" in2="effect1_dropShadow_1405_3355" result="shape"/>
</filter>
<filter id="filter2_d_1405_3355" x="23.375" y="57.6816" width="129.006" height="89.541" filterUnits="userSpaceOnUse" color-interpolation-filters="sRGB">
<feFlood flood-opacity="0" result="BackgroundImageFix"/>
<feColorMatrix in="SourceAlpha" type="matrix" values="0 0 0 0 0 0 0 0 0 0 0 0 0 0 0 0 0 0 127 0" result="hardAlpha"/>
<feOffset dy="11"/>
<feGaussianBlur stdDeviation="11"/>
<feColorMatrix type="matrix" values="0 0 0 0 0.397708 0 0 0 0 0.47749 0 0 0 0 0.575 0 0 0 0.27 0"/>
<feBlend mode="normal" in2="BackgroundImageFix" result="effect1_dropShadow_1405_3355"/>
<feBlend mode="normal" in="SourceGraphic" in2="effect1_dropShadow_1405_3355" result="shape"/>
</filter>
<filter id="filter3_d_1405_3355" x="52.7012" y="0.273438" width="79.8809" height="89.5898" filterUnits="userSpaceOnUse" color-interpolation-filters="sRGB">
<feFlood flood-opacity="0" result="BackgroundImageFix"/>
<feColorMatrix in="SourceAlpha" type="matrix" values="0 0 0 0 0 0 0 0 0 0 0 0 0 0 0 0 0 0 127 0" result="hardAlpha"/>
<feOffset dy="11"/>
<feGaussianBlur stdDeviation="11"/>
<feColorMatrix type="matrix" values="0 0 0 0 0.397708 0 0 0 0 0.47749 0 0 0 0 0.575 0 0 0 0.27 0"/>
<feBlend mode="normal" in2="BackgroundImageFix" result="effect1_dropShadow_1405_3355"/>
<feBlend mode="normal" in="SourceGraphic" in2="effect1_dropShadow_1405_3355" result="shape"/>
</filter>
<linearGradient id="paint0_linear_1405_3355" x1="88.2294" y1="55.4837" x2="88.2294" y2="84.2223" gradientUnits="userSpaceOnUse">
<stop stop-color="#B0BACC"/>
<stop offset="1" stop-color="#969EAE"/>
</linearGradient>
<linearGradient id="paint1_linear_1405_3355" x1="97.4696" y1="70.8436" x2="103.384" y2="71.5224" gradientUnits="userSpaceOnUse">
<stop stop-color="#83A6FF"/>
<stop offset="1" stop-color="#5A78FF"/>
</linearGradient>
<linearGradient id="paint2_linear_1405_3355" x1="87.8499" y1="67.6282" x2="87.8499" y2="114.714" gradientUnits="userSpaceOnUse">
<stop stop-color="#FDFEFF"/>
<stop offset="0.9964" stop-color="#ECF0F5"/>
</linearGradient>
<linearGradient id="paint3_linear_1405_3355" x1="88.7136" y1="88.9888" x2="88.7136" y2="108.185" gradientUnits="userSpaceOnUse">
<stop stop-color="#B0BACC"/>
<stop offset="1" stop-color="#969EAE"/>
</linearGradient>
</defs>
</svg>
