<svg width="18" height="14" viewBox="0 0 18 14" fill="none" xmlns="http://www.w3.org/2000/svg">
<path d="M8.99999 0.25C13.044 0.25 16.4085 3.16 17.1142 7C16.4092 10.84 13.044 13.75 8.99999 13.75C4.95599 13.75 1.59149 10.84 0.885742 7C1.59074 3.16 4.95599 0.25 8.99999 0.25ZM8.99999 12.25C10.5296 12.2497 12.0138 11.7301 13.2096 10.7764C14.4055 9.82264 15.2422 8.49121 15.5827 7C15.2409 5.50998 14.4037 4.18 13.208 3.22752C12.0122 2.27504 10.5287 1.7564 8.99999 1.7564C7.47126 1.7564 5.98776 2.27504 4.79202 3.22752C3.59629 4.18 2.75907 5.50998 2.41724 7C2.75781 8.49121 3.5945 9.82264 4.79035 10.7764C5.9862 11.7301 7.47039 12.2497 8.99999 12.25ZM8.99999 10.375C8.10489 10.375 7.24644 10.0194 6.61351 9.38649C5.98057 8.75355 5.62499 7.89511 5.62499 7C5.62499 6.10489 5.98057 5.24645 6.61351 4.61351C7.24644 3.98058 8.10489 3.625 8.99999 3.625C9.8951 3.625 10.7535 3.98058 11.3865 4.61351C12.0194 5.24645 12.375 6.10489 12.375 7C12.375 7.89511 12.0194 8.75355 11.3865 9.38649C10.7535 10.0194 9.8951 10.375 8.99999 10.375ZM8.99999 8.875C9.49727 8.875 9.97419 8.67746 10.3258 8.32582C10.6774 7.97419 10.875 7.49728 10.875 7C10.875 6.50272 10.6774 6.02581 10.3258 5.67417C9.97419 5.32254 9.49727 5.125 8.99999 5.125C8.50271 5.125 8.0258 5.32254 7.67417 5.67417C7.32254 6.02581 7.12499 6.50272 7.12499 7C7.12499 7.49728 7.32254 7.97419 7.67417 8.32582C8.0258 8.67746 8.50271 8.875 8.99999 8.875Z" fill="#1E1147"/>
</svg>
