<svg width="24" height="24" viewBox="0 0 24 24" fill="none" xmlns="http://www.w3.org/2000/svg">
<path d="M21 11C20.7348 11 20.4804 11.1054 20.2929 11.2929C20.1054 11.4804 20 11.7348 20 12C20.0119 13.873 19.3703 15.6916 18.1857 17.1425C17.001 18.5933 15.3475 19.5857 13.51 19.9486C11.6724 20.3115 9.76578 20.0223 8.11851 19.1308C6.47123 18.2392 5.18641 16.8012 4.48533 15.0643C3.78425 13.3273 3.71079 11.4003 4.27762 9.61508C4.84445 7.82983 6.01607 6.29813 7.5907 5.28378C9.16533 4.26942 11.0444 3.83591 12.9043 4.05791C14.7641 4.27991 16.4884 5.14352 17.78 6.5H15.38C15.1148 6.5 14.8604 6.60536 14.6729 6.79289C14.4854 6.98043 14.38 7.23478 14.38 7.5C14.38 7.76522 14.4854 8.01957 14.6729 8.20711C14.8604 8.39464 15.1148 8.5 15.38 8.5H19.91C20.1752 8.5 20.4296 8.39464 20.6171 8.20711C20.8046 8.01957 20.91 7.76522 20.91 7.5V3C20.91 2.73478 20.8046 2.48043 20.6171 2.29289C20.4296 2.10536 20.1752 2 19.91 2C19.6448 2 19.3904 2.10536 19.2029 2.29289C19.0154 2.48043 18.91 2.73478 18.91 3V4.77C17.2447 3.17806 15.0808 2.20995 12.784 2.02933C10.4873 1.84871 8.19863 2.46664 6.30492 3.77869C4.41121 5.09074 3.02861 7.01641 2.39083 9.23019C1.75305 11.444 1.89921 13.8101 2.80461 15.9285C3.71001 18.047 5.31911 19.7878 7.3599 20.8568C9.40069 21.9258 11.748 22.2574 14.005 21.7955C16.2621 21.3336 18.2904 20.1065 19.7471 18.3217C21.2039 16.5369 21.9997 14.3038 22 12C22 11.7348 21.8946 11.4804 21.7071 11.2929C21.5196 11.1054 21.2652 11 21 11Z" fill="#000624"/>
</svg>
