<svg width="16" height="17" viewBox="0 0 16 17" fill="none" xmlns="http://www.w3.org/2000/svg">
<path d="M13.2733 10.84H10.2533C10.0765 10.84 9.90693 10.9102 9.78191 11.0352C9.65688 11.1603 9.58665 11.3298 9.58665 11.5066C9.58665 11.6835 9.65688 11.853 9.78191 11.9781C9.90693 12.1031 10.0765 12.1733 10.2533 12.1733H11.8533C11.1179 12.9418 10.1696 13.4729 9.13009 13.6982C8.0906 13.9236 7.00745 13.833 6.01983 13.4381C5.03221 13.0432 4.18523 12.362 3.58771 11.4821C2.99019 10.6021 2.66943 9.56362 2.66665 8.49998C2.66665 8.32317 2.59641 8.1536 2.47138 8.02858C2.34636 7.90355 2.17679 7.83331 1.99998 7.83331C1.82317 7.83331 1.6536 7.90355 1.52858 8.02858C1.40355 8.1536 1.33331 8.32317 1.33331 8.49998C1.33684 9.80185 1.72146 11.0742 2.43972 12.16C3.15797 13.2458 4.17842 14.0976 5.37514 14.6101C6.57186 15.1227 7.89247 15.2737 9.17399 15.0444C10.4555 14.8151 11.6419 14.2157 12.5866 13.32V14.5C12.5866 14.6768 12.6569 14.8464 12.7819 14.9714C12.9069 15.0964 13.0765 15.1666 13.2533 15.1666C13.4301 15.1666 13.5997 15.0964 13.7247 14.9714C13.8497 14.8464 13.92 14.6768 13.92 14.5V11.5C13.9183 11.3277 13.8501 11.1628 13.7295 11.0398C13.609 10.9167 13.4455 10.8451 13.2733 10.84ZM9.99998 8.49998C9.99998 8.10442 9.88268 7.71774 9.66292 7.38884C9.44316 7.05994 9.1308 6.8036 8.76535 6.65222C8.39989 6.50085 7.99776 6.46124 7.6098 6.53841C7.22184 6.61558 6.86547 6.80606 6.58577 7.08577C6.30606 7.36547 6.11558 7.72184 6.03841 8.1098C5.96124 8.49776 6.00085 8.89989 6.15222 9.26535C6.3036 9.6308 6.55994 9.94316 6.88884 10.1629C7.21774 10.3827 7.60442 10.5 7.99998 10.5C8.53041 10.5 9.03912 10.2893 9.41419 9.91419C9.78927 9.53912 9.99998 9.03041 9.99998 8.49998ZM7.33331 8.49998C7.33331 8.36813 7.37241 8.23923 7.44567 8.1296C7.51892 8.01997 7.62304 7.93452 7.74486 7.88406C7.86667 7.8336 8.00072 7.8204 8.13004 7.84612C8.25936 7.87185 8.37815 7.93534 8.47138 8.02858C8.56462 8.12181 8.62811 8.2406 8.65384 8.36992C8.67956 8.49924 8.66636 8.63329 8.6159 8.7551C8.56544 8.87692 8.47999 8.98104 8.37036 9.05429C8.26073 9.12755 8.13183 9.16665 7.99998 9.16665C7.82317 9.16665 7.6536 9.09641 7.52858 8.97138C7.40355 8.84636 7.33331 8.67679 7.33331 8.49998ZM7.99998 1.83331C6.2909 1.83819 4.64897 2.49926 3.41331 3.67998V2.49998C3.41331 2.32317 3.34308 2.1536 3.21805 2.02858C3.09303 1.90355 2.92346 1.83331 2.74665 1.83331C2.56984 1.83331 2.40027 1.90355 2.27524 2.02858C2.15022 2.1536 2.07998 2.32317 2.07998 2.49998V5.49998C2.07998 5.67679 2.15022 5.84636 2.27524 5.97138C2.40027 6.09641 2.56984 6.16665 2.74665 6.16665H5.74665C5.92346 6.16665 6.09303 6.09641 6.21805 5.97138C6.34308 5.84636 6.41331 5.67679 6.41331 5.49998C6.41331 5.32317 6.34308 5.1536 6.21805 5.02858C6.09303 4.90355 5.92346 4.83331 5.74665 4.83331H4.14665C4.88162 4.06523 5.82937 3.53431 6.86825 3.30872C7.90712 3.08312 8.98971 3.17314 9.97705 3.56722C10.9644 3.9613 11.8114 4.64145 12.4095 5.52038C13.0075 6.39931 13.3292 7.4369 13.3333 8.49998C13.3333 8.67679 13.4036 8.84636 13.5286 8.97138C13.6536 9.09641 13.8232 9.16665 14 9.16665C14.1768 9.16665 14.3464 9.09641 14.4714 8.97138C14.5964 8.84636 14.6666 8.67679 14.6666 8.49998C14.6666 7.6245 14.4942 6.75759 14.1592 5.94876C13.8241 5.13992 13.3331 4.40499 12.714 3.78593C12.095 3.16688 11.36 2.67581 10.5512 2.34078C9.74237 2.00575 8.87546 1.83331 7.99998 1.83331Z" fill="white"/>
</svg>
