<svg width="18" height="18" viewBox="0 0 18 18" fill="none" xmlns="http://www.w3.org/2000/svg">
<path d="M12.75 1.5H5.25C4.25544 1.5 3.30161 1.89509 2.59835 2.59835C1.89509 3.30161 1.5 4.25544 1.5 5.25V12.75C1.5 13.7446 1.89509 14.6984 2.59835 15.4017C3.30161 16.1049 4.25544 16.5 5.25 16.5H12.75C13.7446 16.5 14.6984 16.1049 15.4017 15.4017C16.1049 14.6984 16.5 13.7446 16.5 12.75V5.25C16.5 4.25544 16.1049 3.30161 15.4017 2.59835C14.6984 1.89509 13.7446 1.5 12.75 1.5ZM15 12.75C15 13.3467 14.7629 13.919 14.341 14.341C13.919 14.7629 13.3467 15 12.75 15H5.25C4.65326 15 4.08097 14.7629 3.65901 14.341C3.23705 13.919 3 13.3467 3 12.75V5.25C3 4.65326 3.23705 4.08097 3.65901 3.65901C4.08097 3.23705 4.65326 3 5.25 3H12.75C13.3467 3 13.919 3.23705 14.341 3.65901C14.7629 4.08097 15 4.65326 15 5.25V12.75Z" fill="#C8D8E8"/>
</svg>
