<svg width="16" height="16" viewBox="0 0 16 16" fill="none" xmlns="http://www.w3.org/2000/svg">
<path d="M4.66667 10.6666C4.93188 10.6666 5.18624 10.5613 5.37377 10.3738C5.56131 10.1862 5.66667 9.93186 5.66667 9.66665C5.66992 9.63339 5.66992 9.5999 5.66667 9.56665L7.52667 7.70665H7.68H7.83333L8.90667 8.77998C8.90667 8.77998 8.90667 8.81331 8.90667 8.83331C8.90667 9.09853 9.01202 9.35288 9.19956 9.54042C9.3871 9.72796 9.64145 9.83331 9.90667 9.83331C10.1719 9.83331 10.4262 9.72796 10.6138 9.54042C10.8013 9.35288 10.9067 9.09853 10.9067 8.83331V8.77998L13.3333 6.33331C13.5311 6.33331 13.7245 6.27466 13.8889 6.16478C14.0534 6.0549 14.1815 5.89872 14.2572 5.716C14.3329 5.53327 14.3527 5.3322 14.3141 5.13822C14.2755 4.94424 14.1803 4.76606 14.0404 4.62621C13.9006 4.48635 13.7224 4.39111 13.5284 4.35253C13.3344 4.31394 13.1334 4.33375 12.9507 4.40943C12.7679 4.48512 12.6117 4.61329 12.5019 4.77774C12.392 4.94219 12.3333 5.13553 12.3333 5.33331C12.3301 5.36657 12.3301 5.40006 12.3333 5.43331L9.92667 7.83998H9.82L8.66667 6.66665C8.66667 6.40143 8.56131 6.14708 8.37377 5.95954C8.18624 5.772 7.93188 5.66665 7.66667 5.66665C7.40145 5.66665 7.1471 5.772 6.95956 5.95954C6.77202 6.14708 6.66667 6.40143 6.66667 6.66665L4.66667 8.66665C4.40145 8.66665 4.1471 8.772 3.95956 8.95954C3.77202 9.14708 3.66667 9.40143 3.66667 9.66665C3.66667 9.93186 3.77202 10.1862 3.95956 10.3738C4.1471 10.5613 4.40145 10.6666 4.66667 10.6666ZM13.6667 13.3333H2.33333V1.99998C2.33333 1.82317 2.2631 1.6536 2.13807 1.52858C2.01305 1.40355 1.84348 1.33331 1.66667 1.33331C1.48986 1.33331 1.32029 1.40355 1.19526 1.52858C1.07024 1.6536 1 1.82317 1 1.99998V14C1 14.1768 1.07024 14.3464 1.19526 14.4714C1.32029 14.5964 1.48986 14.6666 1.66667 14.6666H13.6667C13.8435 14.6666 14.013 14.5964 14.1381 14.4714C14.2631 14.3464 14.3333 14.1768 14.3333 14C14.3333 13.8232 14.2631 13.6536 14.1381 13.5286C14.013 13.4036 13.8435 13.3333 13.6667 13.3333Z" fill="#737A91"/>
</svg>
