<svg width="162" height="37" viewBox="0 0 162 37" fill="none" xmlns="http://www.w3.org/2000/svg">
<path d="M0.000838153 18.9961C-0.032532 21.5775 0.564319 24.1169 1.72549 26.3985C2.31623 27.5594 3.71338 28.098 4.80766 27.3918C7.23488 25.8253 8.89538 22.6532 8.89538 18.9961C8.89538 15.3407 7.24087 12.1765 4.8226 10.6085C3.7301 9.90006 2.33184 10.4345 1.73833 11.5936C0.570909 13.8735 -0.0305262 16.4133 0.000838153 18.9961Z" fill="#2780F1" style="fill:#2780F1;fill:color(display-p3 0.1539 0.5021 0.9459);fill-opacity:1;"/>
<g style="mix-blend-mode:overlay" opacity="0.1">
<path d="M4.1631 13.0662C3.08438 11.8424 1.24598 12.4896 0.760796 14.0472C0.263311 15.6443 0.0078125 17.3126 0.0078125 18.9965C0.0078125 20.6812 0.263595 22.3504 0.761626 23.9483C1.24673 25.5047 3.08375 26.1528 4.1626 24.9308C5.45524 23.4666 6.26847 21.3537 6.26847 18.9965C6.26847 16.6413 5.45369 14.5302 4.1631 13.0662Z" fill="#2780F1" style="fill:#2780F1;fill:color(display-p3 0.1539 0.5021 0.9459);fill-opacity:1;"/>
</g>
<g style="mix-blend-mode:multiply" opacity="0.2">
<path d="M8.69355 16.8237C8.42168 15.3785 7.47152 16.2816 7.61591 17.745C7.65637 18.1551 7.67722 18.5727 7.67722 18.9967C7.67722 19.4053 7.65792 19.8081 7.62041 20.2037C7.48154 21.6685 8.4355 22.5714 8.70187 21.1245C8.82774 20.4408 8.89425 19.7286 8.89425 18.9967C8.89425 18.2489 8.8248 17.5213 8.69355 16.8237Z" fill="#2780F1" style="fill:#2780F1;fill:color(display-p3 0.1539 0.5021 0.9459);fill-opacity:1;"/>
</g>
<path d="M26.7021 22.0827L26.397 22.0126C25.5485 21.8297 24.6646 21.9058 23.8598 22.231C23.055 22.5562 22.3664 23.1157 21.8831 23.8368C20.6135 25.724 18.6985 26.5835 16.4678 26.5835C15.5777 26.591 14.6928 26.4463 13.8514 26.1555C12.8603 25.7944 11.7706 25.8136 10.7931 26.2095C9.81547 26.6055 9.01938 27.3499 8.5588 28.299C8.29361 28.8448 8.14877 29.4414 8.13406 30.0481C8.11936 30.6549 8.23514 31.2578 8.47359 31.8159C8.71203 32.374 9.06755 32.8745 9.51612 33.2832C9.96468 33.692 10.4958 33.9996 11.0735 34.1853C12.8197 34.73 14.6388 35.0045 16.4678 34.9992C21.7288 34.9992 26.404 32.7401 29.2695 28.9374C29.7072 28.3541 29.9911 27.6699 30.0948 26.948C30.1985 26.2261 30.1188 25.4897 29.863 24.8067C29.6072 24.1237 29.1835 23.5162 28.6311 23.0402C28.0786 22.564 27.4153 22.2348 26.7021 22.0827Z" fill="#2780F1" style="fill:#2780F1;fill:color(display-p3 0.1539 0.5021 0.9459);fill-opacity:1;"/>
<path d="M8.55932 9.71429C9.02263 10.6651 9.82208 11.4102 10.803 11.8055C11.7838 12.2007 12.8764 12.2181 13.8694 11.8542C14.7046 11.5624 15.5837 11.4164 16.4683 11.4227C18.6253 11.4227 20.4876 12.2576 21.6907 14.0326C22.1846 14.7868 22.8969 15.3719 23.7325 15.7098C24.568 16.0478 25.4868 16.1222 26.3659 15.9234L26.7166 15.8358C27.4215 15.6676 28.073 15.3256 28.6119 14.8411C29.1508 14.3565 29.5599 13.7448 29.8019 13.0616C30.0438 12.3784 30.111 11.6456 29.9973 10.9298C29.8836 10.214 29.5925 9.53807 29.1507 8.96359C26.2397 5.21355 21.582 3 16.4578 3C14.6296 3.00324 12.8126 3.28719 11.0705 3.84192C10.4939 4.02855 9.964 4.33665 9.51649 4.74545C9.06898 5.15424 8.71429 5.65423 8.47631 6.21173C8.23833 6.76923 8.12261 7.37126 8.13693 7.97727C8.15125 8.58329 8.29528 9.17919 8.55932 9.72481V9.71429Z" fill="#2780F1" style="fill:#2780F1;fill:color(display-p3 0.1539 0.5021 0.9459);fill-opacity:1;"/>
<g style="mix-blend-mode:multiply" opacity="0.5">
<g style="mix-blend-mode:multiply" opacity="0.5">
<path d="M26.6372 22.0841L26.3987 22.0316C25.552 21.8469 24.6694 21.9203 23.8647 22.2423C23.0602 22.5644 22.3705 23.1202 21.8849 23.8382C20.6152 25.7255 18.7002 26.5849 16.4696 26.5849C15.5794 26.5924 14.6945 26.4477 13.8531 26.157C13.1039 25.8874 12.2944 25.8316 11.5152 25.9957C10.736 26.1599 10.0178 26.5376 9.44092 27.0866C10.7862 28.2523 12.4021 29.0624 14.1409 29.4428C15.8798 29.8233 17.6863 29.762 19.3953 29.2645C21.1043 28.767 22.6616 27.8493 23.9248 26.595C25.188 25.3407 26.117 23.7899 26.6267 22.0841H26.6372Z" fill="#2780F1" style="fill:#2780F1;fill:color(display-p3 0.1539 0.5021 0.9459);fill-opacity:1;"/>
</g>
<g style="mix-blend-mode:multiply" opacity="0.5">
<path d="M9.46582 10.95C10.0455 11.4921 10.7636 11.8635 11.541 12.0232C12.3182 12.1829 13.1246 12.1248 13.871 11.855C14.7062 11.5632 15.5853 11.4173 16.4699 11.4235C18.627 11.4235 20.4893 12.2584 21.6923 14.0335C22.1861 14.7875 22.8985 15.3728 23.734 15.7106C24.5697 16.0486 25.4885 16.1231 26.3676 15.9243L26.6061 15.8682C26.0821 14.178 25.1456 12.6448 23.8811 11.4071C22.6167 10.1694 21.064 9.26615 19.3631 8.77881C17.6622 8.29147 15.8669 8.23541 14.139 8.61568C12.4111 8.99595 10.8051 9.80059 9.46582 10.957V10.95Z" fill="#2780F1" style="fill:#2780F1;fill:color(display-p3 0.1539 0.5021 0.9459);fill-opacity:1;"/>
</g>
</g>
<g style="mix-blend-mode:overlay" opacity="0.3">
<g style="mix-blend-mode:overlay" opacity="0.3">
<path d="M16.4253 33.8143C13.5509 33.8177 10.7383 32.98 8.33398 31.4042C8.53262 32.053 8.88612 32.6437 9.36395 33.1253C9.84179 33.6068 10.4296 33.9649 11.0767 34.1686C12.8228 34.7132 14.6419 34.9877 16.4709 34.9824C21.7319 34.9824 26.4071 32.7232 29.2726 28.9206C29.6833 28.3772 29.9575 27.743 30.0723 27.0715C30.1871 26.4 30.139 25.7108 29.9319 25.0618C28.7658 27.6692 26.8699 29.8832 24.4731 31.4363C22.0763 32.9894 19.2812 33.8153 16.4253 33.8143Z" fill="#2780F1" style="fill:#2780F1;fill:color(display-p3 0.1539 0.5021 0.9459);fill-opacity:1;"/>
</g>
<g style="mix-blend-mode:overlay" opacity="0.3">
<path d="M16.4263 4.22078C19.2597 4.22084 22.0337 5.0348 24.4181 6.56585C26.8025 8.09692 28.6972 10.2807 29.8768 12.8575C30.0836 12.2001 30.1278 11.5023 30.0057 10.8241C29.8834 10.1459 29.5986 9.50743 29.1753 8.96359C26.2643 5.21355 21.6065 3 16.4824 3C14.6448 3.00037 12.8181 3.28434 11.0671 3.84192C10.4137 4.04802 9.82104 4.41186 9.34148 4.9013C8.86192 5.39073 8.51021 5.99073 8.31738 6.64832C10.7239 5.06141 13.5438 4.21723 16.4263 4.22078Z" fill="#2780F1" style="fill:#2780F1;fill:color(display-p3 0.1539 0.5021 0.9459);fill-opacity:1;"/>
</g>
</g>
<g style="mix-blend-mode:multiply">
<path d="M55.0992 30.384C52.5605 30.384 50.4272 29.8187 48.6992 28.688C46.9712 27.536 45.6805 26.0107 44.8272 24.112C43.9952 22.192 43.5792 20.08 43.5792 17.776C43.5792 15.472 43.9952 13.3707 44.8272 11.472C45.6805 9.552 46.9712 8.02667 48.6992 6.896C50.4272 5.76533 52.5605 5.2 55.0992 5.2C57.9152 5.2 60.2085 5.89333 61.9792 7.28C63.7498 8.64533 64.8165 10.48 65.1792 12.784H61.0512C60.7952 11.4613 60.1338 10.4373 59.0672 9.712C58.0005 8.96533 56.6565 8.592 55.0352 8.592C52.6032 8.592 50.7258 9.43467 49.4032 11.12C48.1018 12.784 47.4512 15.0027 47.4512 17.776C47.4512 20.5707 48.1018 22.8107 49.4032 24.496C50.7258 26.1813 52.6032 27.024 55.0352 27.024C56.6778 27.024 58.0218 26.6293 59.0672 25.84C60.1338 25.0293 60.7952 23.8667 61.0512 22.352H65.1792C64.7952 24.848 63.7285 26.8107 61.9792 28.24C60.2298 29.6693 57.9365 30.384 55.0992 30.384ZM76.6619 30.352C74.9339 30.352 73.3872 29.9573 72.0219 29.168C70.6779 28.3787 69.6219 27.28 68.8539 25.872C68.1072 24.4427 67.7339 22.8213 67.7339 21.008C67.7339 19.2373 68.1072 17.6587 68.8539 16.272C69.6219 14.8853 70.6779 13.7973 72.0219 13.008C73.3872 12.2187 74.9339 11.824 76.6619 11.824C78.3899 11.824 79.9259 12.2187 81.2699 13.008C82.6352 13.7973 83.6912 14.8853 84.4379 16.272C85.2059 17.6587 85.5899 19.2373 85.5899 21.008C85.5899 22.8 85.2166 24.4107 84.4699 25.84C83.7232 27.248 82.6672 28.3573 81.3019 29.168C79.9579 29.9573 78.4112 30.352 76.6619 30.352ZM76.6619 27.28C77.6859 27.28 78.6032 27.0133 79.4139 26.48C80.2246 25.9467 80.8539 25.2 81.3019 24.24C81.7712 23.28 82.0059 22.2027 82.0059 21.008C82.0059 19.856 81.7712 18.8213 81.3019 17.904C80.8539 16.9653 80.2246 16.2293 79.4139 15.696C78.6032 15.1627 77.6859 14.896 76.6619 14.896C75.6379 14.896 74.7206 15.1627 73.9099 15.696C73.0992 16.208 72.4592 16.9333 71.9899 17.872C71.5419 18.7893 71.3179 19.8347 71.3179 21.008C71.3179 22.224 71.5419 23.312 71.9899 24.272C72.4592 25.2107 73.0992 25.9467 73.9099 26.48C74.7206 27.0133 75.6379 27.28 76.6619 27.28ZM89.0949 30V12.176H92.6149V13.04C92.6149 13.36 92.5829 13.6267 92.5189 13.84C92.4549 14.032 92.3482 14.2347 92.1989 14.448L92.6469 14.736C93.3722 13.6907 94.1296 12.944 94.9189 12.496C95.7082 12.048 96.6256 11.824 97.6709 11.824C100.338 11.824 102.14 12.784 103.079 14.704C103.442 15.408 103.666 16.1333 103.751 16.88C103.836 17.6053 103.879 18.48 103.879 19.504V30H100.359V19.472C100.359 17.6587 100.05 16.4 99.4309 15.696C98.8549 15.0987 98.0229 14.8 96.9349 14.8C95.6336 14.8 94.6309 15.2053 93.9269 16.016C93.4576 16.528 93.1162 17.2213 92.9029 18.096C92.7109 18.9707 92.6149 20.1547 92.6149 21.648V30H89.0949ZM112.649 30L106.089 12.176H109.897L113.225 21.904C113.395 22.3947 113.523 22.8747 113.609 23.344C113.694 23.8133 113.758 24.208 113.801 24.528C113.843 24.848 113.875 25.104 113.897 25.296H114.281C114.302 25.168 114.334 24.88 114.377 24.432C114.419 23.9627 114.483 23.5253 114.569 23.12C114.654 22.7147 114.771 22.3093 114.921 21.904L118.313 12.176H122.121L115.497 30H112.649ZM132.568 30.352C130.84 30.352 129.293 29.9573 127.928 29.168C126.584 28.3787 125.528 27.28 124.76 25.872C124.013 24.4427 123.64 22.8213 123.64 21.008C123.64 19.2373 124.013 17.6587 124.76 16.272C125.528 14.8853 126.584 13.7973 127.928 13.008C129.293 12.2187 130.84 11.824 132.568 11.824C134.296 11.824 135.832 12.2187 137.176 13.008C138.541 13.7973 139.597 14.8853 140.344 16.272C141.112 17.6587 141.496 19.2373 141.496 21.008C141.496 22.8 141.123 24.4107 140.376 25.84C139.629 27.248 138.573 28.3573 137.208 29.168C135.864 29.9573 134.317 30.352 132.568 30.352ZM132.568 27.28C133.592 27.28 134.509 27.0133 135.32 26.48C136.131 25.9467 136.76 25.2 137.208 24.24C137.677 23.28 137.912 22.2027 137.912 21.008C137.912 19.856 137.677 18.8213 137.208 17.904C136.76 16.9653 136.131 16.2293 135.32 15.696C134.509 15.1627 133.592 14.896 132.568 14.896C131.544 14.896 130.627 15.1627 129.816 15.696C129.005 16.208 128.365 16.9333 127.896 17.872C127.448 18.7893 127.224 19.8347 127.224 21.008C127.224 22.224 127.448 23.312 127.896 24.272C128.365 25.2107 129.005 25.9467 129.816 26.48C130.627 27.0133 131.544 27.28 132.568 27.28ZM145.129 36.592V33.52H146.953C147.657 33.52 148.169 33.424 148.489 33.232C148.83 33.04 149.14 32.5813 149.417 31.856L150.121 29.904L143.369 12.176H147.209L151.273 23.6C151.486 24.176 151.646 24.8693 151.753 25.68H152.137C152.201 24.9973 152.35 24.304 152.585 23.6L156.361 12.176H160.169L152.745 32.816C152.233 34.2453 151.625 35.2267 150.921 35.76C150.217 36.3147 149.225 36.592 147.945 36.592H145.129Z" fill="black" style="fill:black;fill-opacity:1;"/>
</g>
</svg>
