<svg width="20" height="20" viewBox="0 0 20 20" fill="none" xmlns="http://www.w3.org/2000/svg">
<path d="M14.1667 5.83333H5.83333C5.61232 5.83333 5.40036 5.92113 5.24408 6.07741C5.0878 6.23369 5 6.44565 5 6.66667C5 6.88768 5.0878 7.09964 5.24408 7.25592C5.40036 7.4122 5.61232 7.5 5.83333 7.5H14.1667C14.3877 7.5 14.5996 7.4122 14.7559 7.25592C14.9122 7.09964 15 6.88768 15 6.66667C15 6.44565 14.9122 6.23369 14.7559 6.07741C14.5996 5.92113 14.3877 5.83333 14.1667 5.83333ZM14.1667 9.16667H5.83333C5.61232 9.16667 5.40036 9.25446 5.24408 9.41074C5.0878 9.56702 5 9.77899 5 10C5 10.221 5.0878 10.433 5.24408 10.5893C5.40036 10.7455 5.61232 10.8333 5.83333 10.8333H14.1667C14.3877 10.8333 14.5996 10.7455 14.7559 10.5893C14.9122 10.433 15 10.221 15 10C15 9.77899 14.9122 9.56702 14.7559 9.41074C14.5996 9.25446 14.3877 9.16667 14.1667 9.16667ZM15.8333 1.66667H4.16667C3.50363 1.66667 2.86774 1.93006 2.3989 2.3989C1.93006 2.86774 1.66667 3.50362 1.66667 4.16667V12.5C1.66667 13.163 1.93006 13.7989 2.3989 14.2678C2.86774 14.7366 3.50363 15 4.16667 15H13.825L16.9083 18.0917C16.9862 18.1689 17.0785 18.23 17.1801 18.2715C17.2816 18.3129 17.3903 18.334 17.5 18.3333C17.6093 18.3361 17.7178 18.3133 17.8167 18.2667C17.9689 18.2041 18.0991 18.098 18.1911 17.9615C18.283 17.8251 18.3325 17.6645 18.3333 17.5V4.16667C18.3333 3.50362 18.0699 2.86774 17.6011 2.3989C17.1323 1.93006 16.4964 1.66667 15.8333 1.66667ZM16.6667 15.4917L14.7583 13.575C14.6805 13.4978 14.5881 13.4367 14.4866 13.3952C14.3851 13.3537 14.2763 13.3327 14.1667 13.3333H4.16667C3.94565 13.3333 3.73369 13.2455 3.57741 13.0893C3.42113 12.933 3.33333 12.721 3.33333 12.5V4.16667C3.33333 3.94565 3.42113 3.73369 3.57741 3.57741C3.73369 3.42113 3.94565 3.33333 4.16667 3.33333H15.8333C16.0543 3.33333 16.2663 3.42113 16.4226 3.57741C16.5789 3.73369 16.6667 3.94565 16.6667 4.16667V15.4917Z" fill="#477DB3"/>
</svg>
