<svg width="14" height="14" viewBox="0 0 14 14" fill="none" xmlns="http://www.w3.org/2000/svg">
<path opacity="0.4" d="M1.92708 9.91103C1.75554 10.0827 1.65918 10.3154 1.65918 10.558C1.65918 10.8007 1.75554 11.0334 1.92708 11.205L2.57406 11.852C2.74568 12.0235 2.9784 12.1199 3.22105 12.1199C3.4637 12.1199 3.69641 12.0235 3.86803 11.852L6.77918 8.94084L4.83822 6.99988L1.92708 9.91103ZM11.6313 2.79476L10.9843 2.14778C10.8127 1.97624 10.58 1.87988 10.3373 1.87988C10.0947 1.87988 9.86195 1.97624 9.69033 2.14778L6.77918 5.05892L8.72014 6.99988L11.6313 4.08874C11.8028 3.91711 11.8992 3.6844 11.8992 3.44175C11.8992 3.1991 11.8028 2.96639 11.6313 2.79476Z" fill="#748CAD"/>
<path d="M11.6313 9.91103C11.8028 10.0827 11.8992 10.3154 11.8992 10.558C11.8992 10.8007 11.8028 11.0334 11.6313 11.205L10.9843 11.852C10.8127 12.0235 10.58 12.1199 10.3373 12.1199C10.0947 12.1199 9.86195 12.0235 9.69033 11.852L1.92708 4.08874C1.75554 3.91711 1.65918 3.6844 1.65918 3.44175C1.65918 3.1991 1.75554 2.96639 1.92708 2.79476L2.57406 2.14778C2.74568 1.97624 2.9784 1.87988 3.22105 1.87988C3.4637 1.87988 3.69641 1.97624 3.86803 2.14778L11.6313 9.91103Z" fill="#748CAD"/>
<path d="M8.72012 6.99988L11.6313 4.08876C11.9885 3.73152 11.9885 3.15232 11.6313 2.79479L10.9843 2.14781C10.627 1.79057 10.0478 1.79057 9.69031 2.14781L6.77918 5.05894L3.86805 2.14781C3.51082 1.79057 2.93162 1.79057 2.57409 2.14781L1.92711 2.79479C1.56987 3.15203 1.56987 3.73123 1.92711 4.08876L4.83823 6.99988L1.92711 9.91101C1.56987 10.2682 1.56987 10.8474 1.92711 11.205L2.57409 11.852C2.93132 12.2092 3.51082 12.2092 3.86805 11.852L6.77918 8.94083L9.69031 11.852C10.0475 12.2092 10.627 12.2092 10.9843 11.852L11.6313 11.205C11.9885 10.8477 11.9885 10.2685 11.6313 9.91101L8.72012 6.99988Z" fill="#748CAD"/>
</svg>
