<svg width="80" height="80" viewBox="0 0 80 80" fill="none" xmlns="http://www.w3.org/2000/svg">
<rect width="80" height="80" rx="10" fill="#EDF2F7"/>
<path d="M26.668 35.9993H29.3346V39.9993C29.3346 40.353 29.4751 40.6921 29.7252 40.9422C29.9752 41.1922 30.3143 41.3327 30.668 41.3327H38.668V43.9993H36.0013C35.6477 43.9993 35.3085 44.1398 35.0585 44.3899C34.8084 44.6399 34.668 44.9791 34.668 45.3327V53.3327C34.668 53.6863 34.8084 54.0254 35.0585 54.2755C35.3085 54.5255 35.6477 54.666 36.0013 54.666H44.0013C44.3549 54.666 44.6941 54.5255 44.9441 54.2755C45.1942 54.0254 45.3346 53.6863 45.3346 53.3327V45.3327C45.3346 44.9791 45.1942 44.6399 44.9441 44.3899C44.6941 44.1398 44.3549 43.9993 44.0013 43.9993H41.3346V41.3327H49.3346C49.6883 41.3327 50.0274 41.1922 50.2774 40.9422C50.5275 40.6921 50.668 40.353 50.668 39.9993V35.9993H53.3346C53.6883 35.9993 54.0274 35.8589 54.2774 35.6088C54.5275 35.3588 54.668 35.0196 54.668 34.666V26.666C54.668 26.3124 54.5275 25.9733 54.2774 25.7232C54.0274 25.4732 53.6883 25.3327 53.3346 25.3327H45.3346C44.981 25.3327 44.6419 25.4732 44.3918 25.7232C44.1418 25.9733 44.0013 26.3124 44.0013 26.666V34.666C44.0013 35.0196 44.1418 35.3588 44.3918 35.6088C44.6419 35.8589 44.981 35.9993 45.3346 35.9993H48.0013V38.666H32.0013V35.9993H34.668C35.0216 35.9993 35.3607 35.8589 35.6108 35.6088C35.8608 35.3588 36.0013 35.0196 36.0013 34.666V26.666C36.0013 26.3124 35.8608 25.9733 35.6108 25.7232C35.3607 25.4732 35.0216 25.3327 34.668 25.3327H26.668C26.3143 25.3327 25.9752 25.4732 25.7252 25.7232C25.4751 25.9733 25.3346 26.3124 25.3346 26.666V34.666C25.3346 35.0196 25.4751 35.3588 25.7252 35.6088C25.9752 35.8589 26.3143 35.9993 26.668 35.9993ZM46.668 33.3327V27.9993H52.0013V33.3327H46.668ZM42.668 46.666V51.9993H37.3346V46.666H42.668ZM28.0013 27.9993H33.3346V33.3327H28.0013V27.9993Z" fill="#477DB3"/>
</svg>
