<svg width="318" height="156" viewBox="0 0 318 156" fill="none" xmlns="http://www.w3.org/2000/svg">
<rect width="318" height="156" rx="20" fill="white"/>
<line x1="99" y1="77.5" x2="218" y2="77.5" stroke="#C8D8E8" stroke-dasharray="2 2"/>
<circle cx="158.5" cy="77.5" r="2.5" fill="#B8C7D7"/>
<rect x="58" y="58" width="40.5138" height="40.5138" rx="20.2569" fill="#EDF2F7"/>
<g clip-path="url(#clip0_15003_399104)">
<path d="M84.667 80H83.3337V78C83.3337 77.8232 83.2634 77.6536 83.1384 77.5286C83.0134 77.4036 82.8438 77.3333 82.667 77.3333H78.667V76H80.0003C80.1771 76 80.3467 75.9298 80.4717 75.8047C80.5968 75.6797 80.667 75.5101 80.667 75.3333V71.3333C80.667 71.1565 80.5968 70.9869 80.4717 70.8619C80.3467 70.7369 80.1771 70.6667 80.0003 70.6667H76.0003C75.8235 70.6667 75.6539 70.7369 75.5289 70.8619C75.4039 70.9869 75.3337 71.1565 75.3337 71.3333V75.3333C75.3337 75.5101 75.4039 75.6797 75.5289 75.8047C75.6539 75.9298 75.8235 76 76.0003 76H77.3337V77.3333H73.3337C73.1568 77.3333 72.9873 77.4036 72.8623 77.5286C72.7372 77.6536 72.667 77.8232 72.667 78V80H71.3337C71.1568 80 70.9873 80.0702 70.8623 80.1953C70.7372 80.3203 70.667 80.4898 70.667 80.6667V84.6667C70.667 84.8435 70.7372 85.013 70.8623 85.1381C70.9873 85.2631 71.1568 85.3333 71.3337 85.3333H75.3337C75.5105 85.3333 75.68 85.2631 75.8051 85.1381C75.9301 85.013 76.0003 84.8435 76.0003 84.6667V80.6667C76.0003 80.4898 75.9301 80.3203 75.8051 80.1953C75.68 80.0702 75.5105 80 75.3337 80H74.0003V78.6667H82.0003V80H80.667C80.4902 80 80.3206 80.0702 80.1956 80.1953C80.0706 80.3203 80.0003 80.4898 80.0003 80.6667V84.6667C80.0003 84.8435 80.0706 85.013 80.1956 85.1381C80.3206 85.2631 80.4902 85.3333 80.667 85.3333H84.667C84.8438 85.3333 85.0134 85.2631 85.1384 85.1381C85.2634 85.013 85.3337 84.8435 85.3337 84.6667V80.6667C85.3337 80.4898 85.2634 80.3203 85.1384 80.1953C85.0134 80.0702 84.8438 80 84.667 80ZM74.667 81.3333V84H72.0003V81.3333H74.667ZM76.667 74.6667V72H79.3337V74.6667H76.667ZM84.0003 84H81.3337V81.3333H84.0003V84Z" fill="#477DB3"/>
</g>
<rect x="219" y="58" width="40.5138" height="40.5138" rx="20.2569" fill="#EDF2F7"/>
<path d="M236.968 74.6211H239.045C239.229 74.6211 239.405 74.5481 239.535 74.4182C239.665 74.2884 239.738 74.1122 239.738 73.9285C239.738 73.7449 239.665 73.5687 239.535 73.4388C239.405 73.3089 239.229 73.236 239.045 73.236H236.968C236.784 73.236 236.608 73.3089 236.478 73.4388C236.348 73.5687 236.275 73.7449 236.275 73.9285C236.275 74.1122 236.348 74.2884 236.478 74.4182C236.608 74.5481 236.784 74.6211 236.968 74.6211ZM242.508 74.6211C242.645 74.6211 242.779 74.5805 242.893 74.5044C243.007 74.4283 243.096 74.3201 243.148 74.1936C243.2 74.067 243.214 73.9278 243.187 73.7934C243.161 73.6591 243.095 73.5357 242.998 73.4388C242.901 73.342 242.778 73.276 242.643 73.2493C242.509 73.2226 242.37 73.2363 242.243 73.2887C242.117 73.3411 242.008 73.4299 241.932 73.5438C241.856 73.6577 241.816 73.7916 241.816 73.9285C241.816 74.1122 241.889 74.2884 242.018 74.4182C242.148 74.5481 242.324 74.6211 242.508 74.6211ZM242.508 77.3912C242.371 77.3912 242.237 77.4319 242.123 77.508C242.009 77.5841 241.921 77.6922 241.868 77.8188C241.816 77.9453 241.802 78.0846 241.829 78.2189C241.856 78.3532 241.922 78.4766 242.018 78.5735C242.115 78.6703 242.239 78.7363 242.373 78.763C242.507 78.7897 242.647 78.776 242.773 78.7236C242.9 78.6712 243.008 78.5824 243.084 78.4685C243.16 78.3547 243.201 78.2208 243.201 78.0838C243.201 77.9001 243.128 77.724 242.998 77.5941C242.868 77.4642 242.692 77.3912 242.508 77.3912ZM245.971 83.6241H241.691C241.587 83.3337 241.421 83.0699 241.203 82.8519C240.985 82.6339 240.721 82.4671 240.43 82.3637V80.854H243.201C243.752 80.854 244.28 80.6351 244.67 80.2454C245.059 79.8558 245.278 79.3273 245.278 78.7763V77.3912C245.275 76.8787 245.083 76.3854 244.738 76.0062C245.083 75.6269 245.275 75.1336 245.278 74.6211V73.236C245.278 72.685 245.059 72.1565 244.67 71.7669C244.28 71.3772 243.752 71.1584 243.201 71.1584H236.275C235.724 71.1584 235.196 71.3772 234.806 71.7669C234.416 72.1565 234.198 72.685 234.198 73.236V74.6211C234.201 75.1336 234.393 75.6269 234.738 76.0062C234.393 76.3854 234.201 76.8787 234.198 77.3912V78.7763C234.198 79.3273 234.416 79.8558 234.806 80.2454C235.196 80.6351 235.724 80.854 236.275 80.854H239.045V82.3637C238.755 82.4671 238.491 82.6339 238.273 82.8519C238.055 83.0699 237.888 83.3337 237.785 83.6241H233.505C233.321 83.6241 233.145 83.6971 233.015 83.827C232.885 83.9568 232.812 84.133 232.812 84.3167C232.812 84.5003 232.885 84.6765 233.015 84.8064C233.145 84.9363 233.321 85.0092 233.505 85.0092H237.785C237.931 85.4103 238.196 85.7568 238.545 86.0017C238.895 86.2466 239.311 86.378 239.738 86.378C240.165 86.378 240.581 86.2466 240.93 86.0017C241.28 85.7568 241.545 85.4103 241.691 85.0092H245.971C246.154 85.0092 246.331 84.9363 246.461 84.8064C246.59 84.6765 246.663 84.5003 246.663 84.3167C246.663 84.133 246.59 83.9568 246.461 83.827C246.331 83.6971 246.154 83.6241 245.971 83.6241ZM235.583 73.236C235.583 73.0523 235.656 72.8762 235.786 72.7463C235.915 72.6164 236.092 72.5434 236.275 72.5434H243.201C243.384 72.5434 243.56 72.6164 243.69 72.7463C243.82 72.8762 243.893 73.0523 243.893 73.236V74.6211C243.893 74.8047 243.82 74.9809 243.69 75.1108C243.56 75.2406 243.384 75.3136 243.201 75.3136H236.275C236.092 75.3136 235.915 75.2406 235.786 75.1108C235.656 74.9809 235.583 74.8047 235.583 74.6211V73.236ZM236.275 79.4689C236.092 79.4689 235.915 79.3959 235.786 79.266C235.656 79.1362 235.583 78.96 235.583 78.7763V77.3912C235.583 77.2076 235.656 77.0314 235.786 76.9015C235.915 76.7717 236.092 76.6987 236.275 76.6987H243.201C243.384 76.6987 243.56 76.7717 243.69 76.9015C243.82 77.0314 243.893 77.2076 243.893 77.3912V78.7763C243.893 78.96 243.82 79.1362 243.69 79.266C243.56 79.3959 243.384 79.4689 243.201 79.4689H236.275ZM239.738 85.0092C239.601 85.0092 239.467 84.9686 239.353 84.8925C239.239 84.8164 239.151 84.7082 239.098 84.5817C239.046 84.4552 239.032 84.3159 239.059 84.1816C239.085 84.0472 239.151 83.9238 239.248 83.827C239.345 83.7301 239.468 83.6642 239.603 83.6374C239.737 83.6107 239.876 83.6244 240.003 83.6768C240.13 83.7293 240.238 83.818 240.314 83.9319C240.39 84.0458 240.43 84.1797 240.43 84.3167C240.43 84.5003 240.358 84.6765 240.228 84.8064C240.098 84.9363 239.922 85.0092 239.738 85.0092ZM239.045 77.3912H236.968C236.784 77.3912 236.608 77.4642 236.478 77.5941C236.348 77.724 236.275 77.9001 236.275 78.0838C236.275 78.2675 236.348 78.4436 236.478 78.5735C236.608 78.7034 236.784 78.7763 236.968 78.7763H239.045C239.229 78.7763 239.405 78.7034 239.535 78.5735C239.665 78.4436 239.738 78.2675 239.738 78.0838C239.738 77.9001 239.665 77.724 239.535 77.5941C239.405 77.4642 239.229 77.3912 239.045 77.3912Z" fill="#477DB3"/>
<defs>
<clipPath id="clip0_15003_399104">
<rect width="16" height="16" fill="white" transform="translate(70 70)"/>
</clipPath>
</defs>
</svg>
