<svg width="14" height="14" viewBox="0 0 14 14" fill="none" xmlns="http://www.w3.org/2000/svg">
<g clip-path="url(#clip0_213_1915)">
<path d="M13.9043 12.8215L10.5848 9.50195C10.5219 9.43906 10.4398 9.40625 10.3523 9.40625H9.99141C10.8527 8.4082 11.375 7.10938 11.375 5.6875C11.375 2.5457 8.8293 0 5.6875 0C2.5457 0 0 2.5457 0 5.6875C0 8.8293 2.5457 11.375 5.6875 11.375C7.10938 11.375 8.4082 10.8527 9.40625 9.99141V10.3523C9.40625 10.4398 9.4418 10.5219 9.50195 10.5848L12.8215 13.9043C12.95 14.0328 13.1578 14.0328 13.2863 13.9043L13.9043 13.2863C14.0328 13.1578 14.0328 12.95 13.9043 12.8215ZM5.6875 10.0625C3.27031 10.0625 1.3125 8.10469 1.3125 5.6875C1.3125 3.27031 3.27031 1.3125 5.6875 1.3125C8.10469 1.3125 10.0625 3.27031 10.0625 5.6875C10.0625 8.10469 8.10469 10.0625 5.6875 10.0625Z" fill="#737A91"/>
</g>
<defs>
<clipPath id="clip0_213_1915">
<rect width="14" height="14" fill="white"/>
</clipPath>
</defs>
</svg>
