<svg width="18" height="18" viewBox="0 0 18 18" fill="none" xmlns="http://www.w3.org/2000/svg">
<path fill-rule="evenodd" clip-rule="evenodd" d="M6 6C6 7.6545 7.34546 9 9 9C10.6545 9 12 7.6545 12 6C12 4.3455 10.6545 3 9 3C7.34546 3 6 4.3455 6 6ZM7.5 6C7.5 5.172 8.17273 4.5 9 4.5C9.82727 4.5 10.5 5.172 10.5 6C10.5 6.82725 9.82727 7.5 9 7.5C8.17273 7.5 7.5 6.82725 7.5 6Z" fill="#475467"/>
<path fill-rule="evenodd" clip-rule="evenodd" d="M3.375 15C3.16791 15 3 14.8321 3 14.625V14.25C3 11.6003 5.46753 9.75 9 9.75C12.5325 9.75 15 11.6003 15 14.25V14.625C15 14.8321 14.8321 15 14.625 15H3.375ZM13.3815 13.5H4.61929C5.06781 12.144 6.74478 11.25 9.00082 11.25C11.2568 11.25 12.933 12.144 13.3815 13.5Z" fill="#475467"/>
</svg>
