<svg width="17" height="17" viewBox="0 0 17 17" fill="none" xmlns="http://www.w3.org/2000/svg">
<path d="M9.16634 12.5003H2.49967C2.32286 12.5003 2.15329 12.5706 2.02827 12.6956C1.90325 12.8206 1.83301 12.9902 1.83301 13.167C1.83301 13.3438 1.90325 13.5134 2.02827 13.6384C2.15329 13.7634 2.32286 13.8337 2.49967 13.8337H9.16634C9.34315 13.8337 9.51272 13.7634 9.63775 13.6384C9.76277 13.5134 9.83301 13.3438 9.83301 13.167C9.83301 12.9902 9.76277 12.8206 9.63775 12.6956C9.51272 12.5706 9.34315 12.5003 9.16634 12.5003ZM2.49967 5.83366H7.83301C8.00982 5.83366 8.17939 5.76342 8.30441 5.6384C8.42944 5.51337 8.49967 5.3438 8.49967 5.16699C8.49967 4.99018 8.42944 4.82061 8.30441 4.69559C8.17939 4.57056 8.00982 4.50033 7.83301 4.50033H2.49967C2.32286 4.50033 2.15329 4.57056 2.02827 4.69559C1.90325 4.82061 1.83301 4.99018 1.83301 5.16699C1.83301 5.3438 1.90325 5.51337 2.02827 5.6384C2.15329 5.76342 2.32286 5.83366 2.49967 5.83366ZM2.49967 8.50033H7.83301C8.00982 8.50033 8.17939 8.43009 8.30441 8.30506C8.42944 8.18004 8.49967 8.01047 8.49967 7.83366C8.49967 7.65685 8.42944 7.48728 8.30441 7.36225C8.17939 7.23723 8.00982 7.16699 7.83301 7.16699H2.49967C2.32286 7.16699 2.15329 7.23723 2.02827 7.36225C1.90325 7.48728 1.83301 7.65685 1.83301 7.83366C1.83301 8.01047 1.90325 8.18004 2.02827 8.30506C2.15329 8.43009 2.32286 8.50033 2.49967 8.50033ZM14.4997 9.83366H2.49967C2.32286 9.83366 2.15329 9.9039 2.02827 10.0289C1.90325 10.1539 1.83301 10.3235 1.83301 10.5003C1.83301 10.6771 1.90325 10.8467 2.02827 10.9717C2.15329 11.0968 2.32286 11.167 2.49967 11.167H14.4997C14.6765 11.167 14.8461 11.0968 14.9711 10.9717C15.0961 10.8467 15.1663 10.6771 15.1663 10.5003C15.1663 10.3235 15.0961 10.1539 14.9711 10.0289C14.8461 9.9039 14.6765 9.83366 14.4997 9.83366ZM14.4997 3.16699H10.4997C10.3229 3.16699 10.1533 3.23723 10.0283 3.36225C9.90325 3.48728 9.83301 3.65685 9.83301 3.83366V7.83366C9.83301 8.01047 9.90325 8.18004 10.0283 8.30506C10.1533 8.43009 10.3229 8.50033 10.4997 8.50033H14.4997C14.6765 8.50033 14.8461 8.43009 14.9711 8.30506C15.0961 8.18004 15.1663 8.01047 15.1663 7.83366V3.83366C15.1663 3.65685 15.0961 3.48728 14.9711 3.36225C14.8461 3.23723 14.6765 3.16699 14.4997 3.16699ZM13.833 7.16699H11.1663V4.50033H13.833V7.16699Z" fill="#477DB3"/>
</svg>
