<svg width="24" height="24" viewBox="0 0 24 24" fill="none" xmlns="http://www.w3.org/2000/svg">
<path d="M16.9999 13.41L12.7099 9.17C12.617 9.07628 12.5064 9.00188 12.3845 8.95111C12.2627 8.90035 12.132 8.87421 11.9999 8.87421C11.8679 8.87421 11.7372 8.90035 11.6154 8.95111C11.4935 9.00188 11.3829 9.07628 11.2899 9.17L7.04995 13.41C6.95622 13.503 6.88183 13.6136 6.83106 13.7354C6.78029 13.8573 6.75415 13.988 6.75415 14.12C6.75415 14.252 6.78029 14.3827 6.83106 14.5046C6.88183 14.6264 6.95622 14.737 7.04995 14.83C7.23731 15.0163 7.49076 15.1208 7.75495 15.1208C8.01913 15.1208 8.27259 15.0163 8.45995 14.83L11.9999 11.29L15.5399 14.83C15.7262 15.0147 15.9776 15.1189 16.2399 15.12C16.3716 15.1208 16.502 15.0955 16.6239 15.0458C16.7457 14.996 16.8565 14.9227 16.9499 14.83C17.047 14.7404 17.1254 14.6324 17.1805 14.5123C17.2356 14.3923 17.2664 14.2625 17.271 14.1304C17.2757 13.9984 17.2541 13.8667 17.2076 13.7431C17.161 13.6194 17.0905 13.5062 16.9999 13.41Z" fill="#000624"/>
</svg>
