<svg width="24" height="24" viewBox="0 0 24 24" fill="none" xmlns="http://www.w3.org/2000/svg">
<path d="M15.54 11.29L9.87998 5.64C9.78702 5.54627 9.67642 5.47188 9.55456 5.42111C9.4327 5.37034 9.30199 5.3442 9.16998 5.3442C9.03797 5.3442 8.90726 5.37034 8.78541 5.42111C8.66355 5.47188 8.55294 5.54627 8.45998 5.64C8.27373 5.82736 8.16919 6.08081 8.16919 6.345C8.16919 6.60918 8.27373 6.86264 8.45998 7.05L13.41 12.05L8.45998 17C8.27373 17.1874 8.16919 17.4408 8.16919 17.705C8.16919 17.9692 8.27373 18.2226 8.45998 18.41C8.5526 18.5045 8.66304 18.5797 8.78492 18.6312C8.90679 18.6826 9.03767 18.7094 9.16998 18.71C9.30229 18.7094 9.43317 18.6826 9.55505 18.6312C9.67692 18.5797 9.78737 18.5045 9.87998 18.41L15.54 12.76C15.6415 12.6664 15.7225 12.5527 15.7779 12.4262C15.8333 12.2997 15.8619 12.1631 15.8619 12.025C15.8619 11.8869 15.8333 11.7503 15.7779 11.6238C15.7225 11.4973 15.6415 11.3836 15.54 11.29Z" fill="#000624"/>
</svg>
