<svg width="50" height="44" viewBox="0 0 50 44" fill="none" xmlns="http://www.w3.org/2000/svg">
<path opacity="0.1" d="M20.1666 27.4167H3.24998C2.60904 27.4167 1.99435 27.6713 1.54114 28.1245C1.08793 28.5777 0.833313 29.1924 0.833313 29.8333V46.75C0.833313 47.3909 1.08793 48.0056 1.54114 48.4588C1.99435 48.912 2.60904 49.1667 3.24998 49.1667H20.1666C20.8076 49.1667 21.4223 48.912 21.8755 48.4588C22.3287 48.0056 22.5833 47.3909 22.5833 46.75V29.8333C22.5833 29.1924 22.3287 28.5777 21.8755 28.1245C21.4223 27.6713 20.8076 27.4167 20.1666 27.4167ZM17.75 44.3333H5.66665V32.25H17.75V44.3333ZM46.75 0.833317H29.8333C29.1924 0.833317 28.5777 1.08793 28.1245 1.54114C27.6713 1.99435 27.4166 2.60904 27.4166 3.24998V20.1667C27.4166 20.8076 27.6713 21.4223 28.1245 21.8755C28.5777 22.3287 29.1924 22.5833 29.8333 22.5833H46.75C47.3909 22.5833 48.0056 22.3287 48.4588 21.8755C48.912 21.4223 49.1666 20.8076 49.1666 20.1667V3.24998C49.1666 2.60904 48.912 1.99435 48.4588 1.54114C48.0056 1.08793 47.3909 0.833317 46.75 0.833317ZM44.3333 17.75H32.25V5.66665H44.3333V17.75ZM46.75 27.4167H29.8333C29.1924 27.4167 28.5777 27.6713 28.1245 28.1245C27.6713 28.5777 27.4166 29.1924 27.4166 29.8333V46.75C27.4166 47.3909 27.6713 48.0056 28.1245 48.4588C28.5777 48.912 29.1924 49.1667 29.8333 49.1667H46.75C47.3909 49.1667 48.0056 48.912 48.4588 48.4588C48.912 48.0056 49.1666 47.3909 49.1666 46.75V29.8333C49.1666 29.1924 48.912 28.5777 48.4588 28.1245C48.0056 27.6713 47.3909 27.4167 46.75 27.4167ZM44.3333 44.3333H32.25V32.25H44.3333V44.3333ZM20.1666 0.833317H3.24998C2.60904 0.833317 1.99435 1.08793 1.54114 1.54114C1.08793 1.99435 0.833313 2.60904 0.833313 3.24998V20.1667C0.833313 20.8076 1.08793 21.4223 1.54114 21.8755C1.99435 22.3287 2.60904 22.5833 3.24998 22.5833H20.1666C20.8076 22.5833 21.4223 22.3287 21.8755 21.8755C22.3287 21.4223 22.5833 20.8076 22.5833 20.1667V3.24998C22.5833 2.60904 22.3287 1.99435 21.8755 1.54114C21.4223 1.08793 20.8076 0.833317 20.1666 0.833317ZM17.75 17.75H5.66665V5.66665H17.75V17.75Z" fill="#9EA0A5"/>
</svg>
