<svg width="18" height="18" viewBox="0 0 18 18" fill="none" xmlns="http://www.w3.org/2000/svg">
<path d="M12.6685 8.26732H7.10248L9.52248 5.85466C9.66057 5.71657 9.73815 5.52928 9.73815 5.33399C9.73815 5.1387 9.66057 4.95141 9.52248 4.81332C9.38439 4.67523 9.1971 4.59766 9.00181 4.59766C8.80652 4.59766 8.61923 4.67523 8.48115 4.81332L4.81448 8.47999C4.74772 8.54973 4.69538 8.63197 4.66048 8.72199C4.58713 8.90053 4.58713 9.10078 4.66048 9.27932C4.69538 9.36934 4.74772 9.45158 4.81448 9.52132L8.48115 13.188C8.54932 13.2567 8.63043 13.3113 8.71979 13.3485C8.80915 13.3857 8.905 13.4049 9.00181 13.4049C9.09862 13.4049 9.19447 13.3857 9.28383 13.3485C9.3732 13.3113 9.45431 13.2567 9.52248 13.188C9.59121 13.1198 9.64577 13.0387 9.683 12.9493C9.72023 12.86 9.7394 12.7641 9.7394 12.6673C9.7394 12.5705 9.72023 12.4747 9.683 12.3853C9.64577 12.2959 9.59121 12.2148 9.52248 12.1467L7.10248 9.73399H12.6685C12.863 9.73399 13.0495 9.65673 13.187 9.5192C13.3245 9.38167 13.4018 9.19515 13.4018 9.00066C13.4018 8.80616 13.3245 8.61964 13.187 8.48211C13.0495 8.34458 12.863 8.26732 12.6685 8.26732Z" fill="#477DB3"/>
</svg>
