<svg width="16" height="16" viewBox="0 0 16 16" fill="none" xmlns="http://www.w3.org/2000/svg">
<path d="M12.6667 2.66667H11.3333V2C11.3333 1.82319 11.2631 1.65362 11.1381 1.52859C11.0131 1.40357 10.8435 1.33333 10.6667 1.33333C10.4899 1.33333 10.3203 1.40357 10.1953 1.52859C10.0702 1.65362 10 1.82319 10 2V2.66667H6V2C6 1.82319 5.92976 1.65362 5.80474 1.52859C5.67972 1.40357 5.51015 1.33333 5.33334 1.33333C5.15652 1.33333 4.98696 1.40357 4.86193 1.52859C4.73691 1.65362 4.66667 1.82319 4.66667 2V2.66667H3.33334C2.8029 2.66667 2.2942 2.87738 1.91912 3.25245C1.54405 3.62752 1.33334 4.13623 1.33334 4.66667V12.6667C1.33334 13.1971 1.54405 13.7058 1.91912 14.0809C2.2942 14.456 2.8029 14.6667 3.33334 14.6667H12.6667C13.1971 14.6667 13.7058 14.456 14.0809 14.0809C14.456 13.7058 14.6667 13.1971 14.6667 12.6667V4.66667C14.6667 4.13623 14.456 3.62752 14.0809 3.25245C13.7058 2.87738 13.1971 2.66667 12.6667 2.66667ZM13.3333 12.6667C13.3333 12.8435 13.2631 13.013 13.1381 13.1381C13.0131 13.2631 12.8435 13.3333 12.6667 13.3333H3.33334C3.15652 13.3333 2.98696 13.2631 2.86193 13.1381C2.73691 13.013 2.66667 12.8435 2.66667 12.6667V8H13.3333V12.6667ZM13.3333 6.66667H2.66667V4.66667C2.66667 4.48985 2.73691 4.32029 2.86193 4.19526C2.98696 4.07024 3.15652 4 3.33334 4H4.66667V4.66667C4.66667 4.84348 4.73691 5.01305 4.86193 5.13807C4.98696 5.26309 5.15652 5.33333 5.33334 5.33333C5.51015 5.33333 5.67972 5.26309 5.80474 5.13807C5.92976 5.01305 6 4.84348 6 4.66667V4H10V4.66667C10 4.84348 10.0702 5.01305 10.1953 5.13807C10.3203 5.26309 10.4899 5.33333 10.6667 5.33333C10.8435 5.33333 11.0131 5.26309 11.1381 5.13807C11.2631 5.01305 11.3333 4.84348 11.3333 4.66667V4H12.6667C12.8435 4 13.0131 4.07024 13.1381 4.19526C13.2631 4.32029 13.3333 4.48985 13.3333 4.66667V6.66667Z" fill="#737A91"/>
</svg>
