<svg width="418" height="90" viewBox="0 0 418 90" fill="none" xmlns="http://www.w3.org/2000/svg">
<path d="M1 82.6698C19.2973 79.8606 34.3435 62.7304 56.1756 59.8511C67.8118 58.3164 77.1337 61.3033 87.5344 65.9444C97.935 70.5854 95.899 72.5895 119.29 76.1674C138.593 79.12 143.642 47.2864 162.557 48.5095C181.472 49.7326 190.221 11.4588 210.191 14.6537C230.161 17.8487 234.151 9.58828 252.923 25.2435C271.695 40.8987 289.038 4.40743 312.603 1.21249C336.168 -1.98245 342.305 31.9281 353.489 30.6501C364.672 29.3722 374.741 53.5357 384.327 57.0501C393.912 60.5646 396.63 47.7978 417 47.7978" stroke="#477DB3" stroke-width="1.67131" stroke-linecap="round" stroke-linejoin="round"/>
<path d="M56.1756 59.8511C34.3435 62.7304 19.2973 79.8606 1 82.6698V89.5985H417V47.7978C396.63 47.7978 393.912 60.5646 384.327 57.0501C374.741 53.5357 364.672 29.3722 353.489 30.6501C342.305 31.9281 336.168 -1.98245 312.603 1.21249C289.038 4.40743 271.695 40.8987 252.923 25.2435C234.151 9.58828 230.161 17.8487 210.191 14.6537C190.221 11.4588 181.472 49.7326 162.557 48.5095C143.642 47.2864 138.593 79.12 119.29 76.1674C95.899 72.5895 97.935 70.5854 87.5344 65.9444C77.1337 61.3033 67.8118 58.3164 56.1756 59.8511Z" fill="url(#paint0_linear_158_852)"/>
<defs>
<linearGradient id="paint0_linear_158_852" x1="209" y1="1" x2="209" y2="126.659" gradientUnits="userSpaceOnUse">
<stop stop-color="#477DB3" stop-opacity="0.1"/>
<stop offset="0.998978" stop-color="white" stop-opacity="0"/>
</linearGradient>
</defs>
</svg>
