<svg width="22" height="22" viewBox="0 0 22 22" fill="none" xmlns="http://www.w3.org/2000/svg">
<path d="M11.0007 1.83301C9.18766 1.83301 7.41538 2.37062 5.90793 3.37787C4.40048 4.38512 3.22556 5.81675 2.53176 7.49174C1.83796 9.16673 1.65643 11.0098 2.01012 12.788C2.36382 14.5662 3.23686 16.1995 4.51884 17.4815C5.80082 18.7635 7.43417 19.6365 9.21233 19.9902C10.9905 20.3439 12.8336 20.1624 14.5086 19.4686C16.1836 18.7748 17.6152 17.5999 18.6225 16.0924C19.6297 14.585 20.1673 12.8127 20.1673 10.9997C20.1673 9.79589 19.9302 8.60389 19.4696 7.49174C19.0089 6.37959 18.3337 5.36907 17.4825 4.51786C16.6313 3.66666 15.6207 2.99145 14.5086 2.53078C13.3964 2.07011 12.2044 1.83301 11.0007 1.83301ZM11.0007 18.333C9.55026 18.333 8.13243 17.9029 6.92647 17.0971C5.72051 16.2913 4.78058 15.146 4.22554 13.806C3.6705 12.466 3.52527 10.9915 3.80823 9.56901C4.09119 8.14648 4.78962 6.83981 5.81521 5.81422C6.84079 4.78864 8.14747 4.09021 9.56999 3.80725C10.9925 3.52429 12.467 3.66952 13.807 4.22456C15.147 4.7796 16.2923 5.71953 17.0981 6.92549C17.9039 8.13145 18.334 9.54928 18.334 10.9997C18.334 12.9446 17.5614 14.8099 16.1861 16.1851C14.8108 17.5604 12.9456 18.333 11.0007 18.333Z" fill="#748CAD"/>
</svg>
