<svg width="24" height="25" viewBox="0 0 24 25" fill="none" xmlns="http://www.w3.org/2000/svg">
<path d="M21 9.44C20.9896 9.34813 20.9695 9.25763 20.94 9.17V9.08C20.8919 8.97718 20.8278 8.88267 20.75 8.8L14.75 2.8C14.6673 2.72222 14.5728 2.65808 14.47 2.61C14.4402 2.60576 14.4099 2.60576 14.38 2.61C14.2784 2.55174 14.1662 2.51434 14.05 2.5H10C9.20435 2.5 8.44129 2.81607 7.87868 3.37868C7.31607 3.94129 7 4.70435 7 5.5V6.5H6C5.20435 6.5 4.44129 6.81607 3.87868 7.37868C3.31607 7.94129 3 8.70435 3 9.5V19.5C3 20.2956 3.31607 21.0587 3.87868 21.6213C4.44129 22.1839 5.20435 22.5 6 22.5H14C14.7956 22.5 15.5587 22.1839 16.1213 21.6213C16.6839 21.0587 17 20.2956 17 19.5V18.5H18C18.7956 18.5 19.5587 18.1839 20.1213 17.6213C20.6839 17.0587 21 16.2956 21 15.5V9.5C21 9.5 21 9.5 21 9.44ZM15 5.91L17.59 8.5H16C15.7348 8.5 15.4804 8.39464 15.2929 8.20711C15.1054 8.01957 15 7.76522 15 7.5V5.91ZM15 19.5C15 19.7652 14.8946 20.0196 14.7071 20.2071C14.5196 20.3946 14.2652 20.5 14 20.5H6C5.73478 20.5 5.48043 20.3946 5.29289 20.2071C5.10536 20.0196 5 19.7652 5 19.5V9.5C5 9.23478 5.10536 8.98043 5.29289 8.79289C5.48043 8.60536 5.73478 8.5 6 8.5H7V15.5C7 16.2956 7.31607 17.0587 7.87868 17.6213C8.44129 18.1839 9.20435 18.5 10 18.5H15V19.5ZM19 15.5C19 15.7652 18.8946 16.0196 18.7071 16.2071C18.5196 16.3946 18.2652 16.5 18 16.5H10C9.73478 16.5 9.48043 16.3946 9.29289 16.2071C9.10536 16.0196 9 15.7652 9 15.5V5.5C9 5.23478 9.10536 4.98043 9.29289 4.79289C9.48043 4.60536 9.73478 4.5 10 4.5H13V7.5C13 8.29565 13.3161 9.05871 13.8787 9.62132C14.4413 10.1839 15.2044 10.5 16 10.5H19V15.5Z" fill="#477DB3"/>
</svg>
