<svg width="17" height="16" viewBox="0 0 17 16" fill="none" xmlns="http://www.w3.org/2000/svg">
<g clip-path="url(#clip0_1847_31736)">
<path d="M12.5 11.32H8.50671C7.77337 11.32 7.20671 11.9467 6.85337 12.5867C6.57368 13.1115 6.12657 13.5278 5.58312 13.7693C5.03968 14.0109 4.43108 14.0638 3.85409 13.9197C3.27709 13.7757 2.76481 13.4429 2.39867 12.9743C2.03254 12.5056 1.83356 11.928 1.83337 11.3333C1.84004 10.8667 1.96671 10.4 2.21337 10M4.50004 11.3333L6.58671 7.48C6.94004 6.83333 6.65337 6.02666 6.25337 5.41333C6.06458 5.1114 5.93818 4.77471 5.88161 4.42314C5.82505 4.07156 5.83947 3.71222 5.92403 3.36631C6.00859 3.0204 6.16158 2.69493 6.37396 2.4091C6.58635 2.12327 6.85383 1.88287 7.16062 1.70209C7.46742 1.52131 7.80731 1.4038 8.16025 1.35651C8.51319 1.30922 8.87203 1.33309 9.2156 1.42672C9.55917 1.52035 9.8805 1.68185 10.1606 1.90168C10.4408 2.12151 10.6741 2.39522 10.8467 2.70666M8.50004 4L10.5867 7.82C10.94 8.46666 11.7667 8.66666 12.5 8.66666C13.2073 8.66666 13.8856 8.94762 14.3857 9.44771C14.8858 9.94781 15.1667 10.6261 15.1667 11.3333C15.1667 12.0406 14.8858 12.7189 14.3857 13.2189C13.8856 13.719 13.2073 14 12.5 14" stroke="#477DB3" style="stroke:#477DB3;stroke:color(display-p3 0.2784 0.4902 0.7020);stroke-opacity:1;" stroke-width="2" stroke-linecap="round" stroke-linejoin="round"/>
</g>
<defs>
<clipPath id="clip0_1847_31736">
<rect width="16" height="16" fill="white" style="fill:white;fill-opacity:1;" transform="translate(0.5)"/>
</clipPath>
</defs>
</svg>
