<svg width="17" height="16" viewBox="0 0 17 16" fill="none" xmlns="http://www.w3.org/2000/svg">
<g clip-path="url(#clip0_1847_31781)">
<path d="M8.50501 0C8.95694 0.000830213 9.40141 0.0390201 9.83348 0.111249V4.76875L13.1354 1.47529C13.5001 1.73431 13.8413 2.0224 14.1567 2.33705C14.4723 2.65171 14.762 2.99293 15.0217 3.35656L11.7196 6.65002H16.3892C16.4617 7.08089 16.5 7.52258 16.5 7.97421V7.985C16.5 8.43664 16.4617 8.87915 16.3892 9.31003H11.7188L15.0217 12.6027C14.762 12.9663 14.4723 13.3075 14.1577 13.6222H14.1567C13.8413 13.9368 13.5001 14.2257 13.1364 14.4839L9.83348 11.1905V15.848C9.4022 15.9202 8.95774 15.9583 8.5058 15.9593H8.4942C8.04211 15.9583 7.59939 15.9202 7.16732 15.848V11.1905L3.86536 14.4839C3.13613 13.9667 2.49859 13.3299 1.97912 12.6027L5.28123 9.31003H0.611554C0.538297 8.87831 0.5 8.43414 0.5 7.98251V7.95933C0.500759 7.84212 0.508434 7.69895 0.519457 7.55081L0.522861 7.50625C0.5555 7.0893 0.611554 6.65002 0.611554 6.65002H5.28123L1.97912 3.35656C2.23798 2.99293 2.52688 2.65253 2.84231 2.33872L2.8439 2.33705C3.15869 2.0224 3.50067 1.73431 3.86536 1.47529L7.16732 4.76875V0.111249C7.59939 0.0390201 8.04306 0.000830213 8.49579 0H8.50501ZM8.50421 5.98502H8.49658C7.90227 5.98502 7.33306 6.09377 6.80691 6.29136C6.60971 6.81523 6.50054 7.38309 6.49974 7.97587V7.98334C6.50054 8.57611 6.60971 9.14399 6.80771 9.66784C7.33306 9.86545 7.90227 9.9742 8.49658 9.9742H8.50421C9.09853 9.9742 9.66774 9.86545 10.1931 9.66784C10.3911 9.14316 10.5003 8.57611 10.5003 7.98334V7.97587C10.5003 7.38309 10.3911 6.81523 10.1931 6.29136C9.66774 6.09377 9.09853 5.98502 8.50421 5.98502Z" fill="#FF4A00" style="fill:#FF4A00;fill:color(display-p3 1.0000 0.2902 0.0000);fill-opacity:1;"/>
</g>
<defs>
<clipPath id="clip0_1847_31781">
<rect width="16" height="16" fill="white" style="fill:white;fill-opacity:1;" transform="translate(0.5)"/>
</clipPath>
</defs>
</svg>
