<svg width="16" height="16" viewBox="0 0 16 16" fill="none" xmlns="http://www.w3.org/2000/svg">
<g clip-path="url(#clip0_1847_31789)">
<path fill-rule="evenodd" clip-rule="evenodd" d="M11.3968 11.5298C10.2349 11.5298 9.29301 10.5711 9.29301 9.38857C9.29301 8.20588 10.2349 7.24716 11.3968 7.24716C12.5587 7.24716 13.5006 8.20588 13.5006 9.38857C13.5006 10.5711 12.5587 11.5298 11.3968 11.5298ZM12.0266 5.26601V3.36109C12.5151 3.12624 12.8573 2.62324 12.8573 2.0395V1.99553C12.8573 1.18988 12.2097 0.530732 11.4182 0.530732H11.3752C10.5837 0.530732 9.93614 1.18988 9.93614 1.99553V2.0395C9.93614 2.62324 10.2783 3.12644 10.7668 3.3613V5.26601C10.0395 5.38046 9.37497 5.68578 8.82692 6.13515L3.68858 2.06662C3.72249 1.9341 3.74631 1.79766 3.74651 1.65425C3.74732 0.741956 3.02184 0.00123389 2.12517 1.07035e-06C1.22892 -0.00102628 0.50101 0.737641 0.500001 1.65014C0.498992 2.56263 1.22448 3.30335 2.12114 3.30438C2.41323 3.30479 2.68372 3.22034 2.9207 3.08309L7.97507 7.08545C7.54531 7.74583 7.29339 8.5369 7.29339 9.38857C7.29339 10.2801 7.57014 11.1049 8.03765 11.7831L6.50069 13.3478C6.37917 13.3106 6.25321 13.2847 6.11958 13.2847C5.38299 13.2847 4.78569 13.8925 4.78569 14.6423C4.78569 15.3922 5.38299 16 6.11958 16C6.85636 16 7.45347 15.3922 7.45347 14.6423C7.45347 14.5066 7.42803 14.3782 7.39149 14.2545L8.9119 12.7069C9.60206 13.243 10.4616 13.5652 11.3968 13.5652C13.6631 13.5652 15.5 11.6952 15.5 9.38857C15.5 7.30037 13.9929 5.57524 12.0266 5.26601Z" fill="#FF7A59" style="fill:#FF7A59;fill:color(display-p3 1.0000 0.4784 0.3490);fill-opacity:1;"/>
</g>
<defs>
<clipPath id="clip0_1847_31789">
<rect width="15" height="16" fill="white" style="fill:white;fill-opacity:1;" transform="translate(0.5)"/>
</clipPath>
</defs>
</svg>
