<svg width="22" height="16" viewBox="0 0 22 16" fill="none" xmlns="http://www.w3.org/2000/svg">
<g clip-path="url(#clip0_1847_31800)">
<mask id="mask0_1847_31800" style="mask-type:luminance" maskUnits="userSpaceOnUse" x="0" y="0" width="22" height="16">
<path d="M21.5 0H0.5V16H21.5V0Z" fill="white" style="fill:white;fill-opacity:1;"/>
</mask>
<g mask="url(#mask0_1847_31800)">
<path d="M18.2774 1.42479C16.9389 0.820742 15.5036 0.375709 14.0029 0.12082C13.9756 0.115901 13.9483 0.128194 13.9342 0.152782C13.7496 0.475694 13.5451 0.89696 13.402 1.22807C11.7879 0.9904 10.182 0.9904 8.60103 1.22807C8.45782 0.8896 8.24592 0.475694 8.0605 0.152782C8.04642 0.129015 8.01912 0.116721 7.99179 0.12082C6.49192 0.374894 5.05662 0.819927 3.71732 1.42479C3.70572 1.4297 3.69579 1.43791 3.68919 1.44855C0.966718 5.44896 0.220919 9.35104 0.586783 13.2047C0.588438 13.2236 0.599199 13.2416 0.614098 13.2531C2.41031 14.5505 4.15024 15.3381 5.85787 15.8602C5.8852 15.8684 5.91416 15.8586 5.93155 15.8364C6.33549 15.2939 6.69556 14.7218 7.00429 14.1202C7.02251 14.085 7.00512 14.0432 6.96788 14.0292C6.39674 13.8161 5.8529 13.5563 5.32976 13.2613C5.28838 13.2375 5.28507 13.1793 5.32314 13.1514C5.43323 13.0703 5.54334 12.9859 5.64846 12.9007C5.66748 12.8851 5.69398 12.8818 5.71634 12.8916C9.15312 14.4349 12.8739 14.4349 16.2701 12.8916C16.2924 12.881 16.3189 12.8843 16.3388 12.8998C16.4439 12.9851 16.554 13.0703 16.6649 13.1514C16.703 13.1793 16.7005 13.2375 16.6591 13.2613C16.136 13.5621 15.5922 13.8161 15.0202 14.0284C14.983 14.0424 14.9664 14.085 14.9846 14.1202C15.3 14.721 15.66 15.293 16.0565 15.8356C16.0731 15.8586 16.1029 15.8684 16.1302 15.8602C17.8461 15.3381 19.586 14.5505 21.3823 13.2531C21.398 13.2416 21.4079 13.2244 21.4096 13.2056C21.8474 8.75025 20.6762 4.88017 18.3047 1.44937C18.2989 1.43791 18.289 1.4297 18.2774 1.42479ZM7.51752 10.8582C6.48281 10.8582 5.63024 9.92393 5.63024 8.77649C5.63024 7.62906 6.46628 6.69475 7.51752 6.69475C8.57701 6.69475 9.42133 7.63726 9.40477 8.77649C9.40477 9.92393 8.56873 10.8582 7.51752 10.8582ZM14.4954 10.8582C13.4607 10.8582 12.6082 9.92393 12.6082 8.77649C12.6082 7.62906 13.4442 6.69475 14.4954 6.69475C15.5549 6.69475 16.3992 7.63726 16.3827 8.77649C16.3827 9.92393 15.5549 10.8582 14.4954 10.8582Z" fill="#5865F2" style="fill:#5865F2;fill:color(display-p3 0.3451 0.3961 0.9490);fill-opacity:1;"/>
</g>
</g>
<defs>
<clipPath id="clip0_1847_31800">
<rect width="21" height="16" fill="white" style="fill:white;fill-opacity:1;" transform="translate(0.5)"/>
</clipPath>
</defs>
</svg>
