<svg width="17" height="16" viewBox="0 0 17 16" fill="none" xmlns="http://www.w3.org/2000/svg">
<path d="M3.86156 10.1108C3.86156 11.0359 3.10586 11.7916 2.18078 11.7916C1.2557 11.7916 0.5 11.0359 0.5 10.1108C0.5 9.18569 1.2557 8.42999 2.18078 8.42999H3.86156V10.1108Z" fill="#E01E5A" style="fill:#E01E5A;fill:color(display-p3 0.8784 0.1176 0.3529);fill-opacity:1;"/>
<path d="M4.7085 10.1108C4.7085 9.18569 5.4642 8.42999 6.38928 8.42999C7.31436 8.42999 8.07006 9.18569 8.07006 10.1108V14.3192C8.07006 15.2443 7.31436 16 6.38928 16C5.4642 16 4.7085 15.2443 4.7085 14.3192V10.1108Z" fill="#E01E5A" style="fill:#E01E5A;fill:color(display-p3 0.8784 0.1176 0.3529);fill-opacity:1;"/>
<path d="M6.38928 3.36156C5.4642 3.36156 4.7085 2.60586 4.7085 1.68078C4.7085 0.755701 5.4642 0 6.38928 0C7.31436 0 8.07006 0.755701 8.07006 1.68078V3.36156H6.38928Z" fill="#36C5F0" style="fill:#36C5F0;fill:color(display-p3 0.2118 0.7725 0.9412);fill-opacity:1;"/>
<path d="M6.38925 4.2085C7.31433 4.2085 8.07003 4.9642 8.07003 5.88928C8.07003 6.81436 7.31433 7.57006 6.38925 7.57006H2.18078C1.2557 7.57006 0.5 6.81436 0.5 5.88928C0.5 4.9642 1.2557 4.2085 2.18078 4.2085H6.38925Z" fill="#36C5F0" style="fill:#36C5F0;fill:color(display-p3 0.2118 0.7725 0.9412);fill-opacity:1;"/>
<path d="M13.1384 5.88928C13.1384 4.9642 13.8941 4.2085 14.8192 4.2085C15.7443 4.2085 16.5 4.9642 16.5 5.88928C16.5 6.81436 15.7443 7.57006 14.8192 7.57006H13.1384V5.88928Z" fill="#2EB67D" style="fill:#2EB67D;fill:color(display-p3 0.1804 0.7137 0.4902);fill-opacity:1;"/>
<path d="M12.2915 5.88925C12.2915 6.81433 11.5358 7.57003 10.6107 7.57003C9.68563 7.57003 8.92993 6.81433 8.92993 5.88925V1.68078C8.92993 0.755701 9.68563 0 10.6107 0C11.5358 0 12.2915 0.755701 12.2915 1.68078V5.88925Z" fill="#2EB67D" style="fill:#2EB67D;fill:color(display-p3 0.1804 0.7137 0.4902);fill-opacity:1;"/>
<path d="M10.6107 12.6384C11.5358 12.6384 12.2915 13.3941 12.2915 14.3192C12.2915 15.2443 11.5358 16 10.6107 16C9.68563 16 8.92993 15.2443 8.92993 14.3192V12.6384H10.6107Z" fill="#ECB22E" style="fill:#ECB22E;fill:color(display-p3 0.9255 0.6980 0.1804);fill-opacity:1;"/>
<path d="M10.6107 11.7916C9.68563 11.7916 8.92993 11.0359 8.92993 10.1108C8.92993 9.18569 9.68563 8.42999 10.6107 8.42999H14.8192C15.7443 8.42999 16.5 9.18569 16.5 10.1108C16.5 11.0359 15.7443 11.7916 14.8192 11.7916H10.6107Z" fill="#ECB22E" style="fill:#ECB22E;fill:color(display-p3 0.9255 0.6980 0.1804);fill-opacity:1;"/>
</svg>
