<svg width="17" height="16" viewBox="0 0 17 16" fill="none" xmlns="http://www.w3.org/2000/svg">
<g clip-path="url(#clip0_1847_31772)">
<path d="M8.50623 16.0125C12.928 16.0125 16.5125 12.428 16.5125 8.00623C16.5125 3.58451 12.928 0 8.50623 0C4.08451 0 0.5 3.58451 0.5 8.00623C0.5 12.428 4.08451 16.0125 8.50623 16.0125Z" fill="url(#paint0_linear_1847_31772)" style=""/>
<path fill-rule="evenodd" clip-rule="evenodd" d="M4.11653 7.91894C6.44857 6.89634 8.00741 6.23539 8.79307 5.91115C11.0129 4.98831 11.4743 4.82619 11.7736 4.81372C11.8359 4.81372 11.9856 4.82619 12.0854 4.90102C12.1602 4.96337 12.1851 5.05067 12.1976 5.11302C12.2101 5.17537 12.2225 5.31255 12.2101 5.42479C12.0854 6.68434 11.5741 9.76462 11.2997 11.1738C11.1875 11.7724 10.963 11.9719 10.751 11.9969C10.2896 12.0343 9.92791 11.6851 9.47896 11.3983C8.7806 10.9369 8.38154 10.65 7.69564 10.2011C6.90999 9.67732 7.42129 9.39049 7.87023 8.92908C7.98247 8.80437 10.0401 6.94622 10.0776 6.77163C10.0776 6.74669 10.09 6.67187 10.0401 6.63445C9.99027 6.59704 9.92791 6.60951 9.87803 6.62198C9.8032 6.63445 8.68083 7.3827 6.49845 8.85425C6.17421 9.07872 5.88738 9.17849 5.6255 9.17849C5.33867 9.17849 4.78995 9.01637 4.37842 8.87919C3.87959 8.71707 3.48052 8.62978 3.51794 8.35542C3.54288 8.21824 3.74241 8.06859 4.11653 7.91894Z" fill="white" style="fill:white;fill-opacity:1;"/>
</g>
<defs>
<linearGradient id="paint0_linear_1847_31772" x1="0.5" y1="8.00043" x2="16.5009" y2="8.00043" gradientUnits="userSpaceOnUse">
<stop stop-color="#2AABEE" style="stop-color:#2AABEE;stop-color:color(display-p3 0.1647 0.6706 0.9333);stop-opacity:1;"/>
<stop offset="1" stop-color="#229ED9" style="stop-color:#229ED9;stop-color:color(display-p3 0.1333 0.6196 0.8510);stop-opacity:1;"/>
</linearGradient>
<clipPath id="clip0_1847_31772">
<rect width="16" height="16" fill="white" style="fill:white;fill-opacity:1;" transform="translate(0.5)"/>
</clipPath>
</defs>
</svg>
