<svg width="16" height="16" viewBox="0 0 16 16" fill="none" xmlns="http://www.w3.org/2000/svg">
<path d="M3.49967 3.99967V4.49967H3.99967H4.66634C4.71054 4.49967 4.75294 4.51723 4.78419 4.54849C4.81545 4.57975 4.83301 4.62214 4.83301 4.66634C4.83301 4.71054 4.81545 4.75294 4.78419 4.78419C4.75294 4.81545 4.71054 4.83301 4.66634 4.83301H1.99967C1.95547 4.83301 1.91308 4.81545 1.88182 4.78419C1.85057 4.75294 1.83301 4.71054 1.83301 4.66634C1.83301 4.62214 1.85057 4.57975 1.88182 4.54849C1.91308 4.51723 1.95547 4.49967 1.99967 4.49967H2.66634H3.16634V3.99967V1.99967C3.16634 1.95547 3.1839 1.91308 3.21516 1.88182C3.24641 1.85057 3.28881 1.83301 3.33301 1.83301C3.37721 1.83301 3.4196 1.85057 3.45086 1.88182C3.48212 1.91308 3.49967 1.95547 3.49967 1.99967V3.99967ZM12.833 6.66634V7.16634H13.333H13.9997C14.0439 7.16634 14.0863 7.1839 14.1175 7.21516C14.1488 7.24641 14.1663 7.2888 14.1663 7.33301C14.1663 7.37721 14.1488 7.4196 14.1175 7.45086C14.0863 7.48211 14.0439 7.49967 13.9997 7.49967H11.333C11.2888 7.49967 11.2464 7.48212 11.2152 7.45086C11.1839 7.4196 11.1663 7.37721 11.1663 7.33301C11.1663 7.2888 11.1839 7.24641 11.2152 7.21516C11.2464 7.1839 11.2888 7.16634 11.333 7.16634H11.9997H12.4997V6.66634V1.99967C12.4997 1.95547 12.5172 1.91308 12.5485 1.88182C12.5797 1.85057 12.6221 1.83301 12.6663 1.83301C12.7105 1.83301 12.7529 1.85057 12.7842 1.88182C12.8154 1.91308 12.833 1.95547 12.833 1.99967V6.66634ZM12.5485 9.88183L12.1949 9.52827L12.5485 9.88182C12.5797 9.85057 12.6221 9.83301 12.6663 9.83301C12.7105 9.83301 12.7529 9.85057 12.7842 9.88182C12.8154 9.91308 12.833 9.95547 12.833 9.99967V13.9997C12.833 14.0439 12.8154 14.0863 12.7842 14.1175C12.7529 14.1488 12.7105 14.1663 12.6663 14.1663C12.6221 14.1663 12.5797 14.1488 12.5485 14.1175L12.1949 14.4711L12.5485 14.1175C12.5172 14.0863 12.4997 14.0439 12.4997 13.9997V9.99967C12.4997 9.95547 12.5172 9.91308 12.5485 9.88183ZM8.16634 9.33301V9.83301H8.66634H9.33301C9.37721 9.83301 9.4196 9.85057 9.45086 9.88182C9.48212 9.91308 9.49967 9.95547 9.49967 9.99967C9.49967 10.0439 9.48212 10.0863 9.45086 10.1175C9.4196 10.1488 9.37721 10.1663 9.33301 10.1663H6.66634C6.62214 10.1663 6.57975 10.1488 6.54849 10.1175C6.51723 10.0863 6.49967 10.0439 6.49967 9.99967C6.49967 9.95547 6.51723 9.91308 6.54849 9.88182C6.57975 9.85057 6.62214 9.83301 6.66634 9.83301H7.33301H7.83301V9.33301V1.99967C7.83301 1.95547 7.85057 1.91308 7.88182 1.88182C7.91308 1.85057 7.95547 1.83301 7.99967 1.83301C8.04388 1.83301 8.08627 1.85057 8.11753 1.88182C8.14878 1.91308 8.16634 1.95547 8.16634 1.99967V9.33301ZM3.21516 7.21516C3.24641 7.1839 3.28881 7.16634 3.33301 7.16634C3.37721 7.16634 3.4196 7.1839 3.45086 7.21516C3.48212 7.24641 3.49967 7.28881 3.49967 7.33301V13.9997C3.49967 14.0439 3.48211 14.0863 3.45086 14.1175C3.4196 14.1488 3.37721 14.1663 3.33301 14.1663C3.2888 14.1663 3.24641 14.1488 3.21516 14.1175C3.1839 14.0863 3.16634 14.0439 3.16634 13.9997V7.33301C3.16634 7.28881 3.1839 7.24641 3.21516 7.21516ZM7.88182 12.5485C7.91308 12.5172 7.95547 12.4997 7.99967 12.4997C8.04388 12.4997 8.08627 12.5172 8.11752 12.5485L8.47108 12.1949L8.11753 12.5485C8.14878 12.5797 8.16634 12.6221 8.16634 12.6663V13.9997C8.16634 14.0439 8.14878 14.0863 8.11753 14.1175L8.47108 14.4711L8.11752 14.1175C8.08627 14.1488 8.04388 14.1663 7.99967 14.1663C7.95547 14.1663 7.91308 14.1488 7.88182 14.1175C7.85057 14.0863 7.83301 14.0439 7.83301 13.9997V12.6663C7.83301 12.6221 7.85057 12.5797 7.88182 12.5485Z" fill="#737A91" stroke="#737A91"/>
</svg>
