<svg width="14" height="14" viewBox="0 0 14 14" fill="none" xmlns="http://www.w3.org/2000/svg">
<path opacity="0.2" d="M7.00016 13.6666C10.6821 13.6666 13.6668 10.6818 13.6668 6.99992C13.6668 3.31802 10.6821 0.333252 7.00016 0.333252C3.31826 0.333252 0.333496 3.31802 0.333496 6.99992C0.333496 10.6818 3.31826 13.6666 7.00016 13.6666Z" fill="#FF3D3D"/>
<path d="M7.66683 6.33317C7.66683 5.96498 7.36835 5.6665 7.00016 5.6665C6.63197 5.6665 6.3335 5.96498 6.3335 6.33317V9.6665C6.3335 10.0347 6.63197 10.3332 7.00016 10.3332C7.36835 10.3332 7.66683 10.0347 7.66683 9.6665V6.33317Z" fill="#FF3D3D"/>
<path d="M7.66683 4.33317C7.66683 3.96498 7.36835 3.6665 7.00016 3.6665C6.63197 3.6665 6.3335 3.96498 6.3335 4.33317C6.3335 4.70136 6.63197 4.99984 7.00016 4.99984C7.36835 4.99984 7.66683 4.70136 7.66683 4.33317Z" fill="#FF3D3D"/>
</svg>
