<svg width="29" height="30" viewBox="0 0 29 30" fill="none" xmlns="http://www.w3.org/2000/svg">
<path d="M0.00124353 14.9966C-0.030041 17.4167 0.529507 19.7974 1.6181 21.9364C2.17192 23.0248 3.48175 23.5297 4.50764 22.8676C6.78316 21.399 8.33987 18.4252 8.33987 14.9966C8.33987 11.5697 6.78877 8.60328 4.52165 7.13325C3.49743 6.46911 2.18656 6.97018 1.63014 8.05682C0.535685 10.1943 -0.0281606 12.5753 0.00124353 14.9966Z" fill="#2780F1" style="fill:#2780F1;fill:color(display-p3 0.1539 0.5021 0.9459);fill-opacity:1;"/>
<g style="mix-blend-mode:overlay" opacity="0.1">
<path d="M3.90328 9.43717C2.89198 8.28989 1.16847 8.89661 0.713612 10.3569C0.24722 11.8541 0.00769043 13.4182 0.00769043 14.9968C0.00769043 16.5762 0.247487 18.1411 0.71439 19.6391C1.16917 21.0983 2.89138 21.7059 3.9028 20.5603C5.11466 19.1875 5.87706 17.2067 5.87706 14.9968C5.87706 12.7889 5.1132 10.8097 3.90328 9.43717Z" fill="#2780F1" style="fill:#2780F1;fill:color(display-p3 0.1539 0.5021 0.9459);fill-opacity:1;"/>
</g>
<g style="mix-blend-mode:multiply" opacity="0.2">
<path d="M8.15176 12.9596C7.89688 11.6048 7.00611 12.4514 7.14148 13.8233C7.1794 14.2077 7.19895 14.5993 7.19895 14.9968C7.19895 15.3798 7.18085 15.7575 7.14569 16.1284C7.0155 17.5016 7.90984 18.3481 8.15956 16.9916C8.27756 16.3506 8.33992 15.6829 8.33992 14.9968C8.33992 14.2957 8.27481 13.6136 8.15176 12.9596Z" fill="#2780F1" style="fill:#2780F1;fill:color(display-p3 0.1539 0.5021 0.9459);fill-opacity:1;"/>
</g>
<path d="M25.0335 17.8908L24.7474 17.825C23.952 17.6535 23.1233 17.7249 22.3688 18.0298C21.6143 18.3347 20.9688 18.8591 20.5157 19.5352C19.3254 21.3044 17.5301 22.1102 15.4388 22.1102C14.6043 22.1172 13.7747 21.9816 12.9859 21.709C12.0568 21.3704 11.0352 21.3885 10.1188 21.7596C9.20225 22.1308 8.45591 22.8287 8.02412 23.7185C7.7755 24.2302 7.63971 24.7895 7.62592 25.3583C7.61214 25.9272 7.72069 26.4924 7.94423 27.0156C8.16777 27.5388 8.50107 28.008 8.9216 28.3912C9.34213 28.7745 9.84005 29.0629 10.3816 29.2369C12.0187 29.7476 13.7241 30.0049 15.4388 29.9999C20.371 29.9999 24.754 27.882 27.4404 24.317C27.8508 23.7702 28.1169 23.1287 28.2141 22.4519C28.3114 21.7752 28.2366 21.0848 27.9968 20.4445C27.757 19.8042 27.3598 19.2346 26.8419 18.7883C26.324 18.342 25.7021 18.0333 25.0335 17.8908Z" fill="#2780F1" style="fill:#2780F1;fill:color(display-p3 0.1539 0.5021 0.9459);fill-opacity:1;"/>
<path d="M8.02431 6.29465C8.45865 7.18603 9.20814 7.88459 10.1277 8.25517C11.0473 8.6257 12.0716 8.64199 13.0025 8.30079C13.7855 8.02724 14.6096 7.89041 15.439 7.89626C17.4612 7.89626 19.2071 8.67902 20.335 10.3431C20.798 11.0501 21.4658 11.5986 22.2492 11.9155C23.0324 12.2323 23.8938 12.3021 24.718 12.1157L25.0468 12.0336C25.7076 11.8759 26.3184 11.5553 26.8236 11.101C27.3288 10.6468 27.7124 10.0732 27.9392 9.43274C28.166 8.79226 28.229 8.10523 28.1224 7.43417C28.0158 6.76313 27.743 6.12944 27.3288 5.59087C24.5996 2.0752 20.233 0 15.4291 0C13.7152 0.00304097 12.0118 0.269244 10.3786 0.789299C9.838 0.964263 9.34119 1.25311 8.92165 1.63636C8.50211 2.0196 8.16958 2.48834 7.94648 3.011C7.72338 3.53365 7.61488 4.09806 7.62831 4.66619C7.64173 5.23433 7.77676 5.79299 8.02431 6.30451V6.29465Z" fill="#2780F1" style="fill:#2780F1;fill:color(display-p3 0.1539 0.5021 0.9459);fill-opacity:1;"/>
<g style="mix-blend-mode:multiply" opacity="0.5">
<g style="mix-blend-mode:multiply" opacity="0.5">
<path d="M24.971 17.8909L24.7474 17.8416C23.9536 17.6684 23.1262 17.7372 22.3718 18.0392C21.6175 18.3411 20.971 18.8622 20.5157 19.5353C19.3254 21.3046 17.5301 22.1103 15.4389 22.1103C14.6043 22.1173 13.7748 21.9817 12.9859 21.7092C12.2835 21.4564 11.5246 21.4041 10.7941 21.558C10.0636 21.7119 9.39032 22.066 8.84949 22.5807C10.1107 23.6735 11.6256 24.433 13.2557 24.7896C14.886 25.1463 16.5795 25.0889 18.1817 24.6225C19.7839 24.156 21.2439 23.2957 22.4282 22.1198C23.6123 20.9439 24.4833 19.49 24.9612 17.8909H24.971Z" fill="#2780F1" style="fill:#2780F1;fill:color(display-p3 0.1539 0.5021 0.9459);fill-opacity:1;"/>
</g>
<g style="mix-blend-mode:multiply" opacity="0.5">
<path d="M8.87244 7.45243C9.41584 7.96068 10.0891 8.30888 10.8179 8.45864C11.5466 8.60832 12.3025 8.55382 13.0023 8.30092C13.7853 8.02738 14.6095 7.89055 15.4388 7.8964C17.461 7.8964 19.2069 8.67911 20.3347 10.3432C20.7977 11.0502 21.4656 11.5988 22.2489 11.9156C23.0323 12.2324 23.8937 12.3023 24.7178 12.1159L24.9414 12.0633C24.4502 10.4787 23.5722 9.04136 22.3868 7.88102C21.2013 6.72069 19.7457 5.87387 18.1511 5.41699C16.5566 4.96011 14.8734 4.90755 13.2535 5.26405C11.6336 5.62056 10.128 6.3749 8.87244 7.45901V7.45243Z" fill="#2780F1" style="fill:#2780F1;fill:color(display-p3 0.1539 0.5021 0.9459);fill-opacity:1;"/>
</g>
</g>
<g style="mix-blend-mode:overlay" opacity="0.3">
<g style="mix-blend-mode:overlay" opacity="0.3">
<path d="M15.4028 28.8882C12.708 28.8915 10.0712 28.106 7.81714 26.6288C8.00336 27.237 8.33476 27.7908 8.78273 28.2423C9.23071 28.6937 9.78179 29.0294 10.3884 29.2203C12.0254 29.731 13.7309 29.9883 15.4455 29.9833C20.3777 29.9833 24.7607 27.8653 27.4471 24.3004C27.8322 23.7909 28.0892 23.1964 28.1968 22.5668C28.3044 21.9373 28.2593 21.2912 28.0652 20.6827C26.972 23.1272 25.1945 25.2028 22.9475 26.6588C20.7005 28.1149 18.0802 28.8892 15.4028 28.8882Z" fill="#2780F1" style="fill:#2780F1;fill:color(display-p3 0.1539 0.5021 0.9459);fill-opacity:1;"/>
</g>
<g style="mix-blend-mode:overlay" opacity="0.3">
<path d="M15.4027 1.14448C18.0591 1.14454 20.6597 1.90762 22.8951 3.34299C25.1305 4.77836 26.9067 6.82563 28.0126 9.2414C28.2065 8.62511 28.2479 7.97092 28.1334 7.33509C28.0188 6.69925 27.7518 6.10072 27.355 5.59087C24.6259 2.0752 20.2592 0 15.4554 0C13.7326 0.000345564 12.0201 0.266568 10.3785 0.789299C9.76594 0.982518 9.21034 1.32362 8.76075 1.78247C8.31117 2.24131 7.98143 2.80381 7.80066 3.4203C10.0568 1.93257 12.7005 1.14115 15.4027 1.14448Z" fill="#2780F1" style="fill:#2780F1;fill:color(display-p3 0.1539 0.5021 0.9459);fill-opacity:1;"/>
</g>
</g>
</svg>
