<svg width="20" height="20" viewBox="0 0 20 20" fill="none" xmlns="http://www.w3.org/2000/svg">
<path d="M4.16667 10.8337C3.70643 10.8337 3.33333 10.4606 3.33333 10.0003C3.33333 9.54009 3.70643 9.16699 4.16667 9.16699C4.6269 9.16699 5 9.54009 5 10.0003C5 10.4606 4.6269 10.8337 4.16667 10.8337Z" stroke="#000624" stroke-width="2" stroke-linecap="round" stroke-linejoin="round"/>
<path d="M9.99967 10.8337C9.53944 10.8337 9.16634 10.4606 9.16634 10.0003C9.16634 9.54009 9.53944 9.16699 9.99967 9.16699C10.4599 9.16699 10.833 9.54009 10.833 10.0003C10.833 10.4606 10.4599 10.8337 9.99967 10.8337Z" stroke="#000624" stroke-width="2" stroke-linecap="round" stroke-linejoin="round"/>
<path d="M15.8337 10.8337C15.3734 10.8337 15.0003 10.4606 15.0003 10.0003C15.0003 9.54009 15.3734 9.16699 15.8337 9.16699C16.2939 9.16699 16.667 9.54009 16.667 10.0003C16.667 10.4606 16.2939 10.8337 15.8337 10.8337Z" stroke="#000624" stroke-width="2" stroke-linecap="round" stroke-linejoin="round"/>
</svg>
