<svg width="115" height="118" viewBox="0 0 115 118" fill="none" xmlns="http://www.w3.org/2000/svg">
<path d="M103.634 67.6904C103.634 79.2046 99.5304 89.6775 92.6709 97.8844C84.0353 108.235 71.0513 114.788 56.4749 114.788C42.511 114.788 30.0169 108.725 21.3813 99.1093C13.9706 90.7799 9.43848 79.7558 9.43848 67.6904C9.43848 41.6612 30.5069 20.5928 56.5361 20.5928C82.5654 20.5928 103.634 41.6612 103.634 67.6904Z" fill="white"/>
<path fill-rule="evenodd" clip-rule="evenodd" d="M54.4152 19.1382C55.1185 19.108 55.8256 19.0928 56.5361 19.0928C57.2467 19.0928 57.9538 19.108 58.6571 19.1382L58.5286 22.1354C57.8681 22.1071 57.2038 22.0928 56.5361 22.0928C55.8684 22.0928 55.2042 22.1071 54.5437 22.1354L54.4152 19.1382ZM62.882 19.5027C64.294 19.6866 65.6871 19.931 67.0586 20.2333L66.4128 23.163C65.1265 22.8794 63.8196 22.6501 62.4946 22.4776L62.882 19.5027ZM46.0137 20.2333C47.3851 19.931 48.7782 19.6866 50.1903 19.5027L50.5777 22.4776C49.2527 22.6501 47.9458 22.8794 46.6594 23.163L46.0137 20.2333ZM37.9306 22.7765C39.2318 22.2375 40.5615 21.7533 41.917 21.3269L42.8173 24.1886C41.5461 24.5885 40.2991 25.0426 39.0787 25.5481L37.9306 22.7765ZM71.1553 21.3269C72.5107 21.7533 73.8405 22.2375 75.1417 22.7765L73.9935 25.5481C72.7732 25.0426 71.5261 24.5885 70.255 24.1886L71.1553 21.3269ZM78.9853 24.5701C80.2424 25.2253 81.4671 25.9339 82.6564 26.6927L81.0428 29.2218C79.9269 28.5098 78.7779 27.8451 77.5987 27.2305L78.9853 24.5701ZM30.4158 26.6927C31.6052 25.9339 32.8299 25.2253 34.087 24.5701L35.4736 27.2305C34.2944 27.8451 33.1454 28.5098 32.0295 29.2218L30.4158 26.6927ZM86.1281 29.1269C87.2502 29.9889 88.3335 30.8988 89.375 31.8535L87.3478 34.0649C86.3703 33.1688 85.3536 32.3149 84.3006 31.5059L86.1281 29.1269ZM23.6973 31.8535C24.7387 30.8988 25.822 29.9889 26.9441 29.1269L28.7717 31.506C27.7187 32.3149 26.702 33.1688 25.7245 34.0649L23.6973 31.8535ZM92.3731 34.8516C93.3278 35.893 94.2377 36.9763 95.0997 38.0984L92.7206 39.926C91.9117 38.873 91.0577 37.8563 90.1617 36.8788L92.3731 34.8516ZM17.9726 38.0984C18.8346 36.9763 19.7445 35.893 20.6992 34.8516L22.9106 36.8788C22.0145 37.8563 21.1606 38.873 20.3517 39.926L17.9726 38.0984ZM97.5339 41.5701C98.2927 42.7595 99.0012 43.9842 99.6565 45.2413L96.9961 46.6279C96.3815 45.4487 95.7168 44.2997 95.0048 43.1838L97.5339 41.5701ZM13.4158 45.2413C14.071 43.9842 14.7796 42.7595 15.5384 41.5702L18.0675 43.1838C17.3555 44.2997 16.6908 45.4487 16.0762 46.6279L13.4158 45.2413ZM101.45 49.0849C101.989 50.3861 102.473 51.7158 102.9 53.0713L100.038 53.9716C99.6381 52.7004 99.184 51.4534 98.6785 50.233L101.45 49.0849ZM10.1726 53.0713C10.599 51.7158 11.0832 50.3861 11.6222 49.0849L14.3938 50.233C13.8883 51.4534 13.4342 52.7004 13.0343 53.9716L10.1726 53.0713ZM8.34842 61.3446C8.53229 59.9325 8.7767 58.5394 9.07899 57.168L12.0087 57.8137C11.7251 59.1001 11.4958 60.407 11.3233 61.732L8.34842 61.3446ZM103.993 57.168C104.296 58.5394 104.54 59.9325 104.724 61.3446L101.749 61.732C101.576 60.407 101.347 59.1001 101.064 57.8137L103.993 57.168ZM7.93848 67.6904C7.93848 66.9799 7.9537 66.2728 7.98386 65.5695L10.9811 65.698C10.9528 66.3585 10.9385 67.0227 10.9385 67.6904C10.9385 68.3877 10.9541 69.0812 10.985 69.7708L7.988 69.905C7.9551 69.1708 7.93848 68.4325 7.93848 67.6904ZM105.088 65.5695C105.119 66.2728 105.134 66.9799 105.134 67.6904C105.134 68.3984 105.119 69.1027 105.089 69.8031L102.092 69.6755C102.12 69.0177 102.134 68.3559 102.134 67.6904C102.134 67.0227 102.119 66.3585 102.091 65.698L105.088 65.5695ZM104.728 74.0144C104.545 75.4232 104.302 76.8125 104.001 78.1799L101.071 77.5356C101.353 76.2535 101.581 74.9505 101.752 73.6287L104.728 74.0144ZM9.18236 78.6762C8.853 77.2461 8.58643 75.7921 8.3858 74.3173L11.3584 73.9129C11.5467 75.2969 11.7968 76.6612 12.1058 78.0029L9.18236 78.6762ZM102.912 82.2663C102.487 83.6178 102.005 84.9435 101.468 86.2411L98.6959 85.0932C99.1997 83.8766 99.652 82.6337 100.05 81.3668L102.912 82.2663ZM11.9482 87.0864C11.3631 85.7366 10.8369 84.3549 10.3731 82.9446L13.2229 82.0073C13.658 83.3304 14.1517 84.6267 14.7007 85.8932L11.9482 87.0864ZM99.6797 90.0731C99.0271 91.3257 98.3211 92.5467 97.5648 93.7336L95.0349 92.1214C95.7447 91.0074 96.407 89.8618 97.0192 88.6868L99.6797 90.0731ZM16.1929 94.8546C15.3718 93.6309 14.6043 92.3673 13.8939 91.0673L16.5265 89.6286C17.1931 90.8486 17.9135 92.0346 18.6841 93.1831L16.1929 94.8546ZM95.1421 97.1964C94.7138 97.7558 94.2736 98.3058 93.8218 98.8464L92.6709 97.8844L93.8227 98.8453C93.8224 98.8457 93.8221 98.846 93.8218 98.8464M20.2607 100.106C19.77 99.5548 19.2915 98.9919 18.8257 98.4179L21.1552 96.5275C21.5917 97.0654 22.04 97.5929 22.4997 98.1097C22.9262 98.5844 23.3623 99.0502 23.8078 99.5068L21.6608 101.602C21.1855 101.115 20.7202 100.618 20.2653 100.112L20.2607 100.106ZM89.4225 103.467C88.3792 104.428 87.2937 105.344 86.169 106.211L84.3371 103.835C85.3924 103.021 86.4109 102.162 87.3899 101.26L89.4225 103.467ZM27.8246 106.948C26.7243 106.144 25.659 105.295 24.6313 104.403L26.5971 102.137C27.562 102.974 28.5621 103.771 29.5949 104.526L27.8246 106.948ZM82.6876 108.66C81.4947 109.423 80.266 110.135 79.0044 110.794L77.6161 108.134C78.7994 107.517 79.9519 106.848 81.071 106.133L82.6876 108.66ZM34.7935 111.196C33.5719 110.585 32.3797 109.925 31.2195 109.218L32.781 106.656C33.8697 107.32 34.9881 107.939 36.1341 108.512L34.7935 111.196ZM75.1472 112.595C73.8417 113.137 72.5071 113.622 71.1464 114.05L70.2466 111.188C71.5227 110.787 72.7743 110.331 73.9987 109.824L75.1472 112.595ZM42.3788 114.213C41.0688 113.817 39.7824 113.366 38.5222 112.865L39.6312 110.078C40.8131 110.548 42.0194 110.97 43.2478 111.342L42.3788 114.213ZM67.0335 115.147C65.6572 115.45 64.2588 115.694 62.8411 115.878L62.4549 112.903C63.7856 112.731 65.0978 112.501 66.3889 112.217L67.0335 115.147ZM50.3635 115.908C49.0023 115.737 47.6589 115.51 46.3356 115.23L46.9582 112.295C48.1993 112.558 49.4595 112.771 50.7367 112.931L50.3635 115.908ZM58.6024 116.243C57.897 116.273 57.1878 116.288 56.4749 116.288C55.7908 116.288 55.11 116.274 54.4328 116.246L54.5566 113.249C55.1925 113.275 55.8321 113.288 56.4749 113.288C57.1451 113.288 57.8117 113.274 58.4744 113.246L58.6024 116.243Z" fill="#D6DCE8"/>
<path d="M73.8776 70.7798C73.5221 72.2908 72.9888 73.8906 72.3667 75.2238C70.678 78.5123 68.0116 81.0897 64.7231 82.7784C61.3457 84.4671 57.3462 85.1781 53.3467 84.2894C43.9255 82.334 37.8818 73.0907 39.8371 63.6695C41.7925 54.2484 50.9469 48.1158 60.3681 50.16C63.7454 50.871 66.6784 52.5597 69.167 54.8706C73.3443 59.0479 75.1219 65.0916 73.8776 70.7798Z" fill="url(#paint0_linear_179_1435)"/>
<path d="M62.4118 65.7136H58.4122V61.7141C58.4122 60.9142 57.7901 60.2031 56.9013 60.2031C56.1014 60.2031 55.3904 60.8253 55.3904 61.7141V65.7136H51.3908C50.5909 65.7136 49.8799 66.3357 49.8799 67.2245C49.8799 68.1133 50.502 68.7355 51.3908 68.7355H55.3904V72.735C55.3904 73.5349 56.0125 74.2459 56.9013 74.2459C57.7012 74.2459 58.4122 73.6238 58.4122 72.735V68.7355H62.4118C63.2117 68.7355 63.9227 68.1133 63.9227 67.2245C63.9227 66.3357 63.2117 65.7136 62.4118 65.7136Z" fill="white"/>
<path d="M77.3516 20.6135C77.3516 26.1681 75.1318 31.1054 71.6787 34.8085C71.4321 35.1788 71.0621 35.4256 70.6921 35.6725C66.9924 39.1287 62.0594 41.2271 56.6332 41.2271C52.3169 41.2271 48.2472 39.8693 44.9174 37.524C43.9308 36.9069 43.0675 36.0428 42.2043 35.3022C38.3812 31.5992 36.0381 26.4149 36.0381 20.6135C36.0381 9.25757 45.2874 0 56.6332 0C68.1023 0 77.3516 9.25757 77.3516 20.6135Z" fill="#E9F0F8"/>
<path d="M77.3516 20.6122C77.3516 26.6604 74.7618 31.9681 70.6921 35.7946C66.9924 39.2507 62.0594 41.3491 56.6332 41.3491C52.3169 41.3491 48.2472 39.9913 44.9174 37.6461C39.4912 33.9431 36.0381 27.7713 36.0381 20.7356C36.0381 9.37964 45.2874 0.12207 56.6332 0.12207C67.979 0.12207 77.3516 9.25621 77.3516 20.6122Z" fill="#F1F3F9"/>
<path d="M71.6795 34.8083C71.4328 35.1786 71.0629 35.4254 70.6929 35.6723C66.9932 39.1285 62.0602 41.2269 56.634 41.2269C52.3176 41.2269 48.248 39.8691 44.9182 37.5238C43.9316 36.9067 43.0683 36.0426 42.2051 35.302C42.6984 34.6848 43.4383 34.3145 45.0415 33.6974L45.6582 33.4505C46.8914 32.9568 48.6179 32.3396 50.8378 31.3521C51.2077 31.2287 51.4544 30.9818 51.701 30.7349C51.8243 30.6115 51.9477 30.4881 51.9477 30.2412C52.071 29.9943 52.1943 29.624 52.1943 29.3772V25.1804C52.071 25.057 52.071 25.057 51.9477 24.9335C51.5777 24.4398 51.331 23.8226 51.331 23.082L51.0844 22.9586C49.9745 23.2055 50.0978 22.0945 49.8512 19.8727C49.7278 19.0087 49.8512 18.7618 50.3445 18.6384L50.7144 18.1446C49.9745 16.4166 49.6045 14.8119 49.6045 13.5776C49.6045 11.4792 50.4678 10.1214 51.701 9.50424C50.9611 8.02303 50.9611 7.5293 50.9611 7.5293C50.9611 7.5293 55.2774 8.2699 56.7573 8.02304C58.6072 7.65273 61.5669 8.14647 62.6768 10.6152C64.5267 11.3558 65.1433 12.4667 65.39 13.701C65.6366 15.676 64.5267 17.7743 64.2801 18.6384V18.7618C64.5267 18.8852 64.65 19.1321 64.5267 19.9962C64.2801 22.0945 64.2801 23.3289 63.2935 23.082L62.3069 24.8101C62.3069 25.057 62.3069 25.057 62.1836 25.1804C62.1836 25.5507 62.1836 26.1679 62.1836 29.5006C62.1836 29.8709 62.3069 30.3646 62.5535 30.6115C62.6768 30.7349 62.6769 30.8584 62.8002 30.8584C63.0468 31.1052 63.2935 31.3521 63.5401 31.3521C66.0066 32.3396 67.7331 33.0802 69.0897 33.5739C70.3229 34.0677 71.1862 34.438 71.6795 34.8083Z" fill="white"/>
<path d="M71.6795 34.8077C71.4328 35.178 71.0629 35.4249 70.6929 35.6717C66.9932 39.1279 62.0602 41.2263 56.634 41.2263C52.3176 41.2263 48.248 39.8685 44.9182 37.5233C43.9316 36.9061 43.0683 36.042 42.2051 35.3014C42.6984 34.6843 43.4383 34.314 45.0415 33.6968L45.6582 33.4499C46.8914 32.9562 48.6179 32.339 50.8378 31.3515C51.2077 31.2281 51.4544 30.9812 51.701 30.7344C52.9343 32.4625 54.9074 33.5734 57.2506 33.5734C59.4704 33.5734 61.4436 32.4625 62.6768 30.8578C62.9235 31.1047 63.1701 31.3515 63.4168 31.3515C65.8833 32.339 67.6098 33.0796 68.9664 33.5734C70.3229 34.0671 71.1862 34.4374 71.6795 34.8077Z" fill="#D6DCE8"/>
<path d="M64.1564 18.515C64.2797 18.0212 64.0331 17.2806 63.7864 16.9103C63.7864 16.7869 63.6631 16.7869 63.6631 16.6634C62.7999 14.9354 60.95 14.3182 59.2235 14.1948C54.6605 13.9479 54.2905 14.8119 52.9339 13.5776C53.4272 14.1948 53.4272 15.3057 52.6873 16.54C52.194 17.404 51.3307 17.8978 50.4675 18.1446C48.371 13.4541 49.4809 10.4917 51.454 9.50424C50.7141 8.02303 50.7141 7.5293 50.7141 7.5293C50.7141 7.5293 55.0304 8.2699 56.5103 8.02304C58.3602 7.65273 61.32 8.14647 62.4299 10.6152C64.2797 11.3558 64.8964 12.4667 65.143 13.701C65.513 15.5525 64.4031 17.6509 64.1564 18.515Z" fill="#AAB2C5"/>
<path d="M52.3179 29.377V25.1803C52.1946 25.0568 52.1946 25.0568 52.0713 24.9334V24.6865C52.3179 25.0568 52.5646 25.4271 52.9346 25.674L56.2643 28.0192C57.0042 28.6364 58.1142 28.6364 58.8541 28.0192L61.9372 25.3037C62.0605 25.1803 62.1839 25.1803 62.3072 25.0568C62.3072 25.4271 62.3072 26.0443 62.3072 29.377C62.3072 29.6239 62.3072 29.7473 62.4305 29.9942H52.3179C52.1946 29.7473 52.3179 29.6239 52.3179 29.377Z" fill="url(#paint1_linear_179_1435)"/>
<path d="M114.284 96.8157C114.284 102.37 112.064 107.308 108.611 111.011C108.365 111.381 107.995 111.628 107.625 111.875C103.925 115.331 98.9921 117.429 93.5658 117.429C89.2495 117.429 85.1798 116.071 81.85 113.726C80.8634 113.109 80.0002 112.245 79.1369 111.504C75.3139 107.801 72.9707 102.617 72.9707 96.8157C72.9707 85.4597 82.22 76.2021 93.5658 76.2021C105.035 76.2021 114.284 85.4597 114.284 96.8157Z" fill="#E9F0F8"/>
<path d="M114.284 96.8143C114.284 102.863 111.694 108.17 107.625 111.997C103.925 115.453 98.9921 117.551 93.5658 117.551C89.2495 117.551 85.1798 116.193 81.85 113.848C76.4238 110.145 72.9707 103.973 72.9707 96.9377C72.9707 85.5818 82.22 76.3242 93.5658 76.3242C104.912 76.3242 114.284 85.4584 114.284 96.8143Z" fill="#F1F3F9"/>
<path d="M108.612 111.01C108.365 111.381 107.995 111.628 107.626 111.874C103.926 115.331 98.9928 117.429 93.5666 117.429C89.2503 117.429 85.1806 116.071 81.8508 113.726C80.8642 113.109 80.001 112.245 79.1377 111.504C79.631 110.887 80.3709 110.517 81.9741 109.9L82.5908 109.653C83.824 109.159 85.5505 108.542 87.7704 107.554C88.1403 107.431 88.387 107.184 88.6336 106.937C88.757 106.814 88.8803 106.69 88.8803 106.443C89.0036 106.196 89.1269 105.826 89.1269 105.579V101.383C89.0036 101.259 89.0036 101.259 88.8803 101.136C88.5103 100.642 88.2637 100.025 88.2637 99.2842L88.017 99.1607C86.9071 99.4076 87.0304 98.2967 86.7838 96.0749C86.6605 95.2108 86.7838 94.964 87.2771 94.8405L87.647 94.3468C86.9071 92.6187 86.5371 91.0141 86.5371 89.7797C86.5371 87.6813 87.4004 86.3236 88.6336 85.7064C87.8937 84.2252 87.8937 83.7314 87.8937 83.7314C87.8937 83.7314 92.21 84.4721 93.6899 84.2252C95.5398 83.8549 98.4995 84.3486 99.6095 86.8173C101.459 87.5579 102.076 88.6688 102.323 89.9032C102.569 91.8781 101.459 93.9765 101.213 94.8405V94.964C101.459 95.0874 101.583 95.3343 101.459 96.1983C101.213 98.2967 101.213 99.531 100.226 99.2842L99.2395 101.012C99.2395 101.259 99.2395 101.259 99.1162 101.383C99.1162 101.753 99.1162 102.37 99.1162 105.703C99.1162 106.073 99.2395 106.567 99.4861 106.814C99.6095 106.937 99.6095 107.061 99.7328 107.061C99.9794 107.307 100.226 107.554 100.473 107.554C102.939 108.542 104.666 109.282 106.022 109.776C107.256 110.27 108.119 110.64 108.612 111.01Z" fill="white"/>
<path d="M108.611 111.011C108.364 111.381 107.995 111.628 107.625 111.875C103.925 115.331 98.9919 117.429 93.5656 117.429C89.2493 117.429 85.1796 116.072 81.8499 113.726C80.8633 113.109 80 112.245 79.1367 111.505C79.63 110.887 80.37 110.517 81.9732 109.9L82.5898 109.653C83.823 109.159 85.5496 108.542 87.7694 107.555C88.1394 107.431 88.386 107.184 88.6327 106.938C89.8659 108.666 91.8391 109.776 94.1822 109.776C96.4021 109.776 98.3752 108.666 99.6085 107.061C99.8551 107.308 100.102 107.555 100.348 107.555C102.815 108.542 104.541 109.283 105.898 109.776C107.255 110.27 108.118 110.641 108.611 111.011Z" fill="#D6DCE8"/>
<path d="M101.088 94.7171C101.211 94.2234 100.965 93.4828 100.718 93.1124C100.718 92.989 100.595 92.989 100.595 92.8656C99.7315 91.1375 97.8816 90.5203 96.1551 90.3969C91.5921 90.15 91.2221 91.0141 89.8656 89.7797C90.3589 90.3969 90.3589 91.5078 89.6189 92.7421C89.1256 93.6062 88.2624 94.0999 87.3991 94.3468C85.3026 89.6563 86.4125 86.6939 88.3857 85.7064C87.6457 84.2252 87.6457 83.7314 87.6457 83.7314C87.6457 83.7314 91.9621 84.4721 93.442 84.2252C95.2918 83.8549 98.2516 84.3486 99.3615 86.8173C101.211 87.5579 101.828 88.6688 102.075 89.9032C102.445 91.7547 101.335 93.8531 101.088 94.7171Z" fill="#AAB2C5"/>
<path d="M89.2496 105.579V101.382C89.1263 101.259 89.1263 101.259 89.0029 101.136V100.889C89.2496 101.259 89.4962 101.629 89.8662 101.876L93.1959 104.221C93.9359 104.839 95.0458 104.839 95.7857 104.221L98.8688 101.506C98.9922 101.382 99.1155 101.382 99.2388 101.259C99.2388 101.629 99.2388 102.246 99.2388 105.579C99.2388 105.826 99.2388 105.949 99.3621 106.196H89.2496C89.1263 105.949 89.2496 105.826 89.2496 105.579Z" fill="url(#paint2_linear_179_1435)"/>
<path d="M40.2036 97.1246C40.2036 102.926 37.7371 108.11 33.7908 111.813C32.6808 112.801 31.5709 113.665 30.2144 114.405C27.2546 116.133 23.8015 117.121 20.1018 117.121C16.4021 117.121 12.949 116.133 9.98924 114.405C9.49594 114.158 9.12597 113.912 8.63268 113.541C3.45307 109.962 0 103.913 0 97.1246C0 86.0155 9.00265 77.1282 19.9785 77.1282C31.201 77.0048 40.2036 86.0155 40.2036 97.1246Z" fill="#F1F3F9"/>
<path d="M16.0318 101.567C16.2785 101.814 16.5251 102.185 16.8951 102.431C17.1418 102.678 17.3884 102.802 17.635 103.049C17.7584 103.172 18.005 103.295 18.1283 103.419C18.1283 103.419 18.2517 103.419 18.2517 103.542L18.375 103.666V105.394C18.375 105.394 18.375 105.394 18.2517 105.27C18.1283 105.147 17.8817 105.023 17.7584 104.9C17.5117 104.777 17.2651 104.53 17.0184 104.406C16.8951 104.406 16.8951 104.283 16.7718 104.283C15.9085 103.789 15.1686 103.295 15.1686 102.678C15.2919 102.431 15.5385 102.061 16.0318 101.567ZM33.1873 111.115C32.4473 109.51 31.4473 107.986 29.7208 107.122C28.8575 106.752 27.8709 106.381 26.8843 106.381C26.6377 106.381 26.2677 106.381 26.0211 106.381C25.8978 106.381 25.7744 106.381 25.6511 106.381C24.2945 106.258 24.1712 106.011 24.1712 106.011V103.172C25.0345 102.431 25.8978 101.567 26.6377 100.703C27.2543 99.8393 27.7476 98.8518 27.9943 97.6174C29.1042 97.3706 29.8441 96.3831 29.7208 95.1488C29.7208 94.655 29.3508 94.1613 29.3508 93.6675C29.3508 93.4207 29.3508 93.1738 29.3508 92.9269C29.3508 92.8035 29.3508 92.5566 29.3508 92.4332C29.3508 92.3098 29.3508 92.0629 29.3508 91.9395C29.2275 91.0754 28.9808 90.2114 28.4876 89.2239C27.0077 86.5084 24.2945 84.7803 21.0881 84.7803C20.4715 84.7803 19.8549 84.9037 19.2383 85.0271C18.1283 85.274 17.0184 85.7677 16.1552 86.5084C16.0318 86.6318 15.7852 86.7552 15.6619 87.0021L15.5385 87.1255C14.552 88.113 13.6887 89.2239 13.3187 90.5817C12.8254 91.9395 12.8254 93.2972 12.9487 94.655C12.9487 94.655 12.9487 94.655 12.9487 94.7784V94.9019C12.9487 95.1488 13.0721 95.1488 12.9487 95.2722C12.9487 95.3956 12.8254 95.3956 12.8254 95.5191C12.5788 95.8894 12.4554 96.3831 12.7021 97.1237C13.1954 98.358 13.9353 98.2346 14.7986 98.8518C14.7986 98.8518 14.6753 98.8518 14.6753 98.9752L13.812 99.2221C9.86564 100.456 8.50908 103.789 10.2356 105.888C10.8522 106.628 11.8388 107.245 13.3187 107.616C12.9487 107.616 12.5788 107.862 12.3321 108.109C10.6056 109.467 9.49567 111.566 9.24902 113.54C9.24902 113.664 9.24902 113.787 9.24902 113.911C9.74232 114.158 10.1123 114.528 10.6056 114.775L29.917 114.323C31.1502 113.583 31.6958 113.011 32.8058 112.023C32.6824 111.406 33.3106 111.238 33.1873 111.115Z" fill="white"/>
<path d="M33.7909 111.813C32.681 112.8 31.5711 113.664 30.2145 114.405C27.2547 116.133 23.8017 117.12 20.1019 117.12C16.4022 117.12 12.9491 116.133 9.98937 114.405C9.49608 114.158 9.12611 113.911 8.63281 113.541C8.63281 113.417 8.63281 113.294 8.63281 113.171C8.87946 111.196 9.98938 109.097 11.7159 107.739C11.9626 107.493 12.3325 107.369 12.7025 107.246C11.2226 106.999 10.236 106.382 9.6194 105.518H14.3057C15.6623 107.369 17.7588 108.48 20.2253 108.48C22.3218 108.48 24.1716 107.616 25.5282 106.258C25.6515 106.258 25.7748 106.258 25.8982 106.258C26.1448 106.258 26.3915 106.258 26.7614 106.258C27.748 106.258 28.7346 106.505 29.5979 106.999C31.3244 107.863 32.5577 109.344 33.4209 111.072C33.6676 111.319 33.6676 111.566 33.7909 111.813Z" fill="#D6DCE8"/>
<path d="M24.2948 103.172V105.764L16.5254 106.011L16.8954 104.283C17.0187 104.283 17.0187 104.406 17.142 104.406C17.3887 104.53 17.6353 104.777 17.882 104.9C18.0053 105.023 18.1286 105.147 18.3752 105.27C18.3752 105.27 18.4986 105.27 18.4986 105.394V103.666L18.3752 103.542C19.7318 104.283 21.5817 104.777 24.2948 103.172Z" fill="url(#paint3_linear_179_1435)"/>
<path d="M29.351 92.4334C27.8711 92.9271 26.1446 93.174 24.5414 93.0506C21.9516 92.8037 19.4851 91.8162 17.5119 90.0881C16.8953 91.9396 15.2921 93.2974 13.4422 94.1615C13.1956 94.2849 12.949 94.4083 12.7023 94.4083C12.7023 94.4083 12.7023 94.4083 12.7023 94.2849C12.579 92.9271 12.579 91.5694 13.0723 90.2116C13.4422 88.8538 14.3055 87.7429 15.2921 86.7554L15.4154 86.632C15.5388 86.5085 15.7854 86.3851 15.9087 86.1382C16.772 85.3976 17.8819 84.9039 18.9918 84.657C19.6084 84.5336 20.2251 84.4102 20.8417 84.4102C24.0481 84.4102 26.8846 86.1382 28.2411 88.8538C28.7344 89.8413 28.9811 90.8287 29.1044 91.5693C29.351 92.0631 29.351 92.31 29.351 92.4334Z" fill="#AAB2C5"/>
<path d="M19.4858 110.702C18.7458 111.566 17.5126 111.566 16.4027 111.566C17.5126 110.455 16.896 106.876 12.9496 107.246C7.52335 106.258 8.01665 100.58 13.4429 98.8523L14.3062 98.6055L14.4295 98.7289C14.7995 99.8398 15.4161 100.827 16.0327 101.568C13.8129 103.419 16.896 103.913 18.3759 105.394C19.6091 106.135 20.719 109.221 19.4858 110.702Z" fill="#AAB2C5"/>
<defs>
<linearGradient id="paint0_linear_179_1435" x1="39.4538" y1="67.2242" x2="74.2738" y2="67.2242" gradientUnits="userSpaceOnUse">
<stop stop-color="#B0BACC"/>
<stop offset="1" stop-color="#969EAE"/>
</linearGradient>
<linearGradient id="paint1_linear_179_1435" x1="57.2309" y1="29.8289" x2="57.2309" y2="27.0487" gradientUnits="userSpaceOnUse">
<stop stop-color="white"/>
<stop offset="0.9913" stop-color="#D6DEEA"/>
</linearGradient>
<linearGradient id="paint2_linear_179_1435" x1="94.1625" y1="106.031" x2="94.1625" y2="103.251" gradientUnits="userSpaceOnUse">
<stop stop-color="white"/>
<stop offset="0.9913" stop-color="#D6DEEA"/>
</linearGradient>
<linearGradient id="paint3_linear_179_1435" x1="20.3951" y1="105.922" x2="20.3951" y2="104.435" gradientUnits="userSpaceOnUse">
<stop stop-color="white"/>
<stop offset="0.9913" stop-color="#D6DEEA"/>
</linearGradient>
</defs>
</svg>
