<svg width="17" height="17" viewBox="0 0 17 17" fill="none" xmlns="http://www.w3.org/2000/svg">
<path d="M13.773 10.8397H10.753C10.5762 10.8397 10.4066 10.9099 10.2816 11.0349C10.1566 11.16 10.0863 11.3295 10.0863 11.5063C10.0863 11.6832 10.1566 11.8527 10.2816 11.9777C10.4066 12.1028 10.5762 12.173 10.753 12.173H12.353C11.6176 12.9415 10.6693 13.4726 9.62978 13.6979C8.59029 13.9233 7.50715 13.8327 6.51953 13.4378C5.5319 13.0429 4.68492 12.3617 4.0874 11.4818C3.48988 10.6018 3.16913 9.56332 3.16634 8.49967C3.16634 8.32286 3.0961 8.15329 2.97108 8.02827C2.84605 7.90325 2.67649 7.83301 2.49967 7.83301C2.32286 7.83301 2.15329 7.90325 2.02827 8.02827C1.90325 8.15329 1.83301 8.32286 1.83301 8.49967C1.83653 9.80154 2.22116 11.0739 2.93941 12.1597C3.65767 13.2455 4.67812 14.0972 5.87484 14.6098C7.07155 15.1224 8.39216 15.2734 9.67369 15.0441C10.9552 14.8148 12.1416 14.2154 13.0863 13.3197V14.4997C13.0863 14.6765 13.1566 14.8461 13.2816 14.9711C13.4066 15.0961 13.5762 15.1663 13.753 15.1663C13.9298 15.1663 14.0994 15.0961 14.2244 14.9711C14.3494 14.8461 14.4197 14.6765 14.4197 14.4997V11.4997C14.418 11.3274 14.3498 11.1625 14.2292 11.0395C14.1087 10.9164 13.9452 10.8448 13.773 10.8397ZM10.4997 8.49967C10.4997 8.10411 10.3824 7.71743 10.1626 7.38853C9.94285 7.05964 9.63049 6.80329 9.26504 6.65192C8.89959 6.50054 8.49746 6.46093 8.10949 6.5381C7.72153 6.61527 7.36517 6.80576 7.08546 7.08546C6.80576 7.36517 6.61527 7.72153 6.5381 8.10949C6.46093 8.49746 6.50054 8.89959 6.65192 9.26504C6.80329 9.63049 7.05964 9.94285 7.38853 10.1626C7.71743 10.3824 8.10411 10.4997 8.49967 10.4997C9.03011 10.4997 9.53882 10.289 9.91389 9.91389C10.289 9.53882 10.4997 9.03011 10.4997 8.49967ZM7.83301 8.49967C7.83301 8.36782 7.87211 8.23893 7.94536 8.12929C8.01862 8.01966 8.12273 7.93421 8.24455 7.88375C8.36637 7.8333 8.50041 7.82009 8.62973 7.84582C8.75906 7.87154 8.87784 7.93504 8.97108 8.02827C9.06431 8.12151 9.12781 8.24029 9.15353 8.36961C9.17926 8.49894 9.16605 8.63298 9.11559 8.7548C9.06514 8.87661 8.97969 8.98073 8.87006 9.05399C8.76042 9.12724 8.63153 9.16634 8.49967 9.16634C8.32286 9.16634 8.15329 9.0961 8.02827 8.97108C7.90325 8.84606 7.83301 8.67649 7.83301 8.49967ZM8.49967 1.83301C6.7906 1.83788 5.14867 2.49895 3.91301 3.67967V2.49967C3.91301 2.32286 3.84277 2.15329 3.71775 2.02827C3.59272 1.90325 3.42315 1.83301 3.24634 1.83301C3.06953 1.83301 2.89996 1.90325 2.77494 2.02827C2.64991 2.15329 2.57967 2.32286 2.57967 2.49967V5.49967C2.57967 5.67649 2.64991 5.84605 2.77494 5.97108C2.89996 6.0961 3.06953 6.16634 3.24634 6.16634H6.24634C6.42315 6.16634 6.59272 6.0961 6.71775 5.97108C6.84277 5.84605 6.91301 5.67649 6.91301 5.49967C6.91301 5.32286 6.84277 5.15329 6.71775 5.02827C6.59272 4.90325 6.42315 4.83301 6.24634 4.83301H4.64634C5.38132 4.06492 6.32907 3.53401 7.36794 3.30841C8.40681 3.08282 9.4894 3.17284 10.4767 3.56692C11.4641 3.96099 12.3111 4.64115 12.9092 5.52008C13.5072 6.399 13.8289 7.4366 13.833 8.49967C13.833 8.67649 13.9032 8.84606 14.0283 8.97108C14.1533 9.0961 14.3229 9.16634 14.4997 9.16634C14.6765 9.16634 14.8461 9.0961 14.9711 8.97108C15.0961 8.84606 15.1663 8.67649 15.1663 8.49967C15.1663 7.6242 14.9939 6.75729 14.6589 5.94845C14.3238 5.13961 13.8328 4.40469 13.2137 3.78563C12.5947 3.16657 11.8597 2.67551 11.0509 2.34048C10.2421 2.00545 9.37515 1.83301 8.49967 1.83301Z" fill="#F0AD4E"/>
</svg>
