<svg width="32" height="32" viewBox="0 0 32 32" fill="none" xmlns="http://www.w3.org/2000/svg">
<rect width="32" height="32" rx="8" fill="#25C26E"/>
<path d="M18.4933 13.0575L14.5608 16.9992L13.0483 15.4867C12.9662 15.3907 12.865 15.3128 12.7513 15.2578C12.6376 15.2027 12.5137 15.1718 12.3875 15.1669C12.2612 15.1621 12.1353 15.1833 12.0177 15.2294C11.9001 15.2755 11.7932 15.3454 11.7039 15.4347C11.6146 15.5241 11.5447 15.6309 11.4986 15.7485C11.4525 15.8662 11.4312 15.9921 11.4361 16.1183C11.441 16.2446 11.4719 16.3684 11.5269 16.4821C11.5819 16.5959 11.6599 16.697 11.7558 16.7792L13.91 18.9425C13.9957 19.0275 14.0972 19.0947 14.2089 19.1403C14.3206 19.1859 14.4402 19.209 14.5608 19.2083C14.8013 19.2073 15.0318 19.1119 15.2025 18.9425L19.7858 14.3592C19.8717 14.274 19.9399 14.1726 19.9865 14.0609C20.033 13.9492 20.057 13.8294 20.057 13.7083C20.057 13.5873 20.033 13.4675 19.9865 13.3558C19.9399 13.2441 19.8717 13.1427 19.7858 13.0575C19.6141 12.8868 19.3818 12.791 19.1396 12.791C18.8974 12.791 18.6651 12.8868 18.4933 13.0575ZM16 6.83334C14.187 6.83334 12.4147 7.37096 10.9073 8.37821C9.39982 9.38545 8.22491 10.8171 7.5311 12.4921C6.8373 14.1671 6.65577 16.0102 7.00947 17.7883C7.36317 19.5665 8.23621 21.1998 9.51819 22.4818C10.8002 23.7638 12.4335 24.6368 14.2117 24.9905C15.9898 25.3442 17.8329 25.1627 19.5079 24.4689C21.1829 23.7751 22.6146 22.6002 23.6218 21.0927C24.629 19.5853 25.1667 17.813 25.1667 16C25.1667 14.7962 24.9296 13.6042 24.4689 12.4921C24.0082 11.3799 23.333 10.3694 22.4818 9.5182C21.6306 8.66699 20.6201 7.99178 19.5079 7.53111C18.3958 7.07045 17.2038 6.83334 16 6.83334ZM16 23.3333C14.5496 23.3333 13.1318 22.9032 11.9258 22.0975C10.7199 21.2917 9.77993 20.1463 9.22488 18.8064C8.66984 17.4664 8.52462 15.9919 8.80757 14.5693C9.09053 13.1468 9.78896 11.8401 10.8145 10.8146C11.8401 9.78898 13.1468 9.09054 14.5693 8.80758C15.9919 8.52463 17.4664 8.66985 18.8063 9.22489C20.1463 9.77994 21.2916 10.7199 22.0974 11.9258C22.9032 13.1318 23.3333 14.5496 23.3333 16C23.3333 17.9449 22.5607 19.8102 21.1854 21.1855C19.8102 22.5607 17.9449 23.3333 16 23.3333Z" fill="#FCFCFC"/>
</svg>
