<svg width="48" height="48" viewBox="0 0 48 48" fill="none" xmlns="http://www.w3.org/2000/svg">
<rect width="48" height="48" rx="24" fill="#EDF2F7"/>
<path d="M23 14C21.0222 14 19.0888 14.5865 17.4443 15.6853C15.7998 16.7841 14.5181 18.3459 13.7612 20.1732C13.0043 22.0004 12.8063 24.0111 13.1922 25.9509C13.578 27.8907 14.5304 29.6725 15.9289 31.0711C17.3275 32.4696 19.1093 33.422 21.0491 33.8079C22.9889 34.1937 24.9996 33.9957 26.8268 33.2388C28.6541 32.4819 30.2159 31.2002 31.3147 29.5557C32.4135 27.9112 33 25.9778 33 24C33 22.6868 32.7413 21.3864 32.2388 20.1732C31.7363 18.9599 30.9997 17.8575 30.0711 16.9289C29.1425 16.0003 28.0401 15.2638 26.8268 14.7612C25.6136 14.2587 24.3132 14 23 14ZM23 32C21.4178 32 19.871 31.5308 18.5554 30.6518C17.2398 29.7727 16.2145 28.5233 15.609 27.0615C15.0035 25.5997 14.845 23.9911 15.1537 22.4393C15.4624 20.8874 16.2243 19.462 17.3432 18.3431C18.462 17.2243 19.8874 16.4624 21.4393 16.1537C22.9911 15.845 24.5997 16.0035 26.0615 16.609C27.5233 17.2145 28.7727 18.2398 29.6518 19.5554C30.5308 20.871 31 22.4177 31 24C31 26.1217 30.1572 28.1566 28.6569 29.6569C27.1566 31.1571 25.1217 32 23 32ZM23 18C22.7348 18 22.4804 18.1054 22.2929 18.2929C22.1054 18.4804 22 18.7348 22 19V23.93L20.63 26.3C20.4974 26.5307 20.4619 26.8047 20.5313 27.0616C20.6007 27.3186 20.7693 27.5374 21 27.67C21.2307 27.8026 21.5047 27.8381 21.7616 27.7687C22.0186 27.6993 22.2374 27.5307 22.37 27.3L23.87 24.7C23.9662 24.5192 24.0046 24.3133 23.98 24.11L24 24V19C24 18.7348 23.8946 18.4804 23.7071 18.2929C23.5196 18.1054 23.2652 18 23 18Z" fill="#477DB3"/>
</svg>
