<svg width="22" height="22" viewBox="0 0 22 22" fill="none" xmlns="http://www.w3.org/2000/svg">
<path d="M9.16667 16.4997C9.40978 16.4997 9.64294 16.4031 9.81485 16.2312C9.98676 16.0593 10.0833 15.8261 10.0833 15.583V10.083C10.0833 9.83989 9.98676 9.60674 9.81485 9.43483C9.64294 9.26292 9.40978 9.16634 9.16667 9.16634C8.92355 9.16634 8.69039 9.26292 8.51849 9.43483C8.34658 9.60674 8.25 9.83989 8.25 10.083V15.583C8.25 15.8261 8.34658 16.0593 8.51849 16.2312C8.69039 16.4031 8.92355 16.4997 9.16667 16.4997ZM18.3333 5.49967H14.6667V4.58301C14.6667 3.85366 14.3769 3.15419 13.8612 2.63846C13.3455 2.12274 12.646 1.83301 11.9167 1.83301H10.0833C9.35399 1.83301 8.65451 2.12274 8.13879 2.63846C7.62306 3.15419 7.33333 3.85366 7.33333 4.58301V5.49967H3.66667C3.42355 5.49967 3.19039 5.59625 3.01849 5.76816C2.84658 5.94007 2.75 6.17323 2.75 6.41634C2.75 6.65946 2.84658 6.89261 3.01849 7.06452C3.19039 7.23643 3.42355 7.33301 3.66667 7.33301H4.58333V17.4163C4.58333 18.1457 4.87306 18.8452 5.38879 19.3609C5.90451 19.8766 6.60399 20.1663 7.33333 20.1663H14.6667C15.396 20.1663 16.0955 19.8766 16.6112 19.3609C17.1269 18.8452 17.4167 18.1457 17.4167 17.4163V7.33301H18.3333C18.5764 7.33301 18.8096 7.23643 18.9815 7.06452C19.1534 6.89261 19.25 6.65946 19.25 6.41634C19.25 6.17323 19.1534 5.94007 18.9815 5.76816C18.8096 5.59625 18.5764 5.49967 18.3333 5.49967ZM9.16667 4.58301C9.16667 4.33989 9.26324 4.10674 9.43515 3.93483C9.60706 3.76292 9.84022 3.66634 10.0833 3.66634H11.9167C12.1598 3.66634 12.3929 3.76292 12.5648 3.93483C12.7368 4.10674 12.8333 4.33989 12.8333 4.58301V5.49967H9.16667V4.58301ZM15.5833 17.4163C15.5833 17.6595 15.4868 17.8926 15.3148 18.0645C15.1429 18.2364 14.9098 18.333 14.6667 18.333H7.33333C7.09022 18.333 6.85706 18.2364 6.68515 18.0645C6.51324 17.8926 6.41667 17.6595 6.41667 17.4163V7.33301H15.5833V17.4163ZM12.8333 16.4997C13.0764 16.4997 13.3096 16.4031 13.4815 16.2312C13.6534 16.0593 13.75 15.8261 13.75 15.583V10.083C13.75 9.83989 13.6534 9.60674 13.4815 9.43483C13.3096 9.26292 13.0764 9.16634 12.8333 9.16634C12.5902 9.16634 12.3571 9.26292 12.1852 9.43483C12.0132 9.60674 11.9167 9.83989 11.9167 10.083V15.583C11.9167 15.8261 12.0132 16.0593 12.1852 16.2312C12.3571 16.4031 12.5902 16.4997 12.8333 16.4997Z" fill="#FF554A"/>
</svg>
