<svg width="98" height="36" viewBox="0 0 98 36" fill="none" xmlns="http://www.w3.org/2000/svg">
<path d="M0.00120363 18.172C-0.0290791 20.6883 0.512592 23.1634 1.5664 25.3874C2.09497 26.503 3.42531 27.0236 4.43071 26.3074C6.59631 24.7645 8.07224 21.6998 8.07224 18.172C8.07224 14.646 6.6018 11.589 4.44439 10.0447C3.44061 9.32624 2.10886 9.84305 1.57767 10.9574C0.518441 13.1794 -0.0272555 15.6547 0.00120363 18.172Z" fill="#FCFCFC"/>
<g style="mix-blend-mode:overlay" opacity="0.1">
<path d="M3.82669 12.4504C2.86282 11.2494 1.12744 11.8491 0.696759 13.3276C0.241599 14.8902 0.0078125 16.523 0.0078125 18.171C0.0078125 19.8199 0.241868 21.4537 0.697542 23.017C1.12816 24.4944 2.8623 25.095 3.82629 23.8955C4.97114 22.471 5.68883 20.4368 5.68883 18.171C5.68883 15.9072 4.96977 13.8748 3.82669 12.4504Z" fill="white"/>
</g>
<g style="mix-blend-mode:multiply" opacity="0.2">
<path d="M7.72313 15.2609C7.40444 13.9746 6.58883 14.7588 6.80058 16.0669C6.91034 16.745 6.96822 17.4493 6.96822 18.172C6.96822 18.8813 6.91267 19.5727 6.80712 20.2388C6.59961 21.5484 7.41779 22.3323 7.73245 21.0443C7.95317 20.1408 8.07257 19.1753 8.07257 18.172C8.07257 17.1547 7.9498 16.1759 7.72313 15.2609Z" fill="#FCFCFC"/>
</g>
<path d="M24.229 21.1808L23.9521 21.1124C23.1821 20.9342 22.3801 21.0083 21.6498 21.3253C20.9196 21.6423 20.2947 22.1875 19.8561 22.8904C18.704 24.7298 16.9663 25.5675 14.9422 25.5675C14.1344 25.5748 13.3315 25.4337 12.568 25.1504C11.6688 24.7984 10.68 24.8171 9.79287 25.203C8.90577 25.5889 8.18339 26.3145 7.76546 27.2395C7.52481 27.7716 7.39338 28.353 7.38003 28.9444C7.36669 29.5358 7.47176 30.1234 7.68812 30.6674C7.90449 31.2114 8.2271 31.6991 8.63413 32.0975C9.04117 32.496 9.52312 32.7958 10.0474 32.9768C11.6318 33.5077 13.2825 33.7752 14.9422 33.77C19.7161 33.77 23.9584 31.5681 26.5586 27.8618C26.9558 27.2933 27.2134 26.6264 27.3075 25.9228C27.4016 25.2192 27.3293 24.5014 27.0972 23.8357C26.8651 23.17 26.4806 22.5779 25.9794 22.1139C25.4781 21.6499 24.8761 21.329 24.229 21.1808Z" fill="#FCFCFC"/>
<path d="M7.76718 9.12428C8.18759 10.051 8.91302 10.7773 9.80309 11.1625C10.6932 11.5478 11.6846 11.5647 12.5856 11.21C13.3435 10.9256 14.1412 10.7833 14.9439 10.7894C16.9012 10.7894 18.5911 11.6031 19.6828 13.3332C20.1309 14.0682 20.7773 14.6386 21.5355 14.9679C22.2937 15.2973 23.1275 15.3699 23.9252 15.1761L24.2434 15.0907C24.883 14.9267 25.4742 14.5934 25.9632 14.1212C26.4522 13.6489 26.8234 13.0527 27.043 12.3868C27.2625 11.721 27.3235 11.0066 27.2203 10.309C27.1171 9.61133 26.853 8.95252 26.4521 8.39259C23.8106 4.73755 19.5841 2.58008 14.9344 2.58008C13.2754 2.58324 11.6267 2.85999 10.0459 3.40067C9.52267 3.58257 9.04181 3.88287 8.63573 4.2813C8.22965 4.67974 7.90779 5.16707 7.69185 5.71045C7.47591 6.25382 7.37089 6.84061 7.38389 7.43127C7.39688 8.02193 7.52758 8.60273 7.76718 9.13454V9.12428Z" fill="#FCFCFC"/>
<g style="mix-blend-mode:multiply" opacity="0.5">
<g style="mix-blend-mode:multiply" opacity="0.5">
<path d="M24.1706 21.1815L23.9542 21.1302C23.1858 20.9502 22.3849 21.0218 21.6548 21.3357C20.9247 21.6495 20.2989 22.1913 19.8582 22.8911C18.7061 24.7305 16.9684 25.5682 14.9443 25.5682C14.1366 25.5755 13.3336 25.4344 12.5701 25.1511C11.8902 24.8884 11.1556 24.8339 10.4486 24.994C9.74156 25.154 9.08988 25.5221 8.56641 26.0572C9.78716 27.1934 11.2534 27.983 12.8313 28.3538C14.4091 28.7246 16.0483 28.6648 17.5991 28.1799C19.15 27.6951 20.563 26.8006 21.7093 25.578C22.8555 24.3555 23.6985 22.844 24.1611 21.1815H24.1706Z" fill="#FCFCFC"/>
</g>
<g style="mix-blend-mode:multiply" opacity="0.5">
<path d="M8.58594 10.3284C9.11191 10.8568 9.76354 11.2188 10.4689 11.3744C11.1743 11.5301 11.906 11.4734 12.5833 11.2105C13.3411 10.9261 14.1388 10.7838 14.9416 10.7899C16.8988 10.7899 18.5888 11.6037 19.6804 13.3338C20.1285 14.0687 20.775 14.6391 21.5332 14.9685C22.2914 15.2978 23.1251 15.3705 23.9228 15.1767L24.1392 15.122C23.6638 13.4746 22.8141 11.9803 21.6666 10.7739C20.5192 9.5676 19.1102 8.68721 17.5669 8.21222C16.0235 7.73722 14.3944 7.68258 12.8264 8.05322C11.2585 8.42385 9.80117 9.2081 8.58594 10.3352V10.3284Z" fill="#FCFCFC"/>
</g>
</g>
<g style="mix-blend-mode:overlay" opacity="0.3">
<g style="mix-blend-mode:overlay" opacity="0.3">
<path d="M14.9086 32.6128C12.3003 32.6161 9.74807 31.7996 7.56641 30.2638C7.74666 30.8961 8.06742 31.4718 8.50102 31.9412C8.93461 32.4106 9.46801 32.7596 10.0552 32.9581C11.6396 33.489 13.2903 33.7565 14.95 33.7513C19.7239 33.7513 23.9663 31.5494 26.5664 27.8431C26.9391 27.3134 27.188 26.6953 27.2921 26.0409C27.3962 25.3864 27.3525 24.7146 27.1648 24.082C26.1066 26.6234 24.3861 28.7813 22.2113 30.2951C20.0364 31.8088 17.5001 32.6138 14.9086 32.6128Z" fill="white"/>
</g>
<g style="mix-blend-mode:overlay" opacity="0.3">
<path d="M14.9089 3.76993C17.4801 3.76999 19.9971 4.56333 22.1608 6.0556C24.3245 7.54788 26.0437 9.67632 27.1141 12.1878C27.3018 11.5471 27.3419 10.867 27.231 10.206C27.1202 9.54492 26.8616 8.92266 26.4776 8.39259C23.8361 4.73755 19.6096 2.58008 14.9598 2.58008C13.2923 2.58043 11.6349 2.85722 10.0459 3.40067C9.45299 3.60155 8.91521 3.95617 8.48006 4.43321C8.0449 4.91025 7.72575 5.49504 7.55078 6.13597C9.7345 4.58927 12.2933 3.76647 14.9089 3.76993Z" fill="white"/>
</g>
</g>
<path d="M42.2076 11.2731C42.5237 11.4311 42.706 11.6803 42.7546 12.0207C42.8154 12.361 42.7303 12.671 42.4994 12.9505C42.3414 13.1693 42.1347 13.2909 41.8795 13.3152C41.6364 13.3395 41.3872 13.2909 41.1319 13.1693C40.8402 13.0356 40.5303 12.9323 40.2021 12.8594C39.886 12.7864 39.5518 12.75 39.1993 12.75C38.5429 12.75 37.9534 12.8533 37.4307 13.0599C36.9202 13.2666 36.4826 13.5644 36.118 13.9533C35.7533 14.3301 35.4738 14.7799 35.2793 15.3025C35.0969 15.8252 35.0058 16.4026 35.0058 17.0346C35.0058 17.7761 35.1091 18.4203 35.3157 18.9673C35.5345 19.5142 35.8323 19.9701 36.2091 20.3347C36.5859 20.6994 37.0296 20.9729 37.5401 21.1552C38.0506 21.3253 38.6037 21.4104 39.1993 21.4104C39.5275 21.4104 39.8556 21.38 40.1838 21.3193C40.512 21.2585 40.828 21.1491 41.1319 20.9911C41.3872 20.8695 41.6364 20.827 41.8795 20.8635C42.1347 20.8999 42.3474 21.0276 42.5176 21.2463C42.7607 21.5502 42.8458 21.8662 42.7729 22.1944C42.7121 22.5105 42.5298 22.7414 42.2259 22.8873C41.9098 23.0453 41.5817 23.179 41.2413 23.2884C40.9131 23.3856 40.5789 23.4586 40.2385 23.5072C39.8982 23.568 39.5518 23.5983 39.1993 23.5983C38.3241 23.5983 37.4915 23.4586 36.7014 23.179C35.9235 22.8994 35.2246 22.4862 34.6047 21.9392C33.9969 21.3922 33.5168 20.7115 33.1643 19.8971C32.8118 19.0706 32.6356 18.1164 32.6356 17.0346C32.6356 16.0987 32.7936 15.2357 33.1096 14.4456C33.4378 13.6555 33.8936 12.9748 34.477 12.4035C35.0726 11.8201 35.7716 11.3704 36.5738 11.0543C37.376 10.7262 38.2512 10.5621 39.1993 10.5621C39.7341 10.5621 40.2568 10.6228 40.7673 10.7444C41.2778 10.8659 41.7579 11.0422 42.2076 11.2731ZM53.985 18.5479C53.985 19.5446 53.7602 20.4259 53.3104 21.1916C52.8728 21.9453 52.2772 22.5348 51.5236 22.9602C50.7822 23.3856 49.9496 23.5983 49.0258 23.5983C48.102 23.5983 47.2633 23.3856 46.5097 22.9602C45.7682 22.5348 45.1726 21.9453 44.7229 21.1916C44.2853 20.4259 44.0665 19.5446 44.0665 18.5479C44.0665 17.5512 44.2853 16.676 44.7229 15.9224C45.1726 15.1567 45.7682 14.5611 46.5097 14.1356C47.2633 13.6981 48.102 13.4793 49.0258 13.4793C49.9496 13.4793 50.7822 13.6981 51.5236 14.1356C52.2772 14.5611 52.8728 15.1567 53.3104 15.9224C53.7602 16.676 53.985 17.5512 53.985 18.5479ZM51.7971 18.5479C51.7971 17.928 51.6695 17.3932 51.4142 16.9435C51.1711 16.4816 50.8369 16.123 50.4114 15.8677C49.9982 15.6125 49.5363 15.4849 49.0258 15.4849C48.5153 15.4849 48.0473 15.6125 47.6219 15.8677C47.2086 16.123 46.8743 16.4816 46.6191 16.9435C46.376 17.3932 46.2544 17.928 46.2544 18.5479C46.2544 19.1557 46.376 19.6905 46.6191 20.1524C46.8743 20.6021 47.2086 20.9546 47.6219 21.2099C48.0473 21.4651 48.5153 21.5928 49.0258 21.5928C49.5363 21.5928 49.9982 21.4651 50.4114 21.2099C50.8369 20.9546 51.1711 20.6021 51.4142 20.1524C51.6695 19.6905 51.7971 19.1557 51.7971 18.5479ZM61.1144 13.4793C62.0139 13.4793 62.6945 13.6677 63.1564 14.0445C63.6305 14.4213 63.9526 14.9257 64.1228 15.5578C64.3051 16.1777 64.3962 16.8705 64.3962 17.6363V22.3038C64.3962 22.6199 64.2929 22.8873 64.0863 23.1061C63.8797 23.3127 63.6183 23.416 63.3023 23.416C62.9863 23.416 62.7249 23.3127 62.5183 23.1061C62.3117 22.8873 62.2083 22.6199 62.2083 22.3038V17.6363C62.2083 17.2352 62.1536 16.8766 62.0442 16.5606C61.947 16.2324 61.7647 15.9711 61.4973 15.7766C61.2299 15.5821 60.847 15.4849 60.3486 15.4849C59.8624 15.4849 59.4491 15.5821 59.1088 15.7766C58.7806 15.9711 58.5254 16.2324 58.343 16.5606C58.1729 16.8766 58.0878 17.2352 58.0878 17.6363V22.3038C58.0878 22.6199 57.9845 22.8873 57.7778 23.1061C57.5712 23.3127 57.3099 23.416 56.9938 23.416C56.6778 23.416 56.4165 23.3127 56.2098 23.1061C56.0032 22.8873 55.8999 22.6199 55.8999 22.3038V14.7738C55.8999 14.4578 56.0032 14.1964 56.2098 13.9898C56.4165 13.771 56.6778 13.6616 56.9938 13.6616C57.3099 13.6616 57.5712 13.771 57.7778 13.9898C57.9845 14.1964 58.0878 14.4578 58.0878 14.7738V15.5578L57.8143 15.5031C57.9237 15.2964 58.0817 15.0777 58.2883 14.8467C58.495 14.6036 58.7381 14.3787 59.0176 14.1721C59.2972 13.9655 59.6132 13.8014 59.9657 13.6798C60.3182 13.5461 60.7011 13.4793 61.1144 13.4793ZM67.1096 13.6616C67.3406 13.6616 67.5533 13.7224 67.7478 13.8439C67.9422 13.9533 68.0881 14.1235 68.1853 14.3544L70.8655 20.4806L70.4644 20.6629L73.1993 14.3727C73.4059 13.8865 73.728 13.6555 74.1656 13.6798C74.4695 13.6798 74.7126 13.7771 74.8949 13.9715C75.0894 14.1539 75.1866 14.3848 75.1866 14.6644C75.1866 14.7495 75.1684 14.8406 75.1319 14.9379C75.1076 15.0351 75.0772 15.1263 75.0408 15.2114L71.6313 22.7232C71.4368 23.1608 71.1269 23.3917 70.7014 23.416C70.4705 23.4525 70.2456 23.4099 70.0268 23.2884C69.8202 23.1668 69.6622 22.9784 69.5528 22.7232L66.1615 15.2114C66.1372 15.1506 66.1068 15.0716 66.0704 14.9743C66.0461 14.8771 66.0339 14.7616 66.0339 14.6279C66.0339 14.4091 66.1311 14.1964 66.3256 13.9898C66.5201 13.771 66.7814 13.6616 67.1096 13.6616ZM86.2837 18.5479C86.2837 19.5446 86.0588 20.4259 85.6091 21.1916C85.1715 21.9453 84.5759 22.5348 83.8223 22.9602C83.0809 23.3856 82.2482 23.5983 81.3245 23.5983C80.4007 23.5983 79.562 23.3856 78.8084 22.9602C78.0669 22.5348 77.4713 21.9453 77.0216 21.1916C76.584 20.4259 76.3652 19.5446 76.3652 18.5479C76.3652 17.5512 76.584 16.676 77.0216 15.9224C77.4713 15.1567 78.0669 14.5611 78.8084 14.1356C79.562 13.6981 80.4007 13.4793 81.3245 13.4793C82.2482 13.4793 83.0809 13.6981 83.8223 14.1356C84.5759 14.5611 85.1715 15.1567 85.6091 15.9224C86.0588 16.676 86.2837 17.5512 86.2837 18.5479ZM84.0958 18.5479C84.0958 17.928 83.9682 17.3932 83.7129 16.9435C83.4698 16.4816 83.1356 16.123 82.7101 15.8677C82.2969 15.6125 81.835 15.4849 81.3245 15.4849C80.8139 15.4849 80.346 15.6125 79.9206 15.8677C79.5073 16.123 79.173 16.4816 78.9178 16.9435C78.6747 17.3932 78.5531 17.928 78.5531 18.5479C78.5531 19.1557 78.6747 19.6905 78.9178 20.1524C79.173 20.6021 79.5073 20.9546 79.9206 21.2099C80.346 21.4651 80.8139 21.5928 81.3245 21.5928C81.835 21.5928 82.2969 21.4651 82.7101 21.2099C83.1356 20.9546 83.4698 20.6021 83.7129 20.1524C83.9682 19.6905 84.0958 19.1557 84.0958 18.5479ZM95.4369 13.6616C95.7529 13.6616 96.0143 13.771 96.2209 13.9898C96.4275 14.1964 96.5308 14.4578 96.5308 14.7738V22.5226C96.5308 23.6409 96.3181 24.5282 95.8927 25.1846C95.4794 25.8531 94.9203 26.3332 94.2153 26.6249C93.5103 26.9167 92.7202 27.0625 91.8451 27.0625C91.4561 27.0625 91.0428 27.0321 90.6053 26.9714C90.1677 26.9106 89.8091 26.8194 89.5295 26.6979C89.1649 26.5399 88.9096 26.3393 88.7638 26.0962C88.6301 25.8653 88.6058 25.6161 88.6908 25.3487C88.8002 24.9962 88.9765 24.7531 89.2196 24.6194C89.4627 24.4978 89.7179 24.4857 89.9854 24.5829C90.1798 24.6437 90.4351 24.7348 90.7511 24.8564C91.0672 24.9901 91.4318 25.0569 91.8451 25.0569C92.4042 25.0569 92.8661 24.9779 93.2307 24.8199C93.6076 24.6741 93.8871 24.4188 94.0694 24.0542C94.2639 23.7017 94.3612 23.2155 94.3612 22.5956V21.374L94.7441 21.8116C94.5374 22.2127 94.2761 22.5469 93.9601 22.8143C93.6562 23.0696 93.2915 23.2641 92.8661 23.3978C92.4407 23.5315 91.9545 23.5983 91.4075 23.5983C90.7633 23.5983 90.1981 23.4525 89.7119 23.1608C89.2378 22.8569 88.8671 22.4436 88.5997 21.9209C88.3323 21.3861 88.1986 20.7784 88.1986 20.0977V14.7738C88.1986 14.4578 88.3019 14.1964 88.5085 13.9898C88.7152 13.771 88.9765 13.6616 89.2925 13.6616C89.6085 13.6616 89.8699 13.771 90.0765 13.9898C90.2832 14.1964 90.3865 14.4578 90.3865 14.7738V19.4413C90.3865 20.2314 90.5566 20.7905 90.897 21.1187C91.2495 21.4347 91.7357 21.5928 92.3556 21.5928C92.781 21.5928 93.1396 21.5138 93.4313 21.3557C93.723 21.1856 93.9479 20.9425 94.1059 20.6264C94.2639 20.2982 94.3429 19.9032 94.3429 19.4413V14.7738C94.3429 14.4578 94.4463 14.1964 94.6529 13.9898C94.8595 13.771 95.1209 13.6616 95.4369 13.6616Z" fill="#FCFCFC"/>
</svg>
