<svg width="20" height="20" viewBox="0 0 20 20" fill="none" xmlns="http://www.w3.org/2000/svg">
<path d="M7.50002 10H12.5C12.721 10 12.933 9.9122 13.0893 9.75592C13.2456 9.59964 13.3334 9.38768 13.3334 9.16667V4.16667C13.3334 3.94565 13.2456 3.73369 13.0893 3.57741C12.933 3.42113 12.721 3.33333 12.5 3.33333H7.50002C7.27901 3.33333 7.06705 3.42113 6.91077 3.57741C6.75448 3.73369 6.66669 3.94565 6.66669 4.16667V9.16667C6.66669 9.38768 6.75448 9.59964 6.91077 9.75592C7.06705 9.9122 7.27901 10 7.50002 10ZM8.33335 5H11.6667V8.33333H8.33335V5ZM17.5 8.33333H15.8334C15.6123 8.33333 15.4004 8.42113 15.2441 8.57741C15.0878 8.73369 15 8.94565 15 9.16667C15 9.38768 15.0878 9.59964 15.2441 9.75592C15.4004 9.9122 15.6123 10 15.8334 10H17.5C17.721 10 17.933 9.9122 18.0893 9.75592C18.2456 9.59964 18.3334 9.38768 18.3334 9.16667C18.3334 8.94565 18.2456 8.73369 18.0893 8.57741C17.933 8.42113 17.721 8.33333 17.5 8.33333ZM15.8334 6.66667H17.5C17.721 6.66667 17.933 6.57887 18.0893 6.42259C18.2456 6.26631 18.3334 6.05435 18.3334 5.83333C18.3334 5.61232 18.2456 5.40036 18.0893 5.24408C17.933 5.0878 17.721 5 17.5 5H15.8334C15.6123 5 15.4004 5.0878 15.2441 5.24408C15.0878 5.40036 15 5.61232 15 5.83333C15 6.05435 15.0878 6.26631 15.2441 6.42259C15.4004 6.57887 15.6123 6.66667 15.8334 6.66667ZM2.50002 6.66667H4.16669C4.3877 6.66667 4.59966 6.57887 4.75594 6.42259C4.91222 6.26631 5.00002 6.05435 5.00002 5.83333C5.00002 5.61232 4.91222 5.40036 4.75594 5.24408C4.59966 5.0878 4.3877 5 4.16669 5H2.50002C2.27901 5 2.06704 5.0878 1.91076 5.24408C1.75448 5.40036 1.66669 5.61232 1.66669 5.83333C1.66669 6.05435 1.75448 6.26631 1.91076 6.42259C2.06704 6.57887 2.27901 6.66667 2.50002 6.66667ZM2.50002 10H4.16669C4.3877 10 4.59966 9.9122 4.75594 9.75592C4.91222 9.59964 5.00002 9.38768 5.00002 9.16667C5.00002 8.94565 4.91222 8.73369 4.75594 8.57741C4.59966 8.42113 4.3877 8.33333 4.16669 8.33333H2.50002C2.27901 8.33333 2.06704 8.42113 1.91076 8.57741C1.75448 8.73369 1.66669 8.94565 1.66669 9.16667C1.66669 9.38768 1.75448 9.59964 1.91076 9.75592C2.06704 9.9122 2.27901 10 2.50002 10ZM17.5 11.6667H2.50002C2.27901 11.6667 2.06704 11.7545 1.91076 11.9107C1.75448 12.067 1.66669 12.279 1.66669 12.5C1.66669 12.721 1.75448 12.933 1.91076 13.0893C2.06704 13.2455 2.27901 13.3333 2.50002 13.3333H17.5C17.721 13.3333 17.933 13.2455 18.0893 13.0893C18.2456 12.933 18.3334 12.721 18.3334 12.5C18.3334 12.279 18.2456 12.067 18.0893 11.9107C17.933 11.7545 17.721 11.6667 17.5 11.6667ZM10.8334 15H2.50002C2.27901 15 2.06704 15.0878 1.91076 15.2441C1.75448 15.4004 1.66669 15.6123 1.66669 15.8333C1.66669 16.0543 1.75448 16.2663 1.91076 16.4226C2.06704 16.5789 2.27901 16.6667 2.50002 16.6667H10.8334C11.0544 16.6667 11.2663 16.5789 11.4226 16.4226C11.5789 16.2663 11.6667 16.0543 11.6667 15.8333C11.6667 15.6123 11.5789 15.4004 11.4226 15.2441C11.2663 15.0878 11.0544 15 10.8334 15Z" fill="#477DB3"/>
</svg>
