<svg width="24" height="24" viewBox="0 0 24 24" fill="none" xmlns="http://www.w3.org/2000/svg">
<path d="M9.99996 17.55L8.22996 19.27C7.76583 19.7341 7.13634 19.9948 6.47996 19.9948C5.82358 19.9948 5.19409 19.7341 4.72996 19.27C4.26583 18.8058 4.00508 18.1763 4.00508 17.52C4.00508 16.8636 4.26583 16.2341 4.72996 15.77L9.26996 11.22C9.71557 10.7729 10.316 10.5143 10.947 10.4975C11.578 10.4807 12.1913 10.7072 12.66 11.13L12.78 11.23C12.9696 11.4156 13.2252 11.5183 13.4906 11.5155C13.7559 11.5127 14.0093 11.4046 14.195 11.215C14.3806 11.0253 14.4833 10.7697 14.4805 10.5044C14.4777 10.239 14.3696 9.98562 14.18 9.79997C14.1235 9.727 14.0634 9.65691 14 9.58997C13.1463 8.84729 12.0423 8.45682 10.9115 8.49767C9.78076 8.53852 8.70779 9.00763 7.90996 9.80997L3.30996 14.36C2.52831 15.2108 2.10558 16.3306 2.13003 17.4857C2.15449 18.6408 2.62424 19.7418 3.44119 20.5587C4.25814 21.3757 5.35912 21.8454 6.51421 21.8699C7.66929 21.8944 8.78916 21.4716 9.63996 20.69L11.37 19C11.5408 18.8136 11.6347 18.5695 11.6328 18.3167C11.6309 18.0639 11.5333 17.8212 11.3597 17.6375C11.1861 17.4537 10.9493 17.3426 10.697 17.3263C10.4448 17.3101 10.1957 17.39 9.99996 17.55ZM20.69 3.30997C19.8487 2.47398 18.7109 2.00476 17.525 2.00476C16.339 2.00476 15.2012 2.47398 14.36 3.30997L12.63 4.99997C12.4591 5.18632 12.3652 5.43045 12.3672 5.68324C12.3691 5.93603 12.4666 6.17871 12.6402 6.36246C12.8139 6.54621 13.0506 6.65739 13.3029 6.67362C13.5552 6.68986 13.8042 6.60995 14 6.44997L15.73 4.72997C16.1941 4.26584 16.8236 4.0051 17.48 4.0051C18.1363 4.0051 18.7658 4.26584 19.23 4.72997C19.6941 5.1941 19.9548 5.8236 19.9548 6.47997C19.9548 7.13635 19.6941 7.76584 19.23 8.22997L14.69 12.78C14.2443 13.227 13.6439 13.4857 13.0129 13.5024C12.382 13.5192 11.7687 13.2928 11.3 12.87L11.18 12.77C10.9903 12.5843 10.7347 12.4816 10.4694 12.4844C10.204 12.4872 9.95061 12.5953 9.76496 12.785C9.57931 12.9746 9.47659 13.2302 9.4794 13.4956C9.48221 13.7609 9.59033 14.0143 9.77996 14.2C9.8526 14.2743 9.92939 14.3444 10.01 14.41C10.8646 15.1504 11.9682 15.5394 13.0983 15.4986C14.2283 15.4578 15.3009 14.9902 16.1 14.19L20.65 9.63997C21.4913 8.80405 21.9677 7.6692 21.9752 6.48322C21.9827 5.29724 21.5207 4.15646 20.69 3.30997Z" fill="#000624"/>
</svg>
