<svg width="18" height="19" viewBox="0 0 18 19" fill="none" xmlns="http://www.w3.org/2000/svg">
<path d="M13.5 10.385V8C13.4989 6.93734 13.1218 5.90935 12.4355 5.09808C11.7491 4.28681 10.7978 3.74461 9.75 3.5675V2.75C9.75 2.55109 9.67098 2.36032 9.53033 2.21967C9.38968 2.07902 9.19891 2 9 2C8.80109 2 8.61032 2.07902 8.46967 2.21967C8.32902 2.36032 8.25 2.55109 8.25 2.75V3.5675C7.2022 3.74461 6.25089 4.28681 5.56454 5.09808C4.87818 5.90935 4.50108 6.93734 4.5 8V10.385C4.06234 10.5397 3.68325 10.8261 3.4147 11.2047C3.14616 11.5833 3.0013 12.0358 3 12.5V14C3 14.1989 3.07902 14.3897 3.21967 14.5303C3.36032 14.671 3.55109 14.75 3.75 14.75H6.105C6.27771 15.3855 6.65475 15.9466 7.17795 16.3465C7.70114 16.7465 8.34142 16.9632 9 16.9632C9.65858 16.9632 10.2989 16.7465 10.8221 16.3465C11.3452 15.9466 11.7223 15.3855 11.895 14.75H14.25C14.4489 14.75 14.6397 14.671 14.7803 14.5303C14.921 14.3897 15 14.1989 15 14V12.5C14.9987 12.0358 14.8538 11.5833 14.5853 11.2047C14.3168 10.8261 13.9377 10.5397 13.5 10.385ZM6 8C6 7.20435 6.31607 6.44129 6.87868 5.87868C7.44129 5.31607 8.20435 5 9 5C9.79565 5 10.5587 5.31607 11.1213 5.87868C11.6839 6.44129 12 7.20435 12 8V10.25H6V8ZM9 15.5C8.73823 15.4984 8.48143 15.4284 8.25512 15.2968C8.02882 15.1652 7.84088 14.9767 7.71 14.75H10.29C10.1591 14.9767 9.97118 15.1652 9.74488 15.2968C9.51857 15.4284 9.26177 15.4984 9 15.5ZM13.5 13.25H4.5V12.5C4.5 12.3011 4.57902 12.1103 4.71967 11.9697C4.86032 11.829 5.05109 11.75 5.25 11.75H12.75C12.9489 11.75 13.1397 11.829 13.2803 11.9697C13.421 12.1103 13.5 12.3011 13.5 12.5V13.25Z" fill="#5F5F68"/>
</svg>
