<svg width="18" height="19" viewBox="0 0 18 19" fill="none" xmlns="http://www.w3.org/2000/svg">
<path d="M14.7225 3.23773C14.6354 3.16725 14.5336 3.11719 14.4245 3.09123C14.3155 3.06527 14.2021 3.06408 14.0925 3.08773C13.2911 3.25569 12.4638 3.25783 11.6615 3.09402C10.8592 2.93021 10.0989 2.60392 9.4275 2.13523C9.30196 2.04814 9.1528 2.00146 9 2.00146C8.8472 2.00146 8.69805 2.04814 8.5725 2.13523C7.90107 2.60392 7.14081 2.93021 6.33853 3.09402C5.53625 3.25783 4.70893 3.25569 3.9075 3.08773C3.79796 3.06408 3.6845 3.06527 3.57548 3.09123C3.46646 3.11719 3.36464 3.16725 3.2775 3.23773C3.19049 3.30832 3.1204 3.39751 3.07237 3.49874C3.02435 3.59998 2.99962 3.71069 3 3.82273V9.41023C2.99934 10.4855 3.25558 11.5455 3.74741 12.5017C4.23923 13.4579 4.95239 14.2829 5.8275 14.9077L8.565 16.8577C8.69203 16.9482 8.84408 16.9968 9 16.9968C9.15593 16.9968 9.30798 16.9482 9.435 16.8577L12.1725 14.9077C13.0476 14.2829 13.7608 13.4579 14.2526 12.5017C14.7444 11.5455 15.0007 10.4855 15 9.41023V3.82273C15.0004 3.71069 14.9757 3.59998 14.9276 3.49874C14.8796 3.39751 14.8095 3.30832 14.7225 3.23773ZM13.5 9.41023C13.5006 10.2463 13.3015 11.0704 12.9192 11.814C12.537 12.5576 11.9827 13.1991 11.3025 13.6852L9 15.3277L6.6975 13.6852C6.01728 13.1991 5.46299 12.5576 5.08077 11.814C4.69854 11.0704 4.49943 10.2463 4.5 9.41023V4.68523C6.07233 4.81981 7.64703 4.455 9 3.64273C10.353 4.455 11.9277 4.81981 13.5 4.68523V9.41023Z" fill="#5F5F68"/>
</svg>
