<svg width="18" height="18" viewBox="0 0 18 18" fill="none" xmlns="http://www.w3.org/2000/svg">
<path d="M7.5 13.5001C7.69891 13.5001 7.88968 13.421 8.03033 13.2804C8.17098 13.1397 8.25 12.949 8.25 12.7501V8.25006C8.25 8.05115 8.17098 7.86038 8.03033 7.71973C7.88968 7.57908 7.69891 7.50006 7.5 7.50006C7.30109 7.50006 7.11032 7.57908 6.96967 7.71973C6.82902 7.86038 6.75 8.05115 6.75 8.25006V12.7501C6.75 12.949 6.82902 13.1397 6.96967 13.2804C7.11032 13.421 7.30109 13.5001 7.5 13.5001ZM15 4.50006H12V3.75006C12 3.15332 11.7629 2.58103 11.341 2.15907C10.919 1.73711 10.3467 1.50006 9.75 1.50006H8.25C7.65326 1.50006 7.08097 1.73711 6.65901 2.15907C6.23705 2.58103 6 3.15332 6 3.75006V4.50006H3C2.80109 4.50006 2.61032 4.57908 2.46967 4.71973C2.32902 4.86038 2.25 5.05115 2.25 5.25006C2.25 5.44897 2.32902 5.63974 2.46967 5.78039C2.61032 5.92104 2.80109 6.00006 3 6.00006H3.75V14.2501C3.75 14.8468 3.98705 15.4191 4.40901 15.8411C4.83097 16.263 5.40326 16.5001 6 16.5001H12C12.5967 16.5001 13.169 16.263 13.591 15.8411C14.0129 15.4191 14.25 14.8468 14.25 14.2501V6.00006H15C15.1989 6.00006 15.3897 5.92104 15.5303 5.78039C15.671 5.63974 15.75 5.44897 15.75 5.25006C15.75 5.05115 15.671 4.86038 15.5303 4.71973C15.3897 4.57908 15.1989 4.50006 15 4.50006ZM7.5 3.75006C7.5 3.55115 7.57902 3.36038 7.71967 3.21973C7.86032 3.07908 8.05109 3.00006 8.25 3.00006H9.75C9.94891 3.00006 10.1397 3.07908 10.2803 3.21973C10.421 3.36038 10.5 3.55115 10.5 3.75006V4.50006H7.5V3.75006ZM12.75 14.2501C12.75 14.449 12.671 14.6397 12.5303 14.7804C12.3897 14.921 12.1989 15.0001 12 15.0001H6C5.80109 15.0001 5.61032 14.921 5.46967 14.7804C5.32902 14.6397 5.25 14.449 5.25 14.2501V6.00006H12.75V14.2501ZM10.5 13.5001C10.6989 13.5001 10.8897 13.421 11.0303 13.2804C11.171 13.1397 11.25 12.949 11.25 12.7501V8.25006C11.25 8.05115 11.171 7.86038 11.0303 7.71973C10.8897 7.57908 10.6989 7.50006 10.5 7.50006C10.3011 7.50006 10.1103 7.57908 9.96967 7.71973C9.82902 7.86038 9.75 8.05115 9.75 8.25006V12.7501C9.75 12.949 9.82902 13.1397 9.96967 13.2804C10.1103 13.421 10.3011 13.5001 10.5 13.5001Z" fill="#737A91"/>
</svg>
