<svg width="18" height="19" viewBox="0 0 18 19" fill="none" xmlns="http://www.w3.org/2000/svg">
<path d="M14.25 2H3.75C3.15326 2 2.58097 2.23705 2.15901 2.65901C1.73705 3.08097 1.5 3.65326 1.5 4.25V5.1275C1.49989 5.43721 1.56372 5.7436 1.6875 6.0275V6.0725C1.79346 6.31323 1.94354 6.532 2.13 6.7175L6.75 11.3075V16.25C6.74974 16.3775 6.78198 16.5029 6.84365 16.6144C6.90533 16.726 6.99442 16.8199 7.1025 16.8875C7.22186 16.9615 7.35958 17.0005 7.5 17C7.61741 16.9993 7.73301 16.971 7.8375 16.9175L10.8375 15.4175C10.9612 15.3552 11.0652 15.2598 11.138 15.142C11.2108 15.0242 11.2496 14.8885 11.25 14.75V11.3075L15.84 6.7175C16.0265 6.532 16.1765 6.31323 16.2825 6.0725V6.0275C16.4166 5.74582 16.4907 5.43933 16.5 5.1275V4.25C16.5 3.65326 16.2629 3.08097 15.841 2.65901C15.419 2.23705 14.8467 2 14.25 2ZM9.9675 10.4675C9.89799 10.5376 9.843 10.6207 9.80567 10.7121C9.76835 10.8034 9.74943 10.9013 9.75 11V14.285L8.25 15.035V11C8.25057 10.9013 8.23165 10.8034 8.19433 10.7121C8.157 10.6207 8.10201 10.5376 8.0325 10.4675L4.0575 6.5H13.9425L9.9675 10.4675ZM15 5H3V4.25C3 4.05109 3.07902 3.86032 3.21967 3.71967C3.36032 3.57902 3.55109 3.5 3.75 3.5H14.25C14.4489 3.5 14.6397 3.57902 14.7803 3.71967C14.921 3.86032 15 4.05109 15 4.25V5Z" fill="#5F5F68"/>
</svg>
