<svg width="25" height="24" viewBox="0 0 25 24" fill="none" xmlns="http://www.w3.org/2000/svg">
<path d="M12.5 22C18.0228 22 22.5 17.5228 22.5 12C22.5 6.47715 18.0228 2 12.5 2C6.97715 2 2.5 6.47715 2.5 12C2.5 17.5228 6.97715 22 12.5 22Z" stroke="#477DB3" stroke-width="2" stroke-linecap="round" stroke-linejoin="round"/>
<path d="M12.5 17H12.51" stroke="#477DB3" stroke-width="2" stroke-linecap="round" stroke-linejoin="round"/>
<path d="M9.58984 8.99959C9.82495 8.33126 10.289 7.7677 10.8998 7.40873C11.5106 7.04975 12.2287 6.91853 12.927 7.0383C13.6253 7.15808 14.2587 7.52112 14.7149 8.06312C15.1712 8.60512 15.4209 9.29112 15.4198 9.99959C15.4198 11.9996 12.4198 12.9996 12.4198 12.9996" stroke="#477DB3" stroke-width="2" stroke-linecap="round" stroke-linejoin="round"/>
</svg>
