<svg width="41" height="40" viewBox="0 0 41 40" fill="none" xmlns="http://www.w3.org/2000/svg">
<path d="M20.4974 21.6663C19.99 21.6604 19.4929 21.81 19.0731 22.0951C18.6533 22.3802 18.331 22.7871 18.1494 23.261C17.9679 23.7348 17.9358 24.2529 18.0576 24.7456C18.1795 25.2382 18.4493 25.6816 18.8307 26.0163V28.333C18.8307 28.775 19.0063 29.1989 19.3189 29.5115C19.6314 29.824 20.0554 29.9996 20.4974 29.9996C20.9394 29.9996 21.3633 29.824 21.6759 29.5115C21.9885 29.1989 22.1641 28.775 22.1641 28.333V26.0163C22.5455 25.6816 22.8153 25.2382 22.9371 24.7456C23.059 24.2529 23.0269 23.7348 22.8454 23.261C22.6638 22.7871 22.3414 22.3802 21.9217 22.0951C21.5019 21.81 21.0048 21.6604 20.4974 21.6663ZM28.8307 14.9996H15.4974V11.6663C15.495 10.6766 15.7863 9.70846 16.3345 8.88446C16.8827 8.06047 17.6631 7.4177 18.5769 7.03756C19.4906 6.65741 20.4967 6.557 21.4675 6.74903C22.4384 6.94107 23.3305 7.41691 24.0307 8.11629C24.6573 8.7564 25.1055 9.54933 25.3307 10.4163C25.3854 10.6286 25.4814 10.828 25.6132 11.0032C25.745 11.1784 25.9101 11.326 26.0989 11.4374C26.2877 11.5488 26.4966 11.622 26.7137 11.6527C26.9308 11.6834 27.1518 11.671 27.3641 11.6163C27.5764 11.5616 27.7758 11.4656 27.951 11.3338C28.1262 11.202 28.2737 11.037 28.3852 10.8482C28.4966 10.6593 28.5698 10.4504 28.6005 10.2333C28.6311 10.0163 28.6188 9.79526 28.5641 9.58296C28.1844 8.14096 27.4313 6.82451 26.3807 5.76629C25.2144 4.60357 23.7296 3.81252 22.114 3.49303C20.4984 3.17354 18.8243 3.33994 17.3032 3.97122C15.782 4.60249 14.4821 5.67034 13.5674 7.03991C12.6527 8.40949 12.1644 10.0194 12.1641 11.6663V14.9996C10.838 14.9996 9.56621 15.5264 8.62853 16.4641C7.69085 17.4018 7.16406 18.6735 7.16406 19.9996V31.6663C7.16406 32.9924 7.69085 34.2641 8.62853 35.2018C9.56621 36.1395 10.838 36.6663 12.1641 36.6663H28.8307C30.1568 36.6663 31.4286 36.1395 32.3663 35.2018C33.3039 34.2641 33.8307 32.9924 33.8307 31.6663V19.9996C33.8307 18.6735 33.3039 17.4018 32.3663 16.4641C31.4286 15.5264 30.1568 14.9996 28.8307 14.9996ZM30.4974 31.6663C30.4974 32.1083 30.3218 32.5322 30.0092 32.8448C29.6967 33.1574 29.2728 33.333 28.8307 33.333H12.1641C11.722 33.333 11.2981 33.1574 10.9856 32.8448C10.673 32.5322 10.4974 32.1083 10.4974 31.6663V19.9996C10.4974 19.5576 10.673 19.1337 10.9856 18.8211C11.2981 18.5086 11.722 18.333 12.1641 18.333H28.8307C29.2728 18.333 29.6967 18.5086 30.0092 18.8211C30.3218 19.1337 30.4974 19.5576 30.4974 19.9996V31.6663Z" fill="#477DB3"/>
</svg>
