<svg width="30" height="30" viewBox="0 0 30 30" fill="none" xmlns="http://www.w3.org/2000/svg">
<rect width="30" height="30" rx="15" fill="#FEF7ED"/>
<path d="M14.9987 15.8325C14.745 15.8296 14.4965 15.9044 14.2866 16.047C14.0767 16.1895 13.9155 16.3929 13.8247 16.6299C13.7339 16.8668 13.7179 17.1259 13.7788 17.3722C13.8397 17.6185 13.9746 17.8402 14.1654 18.0075V19.1659C14.1654 19.3869 14.2532 19.5988 14.4094 19.7551C14.5657 19.9114 14.7777 19.9992 14.9987 19.9992C15.2197 19.9992 15.4317 19.9114 15.588 19.7551C15.7442 19.5988 15.832 19.3869 15.832 19.1659V18.0075C16.0228 17.8402 16.1577 17.6185 16.2186 17.3722C16.2795 17.1259 16.2635 16.8668 16.1727 16.6299C16.0819 16.3929 15.9207 16.1895 15.7108 16.047C15.5009 15.9044 15.2524 15.8296 14.9987 15.8325ZM19.1654 12.4992H12.4987V10.8325C12.4975 10.3377 12.6431 9.85362 12.9172 9.44162C13.1913 9.02962 13.5815 8.70824 14.0384 8.51817C14.4953 8.3281 14.9983 8.27789 15.4838 8.37391C15.9692 8.46992 16.4152 8.70784 16.7654 9.05753C17.0787 9.37759 17.3027 9.77406 17.4154 10.2075C17.4427 10.3137 17.4907 10.4134 17.5566 10.501C17.6225 10.5886 17.705 10.6624 17.7994 10.7181C17.8938 10.7738 17.9983 10.8104 18.1068 10.8257C18.2154 10.8411 18.3259 10.8349 18.432 10.8075C18.5382 10.7802 18.6379 10.7322 18.7255 10.6663C18.8131 10.6004 18.8869 10.5179 18.9426 10.4235C18.9983 10.3291 19.0349 10.2246 19.0502 10.1161C19.0656 10.0075 19.0594 9.89702 19.032 9.79087C18.8422 9.06987 18.4656 8.41165 17.9404 7.88253C17.3572 7.30117 16.6148 6.90565 15.807 6.7459C14.9992 6.58616 14.1621 6.66936 13.4016 6.985C12.641 7.30064 11.991 7.83456 11.5337 8.51935C11.0764 9.20413 10.8322 10.0091 10.832 10.8325V12.4992C10.169 12.4992 9.53311 12.7626 9.06426 13.2314C8.59542 13.7003 8.33203 14.3362 8.33203 14.9992V20.8325C8.33203 21.4956 8.59542 22.1315 9.06426 22.6003C9.53311 23.0691 10.169 23.3325 10.832 23.3325H19.1654C19.8284 23.3325 20.4643 23.0691 20.9331 22.6003C21.402 22.1315 21.6654 21.4956 21.6654 20.8325V14.9992C21.6654 14.3362 21.402 13.7003 20.9331 13.2314C20.4643 12.7626 19.8284 12.4992 19.1654 12.4992ZM19.9987 20.8325C19.9987 21.0535 19.9109 21.2655 19.7546 21.4218C19.5983 21.5781 19.3864 21.6659 19.1654 21.6659H10.832C10.611 21.6659 10.3991 21.5781 10.2428 21.4218C10.0865 21.2655 9.9987 21.0535 9.9987 20.8325V14.9992C9.9987 14.7782 10.0865 14.5662 10.2428 14.4099C10.3991 14.2537 10.611 14.1659 10.832 14.1659H19.1654C19.3864 14.1659 19.5983 14.2537 19.7546 14.4099C19.9109 14.5662 19.9987 14.7782 19.9987 14.9992V20.8325Z" fill="#F0AD4E"/>
</svg>
