<svg width="14" height="14" viewBox="0 0 14 14" fill="none" xmlns="http://www.w3.org/2000/svg">
<path d="M10.9136 4.20575C10.8594 4.15108 10.7949 4.10768 10.7238 4.07807C10.6527 4.04845 10.5764 4.0332 10.4994 4.0332C10.4224 4.0332 10.3462 4.04845 10.2751 4.07807C10.204 4.10768 10.1395 4.15108 10.0853 4.20575L5.73944 8.55742L3.91361 6.72575C3.8573 6.67136 3.79084 6.6286 3.71801 6.59989C3.64517 6.57119 3.5674 6.55712 3.48913 6.55847C3.41086 6.55982 3.33362 6.57658 3.26182 6.60779C3.19003 6.63899 3.12508 6.68403 3.07069 6.74034C3.0163 6.79664 2.97354 6.86311 2.94483 6.93594C2.91613 7.00877 2.90206 7.08654 2.90341 7.16481C2.90476 7.24309 2.92152 7.32033 2.95273 7.39212C2.98393 7.46392 3.02897 7.52886 3.08528 7.58325L5.32528 9.82325C5.3795 9.87793 5.44402 9.92132 5.51511 9.95094C5.58619 9.98055 5.66243 9.9958 5.73944 9.9958C5.81645 9.9958 5.89269 9.98055 5.96378 9.95094C6.03486 9.92132 6.09938 9.87793 6.15361 9.82325L10.9136 5.06325C10.9728 5.00863 11.0201 4.94233 11.0524 4.86854C11.0847 4.79475 11.1014 4.71506 11.1014 4.6345C11.1014 4.55394 11.0847 4.47426 11.0524 4.40047C11.0201 4.32667 10.9728 4.26038 10.9136 4.20575Z" fill="#477DB3"/>
</svg>
