<svg width="18" height="16" viewBox="0 0 18 16" fill="none" xmlns="http://www.w3.org/2000/svg">
<path d="M1.66663 14.6667H16.3333" stroke="#C8D8E8" stroke-width="1.40625" stroke-miterlimit="10" stroke-linecap="round" stroke-linejoin="round"/>
<path d="M14.1866 14.6733V11.7" stroke="#C8D8E8" stroke-width="1.40625" stroke-miterlimit="10" stroke-linecap="round" stroke-linejoin="round"/>
<path d="M14.2001 7.26001C13.3867 7.26001 12.7334 7.91335 12.7334 8.72668V10.24C12.7334 11.0533 13.3867 11.7067 14.2001 11.7067C15.0134 11.7067 15.6667 11.0533 15.6667 10.24V8.72668C15.6667 7.91335 15.0134 7.26001 14.2001 7.26001Z" stroke="#C8D8E8" stroke-width="1.40625" stroke-miterlimit="10" stroke-linecap="round" stroke-linejoin="round"/>
<path d="M2.3999 14.6667V4.02003C2.3999 2.68003 3.0666 2.00668 4.39327 2.00668H8.54659C9.87326 2.00668 10.5332 2.68003 10.5332 4.02003V14.6667" stroke="#C8D8E8" stroke-width="1.40625" stroke-miterlimit="10" stroke-linecap="round" stroke-linejoin="round"/>
<path d="M4.8667 5.5H8.16671" stroke="#C8D8E8" stroke-width="1.40625" stroke-miterlimit="10" stroke-linecap="round" stroke-linejoin="round"/>
<path d="M4.8667 8H8.16671" stroke="#C8D8E8" stroke-width="1.40625" stroke-miterlimit="10" stroke-linecap="round" stroke-linejoin="round"/>
<path d="M6.5 14.6667V12.1667" stroke="#C8D8E8" stroke-width="1.40625" stroke-miterlimit="10" stroke-linecap="round" stroke-linejoin="round"/>
</svg>
