<svg width="194" height="72" viewBox="0 0 194 72" fill="none" xmlns="http://www.w3.org/2000/svg">
<rect width="194" height="72" rx="20" fill="white"/>
<rect x="67" y="6" width="60" height="60" rx="30" fill="#EDF2F7"/>
<path d="M90.2837 33.2031V30.4048C90.2837 25.7735 91.403 22.0098 96.9997 22.0098C102.596 22.0098 103.716 25.7735 103.716 30.4048V33.2031" stroke="#477DB3" stroke-width="1.16867" stroke-linecap="round" stroke-linejoin="round"/>
<path d="M102.597 49.9931H91.4033C86.926 49.9931 85.8066 48.594 85.8066 42.9973V40.199C85.8066 34.6023 86.926 33.2031 91.4033 33.2031H102.597C107.074 33.2031 108.193 34.6023 108.193 40.199V42.9973C108.193 48.594 107.074 49.9931 102.597 49.9931Z" stroke="#477DB3" stroke-width="1.16867" stroke-linecap="round" stroke-linejoin="round"/>
<path d="M101.471 41.598H101.481" stroke="#292D32" stroke-width="1.55822" stroke-linecap="round" stroke-linejoin="round"/>
<path d="M96.9939 41.598H97.004" stroke="#292D32" stroke-width="1.55822" stroke-linecap="round" stroke-linejoin="round"/>
<path d="M92.5164 41.598H92.5265" stroke="#292D32" stroke-width="1.55822" stroke-linecap="round" stroke-linejoin="round"/>
</svg>
