<svg width="10" height="11" viewBox="0 0 10 11" fill="none" xmlns="http://www.w3.org/2000/svg">
<path d="M7.91699 5.0834H5.41699V2.5834C5.41699 2.47289 5.37309 2.36691 5.29495 2.28877C5.21681 2.21063 5.11083 2.16673 5.00033 2.16673C4.88982 2.16673 4.78384 2.21063 4.7057 2.28877C4.62756 2.36691 4.58366 2.47289 4.58366 2.5834V5.0834H2.08366C1.97315 5.0834 1.86717 5.12729 1.78903 5.20543C1.71089 5.28357 1.66699 5.38956 1.66699 5.50006C1.66699 5.61057 1.71089 5.71655 1.78903 5.79469C1.86717 5.87283 1.97315 5.91673 2.08366 5.91673H4.58366V8.41673C4.58366 8.52724 4.62756 8.63322 4.7057 8.71136C4.78384 8.7895 4.88982 8.8334 5.00033 8.8334C5.11083 8.8334 5.21681 8.7895 5.29495 8.71136C5.37309 8.63322 5.41699 8.52724 5.41699 8.41673V5.91673H7.91699C8.0275 5.91673 8.13348 5.87283 8.21162 5.79469C8.28976 5.71655 8.33366 5.61057 8.33366 5.50006C8.33366 5.38956 8.28976 5.28357 8.21162 5.20543C8.13348 5.12729 8.0275 5.0834 7.91699 5.0834Z" fill="#5F5F68"/>
</svg>
