<svg width="18" height="19" viewBox="0 0 18 19" fill="none" xmlns="http://www.w3.org/2000/svg">
<path d="M14.9325 11.9745H11.535C11.3361 11.9745 11.1453 12.0558 11.0047 12.2006C10.864 12.3454 10.785 12.5418 10.785 12.7465C10.785 12.9513 10.864 13.1477 11.0047 13.2924C11.1453 13.4372 11.3361 13.5186 11.535 13.5186H13.335C12.5077 14.4086 11.4408 15.0236 10.2714 15.2846C9.10194 15.5456 7.88341 15.4407 6.77233 14.9834C5.66126 14.526 4.7084 13.7371 4.03619 12.7181C3.36398 11.699 3.00313 10.4963 3 9.26453C3 9.05977 2.92098 8.8634 2.78033 8.71861C2.63968 8.57382 2.44891 8.49248 2.25 8.49248C2.05109 8.49248 1.86032 8.57382 1.71967 8.71861C1.57902 8.8634 1.5 9.05977 1.5 9.26453C1.50396 10.7722 1.93667 12.2457 2.7447 13.5032C3.55274 14.7606 4.70075 15.747 6.04706 16.3406C7.39336 16.9342 8.87905 17.1091 10.3208 16.8436C11.7625 16.578 13.0971 15.8838 14.16 14.8465V16.2131C14.16 16.4178 14.239 16.6142 14.3797 16.759C14.5203 16.9038 14.7111 16.9851 14.91 16.9851C15.1089 16.9851 15.2997 16.9038 15.4403 16.759C15.581 16.6142 15.66 16.4178 15.66 16.2131V12.7388C15.6581 12.5393 15.5814 12.3483 15.4457 12.2058C15.3101 12.0634 15.1262 11.9804 14.9325 11.9745ZM11.25 9.26453C11.25 8.80644 11.118 8.35863 10.8708 7.97774C10.6236 7.59684 10.2722 7.29997 9.86104 7.12467C9.4499 6.94936 8.9975 6.90349 8.56105 6.99286C8.12459 7.08223 7.72368 7.30283 7.40901 7.62675C7.09434 7.95067 6.88005 8.36338 6.79323 8.81267C6.70642 9.26196 6.75097 9.72767 6.92127 10.1509C7.09157 10.5741 7.37996 10.9359 7.74997 11.1904C8.11998 11.4449 8.55499 11.5807 9 11.5807C9.59674 11.5807 10.169 11.3367 10.591 10.9023C11.0129 10.468 11.25 9.87882 11.25 9.26453ZM8.25 9.26453C8.25 9.11184 8.29399 8.96256 8.3764 8.8356C8.45881 8.70864 8.57594 8.60968 8.71299 8.55124C8.85003 8.49281 9.00083 8.47752 9.14632 8.50731C9.2918 8.5371 9.42544 8.61063 9.53033 8.71861C9.63522 8.82658 9.70665 8.96415 9.73559 9.11391C9.76453 9.26368 9.74968 9.41891 9.69291 9.55999C9.63614 9.70106 9.54002 9.82164 9.41668 9.90648C9.29334 9.99131 9.14834 10.0366 9 10.0366C8.80109 10.0366 8.61032 9.95525 8.46967 9.81046C8.32902 9.66567 8.25 9.4693 8.25 9.26453ZM9 1.54395C7.07729 1.54959 5.23012 2.31517 3.84 3.68255V2.316C3.84 2.11124 3.76098 1.91487 3.62033 1.77008C3.47968 1.62529 3.28891 1.54395 3.09 1.54395C2.89109 1.54395 2.70032 1.62529 2.55967 1.77008C2.41902 1.91487 2.34 2.11124 2.34 2.316V5.79027C2.34 5.99503 2.41902 6.19141 2.55967 6.3362C2.70032 6.48099 2.89109 6.56233 3.09 6.56233H6.465C6.66391 6.56233 6.85468 6.48099 6.99533 6.3362C7.13598 6.19141 7.215 5.99503 7.215 5.79027C7.215 5.58551 7.13598 5.38913 6.99533 5.24434C6.85468 5.09955 6.66391 5.01821 6.465 5.01821H4.665C5.49185 4.1287 6.55807 3.51385 7.7268 3.25259C8.89553 2.99134 10.1134 3.09559 11.2242 3.55196C12.335 4.00834 13.2879 4.79602 13.9607 5.8139C14.6335 6.83177 14.9954 8.0334 15 9.26453C15 9.4693 15.079 9.66567 15.2197 9.81046C15.3603 9.95525 15.5511 10.0366 15.75 10.0366C15.9489 10.0366 16.1397 9.95525 16.2803 9.81046C16.421 9.66567 16.5 9.4693 16.5 9.26453C16.5 8.25065 16.306 7.2467 15.9291 6.30999C15.5522 5.37329 14.9997 4.52218 14.3033 3.80525C13.6069 3.08833 12.7801 2.51964 11.8701 2.13164C10.9602 1.74364 9.98491 1.54395 9 1.54395Z" fill="#5F5F68"/>
</svg>
