<svg width="12" height="12" viewBox="0 0 12 12" fill="none" xmlns="http://www.w3.org/2000/svg">
<g clip-path="url(#clip0_10893_61690)">
<path d="M9.69186 6.94123C9.50366 6.63538 9.74577 6.2419 10.1222 6.2419L10.5479 6.2419C10.9155 6.2419 11.1365 6.61902 10.9482 6.92501L10.7354 7.27096C10.5471 7.57694 10.0885 7.5859 9.90472 7.28718L9.69186 6.94123Z" fill="#5F5F68"/>
<path d="M9.4119 5.56191V3.13256C9.4119 2.81671 9.29972 2.51111 9.09537 2.27027L7.92545 0.891427C7.67222 0.592967 7.30059 0.42091 6.90917 0.42091H1.63066C0.894571 0.42091 0.297852 1.01763 0.297852 1.75372V10.1945C0.297852 10.9328 0.898005 11.5304 1.63629 11.5273L6.64054 11.5062M6.18341 3.92857V3.32861C6.18341 2.869 5.9466 2.44181 5.55682 2.19828L5.52573 2.17885C5.08974 1.90645 4.53596 1.90909 4.10258 2.18562L4.08508 2.19679C3.70142 2.44159 3.4692 2.86524 3.4692 3.32035V3.52693V3.92857M6.18341 3.92857V3.92857C6.75191 4.16363 7.08272 4.76019 6.98099 5.3669L6.91166 5.78036C6.86542 6.05614 6.73361 6.31039 6.53488 6.50713L5.80737 7.22735C5.26582 7.76348 4.38581 7.73722 3.87719 7.16976L3.22844 6.44595C3.08626 6.28732 2.98418 6.09692 2.93074 5.89071L2.78344 5.32226C2.63567 4.75201 2.92724 4.15944 3.4692 3.92857V3.92857M6.18341 3.92857L5.19061 3.63781C4.94351 3.56544 4.68075 3.56619 4.43407 3.63997L3.4692 3.92857M9.38333 7.32913V8.04216C9.38333 8.59609 9.04071 9.09227 8.52271 9.28852L8.0405 9.47121" stroke="#5F5F68" stroke-linecap="round" stroke-linejoin="round"/>
<path d="M4.88477 4.9859V6.06707" stroke="#5F5F68" stroke-linecap="round" stroke-linejoin="round"/>
<path d="M9.07954 6.45033V6.45033C7.97581 6.17282 6.82772 6.835 6.51522 7.92934L6.45269 8.14832C6.10634 9.36118 6.81512 10.5942 8.03741 10.9052L8.517 11.0272C9.74455 11.3395 11.024 10.6039 11.3719 9.38584L11.4346 9.16618C11.7471 8.07184 11.1057 6.95974 10.0019 6.68223V6.68223" stroke="#5F5F68" stroke-linecap="round" stroke-linejoin="round"/>
</g>
<defs>
<clipPath id="clip0_10893_61690">
<rect width="12" height="12" fill="white"/>
</clipPath>
</defs>
</svg>
