<svg width="12" height="12" viewBox="0 0 12 12" fill="none" xmlns="http://www.w3.org/2000/svg">
<path d="M9.955 7.75506H7.69C7.55739 7.75506 7.43021 7.80774 7.33645 7.90151C7.24268 7.99528 7.19 8.12245 7.19 8.25506C7.19 8.38767 7.24268 8.51485 7.33645 8.60861C7.43021 8.70238 7.55739 8.75506 7.69 8.75506H8.89C8.33847 9.33143 7.6272 9.72972 6.84758 9.89876C6.06796 10.0678 5.2556 9.99986 4.51489 9.70368C3.77417 9.40751 3.13893 8.89661 2.6908 8.23665C2.24266 7.57668 2.00209 6.79779 2 6.00006C2 5.86745 1.94732 5.74028 1.85355 5.64651C1.75979 5.55274 1.63261 5.50006 1.5 5.50006C1.36739 5.50006 1.24021 5.55274 1.14645 5.64651C1.05268 5.74028 1 5.86745 1 6.00006C1.00264 6.97646 1.29111 7.93072 1.8298 8.74508C2.36849 9.55943 3.13383 10.1982 4.03137 10.5827C4.92891 10.9671 5.91937 11.0803 6.88051 10.9084C7.84165 10.7364 8.73142 10.2868 9.44 9.61506V10.5001C9.44 10.6327 9.49268 10.7598 9.58645 10.8536C9.68021 10.9474 9.80739 11.0001 9.94 11.0001C10.0726 11.0001 10.1998 10.9474 10.2936 10.8536C10.3873 10.7598 10.44 10.6327 10.44 10.5001V8.25006C10.4388 8.12088 10.3876 7.99719 10.2972 7.90491C10.2068 7.81263 10.0841 7.75893 9.955 7.75506ZM6 1.00006C4.71819 1.00372 3.48675 1.49952 2.56 2.38506V1.50006C2.56 1.36745 2.50732 1.24028 2.41355 1.14651C2.31979 1.05274 2.19261 1.00006 2.06 1.00006C1.92739 1.00006 1.80021 1.05274 1.70645 1.14651C1.61268 1.24028 1.56 1.36745 1.56 1.50006V3.75006C1.56 3.88267 1.61268 4.00985 1.70645 4.10361C1.80021 4.19738 1.92739 4.25006 2.06 4.25006H4.31C4.44261 4.25006 4.56979 4.19738 4.66355 4.10361C4.75732 4.00985 4.81 3.88267 4.81 3.75006C4.81 3.61745 4.75732 3.49028 4.66355 3.39651C4.56979 3.30274 4.44261 3.25006 4.31 3.25006H3.11C3.66123 2.674 4.37205 2.27581 5.1512 2.10662C5.93035 1.93742 6.74229 2.00493 7.4828 2.30049C8.22331 2.59605 8.8586 3.10617 9.30712 3.76536C9.75564 4.42456 9.99692 5.20275 10 6.00006C10 6.13267 10.0527 6.25985 10.1464 6.35361C10.2402 6.44738 10.3674 6.50006 10.5 6.50006C10.6326 6.50006 10.7598 6.44738 10.8536 6.35361C10.9473 6.25985 11 6.13267 11 6.00006C11 5.34345 10.8707 4.69327 10.6194 4.08664C10.3681 3.48002 9.99983 2.92882 9.53553 2.46453C9.07124 2.00023 8.52005 1.63194 7.91342 1.38066C7.30679 1.12939 6.65661 1.00006 6 1.00006Z" fill="#5F5F68"/>
</svg>
