<svg width="16" height="16" viewBox="0 0 16 16" fill="none" xmlns="http://www.w3.org/2000/svg">
<path d="M12 4.77334C11.96 4.76667 11.9133 4.76667 11.8733 4.77334C10.9533 4.74001 10.22 3.98667 10.22 3.05334C10.22 2.1 10.9866 1.33334 11.94 1.33334C12.8933 1.33334 13.66 2.10667 13.66 3.05334C13.6533 3.98667 12.92 4.74001 12 4.77334Z" stroke="#C8D8E8" stroke-width="1.5" stroke-linecap="round" stroke-linejoin="round"/>
<path d="M11.3133 9.62668C12.2267 9.78001 13.2333 9.62001 13.94 9.14668C14.88 8.52001 14.88 7.49334 13.94 6.86668C13.2267 6.39335 12.2067 6.23334 11.2933 6.39334" stroke="#C8D8E8" stroke-width="1.5" stroke-linecap="round" stroke-linejoin="round"/>
<path d="M3.97995 4.77334C4.01995 4.76667 4.06661 4.76667 4.10661 4.77334C5.02661 4.74001 5.75995 3.98667 5.75995 3.05334C5.75995 2.1 4.99328 1.33334 4.03995 1.33334C3.08661 1.33334 2.31995 2.10667 2.31995 3.05334C2.32661 3.98667 3.05995 4.74001 3.97995 4.77334Z" stroke="#C8D8E8" stroke-width="1.5" stroke-linecap="round" stroke-linejoin="round"/>
<path d="M4.66663 9.62668C3.75329 9.78001 2.74663 9.62001 2.03996 9.14668C1.09996 8.52001 1.09996 7.49334 2.03996 6.86668C2.75329 6.39335 3.77329 6.23334 4.68663 6.39334" stroke="#C8D8E8" stroke-width="1.5" stroke-linecap="round" stroke-linejoin="round"/>
<path d="M7.99997 9.75333C7.95997 9.74667 7.9133 9.74667 7.8733 9.75333C6.9533 9.72 6.21997 8.96667 6.21997 8.03333C6.21997 7.08 6.98664 6.31333 7.93997 6.31333C8.8933 6.31333 9.65997 7.08667 9.65997 8.03333C9.6533 8.96667 8.91997 9.72667 7.99997 9.75333Z" stroke="#C8D8E8" stroke-width="1.5" stroke-linecap="round" stroke-linejoin="round"/>
<path d="M6.05998 11.8533C5.11998 12.48 5.11998 13.5067 6.05998 14.1333C7.12665 14.8467 8.87331 14.8467 9.93998 14.1333C10.88 13.5067 10.88 12.48 9.93998 11.8533C8.87998 11.1467 7.12665 11.1467 6.05998 11.8533Z" stroke="#C8D8E8" stroke-width="1.5" stroke-linecap="round" stroke-linejoin="round"/>
</svg>
