<svg width="93" height="33" viewBox="0 0 93 33" fill="none" xmlns="http://www.w3.org/2000/svg">
<path d="M0.00114222 16.7754C-0.0275963 19.1742 0.486469 21.5337 1.48656 23.6539C1.98769 24.7163 3.25392 25.2122 4.20861 24.5278C6.26156 23.0562 7.66039 20.1363 7.66039 16.7754C7.66039 13.4164 6.26677 10.5038 4.2216 9.0308C3.26845 8.3443 2.00085 8.83657 1.49725 9.89778C0.492012 12.016 -0.0258655 14.3757 0.00114222 16.7754Z" fill="#FCFCFC"/>
<g style="mix-blend-mode:overlay" opacity="0.1">
<path d="M3.6342 11.3255C2.72051 10.1803 1.06974 10.75 0.661611 12.157C0.229432 13.6469 0.00744629 15.2039 0.00744629 16.7753C0.00744629 18.3477 0.229687 19.9055 0.662357 21.3962C1.07042 22.8021 2.72003 23.3727 3.63382 22.229C4.71868 20.8711 5.39862 18.9335 5.39862 16.7753C5.39862 14.6191 4.71739 12.6831 3.6342 11.3255Z" fill="#FCFCFC"/>
</g>
<g style="mix-blend-mode:multiply" opacity="0.2">
<path d="M7.318 13.957C7.01199 12.7377 6.24043 13.48 6.44542 14.7202C6.55474 15.3816 6.61246 16.0694 6.61246 16.7756C6.61246 17.4692 6.55699 18.1448 6.45174 18.7949C6.25073 20.0364 7.02467 20.7785 7.32692 19.5576C7.54326 18.6837 7.66047 17.7483 7.66047 16.7756C7.66047 15.7896 7.54004 14.8416 7.318 13.957Z" fill="#FCFCFC"/>
</g>
<path d="M22.9941 19.6434L22.7314 19.5782C22.0007 19.4083 21.2396 19.479 20.5466 19.7812C19.8536 20.0833 19.2606 20.6031 18.8444 21.2731C17.7511 23.0266 16.102 23.8251 14.1812 23.8251C13.4146 23.8321 12.6527 23.6976 11.9281 23.4275C11.0748 23.0919 10.1364 23.1098 9.29458 23.4777C8.45274 23.8455 7.76722 24.5372 7.37061 25.419C7.14225 25.9262 7.01752 26.4805 7.00486 27.0442C6.99219 27.608 7.0919 28.1681 7.29723 28.6867C7.50255 29.2053 7.80871 29.6702 8.19497 30.05C8.58123 30.4298 9.03859 30.7157 9.5361 30.8882C11.0397 31.3943 12.6062 31.6493 14.1812 31.6444C18.7115 31.6444 22.7374 29.5453 25.2049 26.0122C25.5819 25.4702 25.8263 24.8346 25.9156 24.1638C26.0049 23.4931 25.9363 22.8088 25.716 22.1743C25.4957 21.5397 25.1309 20.9752 24.6552 20.5329C24.1795 20.0906 23.6083 19.7847 22.9941 19.6434Z" fill="#FCFCFC"/>
<path d="M7.37062 8.15102C7.76958 9.03443 8.45799 9.72675 9.30265 10.094C10.1473 10.4613 11.0882 10.4774 11.9432 10.1392C12.6624 9.86813 13.4194 9.73252 14.1812 9.73832C16.0386 9.73832 17.6423 10.5141 18.6783 12.1633C19.1035 12.8639 19.717 13.4076 20.4365 13.7216C21.156 14.0356 21.9472 14.1048 22.7042 13.9201L23.0062 13.8386C23.6132 13.6823 24.1742 13.3646 24.6383 12.9144C25.1023 12.4642 25.4546 11.8958 25.6629 11.2611C25.8713 10.6264 25.9292 9.94542 25.8312 9.28036C25.7333 8.61531 25.4827 7.98728 25.1023 7.45352C22.5955 3.96926 18.5846 1.9126 14.1721 1.9126C12.5978 1.91561 11.0332 2.17943 9.53309 2.69484C9.03654 2.86825 8.58021 3.15451 8.19486 3.53433C7.8095 3.91415 7.50406 4.37871 7.29913 4.89669C7.0942 5.41468 6.99455 5.97405 7.00688 6.53711C7.01921 7.10017 7.14324 7.65384 7.37062 8.16079V8.15102Z" fill="#FCFCFC"/>
<g style="mix-blend-mode:multiply" opacity="0.5">
<g style="mix-blend-mode:multiply" opacity="0.5">
<path d="M22.9366 19.6438L22.7312 19.5949C22.0021 19.4233 21.242 19.4916 20.5492 19.7908C19.8563 20.09 19.2624 20.6064 18.8442 21.2735C17.7509 23.027 16.1019 23.8256 14.181 23.8256C13.4145 23.8325 12.6525 23.698 11.928 23.4279C11.2827 23.1775 10.5857 23.1256 9.91471 23.2781C9.24374 23.4307 8.62531 23.7816 8.12854 24.2917C9.28701 25.3748 10.6784 26.1275 12.1758 26.4809C13.6732 26.8344 15.2287 26.7775 16.7004 26.3152C18.1721 25.853 19.5131 25.0003 20.6009 23.8349C21.6886 22.6695 22.4885 21.2286 22.9276 19.6438H22.9366Z" fill="#FCFCFC"/>
</g>
<g style="mix-blend-mode:multiply" opacity="0.5">
<path d="M8.14856 9.2986C8.64769 9.80231 9.26608 10.1474 9.93547 10.2958C10.6049 10.4442 11.2992 10.3901 11.9419 10.1395C12.6611 9.86841 13.4181 9.7328 14.1799 9.7386C16.0373 9.7386 17.6411 10.5143 18.677 12.1636C19.1023 12.8642 19.7157 13.4079 20.4352 13.7219C21.1547 14.0359 21.946 14.1051 22.7029 13.9204L22.9083 13.8682C22.4572 12.2978 21.6508 10.8733 20.5619 9.72335C19.473 8.57339 18.1359 7.73414 16.6713 7.28134C15.2067 6.82854 13.6607 6.77645 12.1727 7.12977C10.6848 7.48309 9.30179 8.23069 8.14856 9.30511V9.2986Z" fill="#FCFCFC"/>
</g>
</g>
<g style="mix-blend-mode:overlay" opacity="0.3">
<g style="mix-blend-mode:overlay" opacity="0.3">
<path d="M14.1477 30.5428C11.6724 30.546 9.25041 29.7676 7.18005 28.3036C7.35111 28.9063 7.65551 29.4551 8.06698 29.9026C8.47845 30.3501 8.98464 30.6828 9.54186 30.872C11.0455 31.378 12.6119 31.633 14.1869 31.6281C18.7172 31.6281 22.7432 29.5291 25.2107 25.9959C25.5644 25.491 25.8005 24.9018 25.8993 24.2779C25.9981 23.654 25.9567 23.0137 25.7785 22.4106C24.7743 24.8332 23.1416 26.8903 21.0777 28.3334C19.0138 29.7764 16.6069 30.5438 14.1477 30.5428Z" fill="#FCFCFC"/>
</g>
<g style="mix-blend-mode:overlay" opacity="0.3">
<path d="M14.148 3.04685C16.588 3.04691 18.9766 3.80318 21.0299 5.22572C23.0832 6.64827 24.7147 8.67726 25.7305 11.0714C25.9086 10.4606 25.9466 9.81232 25.8414 9.18216C25.7362 8.552 25.4909 7.95882 25.1265 7.45352C22.6197 3.96926 18.6088 1.9126 14.1963 1.9126C12.6139 1.91293 11.041 2.17679 9.53312 2.69484C8.97044 2.88634 8.4601 3.22439 8.04715 3.67914C7.63419 4.13389 7.33133 4.69135 7.16528 5.30233C9.23759 3.82791 11.6659 3.04355 14.148 3.04685Z" fill="#FCFCFC"/>
</g>
</g>
<path d="M40.0549 10.1397C40.3548 10.2897 40.5278 10.5262 40.5739 10.8491C40.6316 11.1721 40.5509 11.4662 40.3317 11.7316C40.1818 11.9392 39.9857 12.0545 39.7434 12.0776C39.5127 12.1007 39.2763 12.0545 39.034 11.9392C38.7572 11.8123 38.4631 11.7142 38.1516 11.645C37.8517 11.5758 37.5345 11.5412 37.2 11.5412C36.5771 11.5412 36.0177 11.6393 35.5217 11.8354C35.0372 12.0315 34.6219 12.3141 34.2759 12.6832C33.9298 13.0408 33.6645 13.4676 33.48 13.9636C33.307 14.4596 33.2204 15.0075 33.2204 15.6073C33.2204 16.3109 33.3185 16.9222 33.5146 17.4413C33.7222 17.9604 34.0048 18.3929 34.3624 18.739C34.72 19.085 35.141 19.3446 35.6255 19.5176C36.1099 19.6791 36.6348 19.7598 37.2 19.7598C37.5114 19.7598 37.8229 19.731 38.1343 19.6733C38.4458 19.6156 38.7457 19.5118 39.034 19.3619C39.2763 19.2465 39.5127 19.2062 39.7434 19.2408C39.9857 19.2754 40.1875 19.3965 40.349 19.6041C40.5797 19.8925 40.6604 20.1924 40.5912 20.5038C40.5336 20.8037 40.3605 21.0229 40.0722 21.1613C39.7723 21.3113 39.4608 21.4382 39.1378 21.542C38.8264 21.6342 38.5092 21.7035 38.1862 21.7496C37.8632 21.8073 37.5345 21.8361 37.2 21.8361C36.3695 21.8361 35.5793 21.7035 34.8296 21.4382C34.0913 21.1729 33.4281 20.7807 32.8398 20.2616C32.2631 19.7425 31.8074 19.0966 31.4729 18.3237C31.1384 17.5394 30.9711 16.6339 30.9711 15.6073C30.9711 14.7191 31.1211 13.9001 31.421 13.1503C31.7324 12.4006 32.165 11.7546 32.7187 11.2125C33.2839 10.6588 33.9471 10.232 34.7084 9.93211C35.4698 9.62067 36.3003 9.46495 37.2 9.46495C37.7075 9.46495 38.2035 9.52262 38.688 9.63797C39.1724 9.75332 39.6281 9.92057 40.0549 10.1397ZM51.2314 17.0434C51.2314 17.9892 51.018 18.8255 50.5912 19.5522C50.1759 20.2674 49.6107 20.8268 48.8955 21.2305C48.1919 21.6342 47.4018 21.8361 46.5251 21.8361C45.6485 21.8361 44.8526 21.6342 44.1374 21.2305C43.4338 20.8268 42.8686 20.2674 42.4418 19.5522C42.0265 18.8255 41.8189 17.9892 41.8189 17.0434C41.8189 16.0975 42.0265 15.267 42.4418 14.5518C42.8686 13.8251 43.4338 13.2599 44.1374 12.8562C44.8526 12.4409 45.6485 12.2333 46.5251 12.2333C47.4018 12.2333 48.1919 12.4409 48.8955 12.8562C49.6107 13.2599 50.1759 13.8251 50.5912 14.5518C51.018 15.267 51.2314 16.0975 51.2314 17.0434ZM49.1551 17.0434C49.1551 16.4551 49.034 15.9476 48.7917 15.5208C48.561 15.0824 48.2438 14.7422 47.8401 14.4999C47.4479 14.2577 47.0096 14.1366 46.5251 14.1366C46.0407 14.1366 45.5966 14.2577 45.1928 14.4999C44.8007 14.7422 44.4835 15.0824 44.2412 15.5208C44.0105 15.9476 43.8952 16.4551 43.8952 17.0434C43.8952 17.6201 44.0105 18.1276 44.2412 18.566C44.4835 18.9928 44.8007 19.3273 45.1928 19.5695C45.5966 19.8117 46.0407 19.9329 46.5251 19.9329C47.0096 19.9329 47.4479 19.8117 47.8401 19.5695C48.2438 19.3273 48.561 18.9928 48.7917 18.566C49.034 18.1276 49.1551 17.6201 49.1551 17.0434ZM57.997 12.2333C58.8506 12.2333 59.4965 12.4121 59.9348 12.7697C60.3847 13.1273 60.6904 13.606 60.8519 14.2058C61.0249 14.7941 61.1114 15.4516 61.1114 16.1782V20.6076C61.1114 20.9076 61.0133 21.1613 60.8173 21.3689C60.6212 21.565 60.3732 21.6631 60.0733 21.6631C59.7733 21.6631 59.5253 21.565 59.3293 21.3689C59.1332 21.1613 59.0351 20.9076 59.0351 20.6076V16.1782C59.0351 15.7976 58.9832 15.4573 58.8794 15.1574C58.7871 14.846 58.6141 14.598 58.3603 14.4134C58.1066 14.2289 57.7432 14.1366 57.2703 14.1366C56.8089 14.1366 56.4167 14.2289 56.0937 14.4134C55.7823 14.598 55.54 14.846 55.367 15.1574C55.2055 15.4573 55.1248 15.7976 55.1248 16.1782V20.6076C55.1248 20.9076 55.0267 21.1613 54.8306 21.3689C54.6346 21.565 54.3866 21.6631 54.0866 21.6631C53.7867 21.6631 53.5387 21.565 53.3426 21.3689C53.1466 21.1613 53.0485 20.9076 53.0485 20.6076V13.4618C53.0485 13.1619 53.1466 12.9139 53.3426 12.7178C53.5387 12.5102 53.7867 12.4063 54.0866 12.4063C54.3866 12.4063 54.6346 12.5102 54.8306 12.7178C55.0267 12.9139 55.1248 13.1619 55.1248 13.4618V14.2058L54.8653 14.1539C54.9691 13.9578 55.119 13.7502 55.3151 13.531C55.5112 13.3003 55.7419 13.0869 56.0072 12.8908C56.2725 12.6947 56.5724 12.539 56.9069 12.4236C57.2414 12.2968 57.6048 12.2333 57.997 12.2333ZM63.6863 12.4063C63.9055 12.4063 64.1074 12.464 64.2919 12.5794C64.4765 12.6832 64.6149 12.8447 64.7072 13.0638L67.2506 18.8774L66.87 19.0504L69.4653 13.0811C69.6614 12.6197 69.9671 12.4006 70.3823 12.4236C70.6707 12.4236 70.9014 12.5159 71.0744 12.7005C71.259 12.8735 71.3513 13.0927 71.3513 13.358C71.3513 13.4387 71.334 13.5252 71.2994 13.6175C71.2763 13.7098 71.2474 13.7963 71.2128 13.877L67.9773 21.0056C67.7927 21.4209 67.4986 21.64 67.0949 21.6631C66.8757 21.6977 66.6623 21.6573 66.4547 21.542C66.2586 21.4266 66.1087 21.2478 66.0048 21.0056L62.7866 13.877C62.7635 13.8194 62.7347 13.7444 62.7001 13.6521C62.677 13.5598 62.6655 13.4502 62.6655 13.3234C62.6655 13.1157 62.7578 12.9139 62.9423 12.7178C63.1269 12.5102 63.3749 12.4063 63.6863 12.4063ZM81.8822 17.0434C81.8822 17.9892 81.6688 18.8255 81.242 19.5522C80.8267 20.2674 80.2615 20.8268 79.5463 21.2305C78.8427 21.6342 78.0526 21.8361 77.1759 21.8361C76.2993 21.8361 75.5034 21.6342 74.7882 21.2305C74.0846 20.8268 73.5194 20.2674 73.0926 19.5522C72.6773 18.8255 72.4697 17.9892 72.4697 17.0434C72.4697 16.0975 72.6773 15.267 73.0926 14.5518C73.5194 13.8251 74.0846 13.2599 74.7882 12.8562C75.5034 12.4409 76.2993 12.2333 77.1759 12.2333C78.0526 12.2333 78.8427 12.4409 79.5463 12.8562C80.2615 13.2599 80.8267 13.8251 81.242 14.5518C81.6688 15.267 81.8822 16.0975 81.8822 17.0434ZM79.8059 17.0434C79.8059 16.4551 79.6848 15.9476 79.4425 15.5208C79.2118 15.0824 78.8946 14.7422 78.4909 14.4999C78.0987 14.2577 77.6604 14.1366 77.1759 14.1366C76.6915 14.1366 76.2474 14.2577 75.8437 14.4999C75.4515 14.7422 75.1343 15.0824 74.892 15.5208C74.6613 15.9476 74.546 16.4551 74.546 17.0434C74.546 17.6201 74.6613 18.1276 74.892 18.566C75.1343 18.9928 75.4515 19.3273 75.8437 19.5695C76.2474 19.8117 76.6915 19.9329 77.1759 19.9329C77.6604 19.9329 78.0987 19.8117 78.4909 19.5695C78.8946 19.3273 79.2118 18.9928 79.4425 18.566C79.6848 18.1276 79.8059 17.6201 79.8059 17.0434ZM90.5683 12.4063C90.8682 12.4063 91.1162 12.5102 91.3123 12.7178C91.5084 12.9139 91.6065 13.1619 91.6065 13.4618V20.8153C91.6065 21.8765 91.4046 22.7185 91.0009 23.3414C90.6087 23.9758 90.0781 24.4315 89.4091 24.7083C88.7401 24.9851 87.9903 25.1236 87.1598 25.1236C86.7907 25.1236 86.3985 25.0947 85.9832 25.037C85.568 24.9794 85.2277 24.8929 84.9624 24.7775C84.6163 24.6276 84.3741 24.4372 84.2357 24.2065C84.1088 23.9874 84.0857 23.7509 84.1665 23.4971C84.2703 23.1626 84.4375 22.9319 84.6682 22.805C84.8989 22.6897 85.1412 22.6782 85.3949 22.7704C85.5795 22.8281 85.8217 22.9146 86.1216 23.03C86.4215 23.1569 86.7676 23.2203 87.1598 23.2203C87.6904 23.2203 88.1287 23.1453 88.4748 22.9954C88.8323 22.8569 89.0976 22.6147 89.2707 22.2687C89.4552 21.9342 89.5475 21.4728 89.5475 20.8845V19.7252L89.9108 20.1405C89.7148 20.5211 89.4668 20.8383 89.1668 21.0921C88.8785 21.3343 88.5324 21.5189 88.1287 21.6458C87.725 21.7727 87.2636 21.8361 86.7445 21.8361C86.1332 21.8361 85.5968 21.6977 85.1354 21.4209C84.6855 21.1325 84.3337 20.7403 84.08 20.2443C83.8262 19.7368 83.6993 19.16 83.6993 18.5141V13.4618C83.6993 13.1619 83.7974 12.9139 83.9934 12.7178C84.1895 12.5102 84.4375 12.4063 84.7374 12.4063C85.0374 12.4063 85.2854 12.5102 85.4814 12.7178C85.6775 12.9139 85.7756 13.1619 85.7756 13.4618V17.8912C85.7756 18.6409 85.9371 19.1716 86.2601 19.483C86.5946 19.7829 87.056 19.9329 87.6442 19.9329C88.048 19.9329 88.3882 19.8579 88.6651 19.7079C88.9419 19.5464 89.1553 19.3157 89.3053 19.0158C89.4552 18.7044 89.5302 18.3295 89.5302 17.8912V13.4618C89.5302 13.1619 89.6282 12.9139 89.8243 12.7178C90.0204 12.5102 90.2684 12.4063 90.5683 12.4063Z" fill="#FCFCFC"/>
</svg>
