<svg width="16" height="16" viewBox="0 0 16 16" fill="none" xmlns="http://www.w3.org/2000/svg">
<path d="M9.88669 7.52667L7.06002 4.70001C6.99805 4.63752 6.92431 4.58792 6.84307 4.55408C6.76183 4.52023 6.6747 4.50281 6.58669 4.50281C6.49868 4.50281 6.41154 4.52023 6.33031 4.55408C6.24907 4.58792 6.17533 4.63752 6.11336 4.70001C5.98919 4.82491 5.91949 4.99388 5.91949 5.17001C5.91949 5.34613 5.98919 5.5151 6.11336 5.64001L8.47336 8.00001L6.11336 10.36C5.98919 10.4849 5.91949 10.6539 5.91949 10.83C5.91949 11.0061 5.98919 11.1751 6.11336 11.3C6.17565 11.3618 6.24953 11.4107 6.33075 11.4439C6.41198 11.477 6.49895 11.4938 6.58669 11.4933C6.67443 11.4938 6.7614 11.477 6.84263 11.4439C6.92385 11.4107 6.99773 11.3618 7.06002 11.3L9.88669 8.47334C9.94918 8.41136 9.99877 8.33763 10.0326 8.25639C10.0665 8.17515 10.0839 8.08801 10.0839 8.00001C10.0839 7.912 10.0665 7.82486 10.0326 7.74362C9.99877 7.66238 9.94918 7.58865 9.88669 7.52667Z" fill="white"/>
</svg>
