<svg width="21" height="21" viewBox="0 0 21 21" fill="none" xmlns="http://www.w3.org/2000/svg">
<path d="M7.61289 16.2357L6.98548 15.5963C6.81939 15.4271 6.72607 15.1975 6.72607 14.9581C6.72607 14.7188 6.81939 14.4892 6.98548 14.32L10.7352 10.5013L6.98622 6.68155C6.90392 6.59774 6.83864 6.49822 6.7941 6.38868C6.74955 6.27914 6.72663 6.16174 6.72663 6.04317C6.72663 5.9246 6.74955 5.8072 6.7941 5.69766C6.83864 5.58813 6.90392 5.48861 6.98622 5.40479L7.61363 4.76547C7.69592 4.68132 7.7937 4.61456 7.90136 4.569C8.00903 4.52345 8.12446 4.5 8.24104 4.5C8.35761 4.5 8.47304 4.52345 8.58071 4.569C8.68837 4.61456 8.78615 4.68132 8.86844 4.76547L13.8667 9.86199C14.0328 10.0313 14.1261 10.2608 14.1261 10.5002C14.1261 10.7396 14.0328 10.9691 13.8667 11.1384L8.86549 16.2357C8.69938 16.4049 8.4741 16.5 8.23919 16.5C8.00429 16.5 7.779 16.4049 7.61289 16.2357Z" fill="#477DB3"/>
</svg>
