<svg width="24" height="24" viewBox="0 0 24 24" fill="none" xmlns="http://www.w3.org/2000/svg">
<path d="M16.6477 9.52455L16.6481 9.52494C16.695 9.57142 16.7322 9.62672 16.7575 9.68765C16.7829 9.74859 16.796 9.81394 16.796 9.87994C16.796 9.94595 16.7829 10.0113 16.7575 10.0722C16.7322 10.133 16.6951 10.1882 16.6484 10.2346C16.6483 10.2347 16.6482 10.2348 16.6481 10.2349L12.3587 14.4743L12.3587 14.4743L12.3552 14.4778C12.3087 14.5247 12.2534 14.5619 12.1925 14.5873C12.1316 14.6127 12.0662 14.6257 12.0002 14.6257C11.9342 14.6257 11.8688 14.6127 11.8079 14.5873C11.747 14.5619 11.6917 14.5247 11.6452 14.4778L11.6452 14.4778L11.6437 14.4764L7.40375 10.2364L7.40375 10.2364L7.40229 10.2349C7.35543 10.1885 7.31823 10.1332 7.29285 10.0722C7.26746 10.0113 7.25439 9.94595 7.25439 9.87994C7.25439 9.81394 7.26746 9.74858 7.29285 9.68765C7.31823 9.62673 7.35543 9.57142 7.40229 9.52494L7.40269 9.52455C7.49637 9.43142 7.6231 9.37915 7.75519 9.37915C7.88708 9.37915 8.01361 9.43125 8.10724 9.5241C8.10739 9.52425 8.10754 9.5244 8.10769 9.52455L11.6466 13.0635L11.9977 13.4146L12.3513 13.066L15.9413 9.52597L15.9427 9.52455C16.0364 9.43142 16.1631 9.37915 16.2952 9.37915C16.4273 9.37915 16.554 9.43142 16.6477 9.52455Z" fill="#000624" stroke="#000624"/>
</svg>
