<svg width="24" height="24" viewBox="0 0 24 24" fill="none" xmlns="http://www.w3.org/2000/svg">
<path d="M11.0737 6.81836C10.8003 7.0918 10.8276 7.50195 11.0737 7.77539L14.3823 10.8926H6.53467C6.15186 10.8926 5.87842 11.1934 5.87842 11.5488V12.4238C5.87842 12.8066 6.15186 13.0801 6.53467 13.0801H14.3823L11.0737 16.2246C10.8276 16.498 10.8276 16.9082 11.0737 17.1816L11.6753 17.7832C11.9487 18.0293 12.3589 18.0293 12.605 17.7832L17.937 12.4512C18.1831 12.2051 18.1831 11.7949 17.937 11.5215L12.605 6.2168C12.3589 5.9707 11.9487 5.9707 11.6753 6.2168L11.0737 6.81836Z" fill="white"/>
</svg>
