<svg id="logomark" xmlns="http://www.w3.org/2000/svg" fill="none" viewBox="0 0 112 28">
    <path id="logomark-path" fill="#04000C" fill-rule="evenodd" d="M78.208 2.328v2.037h3.582V.291h-3.582v2.037zM0 10.928v10.5h3.554l.007-.908.008-.91.12.165c.705.953 1.95 1.64 3.325 1.832.62.087 1.658.05 2.368-.084 2.078-.392 3.68-1.601 4.593-3.47.581-1.188.846-2.433.846-3.98 0-1.033-.106-1.837-.356-2.709a6.375 6.375 0 00-.49-1.27c-1.02-2.082-2.82-3.31-5.236-3.568a11.132 11.132 0 00-1.603 0c-.84.1-1.716.404-2.35.814-.394.255-.77.594-1.114 1.004l-.115.137-.001-4.027L3.555.428H0v10.5zm68.637-4.92c-2.073.161-3.877 1.146-4.882 2.664-.478.723-.734 1.407-.86 2.303-.03.212-.038.972-.011 1.131l.016.098.346-.347a6.01 6.01 0 012.032-1.35c1.602-.66 3.493-.699 5.242-.107.463.156.723.267 1.152.492 1.692.886 2.93 2.322 3.47 4.029.072.227.194.794.194.902 0 .045.008.082.017.082.028 0 .116-.116.341-.448.51-.753.788-1.561.873-2.529.094-1.068-.218-2.318-.839-3.36-.54-.908-1.452-1.82-2.398-2.4-1.405-.86-3.113-1.282-4.693-1.16zm36.629.464a7.257 7.257 0 00-1.627.34 7.265 7.265 0 00-1.286.664c-.532.378-1.062.984-1.333 1.525-.286.57-.391 1.015-.409 1.736-.016.608.015.949.129 1.406.177.714.457 1.212.95 1.688.275.265.547.457.898.634.725.366 1.327.532 2.992.826.932.165 1.509.294 1.832.41.623.225 1.002.55 1.153.99.052.15.064.243.064.488 0 .301 0 .304-.116.537a1.237 1.237 0 01-.321.426c-.855.798-2.722.839-3.747.082-.523-.387-.85-.947-.957-1.642l-.016-.103h-3.259l.018.248c.091 1.197.584 2.323 1.38 3.15.959.997 2.302 1.58 3.961 1.719.473.04 1.502.017 1.906-.043 1.482-.216 2.571-.721 3.383-1.566.808-.842 1.195-1.948 1.132-3.234-.076-1.578-.583-2.618-1.611-3.312-.711-.48-1.649-.767-3.202-.979-1.716-.235-2.076-.312-2.571-.549-.515-.247-.78-.658-.778-1.209.001-.798.565-1.35 1.554-1.526.29-.051.883-.04 1.168.023 1.063.234 1.775.922 1.993 1.926l.016.075h3.253v-.11c0-.342-.15-1-.332-1.463-.631-1.596-2.181-2.73-4.18-3.06-.631-.103-1.51-.145-2.037-.097zm-52.503.03c-.226.008-.472.024-.547.035a9.106 9.106 0 00-.78.13c-2.986.637-5.101 2.91-5.605 6.024-.052.32-.109 1.05-.109 1.396 0 .716.123 1.634.305 2.27.372 1.299.962 2.322 1.853 3.214 1.118 1.118 2.439 1.763 4.117 2.01.618.09 1.657.096 2.325.013.971-.121 2.02-.46 2.816-.91 1.642-.928 2.774-2.45 3.116-4.19l.057-.281.014-.062H56.7l-.063.199c-.347 1.091-1.228 1.86-2.439 2.13-.252.056-.358.064-.875.064-.516 0-.623-.008-.875-.064-.928-.207-1.669-.704-2.187-1.468a4.89 4.89 0 01-.668-1.626l-.063-.329c-.066-.34-.066-1.6 0-1.982.26-1.51.93-2.547 2.006-3.097.289-.148.567-.244.94-.325.329-.072 1.254-.072 1.577-.001 1.329.291 2.294 1.138 2.572 2.254l.042.17H60.214v-.081c0-.121-.075-.534-.151-.837-.526-2.07-2.193-3.683-4.493-4.344-.9-.258-1.765-.355-2.807-.313zm-35.972 4.83c0 2.65.011 4.858.025 5.03.198 2.384 1.513 4.205 3.52 4.874.704.235 1.274.315 2.1.295.605-.015.933-.056 1.39-.171 1.263-.32 2.272-1.038 2.866-2.041l.147-.25.008 1.125.007 1.126h3.581V6.608h-3.58l-.01 4.3c-.01 4.754.003 4.423-.186 5.035-.295.956-.901 1.685-1.734 2.084a3.393 3.393 0 01-1.62.332c-.808-.04-1.46-.318-1.978-.842-.53-.535-.85-1.273-.928-2.145-.014-.15-.025-2.184-.026-4.519V6.608H16.79v4.724zm75.376-4.706a8.35 8.35 0 00-.947.16c-1.278.323-2.266 1.038-2.894 2.093l-.137.23V6.828h-3.583v14.711h3.58l.01-4.272c.01-3.89.014-4.294.057-4.505.234-1.17.762-1.988 1.62-2.508 1.085-.66 2.567-.619 3.529.096.605.45.987 1.082 1.192 1.974l.06.26.008 4.478.009 4.477h3.582l-.009-4.997-.009-4.997-.072-.383c-.253-1.34-.775-2.35-1.632-3.164-.782-.742-1.798-1.2-2.985-1.347-.305-.038-1.149-.053-1.379-.024zm-13.96 7.42v7.356h3.582V6.69h-3.581v7.356zM31.734 6.765c.06.156.331.893.605 1.648l.175.478c.029.075.096.26.15.41.166.456.316.868.37 1.012a2717.912 2717.912 0 002.365 6.48c.271.75.543 1.495.588 1.614.089.236.248.67.37 1.012.066.18.157.433.205.56l.11.301c.012.038.105.29.207.561.102.27.185.535.185.588 0 .053-.057.256-.126.451a178.615 178.615 0 00-.717 2.051 455.795 455.795 0 00-.534 1.531l-.11.315c-.025.076-.4 1.155-.489 1.407-.032.09-.058.173-.058.185 0 .032 3.384.027 3.404-.005.014-.022.473-1.35.644-1.86.027-.083.181-.533.341-.999.16-.466.315-.915.342-.998.271-.81.971-2.84 1.074-3.117.054-.143.198-.537.322-.875a1140.56 1140.56 0 011.258-3.432 414.279 414.279 0 01.75-2.051c.066-.18.155-.427.2-.547a197.864 197.864 0 01.701-1.907c.052-.14.144-.388.203-.554l.196-.533.205-.56.2-.548.842-2.295c.066-.18.12-.337.12-.349 0-.012-.823-.022-1.829-.022h-1.829l-.07.198a28393.46 28393.46 0 01-3.271 9.752l-.047.148-.098-.284a1087.386 1087.386 0 01-2.153-6.368 326.569 326.569 0 00-1.162-3.418c-.012-.019-.614-.028-1.837-.028-1.722 0-1.82.003-1.802.048zM8.231 9.68c.158.037.38.101.492.142 1.237.447 2.124 1.553 2.42 3.016.258 1.274.102 2.665-.41 3.668-.564 1.1-1.451 1.763-2.68 2-.298.059-1.274.05-1.586-.012-1.743-.352-2.88-1.727-3.103-3.751a8.436 8.436 0 01.001-1.348c.206-1.888 1.206-3.206 2.774-3.657.12-.034.311-.077.424-.095.113-.018.223-.037.246-.042a9.28 9.28 0 01.588 0c.464.009.59.02.834.079zm54.508 2.747c-.58.766-.913 1.6-1.035 2.59-.152 1.241.193 2.604.954 3.772.893 1.372 2.296 2.425 3.954 2.969 1.91.626 3.903.514 5.593-.315 1.672-.82 2.787-2.237 3.1-3.938.082-.45.11-1.01.068-1.405l-.017-.17-.231.248c-.778.833-1.871 1.463-3.065 1.764-2.617.662-5.548-.181-7.41-2.133-.843-.882-1.419-1.942-1.66-3.055a3.435 3.435 0 01-.068-.402c0-.044-.01-.087-.022-.094-.013-.008-.085.069-.161.17z" clip-rule="evenodd"></path>
</svg>