<svg width="467" height="551" viewBox="0 0 467 551" fill="none" xmlns="http://www.w3.org/2000/svg">
<path d="M190.2 224.999C190.092 233.321 192.317 241.488 196.595 248.586C197.503 250.093 199.333 250.8 200.949 250.105C209.274 246.521 215.258 236.633 215.258 224.999C215.258 213.368 209.293 203.506 200.996 199.91C199.381 199.211 197.55 199.913 196.638 201.417C192.339 208.507 190.099 216.673 190.2 224.999Z" fill="#477DB3"/>
<g style="mix-blend-mode:overlay" opacity="0.1">
<path d="M198.809 205.478C197.022 204.188 194.621 205.076 193.778 207.113C191.433 212.772 190.219 218.849 190.219 224.999C190.219 231.151 191.434 237.229 193.779 242.89C194.622 244.924 197.021 245.814 198.808 244.526C204.212 240.633 207.857 233.363 207.857 224.999C207.857 216.64 204.201 209.373 198.809 205.478Z" fill="white"/>
</g>
<g style="mix-blend-mode:multiply" opacity="0.2">
<path d="M209 206.176C207.754 204.626 206.422 206.466 207.428 208.181C210.192 212.891 211.829 218.703 211.829 224.999C211.829 231.274 210.209 237.062 207.463 241.759C206.459 243.476 207.793 245.317 209.037 243.764C212.88 238.965 215.258 232.332 215.258 224.999C215.258 217.643 212.865 210.984 209 206.176Z" fill="#477DB3"/>
</g>
<path d="M265.423 233.682L264.564 233.485C262.173 232.97 259.683 233.184 257.416 234.099C255.149 235.014 253.209 236.587 251.847 238.615C248.27 243.923 242.875 246.341 236.591 246.341C234.083 246.362 231.59 245.955 229.22 245.137C226.428 244.121 223.358 244.175 220.604 245.289C217.85 246.403 215.607 248.496 214.309 251.166C213.562 252.701 213.154 254.379 213.113 256.086C213.071 257.792 213.398 259.488 214.069 261.058C214.741 262.627 215.743 264.035 217.006 265.185C218.27 266.334 219.766 267.2 221.394 267.722C226.313 269.254 231.438 270.026 236.591 270.011C251.412 270.011 264.583 263.657 272.656 252.961C273.889 251.321 274.689 249.396 274.981 247.366C275.273 245.336 275.049 243.264 274.328 241.343C273.607 239.422 272.414 237.714 270.858 236.375C269.301 235.036 267.432 234.11 265.423 233.682Z" fill="#477DB3"/>
<path d="M214.309 198.892C215.615 201.566 217.867 203.662 220.63 204.774C223.394 205.886 226.472 205.934 229.269 204.911C231.622 204.09 234.099 203.68 236.591 203.697C242.668 203.697 247.914 206.045 251.303 211.038C252.695 213.159 254.702 214.805 257.056 215.755C259.409 216.706 261.998 216.915 264.475 216.356L265.463 216.109C267.448 215.636 269.284 214.675 270.802 213.312C272.32 211.949 273.473 210.228 274.154 208.307C274.836 206.385 275.025 204.324 274.705 202.311C274.385 200.298 273.565 198.396 272.32 196.781C264.119 186.233 250.997 180.007 236.561 180.007C231.411 180.016 226.292 180.815 221.384 182.375C219.76 182.9 218.267 183.767 217.006 184.917C215.745 186.066 214.746 187.473 214.076 189.041C213.405 190.609 213.079 192.302 213.119 194.006C213.16 195.711 213.566 197.387 214.309 198.922V198.892Z" fill="#477DB3"/>
<g style="mix-blend-mode:multiply" opacity="0.5">
<g style="mix-blend-mode:multiply" opacity="0.5">
<path d="M265.235 233.681L264.564 233.533C262.178 233.014 259.691 233.221 257.425 234.126C255.158 235.032 253.215 236.595 251.847 238.615C248.27 243.923 242.875 246.34 236.591 246.34C234.083 246.361 231.59 245.954 229.22 245.136C227.109 244.378 224.828 244.221 222.633 244.683C220.438 245.145 218.415 246.207 216.79 247.751C220.58 251.03 225.132 253.308 230.03 254.378C234.929 255.449 240.018 255.276 244.833 253.877C249.648 252.478 254.035 249.896 257.594 246.369C261.153 242.841 263.77 238.479 265.206 233.681H265.235Z" fill="#477DB3"/>
</g>
<g style="mix-blend-mode:multiply" opacity="0.5">
<path d="M216.858 202.365C218.491 203.89 220.514 204.934 222.704 205.383C224.894 205.833 227.165 205.669 229.268 204.91C231.621 204.09 234.098 203.679 236.59 203.697C242.667 203.697 247.913 206.045 251.302 211.038C252.694 213.159 254.701 214.804 257.055 215.755C259.409 216.705 261.997 216.915 264.474 216.356L265.146 216.198C263.67 211.444 261.031 207.132 257.469 203.651C253.907 200.169 249.532 197.629 244.741 196.258C239.949 194.888 234.891 194.73 230.023 195.799C225.155 196.869 220.631 199.132 216.858 202.385V202.365Z" fill="#477DB3"/>
</g>
</g>
<g style="mix-blend-mode:overlay" opacity="0.3">
<g style="mix-blend-mode:overlay" opacity="0.3">
<path d="M236.482 266.676C228.384 266.686 220.46 264.329 213.687 259.897C214.247 261.722 215.242 263.383 216.589 264.738C217.935 266.093 219.591 267.1 221.414 267.672C226.333 269.204 231.458 269.976 236.611 269.961C251.432 269.961 264.603 263.607 272.676 252.912C273.833 251.383 274.605 249.6 274.929 247.711C275.252 245.823 275.116 243.884 274.533 242.059C271.248 249.392 265.907 255.619 259.154 259.988C252.402 264.356 244.528 266.679 236.482 266.676Z" fill="white"/>
</g>
<g style="mix-blend-mode:overlay" opacity="0.3">
<path d="M236.482 183.441C244.465 183.441 252.279 185.73 258.997 190.037C265.714 194.343 271.052 200.485 274.375 207.733C274.958 205.884 275.082 203.921 274.738 202.013C274.394 200.106 273.591 198.31 272.399 196.781C264.198 186.233 251.076 180.007 236.64 180.007C231.463 180.008 226.317 180.807 221.384 182.375C219.543 182.955 217.874 183.978 216.523 185.355C215.172 186.732 214.181 188.419 213.638 190.269C220.417 185.805 228.362 183.431 236.482 183.441Z" fill="white"/>
</g>
</g>
<path d="M231.802 159.629L235.478 153.261L228.125 153.261L231.802 159.629ZM231.165 101.891L231.165 104.297L232.439 104.297L232.439 101.891L231.165 101.891ZM231.165 109.108L231.165 113.92L232.439 113.92L232.439 109.108L231.165 109.108ZM231.165 118.731L231.165 123.543L232.439 123.543L232.439 118.731L231.165 118.731ZM231.165 128.354L231.165 133.166L232.439 133.166L232.439 128.354L231.165 128.354ZM231.165 137.977L231.165 142.789L232.439 142.789L232.439 137.977L231.165 137.977ZM231.165 147.6L231.165 152.412L232.439 152.412L232.439 147.6L231.165 147.6ZM231.802 159.629L239.155 146.893L224.448 146.893L231.802 159.629ZM230.528 101.891L230.528 104.297L233.075 104.297L233.075 101.891L230.528 101.891ZM230.528 109.108L230.528 113.92L233.075 113.92L233.075 109.108L230.528 109.108ZM230.528 118.731L230.528 123.543L233.075 123.543L233.075 118.731L230.528 118.731ZM230.528 128.354L230.528 133.166L233.075 133.166L233.075 128.354L230.528 128.354ZM230.528 137.977L230.528 142.789L233.075 142.789L233.075 137.977L230.528 137.977ZM230.528 147.6L230.528 152.412L233.075 152.412L233.075 147.6L230.528 147.6Z" fill="#32587D"/>
<path d="M231.802 348.127L235.478 341.759H228.125L231.802 348.127ZM231.165 290.389V292.795H232.439V290.389H231.165ZM231.165 297.606V302.418H232.439V297.606H231.165ZM231.165 307.229V312.041H232.439V307.229H231.165ZM231.165 316.852V321.664H232.439V316.852H231.165ZM231.165 326.475V331.287H232.439V326.475H231.165ZM231.165 336.098V340.91H232.439V336.098H231.165ZM231.802 348.127L239.155 335.391H224.448L231.802 348.127ZM230.528 290.389V292.795H233.075V290.389H230.528ZM230.528 297.606V302.418H233.075V297.606H230.528ZM230.528 307.229V312.041H233.075V307.229H230.528ZM230.528 316.852V321.664H233.075V316.852H230.528ZM230.528 326.475V331.287H233.075V326.475H230.528ZM230.528 336.098V340.91H233.075V336.098H230.528Z" fill="#32587D"/>
<rect x="190.196" width="84.9091" height="84.9091" rx="42.4545" fill="#47B38D"/>
<path d="M227.024 40.2158C226.826 40.196 226.588 40.196 226.371 40.2158C221.655 40.0573 217.911 36.1939 217.911 31.439C217.911 26.5851 221.834 22.6425 226.707 22.6425C231.561 22.6425 235.504 26.5851 235.504 31.439C235.484 36.1939 231.74 40.0573 227.024 40.2158Z" stroke="white" stroke-width="2.54727" stroke-linecap="round" stroke-linejoin="round"/>
<path d="M241.388 26.605C245.232 26.605 248.322 29.7155 248.322 33.5392C248.322 37.2837 245.351 40.3348 241.646 40.4735C241.487 40.4537 241.309 40.4537 241.131 40.4735" stroke="white" stroke-width="2.54727" stroke-linecap="round" stroke-linejoin="round"/>
<path d="M217.118 47.5266C212.324 50.7362 212.324 55.9666 217.118 59.1563C222.567 62.8017 231.502 62.8017 236.95 59.1563C241.745 55.9467 241.745 50.7163 236.95 47.5266C231.522 43.901 222.586 43.901 217.118 47.5266Z" stroke="white" stroke-width="2.54727" stroke-linecap="round" stroke-linejoin="round"/>
<path d="M245.212 58.3043C246.638 58.0071 247.986 57.4325 249.095 56.5806C252.186 54.2626 252.186 50.4389 249.095 48.1208C248.005 47.2887 246.678 46.734 245.271 46.417" stroke="white" stroke-width="2.54727" stroke-linecap="round" stroke-linejoin="round"/>
<rect x="4.24545" y="430.489" width="74.72" height="74.72" rx="37.36" fill="#0DA2F3"/>
<path d="M37.5865 466.25C37.4449 466.236 37.2751 466.236 37.1195 466.25C33.7514 466.137 31.0768 463.377 31.0768 459.981C31.0768 456.514 33.8788 453.698 37.36 453.698C40.8272 453.698 43.6433 456.514 43.6433 459.981C43.6292 463.377 40.9545 466.137 37.5865 466.25Z" stroke="white" stroke-width="2.54727" stroke-linecap="round" stroke-linejoin="round"/>
<path d="M47.8463 456.528C50.5917 456.528 52.7993 458.75 52.7993 461.481C52.7993 464.155 50.6766 466.335 48.0303 466.434C47.917 466.42 47.7897 466.42 47.6623 466.434" stroke="white" stroke-width="2.54727" stroke-linecap="round" stroke-linejoin="round"/>
<path d="M30.5106 471.472C27.086 473.764 27.086 477.5 30.5106 479.779C34.4023 482.383 40.7846 482.383 44.6763 479.779C48.101 477.486 48.101 473.75 44.6763 471.472C40.7988 468.882 34.4165 468.882 30.5106 471.472Z" stroke="white" stroke-width="2.54727" stroke-linecap="round" stroke-linejoin="round"/>
<path d="M50.5776 479.17C51.5965 478.958 52.5588 478.547 53.3513 477.939C55.5589 476.283 55.5589 473.552 53.3513 471.896C52.5729 471.302 51.6248 470.906 50.62 470.679" stroke="white" stroke-width="2.54727" stroke-linecap="round" stroke-linejoin="round"/>
<rect x="131.609" y="430.489" width="74.72" height="74.72" rx="37.36" fill="#33AEBA"/>
<path d="M164.95 466.25C164.809 466.236 164.639 466.236 164.483 466.25C161.115 466.137 158.44 463.377 158.44 459.981C158.44 456.514 161.242 453.698 164.724 453.698C168.191 453.698 171.007 456.514 171.007 459.981C170.993 463.377 168.318 466.137 164.95 466.25Z" stroke="white" stroke-width="2.54727" stroke-linecap="round" stroke-linejoin="round"/>
<path d="M175.21 456.528C177.955 456.528 180.163 458.75 180.163 461.481C180.163 464.155 178.04 466.335 175.394 466.434C175.281 466.42 175.153 466.42 175.026 466.434" stroke="white" stroke-width="2.54727" stroke-linecap="round" stroke-linejoin="round"/>
<path d="M157.874 471.472C154.45 473.764 154.45 477.5 157.874 479.779C161.766 482.383 168.148 482.383 172.04 479.779C175.465 477.486 175.465 473.75 172.04 471.472C168.162 468.882 161.78 468.882 157.874 471.472Z" stroke="white" stroke-width="2.54727" stroke-linecap="round" stroke-linejoin="round"/>
<path d="M177.941 479.17C178.96 478.958 179.922 478.547 180.715 477.939C182.923 476.283 182.923 473.552 180.715 471.896C179.937 471.302 178.988 470.906 177.984 470.679" stroke="white" stroke-width="2.54727" stroke-linecap="round" stroke-linejoin="round"/>
<rect x="258.973" y="430.489" width="74.72" height="74.72" rx="37.36" fill="#BB7C33"/>
<path d="M292.314 466.25C292.172 466.236 292.002 466.236 291.847 466.25C288.479 466.137 285.804 463.377 285.804 459.981C285.804 456.514 288.606 453.698 292.087 453.698C295.554 453.698 298.371 456.514 298.371 459.981C298.356 463.377 295.682 466.137 292.314 466.25Z" stroke="white" stroke-width="2.54727" stroke-linecap="round" stroke-linejoin="round"/>
<path d="M302.574 456.528C305.319 456.528 307.527 458.75 307.527 461.481C307.527 464.155 305.404 466.335 302.758 466.434C302.644 466.42 302.517 466.42 302.39 466.434" stroke="white" stroke-width="2.54727" stroke-linecap="round" stroke-linejoin="round"/>
<path d="M285.238 471.472C281.813 473.764 281.813 477.5 285.238 479.779C289.13 482.383 295.512 482.383 299.404 479.779C302.828 477.486 302.828 473.75 299.404 471.472C295.526 468.882 289.144 468.882 285.238 471.472Z" stroke="white" stroke-width="2.54727" stroke-linecap="round" stroke-linejoin="round"/>
<path d="M305.305 479.17C306.324 478.958 307.286 478.547 308.079 477.939C310.286 476.283 310.286 473.552 308.079 471.896C307.3 471.302 306.352 470.906 305.347 470.679" stroke="white" stroke-width="2.54727" stroke-linecap="round" stroke-linejoin="round"/>
<rect x="386.336" y="430.489" width="74.72" height="74.72" rx="37.36" fill="#CE6F78"/>
<path d="M419.677 466.25C419.536 466.236 419.366 466.236 419.21 466.25C415.842 466.137 413.168 463.377 413.168 459.981C413.168 456.514 415.97 453.698 419.451 453.698C422.918 453.698 425.734 456.514 425.734 459.981C425.72 463.377 423.045 466.137 419.677 466.25Z" stroke="white" stroke-width="2.54727" stroke-linecap="round" stroke-linejoin="round"/>
<path d="M429.937 456.528C432.683 456.528 434.89 458.75 434.89 461.481C434.89 464.155 432.768 466.335 430.121 466.434C430.008 466.42 429.881 466.42 429.753 466.434" stroke="white" stroke-width="2.54727" stroke-linecap="round" stroke-linejoin="round"/>
<path d="M412.602 471.472C409.177 473.764 409.177 477.5 412.602 479.779C416.493 482.383 422.876 482.383 426.767 479.779C430.192 477.486 430.192 473.75 426.767 471.472C422.89 468.882 416.507 468.882 412.602 471.472Z" stroke="white" stroke-width="2.54727" stroke-linecap="round" stroke-linejoin="round"/>
<path d="M432.668 479.17C433.687 478.958 434.65 478.547 435.442 477.939C437.65 476.283 437.65 473.552 435.442 471.896C434.664 471.302 433.716 470.906 432.711 470.679" stroke="white" stroke-width="2.54727" stroke-linecap="round" stroke-linejoin="round"/>
<path d="M41.6055 416.904L45.2821 410.536H37.9288L41.6055 416.904ZM40.9686 359.166V361.571H42.2423V359.166H40.9686ZM40.9686 366.383V371.194H42.2423V366.383H40.9686ZM40.9686 376.006V380.817H42.2423V376.006H40.9686ZM40.9686 385.629V390.44H42.2423V385.629H40.9686ZM40.9686 395.252V400.063H42.2423V395.252H40.9686ZM40.9686 404.875V409.686H42.2423V404.875H40.9686ZM41.6055 416.904L48.9588 404.167H34.2521L41.6055 416.904ZM40.3318 359.166V361.571H42.8791V359.166H40.3318ZM40.3318 366.383V371.194H42.8791V366.383H40.3318ZM40.3318 376.006V380.817H42.8791V376.006H40.3318ZM40.3318 385.629V390.44H42.8791V385.629H40.3318ZM40.3318 395.252V400.063H42.8791V395.252H40.3318ZM40.3318 404.875V409.686H42.8791V404.875H40.3318Z" fill="#32587D"/>
<path d="M168.969 416.904L172.646 410.536H165.292L168.969 416.904ZM168.332 359.166V361.571H169.606V359.166H168.332ZM168.332 366.383V371.194H169.606V366.383H168.332ZM168.332 376.006V380.817H169.606V376.006H168.332ZM168.332 385.629V390.44H169.606V385.629H168.332ZM168.332 395.252V400.063H169.606V395.252H168.332ZM168.332 404.875V409.686H169.606V404.875H168.332ZM168.969 416.904L176.322 404.167H161.616L168.969 416.904ZM167.695 359.166V361.571H170.243V359.166H167.695ZM167.695 366.383V371.194H170.243V366.383H167.695ZM167.695 376.006V380.817H170.243V376.006H167.695ZM167.695 385.629V390.44H170.243V385.629H167.695ZM167.695 395.252V400.063H170.243V395.252H167.695ZM167.695 404.875V409.686H170.243V404.875H167.695Z" fill="#32587D"/>
<path d="M296.333 417.753L300.009 411.385H292.656L296.333 417.753ZM295.696 360.015V362.42H296.97V360.015H295.696ZM295.696 367.232V372.043H296.97V367.232H295.696ZM295.696 376.855V381.666H296.97V376.855H295.696ZM295.696 386.478V391.29H296.97V386.478H295.696ZM295.696 396.101V400.913H296.97V396.101H295.696ZM295.696 405.724V410.536H296.97V405.724H295.696ZM296.333 417.753L303.686 405.016H288.979L296.333 417.753ZM295.059 360.015V362.42H297.606V360.015H295.059ZM295.059 367.232V372.043H297.606V367.232H295.059ZM295.059 376.855V381.666H297.606V376.855H295.059ZM295.059 386.478V391.29H297.606V386.478H295.059ZM295.059 396.101V400.913H297.606V396.101H295.059ZM295.059 405.724V410.536H297.606V405.724H295.059Z" fill="#32587D"/>
<path d="M423.696 417.753L427.373 411.385H420.02L423.696 417.753ZM423.06 360.015V362.42H424.333V360.015H423.06ZM423.06 367.232V372.043H424.333V367.232H423.06ZM423.06 376.855V381.666H424.333V376.855H423.06ZM423.06 386.478V391.29H424.333V386.478H423.06ZM423.06 396.101V400.913H424.333V396.101H423.06ZM423.06 405.724V410.536H424.333V405.724H423.06ZM423.696 417.753L431.05 405.016H416.343L423.696 417.753ZM422.423 360.015V362.42H424.97V360.015H422.423ZM422.423 367.232V372.043H424.97V367.232H422.423ZM422.423 376.855V381.666H424.97V376.855H422.423ZM422.423 386.478V391.29H424.97V386.478H422.423ZM422.423 396.101V400.913H424.97V396.101H422.423ZM422.423 405.724V410.536H424.97V405.724H422.423Z" fill="#32587D"/>
<line x1="41.6055" y1="354.283" x2="423.696" y2="354.283" stroke="#32587D" stroke-width="1.27364" stroke-dasharray="5.09 5.09"/>
</svg>
