<svg width="358" height="324" viewBox="0 0 358 324" fill="none" xmlns="http://www.w3.org/2000/svg">
<path d="M129.603 162.064C129.528 167.927 131.095 173.68 134.109 178.681C134.748 179.742 136.038 180.241 137.176 179.75C143.041 177.226 147.257 170.259 147.257 162.064C147.257 153.87 143.054 146.922 137.209 144.389C136.072 143.896 134.781 144.391 134.139 145.45C131.11 150.445 129.532 156.198 129.603 162.064Z" fill="#477DB3"/>
<g style="mix-blend-mode:overlay" opacity="0.1">
<path d="M135.668 148.311C134.41 147.402 132.718 148.028 132.124 149.463C130.472 153.45 129.617 157.731 129.617 162.064C129.617 166.397 130.473 170.679 132.125 174.667C132.719 176.101 134.409 176.727 135.668 175.82C139.475 173.077 142.043 167.956 142.043 162.064C142.043 156.174 139.467 151.055 135.668 148.311Z" fill="white"/>
</g>
<g style="mix-blend-mode:multiply" opacity="0.2">
<path d="M142.848 148.803C141.97 147.711 141.031 149.007 141.74 150.215C143.688 153.534 144.841 157.628 144.841 162.064C144.841 166.484 143.699 170.562 141.765 173.871C141.058 175.081 141.998 176.377 142.874 175.283C145.581 171.902 147.257 167.229 147.257 162.064C147.257 156.881 145.571 152.19 142.848 148.803Z" fill="#477DB3"/>
</g>
<path d="M182.598 168.181L181.992 168.042C180.308 167.679 178.554 167.83 176.957 168.475C175.359 169.119 173.993 170.227 173.033 171.656C170.513 175.396 166.713 177.099 162.286 177.099C160.519 177.114 158.763 176.827 157.093 176.251C155.126 175.535 152.963 175.573 151.023 176.358C149.083 177.142 147.503 178.617 146.588 180.498C146.062 181.58 145.775 182.762 145.745 183.964C145.716 185.166 145.946 186.361 146.419 187.467C146.892 188.573 147.598 189.564 148.488 190.374C149.379 191.184 150.433 191.794 151.579 192.162C155.045 193.241 158.655 193.785 162.286 193.774C172.727 193.774 182.006 189.298 187.693 181.763C188.562 180.607 189.125 179.252 189.331 177.821C189.537 176.391 189.379 174.931 188.871 173.578C188.364 172.225 187.523 171.021 186.426 170.078C185.33 169.134 184.013 168.482 182.598 168.181Z" fill="#477DB3"/>
<path d="M146.588 143.671C147.508 145.555 149.094 147.032 151.041 147.815C152.988 148.598 155.157 148.633 157.127 147.911C158.785 147.333 160.53 147.044 162.285 147.056C166.566 147.056 170.263 148.711 172.65 152.228C173.631 153.722 175.044 154.882 176.703 155.551C178.361 156.221 180.185 156.368 181.929 155.975L182.626 155.801C184.024 155.467 185.318 154.79 186.387 153.83C187.457 152.87 188.269 151.658 188.749 150.304C189.229 148.95 189.362 147.498 189.137 146.08C188.911 144.661 188.333 143.322 187.457 142.184C181.679 134.753 172.435 130.367 162.265 130.367C158.636 130.373 155.03 130.936 151.572 132.035C150.428 132.405 149.376 133.016 148.488 133.826C147.6 134.636 146.896 135.626 146.423 136.731C145.951 137.836 145.721 139.029 145.75 140.229C145.778 141.43 146.064 142.611 146.588 143.692V143.671Z" fill="#477DB3"/>
<g style="mix-blend-mode:multiply" opacity="0.5">
<g style="mix-blend-mode:multiply" opacity="0.5">
<path d="M182.466 168.18L181.992 168.076C180.312 167.71 178.56 167.856 176.963 168.494C175.366 169.132 173.997 170.233 173.033 171.656C170.514 175.395 166.713 177.098 162.286 177.098C160.519 177.113 158.763 176.826 157.093 176.25C155.606 175.716 153.999 175.606 152.452 175.931C150.906 176.256 149.481 177.005 148.336 178.092C151.006 180.402 154.213 182.007 157.664 182.761C161.115 183.515 164.7 183.394 168.092 182.408C171.484 181.422 174.575 179.604 177.082 177.118C179.589 174.633 181.433 171.56 182.445 168.18H182.466Z" fill="#477DB3"/>
</g>
<g style="mix-blend-mode:multiply" opacity="0.5">
<path d="M148.384 146.118C149.534 147.192 150.959 147.928 152.502 148.245C154.045 148.561 155.646 148.446 157.127 147.911C158.784 147.333 160.529 147.044 162.285 147.056C166.566 147.056 170.262 148.711 172.65 152.228C173.63 153.722 175.044 154.882 176.702 155.551C178.361 156.221 180.184 156.368 181.929 155.974L182.402 155.863C181.363 152.514 179.504 149.476 176.994 147.024C174.485 144.571 171.403 142.782 168.027 141.816C164.652 140.85 161.088 140.739 157.659 141.493C154.229 142.246 151.042 143.84 148.384 146.132V146.118Z" fill="#477DB3"/>
</g>
</g>
<g style="mix-blend-mode:overlay" opacity="0.3">
<g style="mix-blend-mode:overlay" opacity="0.3">
<path d="M162.209 191.425C156.504 191.432 150.922 189.772 146.15 186.65C146.544 187.935 147.246 189.105 148.194 190.06C149.142 191.014 150.309 191.723 151.593 192.127C155.059 193.206 158.669 193.75 162.3 193.74C172.741 193.74 182.02 189.263 187.707 181.728C188.522 180.651 189.067 179.395 189.294 178.064C189.522 176.734 189.427 175.368 189.016 174.082C186.701 179.249 182.938 183.635 178.182 186.713C173.425 189.791 167.877 191.427 162.209 191.425Z" fill="white"/>
</g>
<g style="mix-blend-mode:overlay" opacity="0.3">
<path d="M162.209 132.786C167.833 132.786 173.338 134.399 178.07 137.433C182.803 140.467 186.563 144.794 188.905 149.9C189.315 148.597 189.403 147.214 189.16 145.87C188.918 144.527 188.352 143.262 187.512 142.184C181.735 134.753 172.49 130.367 162.32 130.367C158.673 130.368 155.048 130.931 151.572 132.035C150.276 132.444 149.099 133.165 148.148 134.135C147.196 135.104 146.498 136.293 146.115 137.596C150.891 134.452 156.488 132.779 162.209 132.786Z" fill="white"/>
</g>
</g>
<path d="M113.454 162.909L108.954 160.342L108.981 165.522L113.454 162.909ZM72.7802 163.569L74.475 163.56L74.4703 162.663L72.7755 162.672L72.7802 163.569ZM77.8646 163.543L81.2543 163.525L81.2496 162.628L77.86 162.645L77.8646 163.543ZM84.6439 163.507L88.0336 163.49L88.0289 162.593L84.6393 162.61L84.6439 163.507ZM91.4232 163.472L94.8129 163.454L94.8082 162.557L91.4186 162.575L91.4232 163.472ZM98.2026 163.437L101.592 163.419L101.588 162.522L98.1979 162.54L98.2026 163.437ZM104.982 163.402L108.372 163.384L108.367 162.487L104.977 162.504L104.982 163.402ZM113.454 162.909L104.454 157.775L104.508 168.136L113.454 162.909ZM72.7825 164.018L74.4773 164.009L74.468 162.214L72.7732 162.223L72.7825 164.018ZM77.867 163.991L81.2566 163.974L81.2473 162.179L77.8576 162.197L77.867 163.991ZM84.6463 163.956L88.0359 163.938L88.0266 162.144L84.6369 162.162L84.6463 163.956ZM91.4256 163.921L94.8152 163.903L94.8059 162.109L91.4162 162.126L91.4256 163.921ZM98.2049 163.885L101.595 163.868L101.585 162.073L98.1955 162.091L98.2049 163.885ZM104.984 163.85L108.374 163.833L108.365 162.038L104.975 162.056L104.984 163.85Z" fill="#32587D"/>
<path d="M246.248 162.217L241.748 159.651L241.775 164.831L246.248 162.217ZM205.575 162.878L207.269 162.869L207.265 161.972L205.57 161.981L205.575 162.878ZM210.659 162.851L214.049 162.834L214.044 161.936L210.654 161.954L210.659 162.851ZM217.438 162.816L220.828 162.798L220.823 161.901L217.434 161.919L217.438 162.816ZM224.218 162.781L227.607 162.763L227.603 161.866L224.213 161.883L224.218 162.781ZM230.997 162.745L234.387 162.728L234.382 161.83L230.992 161.848L230.997 162.745ZM237.776 162.71L241.166 162.692L241.161 161.795L237.772 161.813L237.776 162.71ZM246.248 162.217L237.249 157.084L237.302 167.444L246.248 162.217ZM205.577 163.326L207.272 163.318L207.262 161.523L205.568 161.532L205.577 163.326ZM210.661 163.3L214.051 163.282L214.042 161.488L210.652 161.505L210.661 163.3ZM217.441 163.265L220.83 163.247L220.821 161.452L217.431 161.47L217.441 163.265ZM224.22 163.229L227.61 163.212L227.6 161.417L224.211 161.435L224.22 163.229ZM230.999 163.194L234.389 163.176L234.38 161.382L230.99 161.4L230.999 163.194ZM237.779 163.159L241.168 163.141L241.159 161.347L237.769 161.364L237.779 163.159Z" fill="#32587D"/>
<rect x="0.99353" y="132.831" width="59.8182" height="59.8182" rx="29.9091" fill="#47B38D"/>
<path d="M26.9386 161.163C26.799 161.149 26.6315 161.149 26.478 161.163C23.156 161.052 20.5181 158.33 20.5181 154.98C20.5181 151.56 23.2817 148.783 26.7152 148.783C30.1348 148.783 32.9124 151.56 32.9124 154.98C32.8984 158.33 30.2605 161.052 26.9386 161.163Z" stroke="white" stroke-width="1.79455" stroke-linecap="round" stroke-linejoin="round"/>
<path d="M37.0579 151.574C39.7657 151.574 41.9431 153.766 41.9431 156.46C41.9431 159.098 39.8494 161.247 37.2394 161.345C37.1277 161.331 37.0021 161.331 36.8765 161.345" stroke="white" stroke-width="1.79455" stroke-linecap="round" stroke-linejoin="round"/>
<path d="M19.9598 166.314C16.5821 168.575 16.5821 172.259 19.9598 174.507C23.7981 177.075 30.093 177.075 33.9313 174.507C37.3091 172.246 37.3091 168.561 33.9313 166.314C30.107 163.759 23.8121 163.759 19.9598 166.314Z" stroke="white" stroke-width="1.79455" stroke-linecap="round" stroke-linejoin="round"/>
<path d="M39.7517 173.906C40.7567 173.697 41.7058 173.292 42.4874 172.692C44.6648 171.059 44.6648 168.365 42.4874 166.732C41.7197 166.146 40.7846 165.755 39.7936 165.532" stroke="white" stroke-width="1.79455" stroke-linecap="round" stroke-linejoin="round"/>
<rect x="304.97" y="270.091" width="52" height="52" rx="26" fill="#0DA2F3"/>
<path d="M327.294 294.675C327.194 294.665 327.074 294.665 326.964 294.675C324.584 294.595 322.694 292.645 322.694 290.245C322.694 287.795 324.674 285.805 327.134 285.805C329.584 285.805 331.574 287.795 331.574 290.245C331.564 292.645 329.674 294.595 327.294 294.675Z" stroke="white" stroke-width="1.79455" stroke-linecap="round" stroke-linejoin="round"/>
<path d="M334.544 287.805C336.484 287.805 338.044 289.375 338.044 291.305C338.044 293.195 336.544 294.735 334.674 294.805C334.594 294.795 334.504 294.795 334.414 294.805" stroke="white" stroke-width="1.79455" stroke-linecap="round" stroke-linejoin="round"/>
<path d="M322.294 298.365C319.874 299.985 319.874 302.625 322.294 304.235C325.044 306.075 329.554 306.075 332.304 304.235C334.724 302.615 334.724 299.975 332.304 298.365C329.564 296.535 325.054 296.535 322.294 298.365Z" stroke="white" stroke-width="1.79455" stroke-linecap="round" stroke-linejoin="round"/>
<path d="M336.474 303.805C337.194 303.655 337.874 303.365 338.434 302.935C339.994 301.765 339.994 299.835 338.434 298.665C337.884 298.245 337.214 297.965 336.504 297.805" stroke="white" stroke-width="1.79455" stroke-linecap="round" stroke-linejoin="round"/>
<rect x="304.503" y="180.365" width="52" height="52" rx="26" fill="#33AEBA"/>
<path d="M328.018 204.949C327.918 204.939 327.798 204.939 327.688 204.949C325.308 204.869 323.418 202.919 323.418 200.519C323.418 198.069 325.398 196.079 327.858 196.079C330.308 196.079 332.298 198.069 332.298 200.519C332.288 202.919 330.398 204.869 328.018 204.949Z" stroke="white" stroke-width="1.79455" stroke-linecap="round" stroke-linejoin="round"/>
<path d="M335.268 198.079C337.208 198.079 338.768 199.649 338.768 201.579C338.768 203.469 337.268 205.009 335.398 205.079C335.318 205.069 335.228 205.069 335.138 205.079" stroke="white" stroke-width="1.79455" stroke-linecap="round" stroke-linejoin="round"/>
<path d="M323.018 208.639C320.598 210.259 320.598 212.899 323.018 214.509C325.768 216.349 330.278 216.349 333.028 214.509C335.448 212.889 335.448 210.249 333.028 208.639C330.288 206.809 325.778 206.809 323.018 208.639Z" stroke="white" stroke-width="1.79455" stroke-linecap="round" stroke-linejoin="round"/>
<path d="M337.198 214.079C337.918 213.929 338.598 213.639 339.158 213.209C340.718 212.039 340.718 210.109 339.158 208.939C338.608 208.519 337.938 208.239 337.228 208.079" stroke="white" stroke-width="1.79455" stroke-linecap="round" stroke-linejoin="round"/>
<rect x="304.036" y="90.6386" width="52" height="52" rx="26" fill="#BB7C33"/>
<path d="M327.294 115.223C327.194 115.213 327.074 115.213 326.964 115.223C324.584 115.143 322.694 113.193 322.694 110.793C322.694 108.343 324.674 106.353 327.134 106.353C329.584 106.353 331.574 108.343 331.574 110.793C331.564 113.193 329.674 115.143 327.294 115.223Z" stroke="white" stroke-width="1.79455" stroke-linecap="round" stroke-linejoin="round"/>
<path d="M334.544 108.353C336.484 108.353 338.044 109.923 338.044 111.853C338.044 113.743 336.544 115.283 334.674 115.353C334.594 115.343 334.504 115.343 334.414 115.353" stroke="white" stroke-width="1.79455" stroke-linecap="round" stroke-linejoin="round"/>
<path d="M322.294 118.913C319.874 120.533 319.874 123.173 322.294 124.783C325.044 126.623 329.554 126.623 332.304 124.783C334.724 123.163 334.724 120.523 332.304 118.913C329.564 117.083 325.054 117.083 322.294 118.913Z" stroke="white" stroke-width="1.79455" stroke-linecap="round" stroke-linejoin="round"/>
<path d="M336.474 124.353C337.194 124.203 337.874 123.913 338.434 123.483C339.994 122.313 339.994 120.383 338.434 119.213C337.884 118.793 337.214 118.513 336.504 118.353" stroke="white" stroke-width="1.79455" stroke-linecap="round" stroke-linejoin="round"/>
<rect x="303.567" y="0.270813" width="52" height="52" rx="26" fill="#CE6F78"/>
<path d="M327.294 25.4972C327.194 25.4872 327.074 25.4872 326.964 25.4972C324.584 25.4172 322.694 23.4672 322.694 21.0672C322.694 18.6172 324.674 16.6272 327.134 16.6272C329.584 16.6272 331.574 18.6172 331.574 21.0672C331.564 23.4672 329.674 25.4172 327.294 25.4972Z" stroke="white" stroke-width="1.79455" stroke-linecap="round" stroke-linejoin="round"/>
<path d="M334.544 18.6272C336.484 18.6272 338.044 20.1972 338.044 22.1272C338.044 24.0172 336.544 25.5572 334.674 25.6272C334.594 25.6172 334.504 25.6172 334.414 25.6272" stroke="white" stroke-width="1.79455" stroke-linecap="round" stroke-linejoin="round"/>
<path d="M322.294 29.1872C319.874 30.8072 319.874 33.4472 322.294 35.0572C325.044 36.8972 329.554 36.8972 332.304 35.0572C334.724 33.4372 334.724 30.7972 332.304 29.1872C329.564 27.3572 325.054 27.3572 322.294 29.1872Z" stroke="white" stroke-width="1.79455" stroke-linecap="round" stroke-linejoin="round"/>
<path d="M336.474 34.6272C337.194 34.4772 337.874 34.1872 338.434 33.7572C339.994 32.5872 339.994 30.6572 338.434 29.4872C337.884 29.0672 337.214 28.7872 336.504 28.6272" stroke="white" stroke-width="1.79455" stroke-linecap="round" stroke-linejoin="round"/>
<path d="M295.398 295.956L290.898 293.389L290.925 298.569L295.398 295.956ZM254.724 296.616L256.419 296.607L256.414 295.71L254.72 295.719L254.724 296.616ZM259.809 296.59L263.198 296.572L263.194 295.675L259.804 295.693L259.809 296.59ZM266.588 296.555L269.978 296.537L269.973 295.64L266.583 295.657L266.588 296.555ZM273.367 296.519L276.757 296.502L276.752 295.604L273.363 295.622L273.367 296.519ZM280.147 296.484L283.536 296.466L283.532 295.569L280.142 295.587L280.147 296.484ZM286.926 296.449L290.316 296.431L290.311 295.534L286.921 295.551L286.926 296.449ZM295.398 295.956L286.398 290.822L286.452 301.183L295.398 295.956ZM254.727 297.065L256.421 297.056L256.412 295.262L254.717 295.27L254.727 297.065ZM259.811 297.038L263.201 297.021L263.191 295.226L259.802 295.244L259.811 297.038ZM266.59 297.003L269.98 296.986L269.971 295.191L266.581 295.209L266.59 297.003ZM273.37 296.968L276.759 296.95L276.75 295.156L273.36 295.173L273.37 296.968ZM280.149 296.933L283.539 296.915L283.529 295.12L280.14 295.138L280.149 296.933ZM286.928 296.897L290.318 296.88L290.309 295.085L286.919 295.103L286.928 296.897Z" fill="#32587D"/>
<path d="M294.931 206.23L290.431 203.663L290.458 208.843L294.931 206.23ZM254.257 206.89L255.952 206.882L255.947 205.984L254.253 205.993L254.257 206.89ZM259.342 206.864L262.731 206.846L262.727 205.949L259.337 205.967L259.342 206.864ZM266.121 206.829L269.511 206.811L269.506 205.914L266.116 205.931L266.121 206.829ZM272.9 206.793L276.29 206.776L276.285 205.878L272.896 205.896L272.9 206.793ZM279.68 206.758L283.069 206.74L283.065 205.843L279.675 205.861L279.68 206.758ZM286.459 206.723L289.849 206.705L289.844 205.808L286.454 205.825L286.459 206.723ZM294.931 206.23L285.931 201.096L285.985 211.457L294.931 206.23ZM254.26 207.339L255.954 207.33L255.945 205.536L254.25 205.544L254.26 207.339ZM259.344 207.312L262.734 207.295L262.724 205.5L259.335 205.518L259.344 207.312ZM266.123 207.277L269.513 207.26L269.504 205.465L266.114 205.483L266.123 207.277ZM272.903 207.242L276.292 207.224L276.283 205.43L272.893 205.447L272.903 207.242ZM279.682 207.207L283.072 207.189L283.062 205.394L279.673 205.412L279.682 207.207ZM286.461 207.171L289.851 207.154L289.842 205.359L286.452 205.377L286.461 207.171Z" fill="#32587D"/>
<path d="M295.062 116.501L290.562 113.934L290.589 119.114L295.062 116.501ZM254.388 117.161L256.083 117.152L256.078 116.255L254.384 116.264L254.388 117.161ZM259.473 117.135L262.862 117.117L262.858 116.22L259.468 116.237L259.473 117.135ZM266.252 117.099L269.642 117.082L269.637 116.184L266.247 116.202L266.252 117.099ZM273.031 117.064L276.421 117.046L276.416 116.149L273.027 116.167L273.031 117.064ZM279.811 117.029L283.2 117.011L283.196 116.114L279.806 116.131L279.811 117.029ZM286.59 116.993L289.98 116.976L289.975 116.079L286.585 116.096L286.59 116.993ZM295.062 116.501L286.062 111.367L286.116 121.728L295.062 116.501ZM254.391 117.61L256.085 117.601L256.076 115.806L254.381 115.815L254.391 117.61ZM259.475 117.583L262.865 117.566L262.855 115.771L259.466 115.789L259.475 117.583ZM266.254 117.548L269.644 117.53L269.635 115.736L266.245 115.753L266.254 117.548ZM273.034 117.513L276.423 117.495L276.414 115.7L273.024 115.718L273.034 117.513ZM279.813 117.477L283.203 117.46L283.193 115.665L279.804 115.683L279.813 117.477ZM286.592 117.442L289.982 117.424L289.973 115.63L286.583 115.648L286.592 117.442Z" fill="#32587D"/>
<path d="M294.595 26.7747L290.095 24.2078L290.122 29.3882L294.595 26.7747ZM253.921 27.4351L255.616 27.4263L255.611 26.529L253.916 26.5378L253.921 27.4351ZM259.006 27.4086L262.395 27.391L262.39 26.4937L259.001 26.5113L259.006 27.4086ZM265.785 27.3733L269.174 27.3557L269.17 26.4584L265.78 26.476L265.785 27.3733ZM272.564 27.338L275.954 27.3204L275.949 26.4231L272.559 26.4407L272.564 27.338ZM279.343 27.3027L282.733 27.2851L282.728 26.3878L279.339 26.4054L279.343 27.3027ZM286.123 27.2674L289.512 27.2498L289.508 26.3525L286.118 26.3701L286.123 27.2674ZM294.595 26.7747L285.595 21.641L285.649 32.0017L294.595 26.7747ZM253.923 27.8837L255.618 27.8749L255.609 26.0804L253.914 26.0892L253.923 27.8837ZM259.008 27.8572L262.398 27.8396L262.388 26.0451L258.999 26.0627L259.008 27.8572ZM265.787 27.8219L269.177 27.8043L269.167 26.0098L265.778 26.0274L265.787 27.8219ZM272.566 27.7866L275.956 27.769L275.947 25.9745L272.557 25.9921L272.566 27.7866ZM279.346 27.7513L282.735 27.7337L282.726 25.9392L279.336 25.9568L279.346 27.7513ZM286.125 27.716L289.515 27.6984L289.505 25.9039L286.116 25.9215L286.125 27.716Z" fill="#32587D"/>
<line x1="251.283" y1="296.186" x2="249.881" y2="27.0074" stroke="#32587D" stroke-width="0.897273" stroke-dasharray="3.59 3.59"/>
</svg>
