<svg width="70" height="70" viewBox="0 0 70 70" fill="none" xmlns="http://www.w3.org/2000/svg">
<g clip-path="url(#clip0)">
<g filter="url(#filter0_d)">
<rect width="70" height="70" rx="9" fill="#47B38D"/>
</g>
<path d="M33.6933 45H29C28.1733 45 27.44 44.9733 26.7867 44.88C23.28 44.4933 22.3333 42.84 22.3333 38.3333V31.6667C22.3333 27.16 23.28 25.5067 26.7867 25.12C27.44 25.0267 28.1733 25 29 25H33.6133" stroke="white" stroke-width="3" stroke-linecap="round" stroke-linejoin="round"/>
<path d="M39.0267 25H41C41.8267 25 42.56 25.0267 43.2133 25.12C46.72 25.5067 47.6667 27.16 47.6667 31.6667V38.3333C47.6667 42.84 46.72 44.4933 43.2133 44.88C42.56 44.9733 41.8267 45 41 45H39.0267" stroke="white" stroke-width="2" stroke-linecap="round" stroke-linejoin="round"/>
<path d="M39 21.6667V48.3334" stroke="white" stroke-width="2" stroke-linecap="round" stroke-linejoin="round"/>
<path d="M29.6667 30.3333V39.6666" stroke="white" stroke-width="2" stroke-linecap="round" stroke-linejoin="round"/>
</g>
<defs>
<filter id="filter0_d" x="-24" y="-2" width="118" height="118" filterUnits="userSpaceOnUse" color-interpolation-filters="sRGB">
<feFlood flood-opacity="0" result="BackgroundImageFix"/>
<feColorMatrix in="SourceAlpha" type="matrix" values="0 0 0 0 0 0 0 0 0 0 0 0 0 0 0 0 0 0 127 0" result="hardAlpha"/>
<feOffset dy="22"/>
<feGaussianBlur stdDeviation="12"/>
<feColorMatrix type="matrix" values="0 0 0 0 0.168627 0 0 0 0 0.839216 0 0 0 0 0.482353 0 0 0 0.2 0"/>
<feBlend mode="normal" in2="BackgroundImageFix" result="effect1_dropShadow"/>
<feBlend mode="normal" in="SourceGraphic" in2="effect1_dropShadow" result="shape"/>
</filter>
<clipPath id="clip0">
<rect width="70" height="70" fill="white"/>
</clipPath>
</defs>
</svg>
