<svg width="24" height="24" viewBox="0 0 24 24" fill="none" xmlns="http://www.w3.org/2000/svg">
<path opacity="0.15" fill-rule="evenodd" clip-rule="evenodd" d="M12 24C18.6274 24 24 18.6274 24 12C24 5.37258 18.6274 0 12 0C5.37258 0 0 5.37258 0 12C0 18.6274 5.37258 24 12 24Z" fill="white"/>
<path d="M10.3984 15.8242L7.13672 12.582C7.04557 12.4909 7 12.3737 7 12.2305C7 12.0872 7.04557 11.97 7.13672 11.8789L7.85937 11.1758C7.95052 11.0716 8.06445 11.0195 8.20117 11.0195C8.33789 11.0195 8.45833 11.0716 8.5625 11.1758L10.75 13.3633L15.4375 8.67578C15.5416 8.57161 15.6621 8.51953 15.7988 8.51953C15.9355 8.51953 16.0495 8.57161 16.1406 8.67578L16.8633 9.3789C16.9544 9.47005 17 9.58724 17 9.73047C17 9.87369 16.9544 9.99088 16.8633 10.082L11.1016 15.8242C11.0104 15.9284 10.8932 15.9805 10.75 15.9805C10.6068 15.9805 10.4896 15.9284 10.3984 15.8242Z" fill="white"/>
</svg>
