<svg width="70" height="70" viewBox="0 0 70 70" fill="none" xmlns="http://www.w3.org/2000/svg">
<g clip-path="url(#clip0)">
<g filter="url(#filter0_d)">
<rect width="70" height="70" rx="9" fill="#416FF4"/>
</g>
<path fill-rule="evenodd" clip-rule="evenodd" d="M46.7086 28.1138L35.176 21.3496L35.1773 21.3496C34.7606 21.1048 34.2397 21.1048 33.823 21.3496L22.2917 28.1138C22.0934 28.2298 21.972 28.4392 21.972 28.6652C21.972 28.8912 22.0934 29.1006 22.2917 29.2167L34.5002 36.3781L46.7086 29.2167C46.9069 29.1006 47.0283 28.8912 47.0283 28.6652C47.0283 28.4392 46.9069 28.2298 46.7086 28.1138ZM45.1281 33.1644L46.7086 34.0912C46.9069 34.2073 47.0283 34.4167 47.0283 34.6427C47.0283 34.8687 46.9069 35.0781 46.7086 35.1942L34.5002 42.3555L22.2917 35.1942C22.0934 35.0781 21.972 34.8687 21.972 34.6427C21.972 34.4167 22.0934 34.2073 22.2917 34.0912L23.8722 33.1644L34.5002 39.3989L45.1281 33.1644ZM45.1281 39.2061L46.7086 40.133C46.9069 40.249 47.0283 40.4584 47.0283 40.6844C47.0283 40.9104 46.9069 41.1198 46.7086 41.2359L35.1773 48.0001C34.7606 48.2448 34.2397 48.2448 33.823 48.0001L22.2917 41.2359C22.0934 41.1198 21.972 40.9104 21.972 40.6844C21.972 40.4584 22.0934 40.249 22.2917 40.133L23.8722 39.2061L34.5002 45.4407L45.1281 39.2061Z" fill="white"/>
</g>
<defs>
<filter id="filter0_d" x="-24" y="-2" width="118" height="118" filterUnits="userSpaceOnUse" color-interpolation-filters="sRGB">
<feFlood flood-opacity="0" result="BackgroundImageFix"/>
<feColorMatrix in="SourceAlpha" type="matrix" values="0 0 0 0 0 0 0 0 0 0 0 0 0 0 0 0 0 0 127 0" result="hardAlpha"/>
<feOffset dy="22"/>
<feGaussianBlur stdDeviation="12"/>
<feColorMatrix type="matrix" values="0 0 0 0 0.254902 0 0 0 0 0.435294 0 0 0 0 0.956863 0 0 0 0.2 0"/>
<feBlend mode="normal" in2="BackgroundImageFix" result="effect1_dropShadow"/>
<feBlend mode="normal" in="SourceGraphic" in2="effect1_dropShadow" result="shape"/>
</filter>
<clipPath id="clip0">
<rect width="70" height="70" fill="white"/>
</clipPath>
</defs>
</svg>
