<svg xmlns="http://www.w3.org/2000/svg" viewBox="0 0 226.15 40.37"><defs><style>.cls-1{fill:#0079ff;}</style></defs><g id="Layer_2" data-name="Layer 2"><g id="Layer_1-2" data-name="Layer 1"><rect class="cls-1" x="144.35" width="6.93" height="28.56" rx="1.15"/><rect class="cls-1" x="133.85" width="6.93" height="28.56" rx="1.15"/><path class="cls-1" d="M66.7,19.62h0a2,2,0,0,1-1.55,2,2,2,0,0,1-2.37-1.93V11.82h4.38a1.14,1.14,0,0,0,1.14-1.14V6A1.14,1.14,0,0,0,67.16,4.9H62.78V1.21A1.14,1.14,0,0,0,61.64.07H57a1.14,1.14,0,0,0-1.14,1.14V19.42a9.05,9.05,0,0,0,8.44,9.13,8.9,8.9,0,0,0,9.34-8.88v-.05a1.14,1.14,0,0,0-1.14-1.14H67.85A1.15,1.15,0,0,0,66.7,19.62Z"/><path class="cls-1" d="M189.48,19.62h0a2,2,0,0,1-1.55,2,2,2,0,0,1-2.37-1.93V11.82h4.38a1.14,1.14,0,0,0,1.14-1.14V6a1.14,1.14,0,0,0-1.14-1.14h-4.38V1.21A1.14,1.14,0,0,0,184.42.07h-4.65a1.14,1.14,0,0,0-1.14,1.14V19.42a9.05,9.05,0,0,0,8.44,9.13,8.9,8.9,0,0,0,9.34-8.88v-.05a1.14,1.14,0,0,0-1.14-1.14h-4.64A1.15,1.15,0,0,0,189.48,19.62Z"/><path class="cls-1" d="M87.09,27.77l2.84-8.65,2.82,8.65a1.14,1.14,0,0,0,1.09.79h5.57a1.15,1.15,0,0,0,1.1-.79l7.06-21.53a1.16,1.16,0,0,0-1.1-1.52h-4.86a1.15,1.15,0,0,0-1.09.8L96.63,17.35,92.78,5.52a1.16,1.16,0,0,0-1.1-.8H88.19a1.16,1.16,0,0,0-1.1.8L83.22,17.33,79.37,5.52a1.17,1.17,0,0,0-1.1-.8H73.41a1.16,1.16,0,0,0-1.1,1.52l7,21.53a1.16,1.16,0,0,0,1.1.79H86A1.15,1.15,0,0,0,87.09,27.77Z"/><path class="cls-1" d="M198.29,25.39l1.47-4a1.14,1.14,0,0,1,1.58-.64,13.53,13.53,0,0,0,5.9,1.4c2,0,2.57-.42,2.57-1.09,0-2.34-11.56.8-11.56-8.35,0-4.31,3.52-7.82,10.28-7.82a18.27,18.27,0,0,1,7.25,1.4,1.16,1.16,0,0,1,.59,1.44l-1.47,4a1.15,1.15,0,0,1-1.57.65,10.7,10.7,0,0,0-4.69-1.06c-2.13,0-2.72.54-2.72,1.08,0,2.39,11.53-.71,11.53,8.44,0,4.14-3.42,7.73-10.39,7.73a19.51,19.51,0,0,1-8.19-1.73A1.16,1.16,0,0,1,198.29,25.39Z"/><path class="cls-1" d="M54,16.67a11.87,11.87,0,1,0-3.09,8A1.16,1.16,0,0,0,50.75,23L47,20.23a1.15,1.15,0,0,0-1.47.08A5,5,0,0,1,37.75,19l15.13,0A1.15,1.15,0,0,0,54,17.81V16.67Zm-11.89-5a5,5,0,0,1,4.39,2.65H37.75A5,5,0,0,1,42.14,11.71Z"/><path class="cls-1" d="M14.2,40.37A26.15,26.15,0,0,1,2.29,37.5a1.16,1.16,0,0,1-.48-1.61l2.3-4a1.15,1.15,0,0,1,1.51-.46,19.25,19.25,0,0,0,17.27-.05,1.14,1.14,0,0,1,1.51.45l2.33,4a1.17,1.17,0,0,1-.48,1.62A26.1,26.1,0,0,1,14.2,40.37Z"/><path class="cls-1" d="M13.68,28.48A14.46,14.46,0,0,1,0,13.91H0A13.87,13.87,0,0,1,13.88,0H27.31a1.15,1.15,0,0,1,1.15,1.15V14.26A14.24,14.24,0,0,1,13.68,28.48ZM6.93,14h0a7.66,7.66,0,0,0,6.8,7.55,7.32,7.32,0,0,0,7.81-7.29V8.11A1.15,1.15,0,0,0,20.38,7H14A7,7,0,0,0,6.93,14Z"/><path class="cls-1" d="M176.85,16.67a11.88,11.88,0,1,0-3.1,8,1.16,1.16,0,0,0-.19-1.69l-3.76-2.76a1.14,1.14,0,0,0-1.46.08A4.92,4.92,0,0,1,165,21.64a5,5,0,0,1-4.4-2.66l15.13,0a1.16,1.16,0,0,0,1.16-1.15V16.67Zm-11.89-5a5,5,0,0,1,4.39,2.65h-8.79A5,5,0,0,1,165,11.71Z"/><path class="cls-1" d="M123.35,5.83h0a11.69,11.69,0,0,0-5.85-1.07,11.89,11.89,0,0,0,.89,23.75,11.77,11.77,0,0,0,5-1.1v.05a1.11,1.11,0,0,0,1.11,1.1h4.72a1.1,1.1,0,0,0,1.1-1.1V5.83a1.11,1.11,0,0,0-1.1-1.11h-4.72A1.11,1.11,0,0,0,123.35,5.83Zm-5,15.75a5,5,0,1,1,5-5A5,5,0,0,1,118.39,21.58Z"/><circle class="cls-1" cx="222.69" cy="25.1" r="3.46"/></g></g></svg>