<svg width="32" height="32" viewBox="0 0 32 32" fill="none" xmlns="http://www.w3.org/2000/svg">
<path opacity="0.1" d="M32 16C32 7.16344 24.8366 0 16 0C7.16344 0 0 7.16344 0 16C0 24.8366 7.16344 32 16 32C24.8366 32 32 24.8366 32 16Z" fill="white"/>
<path d="M15.9991 9.14575C12.1343 9.14575 9 12.2923 9 16.1738C9 19.2783 11.0055 21.912 13.788 22.8421C14.138 22.9069 14.2657 22.6899 14.2657 22.5035C14.2657 22.3364 14.2596 21.8945 14.2561 21.3083C12.3093 21.7326 11.898 20.3659 11.898 20.3659C11.5804 19.5539 11.121 19.3378 11.121 19.3378C10.4849 18.902 11.1682 18.9108 11.1682 18.9108C11.8709 18.9606 12.2401 19.6353 12.2401 19.6353C12.8649 20.7089 13.879 20.3991 14.278 20.2189C14.341 19.7648 14.5221 19.455 14.7225 19.2791C13.1685 19.1015 11.534 18.4986 11.534 15.8063C11.534 15.0389 11.807 14.4115 12.255 13.9198C12.1824 13.7421 11.9426 13.0273 12.3233 12.0604C12.3233 12.0604 12.9113 11.8714 14.2483 12.7805C14.8065 12.6248 15.405 12.5469 16.0009 12.5443C16.595 12.5478 17.1944 12.6248 17.7535 12.7814C19.0896 11.8723 19.6768 12.0613 19.6768 12.0613C20.0582 13.029 19.8185 13.743 19.7467 13.9206C20.1956 14.4124 20.466 15.0398 20.466 15.8071C20.466 18.5065 18.8298 19.1006 17.2705 19.2748C17.5216 19.4918 17.7456 19.9205 17.7456 20.5759C17.7456 21.5156 17.7369 22.2734 17.7369 22.5035C17.7369 22.6916 17.8629 22.9104 18.2181 22.8413C20.9963 21.9103 23 19.2774 23 16.1738C23 12.2923 19.8658 9.14575 15.9991 9.14575Z" fill="white"/>
</svg>
