<svg width="14" height="14" viewBox="0 0 14 14" fill="none" xmlns="http://www.w3.org/2000/svg">
<path d="M6.99913 0.145752C3.13425 0.145752 0 3.29225 0 7.17375C0 10.2783 2.0055 12.912 4.788 13.8421C5.138 13.9069 5.26575 13.6899 5.26575 13.5035C5.26575 13.3364 5.25962 12.8945 5.25612 12.3083C3.30925 12.7326 2.898 11.3659 2.898 11.3659C2.58038 10.5539 2.121 10.3378 2.121 10.3378C1.48488 9.902 2.16825 9.91075 2.16825 9.91075C2.87087 9.96063 3.24013 10.6353 3.24013 10.6353C3.86488 11.7089 4.879 11.3991 5.278 11.2189C5.341 10.7648 5.52212 10.455 5.7225 10.2791C4.1685 10.1015 2.534 9.49863 2.534 6.80625C2.534 6.03888 2.807 5.4115 3.255 4.91975C3.18238 4.74213 2.94263 4.02725 3.32325 3.06038C3.32325 3.06038 3.91125 2.87138 5.24825 3.7805C5.8065 3.62475 6.405 3.54688 7.00088 3.54425C7.595 3.54775 8.19437 3.62475 8.7535 3.78138C10.0896 2.87225 10.6767 3.06125 10.6767 3.06125C11.0582 4.029 10.8185 4.743 10.7467 4.92063C11.1956 5.41238 11.466 6.03975 11.466 6.80713C11.466 9.5065 9.82975 10.1006 8.2705 10.2748C8.52162 10.4918 8.74562 10.9205 8.74562 11.5759C8.74562 12.5156 8.73687 13.2734 8.73687 13.5035C8.73687 13.6916 8.86287 13.9104 9.21812 13.8413C11.9962 12.9103 14 10.2774 14 7.17375C14 3.29225 10.8658 0.145752 6.99913 0.145752Z" fill="#737A91"/>
</svg>
