<svg width="20" height="20" viewBox="0 0 20 20" fill="none" xmlns="http://www.w3.org/2000/svg">
<path d="M18.3332 8.05833C18.2806 7.90591 18.1849 7.77202 18.0577 7.67292C17.9305 7.57381 17.7772 7.51375 17.6166 7.5L12.8749 6.80833L10.7499 2.5C10.6817 2.35911 10.5751 2.24028 10.4425 2.15714C10.3098 2.074 10.1564 2.02991 9.9999 2.02991C9.84335 2.02991 9.68997 2.074 9.55732 2.15714C9.42468 2.24028 9.31814 2.35911 9.2499 2.5L7.1249 6.8L2.38323 7.5C2.229 7.52192 2.084 7.58663 1.96469 7.6868C1.84538 7.78696 1.75653 7.91856 1.70823 8.06667C1.66402 8.21139 1.66005 8.36543 1.69676 8.51224C1.73346 8.65906 1.80945 8.7931 1.91657 8.9L5.35823 12.2333L4.5249 16.9667C4.49515 17.1229 4.51073 17.2844 4.56979 17.432C4.62886 17.5797 4.72894 17.7074 4.85823 17.8C4.98425 17.8901 5.13288 17.9433 5.28744 17.9536C5.442 17.9639 5.59637 17.9309 5.73323 17.8583L9.9999 15.6333L14.2499 17.8667C14.3669 17.9326 14.4989 17.9671 14.6332 17.9667C14.8098 17.9673 14.9819 17.9119 15.1249 17.8083C15.2542 17.7157 15.3543 17.588 15.4133 17.4404C15.4724 17.2927 15.488 17.1312 15.4582 16.975L14.6249 12.2417L18.0666 8.90833C18.1869 8.8064 18.2758 8.67242 18.323 8.52196C18.3702 8.37149 18.3738 8.21073 18.3332 8.05833ZM13.2082 11.3917C13.1105 11.4862 13.0374 11.6032 12.9953 11.7325C12.9531 11.8618 12.9433 11.9994 12.9666 12.1333L13.5666 15.625L10.4332 13.9583C10.3127 13.8941 10.1782 13.8606 10.0416 13.8606C9.90497 13.8606 9.77047 13.8941 9.6499 13.9583L6.51657 15.625L7.11657 12.1333C7.13985 11.9994 7.12999 11.8618 7.08787 11.7325C7.04575 11.6032 6.97263 11.4862 6.8749 11.3917L4.3749 8.89167L7.88323 8.38333C8.01823 8.36455 8.14656 8.31295 8.25698 8.23304C8.3674 8.15313 8.45653 8.04736 8.51657 7.925L9.9999 4.75L11.5666 7.93333C11.6266 8.0557 11.7157 8.16147 11.8261 8.24138C11.9366 8.32128 12.0649 8.37289 12.1999 8.39167L15.7082 8.9L13.2082 11.3917Z" fill="#477DB3"/>
<path d="M18.3332 8.05833C18.2806 7.90591 18.1849 7.77202 18.0577 7.67292C17.9305 7.57381 17.7772 7.51375 17.6166 7.5L12.8749 6.80833L10.7499 2.5C10.6817 2.35911 10.5751 2.24028 10.4425 2.15714C10.3098 2.074 10.1564 2.02991 9.9999 2.02991C9.84335 2.02991 9.68997 2.074 9.55732 2.15714C9.42468 2.24028 9.31814 2.35911 9.2499 2.5L7.1249 6.8L2.38323 7.5C2.229 7.52192 2.084 7.58663 1.96469 7.6868C1.84538 7.78696 1.75653 7.91856 1.70823 8.06667C1.66402 8.21139 1.66005 8.36543 1.69676 8.51224C1.73346 8.65906 1.80945 8.7931 1.91657 8.9L5.35823 12.2333L4.5249 16.9667C4.49515 17.1229 4.51073 17.2844 4.56979 17.432C4.62886 17.5797 4.72894 17.7074 4.85823 17.8C4.98425 17.8901 5.13288 17.9433 5.28744 17.9536C5.442 17.9639 5.59637 17.9309 5.73323 17.8583L9.9999 15.6333L14.2499 17.8667C14.3669 17.9326 14.4989 17.9671 14.6332 17.9667C14.8098 17.9673 14.9819 17.9119 15.1249 17.8083C15.2542 17.7157 15.3543 17.588 15.4133 17.4404C15.4724 17.2927 15.488 17.1312 15.4582 16.975L14.6249 12.2417L18.0666 8.90833C18.1869 8.8064 18.2758 8.67242 18.323 8.52196C18.3702 8.37149 18.3738 8.21073 18.3332 8.05833ZM13.2082 11.3917C13.1105 11.4862 13.0374 11.6032 12.9953 11.7325C12.9531 11.8618 12.9433 11.9994 12.9666 12.1333L13.5666 15.625L10.4332 13.9583C10.3127 13.8941 10.1782 13.8606 10.0416 13.8606C9.90497 13.8606 9.77047 13.8941 9.6499 13.9583L6.51657 15.625L7.11657 12.1333C7.13985 11.9994 7.12999 11.8618 7.08787 11.7325C7.04575 11.6032 6.97263 11.4862 6.8749 11.3917L4.3749 8.89167L7.88323 8.38333C8.01823 8.36455 8.14656 8.31295 8.25698 8.23304C8.3674 8.15313 8.45653 8.04736 8.51657 7.925L9.9999 4.75L11.5666 7.93333C11.6266 8.0557 11.7157 8.16147 11.8261 8.24138C11.9366 8.32128 12.0649 8.37289 12.1999 8.39167L15.7082 8.9L13.2082 11.3917Z" stroke="#477DB3"/>
</svg>
