<svg width="24" height="24" viewBox="0 0 24 24" fill="none" xmlns="http://www.w3.org/2000/svg">
<path d="M11.9985 0.249817C5.373 0.249817 0 5.64382 0 12.2978C0 17.6198 3.438 22.1348 8.208 23.7293C8.808 23.8403 9.027 23.4683 9.027 23.1488C9.027 22.8623 9.0165 22.1048 9.0105 21.0998C5.673 21.8273 4.968 19.4843 4.968 19.4843C4.4235 18.0923 3.636 17.7218 3.636 17.7218C2.5455 16.9748 3.717 16.9898 3.717 16.9898C4.9215 17.0753 5.5545 18.2318 5.5545 18.2318C6.6255 20.0723 8.364 19.5413 9.048 19.2323C9.156 18.4538 9.4665 17.9228 9.81 17.6213C7.146 17.3168 4.344 16.2833 4.344 11.6678C4.344 10.3523 4.812 9.27682 5.58 8.43382C5.4555 8.12932 5.0445 6.90382 5.697 5.24632C5.697 5.24632 6.705 4.92232 8.997 6.48082C9.954 6.21382 10.98 6.08032 12.0015 6.07582C13.02 6.08182 14.0475 6.21382 15.006 6.48232C17.2965 4.92382 18.303 5.24782 18.303 5.24782C18.957 6.90682 18.546 8.13082 18.423 8.43532C19.1925 9.27832 19.656 10.3538 19.656 11.6693C19.656 16.2968 16.851 17.3153 14.178 17.6138C14.6085 17.9858 14.9925 18.7208 14.9925 19.8443C14.9925 21.4553 14.9775 22.7543 14.9775 23.1488C14.9775 23.4713 15.1935 23.8463 15.8025 23.7278C20.565 22.1318 24 17.6183 24 12.2978C24 5.64382 18.627 0.249817 11.9985 0.249817Z" fill="#16192C"/>
</svg>
