<svg width="14" height="14" viewBox="0 0 14 14" fill="none" xmlns="http://www.w3.org/2000/svg">
<path d="M11.7617 1.66682H2.61951C2.51674 1.66541 2.4147 1.68402 2.31921 1.72159C2.22372 1.75915 2.13665 1.81494 2.06298 1.88576C1.98931 1.95658 1.93048 2.04105 1.88985 2.13435C1.84922 2.22764 1.82758 2.32793 1.82617 2.42949V11.5708C1.82758 11.6724 1.84922 11.7727 1.88985 11.866C1.93048 11.9593 1.98931 12.0437 2.06298 12.1145C2.13665 12.1854 2.22372 12.2412 2.31921 12.2787C2.4147 12.3163 2.51674 12.3349 2.61951 12.3335H11.7617C11.8645 12.3349 11.9665 12.3163 12.062 12.2787C12.1575 12.2412 12.2446 12.1854 12.3183 12.1145C12.3919 12.0437 12.4508 11.9593 12.4914 11.866C12.532 11.7727 12.5537 11.6724 12.5551 11.5708V2.42949C12.5537 2.32793 12.532 2.22764 12.4914 2.13435C12.4508 2.04105 12.3919 1.95658 12.3183 1.88576C12.2446 1.81494 12.1575 1.75915 12.062 1.72159C11.9665 1.68402 11.8645 1.66541 11.7617 1.66682ZM5.08046 10.5948H3.46141V5.79482H5.08046V10.5948ZM4.27093 5.12282C4.04765 5.12282 3.83351 5.03517 3.67562 4.87913C3.51773 4.7231 3.42903 4.51148 3.42903 4.29082C3.42903 4.07016 3.51773 3.85854 3.67562 3.70251C3.83351 3.54648 4.04765 3.45882 4.27093 3.45882C4.3895 3.44553 4.50957 3.45714 4.62328 3.49289C4.73699 3.52864 4.84178 3.58772 4.93078 3.66627C5.01978 3.74481 5.091 3.84105 5.13975 3.94868C5.18851 4.05631 5.21372 4.1729 5.21372 4.29082C5.21372 4.40874 5.18851 4.52534 5.13975 4.63296C5.091 4.74059 5.01978 4.83683 4.93078 4.91538C4.84178 4.99392 4.73699 5.053 4.62328 5.08875C4.50957 5.1245 4.3895 5.13611 4.27093 5.12282ZM10.9198 10.5948H9.30078V8.01882C9.30078 7.37349 9.06871 6.95216 8.48046 6.95216C8.2984 6.95347 8.12113 7.0099 7.97253 7.11385C7.82393 7.21779 7.71113 7.36425 7.64935 7.53349C7.60711 7.65884 7.58881 7.79086 7.59538 7.92282V10.5895H5.97633C5.97633 10.5895 5.97633 6.22682 5.97633 5.78949H7.59538V6.46682C7.74246 6.21461 7.95638 6.00683 8.21409 5.86586C8.47181 5.72489 8.76356 5.65608 9.05792 5.66682C10.1373 5.66682 10.9198 6.35482 10.9198 7.83216V10.5948Z" fill="#737A91"/>
</svg>
