<svg width="13" height="13" viewBox="0 0 13 13" fill="none" xmlns="http://www.w3.org/2000/svg">
<path d="M11.0879 1.08333H1.91209C1.80895 1.0819 1.70653 1.1008 1.61069 1.13895C1.51485 1.1771 1.42747 1.23376 1.35353 1.30569C1.27959 1.37762 1.22054 1.46341 1.17976 1.55816C1.13898 1.65291 1.11726 1.75477 1.11584 1.85791V11.1421C1.11726 11.2452 1.13898 11.3471 1.17976 11.4418C1.22054 11.5366 1.27959 11.6224 1.35353 11.6943C1.42747 11.7662 1.51485 11.8229 1.61069 11.861C1.70653 11.8992 1.80895 11.9181 1.91209 11.9167H11.0879C11.1911 11.9181 11.2935 11.8992 11.3893 11.861C11.4852 11.8229 11.5726 11.7662 11.6465 11.6943C11.7204 11.6224 11.7795 11.5366 11.8203 11.4418C11.861 11.3471 11.8828 11.2452 11.8842 11.1421V1.85791C11.8828 1.75477 11.861 1.65291 11.8203 1.55816C11.7795 1.46341 11.7204 1.37762 11.6465 1.30569C11.5726 1.23376 11.4852 1.1771 11.3893 1.13895C11.2935 1.1008 11.1911 1.0819 11.0879 1.08333ZM4.38209 10.1508H2.75709V5.27583H4.38209V10.1508ZM3.56959 4.59333C3.34549 4.59333 3.13056 4.5043 2.97209 4.34583C2.81362 4.18736 2.72459 3.97244 2.72459 3.74833C2.72459 3.52422 2.81362 3.30929 2.97209 3.15082C3.13056 2.99235 3.34549 2.90333 3.56959 2.90333C3.6886 2.88983 3.80911 2.90162 3.92324 2.93793C4.03736 2.97424 4.14254 3.03424 4.23187 3.11402C4.3212 3.19379 4.39267 3.29153 4.44161 3.40084C4.49055 3.51015 4.51584 3.62856 4.51584 3.74833C4.51584 3.86809 4.49055 3.98651 4.44161 4.09582C4.39267 4.20513 4.3212 4.30287 4.23187 4.38264C4.14254 4.46241 4.03736 4.52242 3.92324 4.55872C3.80911 4.59503 3.6886 4.60682 3.56959 4.59333ZM10.2429 10.1508H8.61793V7.53458C8.61793 6.87916 8.38501 6.45124 7.79459 6.45124C7.61187 6.45258 7.43395 6.5099 7.2848 6.61546C7.13565 6.72103 7.02244 6.86978 6.96043 7.04166C6.91804 7.16897 6.89967 7.30305 6.90626 7.43708V10.1454H5.28126C5.28126 10.1454 5.28126 5.71458 5.28126 5.27041H6.90626V5.95833C7.05388 5.70218 7.26859 5.49115 7.52725 5.34798C7.78591 5.20481 8.07873 5.13491 8.37418 5.14583C9.45751 5.14583 10.2429 5.84458 10.2429 7.34499V10.1508Z" fill="white"/>
</svg>
