<svg width="24" height="24" viewBox="0 0 24 24" fill="none" xmlns="http://www.w3.org/2000/svg">
<path d="M8 12C8 12.2652 8.10536 12.5196 8.29289 12.7071C8.48043 12.8946 8.73478 13 9 13H15C15.2652 13 15.5196 12.8946 15.7071 12.7071C15.8946 12.5196 16 12.2652 16 12C16 11.7348 15.8946 11.4804 15.7071 11.2929C15.5196 11.1054 15.2652 11 15 11H9C8.73478 11 8.48043 11.1054 8.29289 11.2929C8.10536 11.4804 8 11.7348 8 12ZM10 15H7C6.20435 15 5.44129 14.6839 4.87868 14.1213C4.31607 13.5587 4 12.7956 4 12C4 11.2044 4.31607 10.4413 4.87868 9.87868C5.44129 9.31607 6.20435 9 7 9H10C10.2652 9 10.5196 8.89464 10.7071 8.70711C10.8946 8.51957 11 8.26522 11 8C11 7.73478 10.8946 7.48043 10.7071 7.29289C10.5196 7.10536 10.2652 7 10 7H7C5.67392 7 4.40215 7.52678 3.46447 8.46447C2.52678 9.40215 2 10.6739 2 12C2 13.3261 2.52678 14.5979 3.46447 15.5355C4.40215 16.4732 5.67392 17 7 17H10C10.2652 17 10.5196 16.8946 10.7071 16.7071C10.8946 16.5196 11 16.2652 11 16C11 15.7348 10.8946 15.4804 10.7071 15.2929C10.5196 15.1054 10.2652 15 10 15ZM17 7H14C13.7348 7 13.4804 7.10536 13.2929 7.29289C13.1054 7.48043 13 7.73478 13 8C13 8.26522 13.1054 8.51957 13.2929 8.70711C13.4804 8.89464 13.7348 9 14 9H17C17.7956 9 18.5587 9.31607 19.1213 9.87868C19.6839 10.4413 20 11.2044 20 12C20 12.7956 19.6839 13.5587 19.1213 14.1213C18.5587 14.6839 17.7956 15 17 15H14C13.7348 15 13.4804 15.1054 13.2929 15.2929C13.1054 15.4804 13 15.7348 13 16C13 16.2652 13.1054 16.5196 13.2929 16.7071C13.4804 16.8946 13.7348 17 14 17H17C18.3261 17 19.5979 16.4732 20.5355 15.5355C21.4732 14.5979 22 13.3261 22 12C22 10.6739 21.4732 9.40215 20.5355 8.46447C19.5979 7.52678 18.3261 7 17 7Z" fill="#000624"/>
</svg>
