<svg width="148" height="38" viewBox="0 0 148 38" fill="none" xmlns="http://www.w3.org/2000/svg">
<path d="M0.00143347 18.9962C-0.0346295 21.7854 0.610385 24.5291 1.86525 26.9945C2.50366 28.2487 4.01356 28.8306 5.19615 28.0676C7.81924 26.375 9.61373 22.9477 9.61373 18.9962C9.61373 15.0465 7.8257 11.6277 5.2123 9.93346C4.03163 9.16804 2.52055 9.74552 1.87914 10.9979C0.617507 13.4613 -0.0324619 16.2055 0.00143347 18.9962Z" fill="white"/>
<g style="mix-blend-mode:overlay" opacity="0.1">
<path d="M4.49952 12.5886C3.33375 11.2664 1.34699 11.9657 0.822658 13.6486C0.285027 15.3743 0.00891113 17.1769 0.00891113 18.9962C0.00891113 20.8165 0.285334 22.6201 0.823555 24.3466C1.3478 26.0283 3.33307 26.7286 4.49898 25.4082C5.89593 23.8261 6.77479 21.5432 6.77479 18.9962C6.77479 16.4515 5.89425 14.1705 4.49952 12.5886Z" fill="white"/>
</g>
<g style="mix-blend-mode:multiply" opacity="0.2">
<path d="M9.39682 16.6482C9.10301 15.0868 8.07619 16.0626 8.23223 17.6437C8.27595 18.0868 8.29848 18.5382 8.29848 18.9962C8.29848 19.4377 8.27763 19.8729 8.23708 20.3004C8.08701 21.883 9.11796 22.8587 9.40582 21.2953C9.54184 20.5566 9.61373 19.787 9.61373 18.9962C9.61373 18.1882 9.53867 17.4021 9.39682 16.6482Z" fill="white"/>
</g>
<path d="M28.8573 22.3317L28.5275 22.2558C27.6105 22.0583 26.6553 22.1405 25.7856 22.4919C24.9159 22.8433 24.1717 23.4477 23.6493 24.2268C22.2772 26.266 20.2077 27.1947 17.7971 27.1947C16.8351 27.2027 15.8788 27.0463 14.9695 26.7322C13.8985 26.342 12.7209 26.3628 11.6644 26.7906C10.6079 27.2184 9.7476 28.0227 9.24985 29.0481V29.0481C8.96326 29.638 8.80672 30.2825 8.79083 30.9382C8.77494 31.5938 8.90007 32.2451 9.15776 32.8482C9.41544 33.4513 9.79966 33.9919 10.2844 34.4336C10.7692 34.8753 11.3432 35.2077 11.9675 35.4083C13.8545 35.9968 15.8204 36.2934 17.7971 36.2877C23.4826 36.2877 28.5351 33.8467 31.6318 29.738C32.1049 29.1077 32.4116 28.3685 32.5237 27.5885C32.6358 26.8085 32.5497 26.0128 32.2732 25.2748C31.9968 24.5369 31.5389 23.8804 30.9419 23.3661C30.3449 22.8517 29.628 22.4959 28.8573 22.3317V22.3317Z" fill="white"/>
<path d="M9.24988 8.96695C9.75058 9.99428 10.6145 10.7994 11.6746 11.2265C12.7346 11.6536 13.9154 11.6723 14.9885 11.2791C15.891 10.9638 16.8411 10.8061 17.7971 10.8128C20.1282 10.8128 22.1408 11.7149 23.4409 13.6329C23.9746 14.4476 24.7445 15.0799 25.6475 15.445C26.5504 15.8102 27.5434 15.8907 28.4934 15.6758L28.8725 15.5811C29.6342 15.3994 30.3383 15.0299 30.9207 14.5063C31.503 13.9828 31.9451 13.3218 32.2066 12.5837C32.4681 11.8455 32.5407 11.0537 32.4178 10.2803C32.2949 9.50688 31.9804 8.77654 31.503 8.15582C28.357 4.10395 23.3234 1.71225 17.7857 1.71225C15.81 1.71575 13.8464 2.02255 11.9638 2.62193C11.3406 2.82358 10.7679 3.15648 10.2843 3.59818C9.80067 4.03987 9.41735 4.58011 9.16017 5.18248C8.90298 5.78484 8.77792 6.43534 8.79339 7.09013C8.80887 7.74491 8.96453 8.38877 9.24988 8.97832V8.96695Z" fill="white"/>
<g style="mix-blend-mode:multiply" opacity="0.5">
<g style="mix-blend-mode:multiply" opacity="0.5">
<path d="M28.7852 22.3317L28.5274 22.2749C27.6124 22.0754 26.6585 22.1547 25.789 22.5026C24.9194 22.8506 24.1741 23.4512 23.6493 24.2269C22.2772 26.2661 20.2077 27.1947 17.797 27.1947C16.835 27.2028 15.8787 27.0464 14.9694 26.7323C14.1597 26.441 13.2849 26.3807 12.4428 26.5581C11.6007 26.7355 10.8246 27.1436 10.2012 27.7367C11.655 28.9963 13.4013 29.8716 15.2805 30.2827C17.1596 30.6937 19.1118 30.6275 20.9588 30.09C22.8058 29.5525 24.4887 28.5608 25.8538 27.2056C27.219 25.8504 28.2229 24.1747 28.7738 22.3317H28.7852Z" fill="white"/>
</g>
<g style="mix-blend-mode:multiply" opacity="0.5">
<path d="M10.2276 10.3012C10.854 10.8869 11.6301 11.2882 12.4702 11.4608C13.3102 11.6334 14.1817 11.5705 14.9883 11.2791C15.8908 10.9638 16.8409 10.8061 17.7969 10.8129C20.128 10.8129 22.1406 11.715 23.4407 13.6329C23.9744 14.4476 24.7443 15.0799 25.6473 15.4451C26.5502 15.8102 27.5432 15.8907 28.4932 15.6759L28.751 15.6152C28.1848 13.789 27.1728 12.1324 25.8062 10.7951C24.4397 9.45783 22.7617 8.48185 20.9236 7.95529C19.0855 7.42873 17.1452 7.36815 15.2779 7.77903C13.4105 8.1899 11.6749 9.0593 10.2276 10.3087V10.3012Z" fill="white"/>
</g>
</g>
<g style="mix-blend-mode:overlay" opacity="0.3">
<g style="mix-blend-mode:overlay" opacity="0.3">
<path d="M17.7553 35.0066C14.6489 35.0103 11.6093 34.1052 9.01099 32.4026C9.22566 33.1036 9.60768 33.7418 10.1241 34.2621C10.6405 34.7825 11.2757 35.1694 11.975 35.3894C13.862 35.9779 15.8279 36.2745 17.8046 36.2688C23.4901 36.2688 28.5426 33.8278 31.6393 29.7191C32.0831 29.1319 32.3795 28.4467 32.5035 27.7212C32.6275 26.9956 32.5755 26.2509 32.3519 25.5497C31.0916 28.3669 29.0426 30.7591 26.4524 32.4372C23.8622 34.1154 20.8416 35.0078 17.7553 35.0066Z" fill="white"/>
</g>
<g style="mix-blend-mode:overlay" opacity="0.3">
<path d="M17.7554 3.03128C20.8175 3.03135 23.8153 3.91082 26.3921 5.56511C28.969 7.2194 31.0165 9.57892 32.2913 12.3631C32.5148 11.6528 32.5626 10.8989 32.4305 10.1661C32.2985 9.43326 31.9906 8.74344 31.5333 8.15582C28.3873 4.10395 23.3537 1.71225 17.816 1.71225C15.8301 1.71264 13.8561 2.01948 11.9637 2.62193C11.2576 2.84462 10.6171 3.23774 10.0989 3.76657C9.5806 4.2954 9.20051 4.94369 8.99213 5.6542C11.5929 3.93958 14.6403 3.02744 17.7554 3.03128V3.03128Z" fill="white"/>
</g>
</g>
<path d="M54.5214 10.02C55.1414 10.34 55.4514 10.85 55.4514 11.55C55.4514 11.97 55.3014 12.38 55.0014 12.78C54.6814 13.2 54.2714 13.41 53.7714 13.41C53.4314 13.41 53.0914 13.32 52.7514 13.14C51.7714 12.68 50.7114 12.45 49.5714 12.45C48.1714 12.45 46.9514 12.75 45.9114 13.35C44.8714 13.93 44.0714 14.76 43.5114 15.84C42.9514 16.9 42.6714 18.12 42.6714 19.5C42.6714 21.86 43.3014 23.65 44.5614 24.87C45.8414 26.09 47.5114 26.7 49.5714 26.7C50.7914 26.7 51.8514 26.47 52.7514 26.01C53.1114 25.85 53.4314 25.77 53.7114 25.77C54.2314 25.77 54.6714 25.99 55.0314 26.43C55.3314 26.81 55.4814 27.22 55.4814 27.66C55.4814 27.98 55.4014 28.27 55.2414 28.53C55.0814 28.79 54.8514 28.99 54.5514 29.13C52.9914 29.91 51.3314 30.3 49.5714 30.3C47.6114 30.3 45.8114 29.89 44.1714 29.07C42.5314 28.23 41.2214 27 40.2414 25.38C39.2614 23.76 38.7714 21.8 38.7714 19.5C38.7714 17.46 39.2314 15.63 40.1514 14.01C41.0914 12.39 42.3814 11.13 44.0214 10.23C45.6614 9.31 47.5114 8.85 49.5714 8.85C51.3514 8.85 53.0014 9.24 54.5214 10.02ZM73.75 21.99C73.75 23.59 73.39 25.03 72.67 26.31C71.95 27.57 70.96 28.55 69.7 29.25C68.46 29.95 67.09 30.3 65.59 30.3C64.07 30.3 62.69 29.95 61.45 29.25C60.21 28.55 59.23 27.57 58.51 26.31C57.79 25.03 57.43 23.59 57.43 21.99C57.43 20.39 57.79 18.96 58.51 17.7C59.23 16.42 60.21 15.43 61.45 14.73C62.69 14.01 64.07 13.65 65.59 13.65C67.09 13.65 68.46 14.01 69.7 14.73C70.96 15.43 71.95 16.42 72.67 17.7C73.39 18.96 73.75 20.39 73.75 21.99ZM70.15 21.99C70.15 21.01 69.94 20.14 69.52 19.38C69.12 18.6 68.57 18 67.87 17.58C67.19 17.16 66.43 16.95 65.59 16.95C64.75 16.95 63.98 17.16 63.28 17.58C62.6 18 62.05 18.6 61.63 19.38C61.23 20.14 61.03 21.01 61.03 21.99C61.03 22.97 61.23 23.84 61.63 24.6C62.05 25.36 62.6 25.95 63.28 26.37C63.98 26.79 64.75 27 65.59 27C66.43 27 67.19 26.79 67.87 26.37C68.57 25.95 69.12 25.36 69.52 24.6C69.94 23.84 70.15 22.97 70.15 21.99ZM85.3377 13.65C87.3777 13.65 88.7877 14.26 89.5677 15.48C90.3477 16.68 90.7377 18.35 90.7377 20.49V28.17C90.7377 28.69 90.5677 29.13 90.2277 29.49C89.8877 29.83 89.4577 30 88.9377 30C88.4177 30 87.9877 29.83 87.6477 29.49C87.3077 29.13 87.1377 28.69 87.1377 28.17V20.49C87.1377 19.39 86.9077 18.53 86.4477 17.91C85.9877 17.27 85.1977 16.95 84.0777 16.95C82.9177 16.95 82.0077 17.29 81.3477 17.97C80.6877 18.63 80.3577 19.47 80.3577 20.49V28.17C80.3577 28.69 80.1877 29.13 79.8477 29.49C79.5077 29.83 79.0777 30 78.5577 30C78.0377 30 77.6077 29.83 77.2677 29.49C76.9277 29.13 76.7577 28.69 76.7577 28.17V15.78C76.7577 15.26 76.9277 14.83 77.2677 14.49C77.6077 14.13 78.0377 13.95 78.5577 13.95C79.0777 13.95 79.5077 14.13 79.8477 14.49C80.1877 14.83 80.3577 15.26 80.3577 15.78V16.29C80.8977 15.57 81.5977 14.95 82.4577 14.43C83.3377 13.91 84.2977 13.65 85.3377 13.65ZM106.812 13.98C107.292 13.98 107.692 14.14 108.012 14.46C108.332 14.76 108.492 15.14 108.492 15.6C108.492 15.84 108.412 16.14 108.252 16.5L102.642 28.86C102.502 29.2 102.292 29.47 102.012 29.67C101.752 29.87 101.452 29.98 101.112 30L100.842 30.03C100.502 30.03 100.182 29.93 99.8823 29.73C99.6023 29.51 99.3823 29.22 99.2223 28.86L93.6423 16.5C93.5023 16.18 93.4323 15.86 93.4323 15.54C93.4323 15.14 93.6023 14.78 93.9423 14.46C94.2823 14.12 94.7023 13.95 95.2023 13.95C95.5823 13.95 95.9323 14.05 96.2523 14.25C96.5723 14.45 96.8123 14.73 96.9723 15.09L101.112 24.57L105.222 15.12C105.382 14.74 105.602 14.45 105.882 14.25C106.162 14.05 106.472 13.96 106.812 13.98ZM126.602 21.99C126.602 23.59 126.242 25.03 125.522 26.31C124.802 27.57 123.812 28.55 122.552 29.25C121.312 29.95 119.942 30.3 118.442 30.3C116.922 30.3 115.542 29.95 114.302 29.25C113.062 28.55 112.082 27.57 111.362 26.31C110.642 25.03 110.282 23.59 110.282 21.99C110.282 20.39 110.642 18.96 111.362 17.7C112.082 16.42 113.062 15.43 114.302 14.73C115.542 14.01 116.922 13.65 118.442 13.65C119.942 13.65 121.312 14.01 122.552 14.73C123.812 15.43 124.802 16.42 125.522 17.7C126.242 18.96 126.602 20.39 126.602 21.99ZM123.002 21.99C123.002 21.01 122.792 20.14 122.372 19.38C121.972 18.6 121.422 18 120.722 17.58C120.042 17.16 119.282 16.95 118.442 16.95C117.602 16.95 116.832 17.16 116.132 17.58C115.452 18 114.902 18.6 114.482 19.38C114.082 20.14 113.882 21.01 113.882 21.99C113.882 22.97 114.082 23.84 114.482 24.6C114.902 25.36 115.452 25.95 116.132 26.37C116.832 26.79 117.602 27 118.442 27C119.282 27 120.042 26.79 120.722 26.37C121.422 25.95 121.972 25.36 122.372 24.6C122.792 23.84 123.002 22.97 123.002 21.99ZM141.519 13.95C142.039 13.95 142.469 14.13 142.809 14.49C143.149 14.83 143.319 15.26 143.319 15.78V28.53C143.319 31.13 142.619 33.02 141.219 34.2C139.819 35.4 137.949 36 135.609 36C134.929 36 134.229 35.94 133.509 35.82C132.809 35.72 132.239 35.58 131.799 35.4C130.819 34.98 130.329 34.4 130.329 33.66C130.329 33.52 130.359 33.36 130.419 33.18C130.539 32.74 130.739 32.4 131.019 32.16C131.319 31.94 131.639 31.83 131.979 31.83C132.179 31.83 132.369 31.86 132.549 31.92C132.689 31.98 132.929 32.08 133.269 32.22C133.629 32.36 133.999 32.47 134.379 32.55C134.779 32.65 135.189 32.7 135.609 32.7C137.029 32.7 138.069 32.39 138.729 31.77C139.409 31.17 139.749 30.13 139.749 28.65V28.35C138.709 29.65 137.089 30.3 134.889 30.3C133.849 30.3 132.929 30.06 132.129 29.58C131.329 29.08 130.709 28.4 130.269 27.54C129.829 26.66 129.609 25.66 129.609 24.54V15.78C129.609 15.26 129.779 14.83 130.119 14.49C130.459 14.13 130.889 13.95 131.409 13.95C131.929 13.95 132.359 14.13 132.699 14.49C133.039 14.83 133.209 15.26 133.209 15.78V23.46C133.209 24.72 133.479 25.63 134.019 26.19C134.579 26.73 135.389 27 136.449 27C137.489 27 138.289 26.7 138.849 26.1C139.429 25.48 139.719 24.6 139.719 23.46V15.78C139.719 15.26 139.889 14.83 140.229 14.49C140.569 14.13 140.999 13.95 141.519 13.95Z" fill="white"/>
</svg>
