<svg width="32" height="28" viewBox="0 0 32 28" fill="none" xmlns="http://www.w3.org/2000/svg">
<path d="M23.6875 11.9688C22.9688 12.5312 22.0625 13.2188 18.875 15.5312C18.25 16 17.0938 17.0312 16 17.0312C14.875 17.0312 13.75 16 13.0938 15.5312C9.90625 13.2188 9 12.5312 8.28125 11.9688C8.15625 11.875 8 11.9688 8 12.125V18.5C8 19.3438 8.65625 20 9.5 20H22.5C23.3125 20 24 19.3438 24 18.5V12.125C24 11.9688 23.8125 11.875 23.6875 11.9688ZM16 16C16.7188 16.0312 17.75 15.0938 18.2812 14.7188C22.4375 11.7188 22.75 11.4375 23.6875 10.6875C23.875 10.5625 24 10.3438 24 10.0938V9.5C24 8.6875 23.3125 8 22.5 8H9.5C8.65625 8 8 8.6875 8 9.5V10.0938C8 10.3438 8.09375 10.5625 8.28125 10.6875C9.21875 11.4375 9.53125 11.7188 13.6875 14.7188C14.2188 15.0938 15.25 16.0312 16 16Z" fill="#477DB3"/>
</svg>
