<svg width="32" height="32" viewBox="0 0 32 32" fill="none" xmlns="http://www.w3.org/2000/svg">
<path opacity="0.1" d="M32 16C32 7.16344 24.8366 0 16 0C7.16344 0 0 7.16344 0 16C0 24.8366 7.16344 32 16 32C24.8366 32 32 24.8366 32 16Z" fill="white"/>
<path d="M10.2714 12.4161C12.0556 13.9271 15.1863 16.5854 16.1064 17.4143C16.23 17.5262 16.3625 17.5831 16.5 17.5831C16.6373 17.5831 16.7695 17.5267 16.8928 17.4154C17.8137 16.5857 20.9444 13.9271 22.7287 12.4161C22.8397 12.3222 22.8567 12.1571 22.7667 12.0423C22.5588 11.7771 22.2489 11.625 21.9167 11.625H11.0833C10.7512 11.625 10.4412 11.7771 10.2333 12.0424C10.1433 12.1571 10.1603 12.3222 10.2714 12.4161Z" fill="white"/>
<path d="M22.8429 13.235C22.7469 13.1903 22.634 13.2059 22.5541 13.2741C20.5754 14.9515 18.0501 17.1015 17.2556 17.8174C16.8097 18.22 16.1908 18.22 15.7438 17.8169C14.8969 17.0539 12.0611 14.6431 10.4459 13.2741C10.3655 13.2058 10.2523 13.1908 10.1571 13.2349C10.0614 13.2794 10 13.3751 10 13.4807V20.2917C10 20.8892 10.4858 21.375 11.0833 21.375H21.9167C22.5142 21.375 23 20.8892 23 20.2917V13.4807C23 13.3751 22.9386 13.2791 22.8429 13.235Z" fill="white"/>
</svg>
