<svg width="13" height="13" viewBox="0 0 13 13" fill="none" xmlns="http://www.w3.org/2000/svg">
<path d="M0.27137 2.41607C2.05557 3.92709 5.18629 6.58544 6.10644 7.41432C6.22997 7.52619 6.36246 7.58306 6.5 7.58306C6.63726 7.58306 6.76952 7.52672 6.89277 7.41538C7.81371 6.58569 10.9444 3.92709 12.7287 2.41607C12.8397 2.32218 12.8567 2.15714 12.7667 2.04235C12.5588 1.77709 12.2489 1.625 11.9167 1.625H1.08334C0.751151 1.625 0.441157 1.77709 0.233284 2.04237C0.14335 2.15714 0.160286 2.32218 0.27137 2.41607Z" fill="white"/>
<path d="M12.8429 3.23497C12.7469 3.19028 12.634 3.20587 12.5541 3.27412C10.5754 4.95147 8.05015 7.1015 7.25563 7.81744C6.80969 8.21998 6.19079 8.21998 5.74382 7.81691C4.89694 7.05387 2.06111 4.64308 0.44591 3.27409C0.365498 3.20584 0.252307 3.19079 0.157092 3.23494C0.0613691 3.2794 0 3.37515 0 3.48067V10.2917C0 10.8892 0.48585 11.375 1.08334 11.375H11.9167C12.5142 11.375 13 10.8892 13 10.2917V3.48067C13 3.37515 12.9386 3.27915 12.8429 3.23497Z" fill="white"/>
</svg>
