<svg width="129" height="153" viewBox="0 0 129 153" fill="none" xmlns="http://www.w3.org/2000/svg">
<path id="Combined Shape" fill-rule="evenodd" clip-rule="evenodd" d="M124.5 9C126.985 9 129 6.98528 129 4.5C129 2.01472 126.985 0 124.5 0C122.015 0 120 2.01472 120 4.5C120 6.98528 122.015 9 124.5 9ZM124.5 33C126.985 33 129 30.9853 129 28.5C129 26.0147 126.985 24 124.5 24C122.015 24 120 26.0147 120 28.5C120 30.9853 122.015 33 124.5 33ZM124.5 57C126.985 57 129 54.9853 129 52.5C129 50.0147 126.985 48 124.5 48C122.015 48 120 50.0147 120 52.5C120 54.9853 122.015 57 124.5 57ZM124.5 81C126.985 81 129 78.9853 129 76.5C129 74.0147 126.985 72 124.5 72C122.015 72 120 74.0147 120 76.5C120 78.9853 122.015 81 124.5 81ZM124.5 105C126.985 105 129 102.985 129 100.5C129 98.0147 126.985 96 124.5 96C122.015 96 120 98.0147 120 100.5C120 102.985 122.015 105 124.5 105ZM124.5 129C126.985 129 129 126.985 129 124.5C129 122.015 126.985 120 124.5 120C122.015 120 120 122.015 120 124.5C120 126.985 122.015 129 124.5 129ZM9 148.5C9 150.985 6.98528 153 4.5 153C2.01472 153 0 150.985 0 148.5C0 146.015 2.01472 144 4.5 144C6.98528 144 9 146.015 9 148.5ZM28.5 153C30.9853 153 33 150.985 33 148.5C33 146.015 30.9853 144 28.5 144C26.0147 144 24 146.015 24 148.5C24 150.985 26.0147 153 28.5 153ZM57 148.5C57 150.985 54.9853 153 52.5 153C50.0147 153 48 150.985 48 148.5C48 146.015 50.0147 144 52.5 144C54.9853 144 57 146.015 57 148.5ZM76.5 153C78.9853 153 81 150.985 81 148.5C81 146.015 78.9853 144 76.5 144C74.0147 144 72 146.015 72 148.5C72 150.985 74.0147 153 76.5 153ZM105 148.5C105 150.985 102.985 153 100.5 153C98.0147 153 96 150.985 96 148.5C96 146.015 98.0147 144 100.5 144C102.985 144 105 146.015 105 148.5ZM129 148.5C129 150.985 126.985 153 124.5 153C122.015 153 120 150.985 120 148.5C120 146.015 122.015 144 124.5 144C126.985 144 129 146.015 129 148.5ZM105 124.5C105 126.985 102.985 129 100.5 129C98.0147 129 96 126.985 96 124.5C96 122.015 98.0147 120 100.5 120C102.985 120 105 122.015 105 124.5ZM76.5 129C78.9853 129 81 126.985 81 124.5C81 122.015 78.9853 120 76.5 120C74.0147 120 72 122.015 72 124.5C72 126.985 74.0147 129 76.5 129ZM57 124.5C57 126.985 54.9853 129 52.5 129C50.0147 129 48 126.985 48 124.5C48 122.015 50.0147 120 52.5 120C54.9853 120 57 122.015 57 124.5ZM28.5 129C30.9853 129 33 126.985 33 124.5C33 122.015 30.9853 120 28.5 120C26.0147 120 24 122.015 24 124.5C24 126.985 26.0147 129 28.5 129ZM9 124.5C9 126.985 6.98528 129 4.5 129C2.01472 129 0 126.985 0 124.5C0 122.015 2.01472 120 4.5 120C6.98528 120 9 122.015 9 124.5ZM105 100.5C105 102.985 102.985 105 100.5 105C98.0147 105 96 102.985 96 100.5C96 98.0147 98.0147 96 100.5 96C102.985 96 105 98.0147 105 100.5ZM76.5 105C78.9853 105 81 102.985 81 100.5C81 98.0147 78.9853 96 76.5 96C74.0147 96 72 98.0147 72 100.5C72 102.985 74.0147 105 76.5 105ZM57 100.5C57 102.985 54.9853 105 52.5 105C50.0147 105 48 102.985 48 100.5C48 98.0147 50.0147 96 52.5 96C54.9853 96 57 98.0147 57 100.5ZM28.5 105C30.9853 105 33 102.985 33 100.5C33 98.0147 30.9853 96 28.5 96C26.0147 96 24 98.0147 24 100.5C24 102.985 26.0147 105 28.5 105ZM9 100.5C9 102.985 6.98528 105 4.5 105C2.01472 105 0 102.985 0 100.5C0 98.0147 2.01472 96 4.5 96C6.98528 96 9 98.0147 9 100.5ZM105 76.5C105 78.9853 102.985 81 100.5 81C98.0147 81 96 78.9853 96 76.5C96 74.0147 98.0147 72 100.5 72C102.985 72 105 74.0147 105 76.5ZM76.5 81C78.9853 81 81 78.9853 81 76.5C81 74.0147 78.9853 72 76.5 72C74.0147 72 72 74.0147 72 76.5C72 78.9853 74.0147 81 76.5 81ZM57 76.5C57 78.9853 54.9853 81 52.5 81C50.0147 81 48 78.9853 48 76.5C48 74.0147 50.0147 72 52.5 72C54.9853 72 57 74.0147 57 76.5ZM28.5 81C30.9853 81 33 78.9853 33 76.5C33 74.0147 30.9853 72 28.5 72C26.0147 72 24 74.0147 24 76.5C24 78.9853 26.0147 81 28.5 81ZM9 76.5C9 78.9853 6.98528 81 4.5 81C2.01472 81 0 78.9853 0 76.5C0 74.0147 2.01472 72 4.5 72C6.98528 72 9 74.0147 9 76.5ZM105 52.5C105 54.9853 102.985 57 100.5 57C98.0147 57 96 54.9853 96 52.5C96 50.0147 98.0147 48 100.5 48C102.985 48 105 50.0147 105 52.5ZM76.5 57C78.9853 57 81 54.9853 81 52.5C81 50.0147 78.9853 48 76.5 48C74.0147 48 72 50.0147 72 52.5C72 54.9853 74.0147 57 76.5 57ZM57 52.5C57 54.9853 54.9853 57 52.5 57C50.0147 57 48 54.9853 48 52.5C48 50.0147 50.0147 48 52.5 48C54.9853 48 57 50.0147 57 52.5ZM28.5 57C30.9853 57 33 54.9853 33 52.5C33 50.0147 30.9853 48 28.5 48C26.0147 48 24 50.0147 24 52.5C24 54.9853 26.0147 57 28.5 57ZM9 52.5C9 54.9853 6.98528 57 4.5 57C2.01472 57 0 54.9853 0 52.5C0 50.0147 2.01472 48 4.5 48C6.98528 48 9 50.0147 9 52.5ZM105 28.5C105 30.9853 102.985 33 100.5 33C98.0147 33 96 30.9853 96 28.5C96 26.0147 98.0147 24 100.5 24C102.985 24 105 26.0147 105 28.5ZM76.5 33C78.9853 33 81 30.9853 81 28.5C81 26.0147 78.9853 24 76.5 24C74.0147 24 72 26.0147 72 28.5C72 30.9853 74.0147 33 76.5 33ZM57 28.5C57 30.9853 54.9853 33 52.5 33C50.0147 33 48 30.9853 48 28.5C48 26.0147 50.0147 24 52.5 24C54.9853 24 57 26.0147 57 28.5ZM28.5 33C30.9853 33 33 30.9853 33 28.5C33 26.0147 30.9853 24 28.5 24C26.0147 24 24 26.0147 24 28.5C24 30.9853 26.0147 33 28.5 33ZM9 28.5C9 30.9853 6.98528 33 4.5 33C2.01472 33 0 30.9853 0 28.5C0 26.0147 2.01472 24 4.5 24C6.98528 24 9 26.0147 9 28.5ZM105 4.5C105 6.98528 102.985 9 100.5 9C98.0147 9 96 6.98528 96 4.5C96 2.01472 98.0147 0 100.5 0C102.985 0 105 2.01472 105 4.5ZM76.5 9C78.9853 9 81 6.98528 81 4.5C81 2.01472 78.9853 0 76.5 0C74.0147 0 72 2.01472 72 4.5C72 6.98528 74.0147 9 76.5 9ZM57 4.5C57 6.98528 54.9853 9 52.5 9C50.0147 9 48 6.98528 48 4.5C48 2.01472 50.0147 0 52.5 0C54.9853 0 57 2.01472 57 4.5ZM28.5 9C30.9853 9 33 6.98528 33 4.5C33 2.01472 30.9853 0 28.5 0C26.0147 0 24 2.01472 24 4.5C24 6.98528 26.0147 9 28.5 9ZM9 4.5C9 6.98528 6.98528 9 4.5 9C2.01472 9 0 6.98528 0 4.5C0 2.01472 2.01472 0 4.5 0C6.98528 0 9 2.01472 9 4.5Z" fill="#477DB3" fill-opacity="0.1"/>
</svg>
