<svg width="70" height="70" viewBox="0 0 70 70" fill="none" xmlns="http://www.w3.org/2000/svg">
<g clip-path="url(#clip0)">
<g filter="url(#filter0_d)">
<rect width="70" height="70" rx="9" fill="#D17B61"/>
</g>
<path d="M39.52 25.9467L41.4 29.7067C41.6533 30.2267 42.3333 30.72 42.9067 30.8267L46.3067 31.3867C48.48 31.7467 48.9867 33.32 47.4267 34.8933L44.7733 37.5467C44.3333 37.9867 44.08 38.8533 44.2267 39.48L44.9866 42.76C45.5866 45.3467 44.2 46.36 41.92 45L38.7333 43.1067C38.16 42.76 37.2 42.76 36.6267 43.1067L33.44 45C31.16 46.3467 29.7733 45.3467 30.3733 42.76L31.1333 39.48C31.28 38.8667 31.0267 38 30.5867 37.5467L27.9333 34.8933C26.3733 33.3333 26.88 31.76 29.0533 31.3867L32.4533 30.8267C33.0267 30.7333 33.7067 30.2267 33.96 29.7067L35.84 25.9467C36.84 23.9067 38.4933 23.9067 39.52 25.9467Z" stroke="white" stroke-width="3" stroke-linecap="round" stroke-linejoin="round"/>
<path d="M29.6667 25.6667H21.6667" stroke="white" stroke-width="3" stroke-linecap="round" stroke-linejoin="round"/>
<path d="M25.6667 44.3333H21.6667" stroke="white" stroke-width="3" stroke-linecap="round" stroke-linejoin="round"/>
<path d="M23 35H21.6667" stroke="white" stroke-width="3" stroke-linecap="round" stroke-linejoin="round"/>
</g>
<defs>
<filter id="filter0_d" x="-24" y="-2" width="118" height="118" filterUnits="userSpaceOnUse" color-interpolation-filters="sRGB">
<feFlood flood-opacity="0" result="BackgroundImageFix"/>
<feColorMatrix in="SourceAlpha" type="matrix" values="0 0 0 0 0 0 0 0 0 0 0 0 0 0 0 0 0 0 127 0" result="hardAlpha"/>
<feOffset dy="22"/>
<feGaussianBlur stdDeviation="12"/>
<feColorMatrix type="matrix" values="0 0 0 0 0.968627 0 0 0 0 0.890196 0 0 0 0 0.427451 0 0 0 0.2 0"/>
<feBlend mode="normal" in2="BackgroundImageFix" result="effect1_dropShadow"/>
<feBlend mode="normal" in="SourceGraphic" in2="effect1_dropShadow" result="shape"/>
</filter>
<clipPath id="clip0">
<rect width="70" height="70" fill="white"/>
</clipPath>
</defs>
</svg>
