<svg width="70" height="70" viewBox="0 0 70 70" fill="none" xmlns="http://www.w3.org/2000/svg">
<g clip-path="url(#clip0)">
<g filter="url(#filter0_d)">
<rect width="70" height="70" rx="9" fill="#6EB1B7"/>
</g>
<path d="M32.48 33.8667H28.9467C28.1067 33.8667 27.4267 34.5466 27.4267 35.3866V42.2133H32.48V33.8667V33.8667Z" stroke="white" stroke-width="1.5" stroke-miterlimit="10" stroke-linecap="round" stroke-linejoin="round"/>
<path d="M36.015 27.8H33.9883C33.1483 27.8 32.4684 28.48 32.4684 29.32V42.2001H37.5217V29.32C37.5217 28.48 36.855 27.8 36.015 27.8Z" stroke="white" stroke-width="1.5" stroke-miterlimit="10" stroke-linecap="round" stroke-linejoin="round"/>
<path d="M41.0642 36.1333H37.5309V42.2H42.5842V37.6533C42.5709 36.8133 41.8908 36.1333 41.0642 36.1333Z" stroke="white" stroke-width="1.5" stroke-miterlimit="10" stroke-linecap="round" stroke-linejoin="round"/>
<path d="M31 48.3334H39C45.6667 48.3334 48.3333 45.6667 48.3333 39V31C48.3333 24.3334 45.6667 21.6667 39 21.6667H31C24.3333 21.6667 21.6667 24.3334 21.6667 31V39C21.6667 45.6667 24.3333 48.3334 31 48.3334Z" stroke="white" stroke-width="2" stroke-linecap="round" stroke-linejoin="round"/>
</g>
<defs>
<filter id="filter0_d" x="-24" y="-2" width="118" height="118" filterUnits="userSpaceOnUse" color-interpolation-filters="sRGB">
<feFlood flood-opacity="0" result="BackgroundImageFix"/>
<feColorMatrix in="SourceAlpha" type="matrix" values="0 0 0 0 0 0 0 0 0 0 0 0 0 0 0 0 0 0 127 0" result="hardAlpha"/>
<feOffset dy="22"/>
<feGaussianBlur stdDeviation="12"/>
<feColorMatrix type="matrix" values="0 0 0 0 0.168627 0 0 0 0 0.839216 0 0 0 0 0.482353 0 0 0 0.2 0"/>
<feBlend mode="normal" in2="BackgroundImageFix" result="effect1_dropShadow"/>
<feBlend mode="normal" in="SourceGraphic" in2="effect1_dropShadow" result="shape"/>
</filter>
<clipPath id="clip0">
<rect width="70" height="70" fill="white"/>
</clipPath>
</defs>
</svg>
