<svg width="70" height="70" viewBox="0 0 70 70" fill="none" xmlns="http://www.w3.org/2000/svg">
<g clip-path="url(#clip0)">
<g filter="url(#filter0_d)">
<rect width="70" height="70" rx="9" fill="#416FF4"/>
</g>
<path d="M32.9867 21.9733L26.3334 24.48C24.8001 25.0533 23.5467 26.8667 23.5467 28.4933V38.4C23.5467 39.9733 24.5867 42.04 25.8534 42.9867L31.5867 47.2667C33.4667 48.68 36.5601 48.68 38.4401 47.2667L44.1734 42.9867C45.4401 42.04 46.4801 39.9733 46.4801 38.4V28.4933C46.4801 26.8533 45.2267 25.04 43.6934 24.4667L37.0401 21.9733C35.9067 21.56 34.0934 21.56 32.9867 21.9733Z" stroke="white" stroke-width="3" stroke-linecap="round" stroke-linejoin="round"/>
<path d="M35 35.6666C36.4728 35.6666 37.6667 34.4727 37.6667 33C37.6667 31.5272 36.4728 30.3333 35 30.3333C33.5273 30.3333 32.3333 31.5272 32.3333 33C32.3333 34.4727 33.5273 35.6666 35 35.6666Z" stroke="white" stroke-width="1.5" stroke-miterlimit="10" stroke-linecap="round" stroke-linejoin="round"/>
<path d="M35 35.6667V39.6667" stroke="white" stroke-width="1.5" stroke-miterlimit="10" stroke-linecap="round" stroke-linejoin="round"/>
</g>
<defs>
<filter id="filter0_d" x="-24" y="-2" width="118" height="118" filterUnits="userSpaceOnUse" color-interpolation-filters="sRGB">
<feFlood flood-opacity="0" result="BackgroundImageFix"/>
<feColorMatrix in="SourceAlpha" type="matrix" values="0 0 0 0 0 0 0 0 0 0 0 0 0 0 0 0 0 0 127 0" result="hardAlpha"/>
<feOffset dy="22"/>
<feGaussianBlur stdDeviation="12"/>
<feColorMatrix type="matrix" values="0 0 0 0 0.254902 0 0 0 0 0.435294 0 0 0 0 0.956863 0 0 0 0.2 0"/>
<feBlend mode="normal" in2="BackgroundImageFix" result="effect1_dropShadow"/>
<feBlend mode="normal" in="SourceGraphic" in2="effect1_dropShadow" result="shape"/>
</filter>
<clipPath id="clip0">
<rect width="70" height="70" fill="white"/>
</clipPath>
</defs>
</svg>
