<svg width="32" height="32" viewBox="0 0 32 32" fill="none" xmlns="http://www.w3.org/2000/svg">
<path opacity="0.1" d="M16.7619 0H15.2381C6.82233 0 0 7.16344 0 16C0 24.8366 6.82233 32 15.2381 32H16.7619C25.1777 32 32 24.8366 32 16C32 7.16344 25.1777 0 16.7619 0Z" fill="white"/>
<path d="M21.0874 13.6665C21.5636 13.2916 21.9921 12.8416 22.3255 12.3165C21.8969 12.5165 21.3968 12.6665 20.8969 12.7165C21.4207 12.3916 21.8016 11.8916 21.9921 11.2665C21.5159 11.5665 20.9683 11.7916 20.4207 11.9165C19.9445 11.3916 19.3016 11.0916 18.5873 11.0916C17.2064 11.0916 16.0874 12.2665 16.0874 13.7165C16.0874 13.9165 16.1111 14.1165 16.1588 14.3165C14.0874 14.1916 12.2302 13.1416 10.9921 11.5665C10.7778 11.9416 10.6588 12.3916 10.6588 12.8916C10.6588 13.7916 11.0874 14.5916 11.7778 15.0665C11.3731 15.0416 10.9683 14.9416 10.6349 14.7416V14.7665C10.6349 16.0416 11.4921 17.0916 12.6349 17.3416C12.4445 17.3916 12.2064 17.4416 11.9921 17.4416C11.8254 17.4416 11.6826 17.4165 11.5159 17.3916C11.8254 18.4416 12.754 19.1916 13.8493 19.2165C12.9921 19.9165 11.9207 20.3416 10.754 20.3416C10.5397 20.3416 10.3492 20.3165 10.1588 20.2916C11.254 21.0416 12.5636 21.4665 13.9921 21.4665C18.5873 21.4665 21.0874 17.4916 21.0874 14.0165C21.0874 13.8916 21.0874 13.7916 21.0874 13.6665Z" fill="white"/>
</svg>
