<svg width="13" height="11" viewBox="0 0 13 11" fill="none" xmlns="http://www.w3.org/2000/svg">
<path d="M11.0874 2.66651C11.5636 2.29155 11.9921 1.84155 12.3255 1.31651C11.8969 1.51651 11.3968 1.66651 10.8969 1.71651C11.4207 1.39155 11.8016 0.891553 11.9921 0.266513C11.5159 0.566513 10.9683 0.791553 10.4207 0.916513C9.9445 0.391553 9.30161 0.0915527 8.58732 0.0915527C7.20637 0.0915527 6.08736 1.26651 6.08736 2.71651C6.08736 2.91651 6.11113 3.11651 6.15875 3.31651C4.08736 3.19155 2.23022 2.14155 0.992124 0.566513C0.7778 0.941553 0.658791 1.39155 0.658791 1.89155C0.658791 2.79155 1.08736 3.59155 1.7778 4.06651C1.37308 4.04155 0.968276 3.94155 0.634943 3.74155V3.76651C0.634943 5.04155 1.49209 6.09155 2.63494 6.34155C2.44447 6.39155 2.20637 6.44155 1.99212 6.44155C1.82542 6.44155 1.68256 6.41651 1.51593 6.39155C1.82542 7.44155 2.75403 8.19155 3.84927 8.21651C2.99212 8.91651 1.92066 9.34155 0.754029 9.34155C0.539705 9.34155 0.349229 9.31651 0.158752 9.29155C1.25399 10.0416 2.56355 10.4665 3.99212 10.4665C8.58732 10.4665 11.0874 6.49155 11.0874 3.01651C11.0874 2.89155 11.0874 2.79155 11.0874 2.66651Z" fill="#737A91"/>
</svg>
